<svg width="40" height="40" fill="none" xmlns="http://www.w3.org/2000/svg"><circle opacity=".12" cx="20" cy="20" r="20" fill="#fff"/><path fill-rule="evenodd" clip-rule="evenodd" d="M22 25.584c.583.416 1.333.083 1.333-.667v-3.75l-3.084 3.083L22 25.584zm5.25-11.167a.806.806 0 00-1.167 0l-2.75 2.75v-2.083c0-.667-.834-1.084-1.334-.667l-2.333 1.917c-.333.166-.667.333-1.083.333h-1.917c-.917 0-1.667.75-1.667 1.667v3.333c0 .917.75 1.667 1.667 1.667h.5l-2.75 2.75a.806.806 0 000 1.166.805.805 0 001.167 0l11.666-11.666a.806.806 0 000-1.167z" fill="#fff"/></svg>