<svg width="148" height="148" fill="none" xmlns="http://www.w3.org/2000/svg"><g clip-path="url(#clip0_2199_194)"><circle opacity=".3" cx="74" cy="74" r="71" stroke="#F89828" stroke-width="6"/><path d="M74 142c37.555 0 68-30.445 68-68S111.555 6 74 6V0c40.869 0 74 33.13 74 74 0 40.869-33.131 74-74 74-40.87 0-74-33.131-74-74 0-22.651 10.177-42.926 26.209-56.5L30 22.152C15.317 34.625 6 53.225 6 74c0 37.555 30.445 68 68 68z" fill="#F89828"/><path d="M58.47 82.416h4.48v-11.76c0-.576.015-1.179.047-1.808l-2.64 2.192c-.17.139-.34.24-.511.304a1.66 1.66 0 01-1.248-.096 1.703 1.703 0 01-.48-.4l-1.569-2.08 7.264-6.096h4.096v19.744h3.84V86H58.47v-3.584zm32.45-8.08c0 2.037-.219 3.803-.656 5.296-.437 1.493-1.045 2.73-1.824 3.712-.768.981-1.685 1.712-2.752 2.192-1.056.48-2.203.72-3.44.72s-2.384-.24-3.44-.72c-1.045-.48-1.952-1.21-2.72-2.192-.768-.981-1.37-2.219-1.808-3.712-.427-1.493-.64-3.259-.64-5.296 0-2.037.213-3.803.64-5.296.437-1.493 1.04-2.73 1.808-3.712.768-.981 1.675-1.707 2.72-2.176 1.056-.48 2.203-.72 3.44-.72s2.384.24 3.44.72c1.067.47 1.984 1.195 2.752 2.176.779.981 1.387 2.219 1.824 3.712.437 1.493.656 3.259.656 5.296zm-5.12 0c0-1.61-.101-2.928-.304-3.952-.203-1.035-.475-1.845-.816-2.432-.33-.587-.71-.987-1.136-1.2a2.762 2.762 0 00-1.296-.336c-.437 0-.87.112-1.296.336-.416.213-.79.613-1.12 1.2-.32.587-.581 1.397-.784 2.432-.192 1.024-.288 2.341-.288 3.952 0 1.621.096 2.944.288 3.968.203 1.024.464 1.835.784 2.432.33.587.704.992 1.12 1.216.427.213.859.32 1.296.32.437 0 .87-.107 1.296-.32.427-.224.805-.63 1.136-1.216.341-.597.613-1.408.816-2.432.203-1.024.304-2.347.304-3.968z" fill="#1E212C"/></g><defs><clipPath id="clip0_2199_194"><path fill="#fff" d="M0 0h148v148H0z"/></clipPath></defs></svg>