<svg width="148" height="148" fill="none" xmlns="http://www.w3.org/2000/svg"><g clip-path="url(#clip0_2199_188)"><circle opacity=".3" cx="74" cy="74" r="71" stroke="#F52F6E" stroke-width="6"/><path d="M74 142c37.555 0 68-30.445 68-68S111.555 6 74 6V0c40.869 0 74 33.13 74 74 0 40.869-33.131 74-74 74-40.87 0-74-33.131-74-74h6c0 37.555 30.445 68 68 68z" fill="#F52F6E"/><path d="M70.053 76.944h2.4v2.784a.903.903 0 01-.255.64c-.16.181-.395.272-.704.272h-1.44V86h-4.32v-5.36h-9.376a1.38 1.38 0 01-.848-.288 1.235 1.235 0 01-.465-.72l-.512-2.448 10.784-14.496h4.737v14.256zm-4.32-6.08c0-.373.011-.773.032-1.2.032-.437.075-.885.129-1.344l-6.16 8.624h6v-6.08zm23.235-6.128c0 .341-.053.65-.16.928a1.918 1.918 0 01-.512.736c-.224.203-.523.363-.896.48-.373.107-.821.16-1.344.16h-5.568l-.656 3.856c.437-.075.859-.128 1.264-.16.405-.043.8-.064 1.184-.064 1.227 0 2.31.187 3.248.56.939.373 1.728.885 2.368 1.536.64.64 1.12 1.397 1.44 2.272.33.864.496 1.792.496 2.784 0 1.248-.224 2.39-.672 3.424a7.864 7.864 0 01-1.84 2.656c-.79.747-1.733 1.328-2.832 1.744-1.088.405-2.283.608-3.584.608a9.65 9.65 0 01-2.176-.24 11.13 11.13 0 01-1.936-.64 11.413 11.413 0 01-1.664-.944 11.587 11.587 0 01-1.392-1.152l1.536-2.048c.16-.213.347-.373.56-.48.213-.117.443-.176.688-.176.32 0 .619.09.896.272.288.17.597.363.928.576.341.203.736.39 1.184.56.448.17 1.003.256 1.664.256s1.227-.107 1.696-.32c.47-.224.848-.523 1.136-.896.299-.384.512-.827.64-1.328a6.218 6.218 0 00.208-1.632c0-1.13-.32-1.99-.96-2.576-.64-.597-1.547-.896-2.72-.896a8.32 8.32 0 00-3.072.592l-3.072-.832 1.984-11.664h11.936v2.048z" fill="#1E212C"/></g><defs><clipPath id="clip0_2199_188"><path fill="#fff" d="M0 0h148v148H0z"/></clipPath></defs></svg>