<svg width="148" height="148" fill="none" xmlns="http://www.w3.org/2000/svg"><g clip-path="url(#clip0_2199_177)"><circle cx="74" cy="74" r="71" stroke="#03CEA4" stroke-width="6"/><path d="M36.094 82.416h4.48v-11.76c0-.576.017-1.179.049-1.808l-2.64 2.192c-.171.139-.342.24-.512.304a1.66 1.66 0 01-1.248-.096 1.703 1.703 0 01-.48-.4l-1.569-2.08 7.264-6.096h4.096v19.744h3.84V86h-13.28v-3.584zm32.451-8.08c0 2.037-.219 3.803-.656 5.296-.437 1.493-1.045 2.73-1.824 3.712-.768.981-1.685 1.712-2.752 2.192-1.056.48-2.203.72-3.44.72s-2.384-.24-3.44-.72c-1.045-.48-1.952-1.21-2.72-2.192-.768-.981-1.37-2.219-1.808-3.712-.427-1.493-.64-3.259-.64-5.296 0-2.037.213-3.803.64-5.296.437-1.493 1.04-2.73 1.808-3.712.768-.981 1.675-1.707 2.72-2.176 1.056-.48 2.203-.72 3.44-.72s2.384.24 3.44.72c1.067.47 1.984 1.195 2.752 2.176.779.981 1.387 2.219 1.824 3.712.437 1.493.656 3.259.656 5.296zm-5.12 0c0-1.61-.101-2.928-.304-3.952-.203-1.035-.475-1.845-.816-2.432-.33-.587-.71-.987-1.136-1.2a2.762 2.762 0 00-1.296-.336c-.437 0-.87.112-1.296.336-.416.213-.79.613-1.12 1.2-.32.587-.581 1.397-.784 2.432-.192 1.024-.288 2.341-.288 3.952 0 1.621.096 2.944.288 3.968.203 1.024.464 1.835.784 2.432.33.587.704.992 1.12 1.216.427.213.859.32 1.296.32.437 0 .87-.107 1.296-.32.427-.224.805-.63 1.136-1.216.341-.597.613-1.408.816-2.432.203-1.024.304-2.347.304-3.968zm23.683 0c0 2.037-.22 3.803-.657 5.296-.437 1.493-1.045 2.73-1.823 3.712-.769.981-1.686 1.712-2.752 2.192-1.056.48-2.203.72-3.44.72-1.238 0-2.385-.24-3.44-.72-1.046-.48-1.953-1.21-2.72-2.192-.769-.981-1.371-2.219-1.808-3.712-.427-1.493-.64-3.259-.64-5.296 0-2.037.213-3.803.64-5.296.437-1.493 1.04-2.73 1.807-3.712.768-.981 1.675-1.707 2.72-2.176 1.056-.48 2.203-.72 3.44-.72 1.238 0 2.385.24 3.44.72 1.067.47 1.984 1.195 2.752 2.176.78.981 1.387 2.219 1.825 3.712.437 1.493.656 3.259.656 5.296zm-5.12 0c0-1.61-.102-2.928-.305-3.952-.202-1.035-.474-1.845-.816-2.432-.33-.587-.709-.987-1.136-1.2a2.762 2.762 0 00-1.295-.336c-.438 0-.87.112-1.297.336-.415.213-.789.613-1.12 1.2-.32.587-.58 1.397-.784 2.432-.192 1.024-.287 2.341-.287 3.952 0 1.621.096 2.944.288 3.968.202 1.024.463 1.835.783 2.432.331.587.704.992 1.12 1.216.427.213.86.32 1.297.32a2.87 2.87 0 001.295-.32c.427-.224.806-.63 1.137-1.216.34-.597.613-1.408.816-2.432.202-1.024.303-2.347.303-3.968zm17.73-6c0 .853-.155 1.632-.464 2.336a5.913 5.913 0 01-1.232 1.824c-.512.501-1.11.89-1.792 1.168a5.483 5.483 0 01-2.112.416c-.81 0-1.557-.139-2.24-.416a5.345 5.345 0 01-1.76-1.168 5.534 5.534 0 01-1.152-1.824c-.277-.704-.416-1.483-.416-2.336 0-.885.139-1.685.416-2.4a5.466 5.466 0 011.152-1.856 5.226 5.226 0 011.76-1.184 5.705 5.705 0 012.24-.432c.81 0 1.557.144 2.24.432a4.993 4.993 0 011.776 1.184 5.35 5.35 0 011.168 1.856c.277.715.416 1.515.416 2.4zm-3.808 0c0-.544-.048-.992-.144-1.344-.085-.363-.208-.65-.368-.864a1.29 1.29 0 00-.576-.448 1.88 1.88 0 00-.704-.128c-.256 0-.49.043-.704.128a1.212 1.212 0 00-.544.448c-.15.213-.267.501-.352.864-.085.352-.128.8-.128 1.344 0 .512.043.939.128 1.28.085.341.203.613.352.816.15.203.33.347.544.432.213.085.448.128.704.128.256 0 .49-.043.704-.128a1.33 1.33 0 00.576-.432c.16-.203.283-.475.368-.816.096-.341.144-.768.144-1.28zm11.136-4.912c.16-.181.357-.347.592-.496.235-.16.56-.24.976-.24h3.616L94.662 85.296a2.05 2.05 0 01-.608.512c-.235.128-.523.192-.864.192h-3.712l17.568-22.576zm6.08 17.104c0 .853-.155 1.637-.464 2.352a5.908 5.908 0 01-1.232 1.824 5.48 5.48 0 01-1.792 1.168 5.483 5.483 0 01-2.112.416 5.897 5.897 0 01-2.24-.416 5.342 5.342 0 01-1.76-1.168 5.525 5.525 0 01-1.152-1.824 6.456 6.456 0 01-.416-2.352c0-.885.139-1.685.416-2.4a5.457 5.457 0 011.152-1.856 5.223 5.223 0 011.76-1.184 5.705 5.705 0 012.24-.432c.811 0 1.557.144 2.24.432a4.998 4.998 0 011.776 1.184c.501.512.891 1.13 1.168 1.856.277.715.416 1.515.416 2.4zm-3.808 0c0-.533-.048-.976-.144-1.328-.085-.363-.208-.65-.368-.864a1.29 1.29 0 00-.576-.448 1.879 1.879 0 00-.704-.128c-.256 0-.491.043-.704.128a1.212 1.212 0 00-.544.448c-.149.213-.267.501-.352.864-.085.352-.128.795-.128 1.328 0 .512.043.939.128 1.28.085.341.203.613.352.816.149.203.331.347.544.432.213.085.448.128.704.128.256 0 .491-.043.704-.128a1.33 1.33 0 00.576-.432c.16-.203.283-.475.368-.816.096-.341.144-.768.144-1.28z" fill="#1E212C"/></g><defs><clipPath id="clip0_2199_177"><path fill="#fff" d="M0 0h148v148H0z"/></clipPath></defs></svg>