<svg width="40" height="40" fill="none" xmlns="http://www.w3.org/2000/svg"><g clip-path="url(#clip0_95_1963)" fill="#7772F1"><path d="M37.791 22.035A14.305 14.305 0 0040 14.375C40 6.449 33.55 0 25.625 0c-2.655 0-5.25.73-7.502 2.11a.781.781 0 10.817 1.333 12.785 12.785 0 016.685-1.88c7.065 0 12.812 5.747 12.812 12.812 0 2.562-.753 5.035-2.18 7.15a.781.781 0 00.022.905l.856 3.195-3.436-.921a.781.781 0 00-.655.118 12.725 12.725 0 01-7.42 2.365c-1.525 0-3.018-.266-4.437-.79-1-3.68-3.903-6.584-7.583-7.584a12.759 12.759 0 01-.791-4.438c0-2.393.663-4.727 1.919-6.749a.781.781 0 00-1.328-.824 14.34 14.34 0 00-2.154 7.573c0 1.405.202 2.785.6 4.116a10.868 10.868 0 00-1.069-.053C4.836 18.438 0 23.274 0 29.218c0 2.134.617 4.183 1.787 5.948l-.836 3.12a.781.781 0 00.957.957l3.198-.856A10.734 10.734 0 0010.781 40c2.054 0 4.051-.58 5.777-1.676a.781.781 0 00-.839-1.32 9.188 9.188 0 01-4.938 1.434 9.174 9.174 0 01-5.11-1.546.781.781 0 00-.635-.104l-2.225.596.579-2.162a.781.781 0 00-.119-.656 9.155 9.155 0 01-1.709-5.347c0-5.084 4.136-9.219 9.22-9.219C15.863 20 20 24.136 20 29.22a9.191 9.191 0 01-.555 3.158.781.781 0 101.468.535 10.747 10.747 0 00.596-4.761c1.331.397 2.711.599 4.116.599 2.88 0 5.645-.844 8.02-2.443l4.393 1.177a.781.781 0 00.957-.957l-1.204-4.492z"/><path d="M29.652 16.04h-7.958a.781.781 0 00-.78.78 4.765 4.765 0 004.759 4.76 4.765 4.765 0 004.76-4.76.781.781 0 00-.781-.78zm-3.979 3.978a3.203 3.203 0 01-3.1-2.416h6.2a3.203 3.203 0 01-3.1 2.416zm6.085-8.314a.781.781 0 00-1.075-.256l-.101.063a.781.781 0 10.821 1.33l.1-.063a.781.781 0 00.255-1.074zm-10.734 0a.781.781 0 00-1.075-.256l-.102.063a.781.781 0 10.822 1.33l.1-.063a.781.781 0 00.255-1.075zM7.037 28.666a.787.787 0 00-.553-.229.787.787 0 00-.552.23.787.787 0 00-.229.552c0 .205.084.407.229.552a.787.787 0 00.552.229.787.787 0 00.553-.229.787.787 0 00.229-.552.787.787 0 00-.23-.553zm4.297 0a.787.787 0 00-.553-.229.787.787 0 00-.552.23.787.787 0 00-.229.552c0 .205.084.407.229.552a.787.787 0 00.552.229.787.787 0 00.553-.229.787.787 0 00.229-.552.787.787 0 00-.23-.553zm4.296 0a.787.787 0 00-.552-.229.787.787 0 00-.552.23.787.787 0 00-.23.552.787.787 0 00.781.781.787.787 0 00.553-.229.787.787 0 00.23-.552.787.787 0 00-.23-.553zm3.498 6.266a.787.787 0 00-.553-.229.786.786 0 00-.781.781.786.786 0 00.781.781.787.787 0 00.553-.228.787.787 0 00.228-.553.787.787 0 00-.229-.552zM16.591 4.185a.786.786 0 00-1.104 0 .786.786 0 000 1.106.785.785 0 001.104 0 .787.787 0 00.23-.553.789.789 0 00-.23-.553z"/></g><defs><clipPath id="clip0_95_1963"><path fill="#fff" d="M0 0h40v40H0z"/></clipPath></defs></svg>