<svg width="102" height="48" fill="none" xmlns="http://www.w3.org/2000/svg"><g clip-path="url(#clip0_147_733)" fill="#1E212C"><path d="M6.31 21.07c.707-.093 1.24-.33 1.6-.71.367-.387.55-.89.55-1.51a1.46 1.46 0 00-.14-.66 1.483 1.483 0 00-.38-.51 2.36 2.36 0 00-.57-.38 7.305 7.305 0 00-.72-.3l-.34 4.07zM5.67 10.5a3.49 3.49 0 00-.95.24c-.26.107-.473.24-.64.4-.167.16-.29.34-.37.54-.073.2-.11.41-.11.63 0 .253.043.477.13.67.093.187.217.357.37.51.16.147.347.28.56.4.213.113.447.22.7.32l.31-3.71zm1.17 4.19c.48.147.957.31 1.43.49.473.173.897.4 1.27.68.38.28.687.63.92 1.05.233.413.35.933.35 1.56 0 .62-.103 1.203-.31 1.75-.207.54-.51 1.02-.91 1.44-.4.413-.89.753-1.47 1.02-.58.26-1.243.413-1.99.46l-.12 1.47a.624.624 0 01-.2.42.591.591 0 01-.46.2h-.91l.18-2.14a7.622 7.622 0 01-2.2-.64 6.184 6.184 0 01-1.75-1.19l.76-1.13c.067-.1.153-.18.26-.24a.699.699 0 01.36-.1c.147 0 .303.053.47.16.167.1.357.22.57.36.213.133.457.27.73.41.273.14.597.243.97.31l.37-4.47c-.473-.133-.943-.29-1.41-.47a4.9 4.9 0 01-1.25-.71 3.404 3.404 0 01-.89-1.13c-.227-.453-.34-1.02-.34-1.7 0-.507.1-1 .3-1.48.2-.487.493-.92.88-1.3a4.81 4.81 0 011.44-.94c.567-.247 1.217-.387 1.95-.42l.11-1.26a.697.697 0 01.2-.43.618.618 0 01.47-.19h.91l-.16 1.96c.707.113 1.317.317 1.83.61.513.287.957.61 1.33.97l-.6.91a1.099 1.099 0 01-.27.3.57.57 0 01-.34.1c-.1 0-.22-.03-.36-.09-.14-.067-.297-.143-.47-.23a7.092 7.092 0 00-.59-.28 4.035 4.035 0 00-.71-.23l-.35 4.14zm15.112 6.46V23h-8v-1.85h2.93v-8.43c0-.333.01-.677.03-1.03l-2.08 1.74a.915.915 0 01-.36.18.87.87 0 01-.6-.1.635.635 0 01-.18-.17l-.78-1.07 4.41-3.75h2.03v12.63h2.6zm11.061-.45c.267 0 .477.077.63.23.16.147.24.343.24.59V23h-9.92v-.82a1.392 1.392 0 01.44-1.02l4.39-4.4c.367-.373.694-.73.98-1.07a6.71 6.71 0 00.73-1.01c.194-.333.34-.67.44-1.01.107-.347.16-.71.16-1.09 0-.347-.05-.65-.15-.91-.1-.267-.243-.49-.43-.67a1.66 1.66 0 00-.66-.4 2.476 2.476 0 00-.86-.14c-.293 0-.567.043-.82.13a2.09 2.09 0 00-.66.35c-.193.147-.357.32-.49.52s-.233.42-.3.66c-.113.307-.26.51-.44.61-.18.1-.44.123-.78.07l-1.3-.23c.1-.693.293-1.3.58-1.82a4.33 4.33 0 011.07-1.31 4.398 4.398 0 011.48-.79c.56-.18 1.16-.27 1.8-.27.667 0 1.277.1 1.83.3.553.193 1.027.47 1.42.83s.7.793.92 1.3a4.2 4.2 0 01.33 1.69c0 .533-.08 1.027-.24 1.48a5.844 5.844 0 01-.63 1.3c-.26.413-.567.813-.92 1.2-.353.387-.723.78-1.11 1.18l-3.26 3.33a6.9 6.9 0 01.93-.21c.314-.053.61-.08.89-.08h3.71zm2.972 4.75a.464.464 0 01-.18-.37.41.41 0 01.05-.18.93.93 0 01.14-.18l.27-.3a3.61 3.61 0 00.32-.4c.106-.147.203-.31.29-.49.093-.173.163-.36.21-.56-.214 0-.407-.037-.58-.11a1.456 1.456 0 01-.45-.32 1.593 1.593 0 01-.29-.47 1.68 1.68 0 01-.1-.59c0-.187.033-.36.1-.52a1.3 1.3 0 01.3-.43 1.26 1.26 0 01.46-.29c.18-.073.376-.11.59-.11.253 0 .473.047.66.14.193.087.35.21.47.37.126.153.22.333.28.54.066.2.1.413.1.64 0 .32-.05.657-.15 1.01a5.004 5.004 0 01-.42 1.06c-.187.353-.42.697-.7 1.03-.274.333-.587.64-.94.92l-.43-.39zm14.607-9.68c0 1.26-.136 2.357-.41 3.29-.267.927-.64 1.693-1.12 2.3a4.523 4.523 0 01-1.69 1.36 5.024 5.024 0 01-2.1.44 5.024 5.024 0 01-2.1-.44 4.569 4.569 0 01-1.67-1.36c-.473-.607-.843-1.373-1.11-2.3-.267-.933-.4-2.03-.4-3.29 0-1.267.134-2.363.4-3.29.267-.927.637-1.693 1.11-2.3.473-.607 1.03-1.057 1.67-1.35a4.93 4.93 0 012.1-.45c.754 0 1.453.15 2.1.45a4.432 4.432 0 011.69 1.35c.48.607.854 1.373 1.12 2.3.273.927.41 2.023.41 3.29zm-2.55 0c0-1.047-.077-1.913-.23-2.6-.153-.687-.36-1.233-.62-1.64-.253-.407-.547-.69-.88-.85a2.297 2.297 0 00-1.04-.25c-.353 0-.697.083-1.03.25-.326.16-.616.443-.87.85-.253.407-.456.953-.61 1.64-.147.687-.22 1.553-.22 2.6 0 1.047.073 1.913.22 2.6.154.687.357 1.233.61 1.64.254.407.544.693.87.86a2.355 2.355 0 002.07 0c.334-.167.627-.453.88-.86.26-.407.467-.953.62-1.64.154-.687.23-1.553.23-2.6zm14.152 0c0 1.26-.137 2.357-.41 3.29-.267.927-.64 1.693-1.12 2.3a4.524 4.524 0 01-1.69 1.36 5.024 5.024 0 01-2.1.44 5.023 5.023 0 01-2.1-.44 4.569 4.569 0 01-1.67-1.36c-.474-.607-.844-1.373-1.11-2.3-.267-.933-.4-2.03-.4-3.29 0-1.267.133-2.363.4-3.29.266-.927.636-1.693 1.11-2.3.473-.607 1.03-1.057 1.67-1.35.646-.3 1.346-.45 2.1-.45.753 0 1.453.15 2.1.45a4.433 4.433 0 011.69 1.35c.48.607.853 1.373 1.12 2.3.273.927.41 2.023.41 3.29zm-2.55 0c0-1.047-.077-1.913-.23-2.6-.154-.687-.36-1.233-.62-1.64-.254-.407-.547-.69-.88-.85a2.297 2.297 0 00-1.04-.25 2.27 2.27 0 00-1.03.25c-.327.16-.617.443-.87.85-.254.407-.457.953-.61 1.64-.147.687-.22 1.553-.22 2.6 0 1.047.073 1.913.22 2.6.153.687.356 1.233.61 1.64.253.407.543.693.87.86a2.354 2.354 0 002.07 0c.333-.167.626-.453.88-.86.26-.407.466-.953.62-1.64.153-.687.23-1.553.23-2.6zm14.151 0c0 1.26-.136 2.357-.41 3.29-.266.927-.64 1.693-1.12 2.3a4.523 4.523 0 01-1.69 1.36 5.024 5.024 0 01-2.1.44 5.024 5.024 0 01-2.1-.44 4.569 4.569 0 01-1.67-1.36c-.473-.607-.843-1.373-1.11-2.3-.266-.933-.4-2.03-.4-3.29 0-1.267.134-2.363.4-3.29.267-.927.637-1.693 1.11-2.3.474-.607 1.03-1.057 1.67-1.35a4.93 4.93 0 012.1-.45c.754 0 1.454.15 2.1.45a4.432 4.432 0 011.69 1.35c.48.607.854 1.373 1.12 2.3.274.927.41 2.023.41 3.29zm-2.55 0c0-1.047-.076-1.913-.23-2.6-.153-.687-.36-1.233-.62-1.64-.253-.407-.546-.69-.88-.85a2.297 2.297 0 00-1.04-.25c-.353 0-.696.083-1.03.25-.326.16-.616.443-.87.85-.253.407-.456.953-.61 1.64-.146.687-.22 1.553-.22 2.6 0 1.047.074 1.913.22 2.6.154.687.357 1.233.61 1.64.254.407.544.693.87.86a2.355 2.355 0 002.07 0c.334-.167.627-.453.88-.86.26-.407.467-.953.62-1.64.154-.687.23-1.553.23-2.6zM2.262 44H1.098v-8.598h1.164V44zm2.862-5.196c.132-.148.272-.282.42-.402.148-.12.304-.222.468-.306a2.443 2.443 0 011.134-.27c.332 0 .624.056.876.168.256.108.468.264.636.468.172.2.302.442.39.726.088.284.132.598.132.942V44H8.106v-3.87c0-.46-.106-.816-.318-1.068-.208-.256-.526-.384-.954-.384-.316 0-.612.076-.888.228a2.936 2.936 0 00-.756.618V44H4.116v-6.078h.642c.152 0 .246.074.282.222l.084.66zm9.913.198a.477.477 0 01-.096.102.216.216 0 01-.132.036.365.365 0 01-.198-.072 2.74 2.74 0 00-.27-.168 1.91 1.91 0 00-.39-.162 1.76 1.76 0 00-.564-.078c-.3 0-.564.054-.792.162-.228.104-.42.256-.576.456a2.15 2.15 0 00-.348.726 3.692 3.692 0 00-.114.954c0 .368.042.696.126.984.084.284.202.524.354.72.156.192.342.34.558.444.22.1.466.15.738.15.26 0 .474-.03.642-.09.168-.064.306-.134.414-.21.112-.076.204-.144.276-.204a.35.35 0 01.222-.096c.088 0 .156.034.204.102l.3.39a2.128 2.128 0 01-.45.42c-.168.116-.35.214-.546.294a3.011 3.011 0 01-.606.168 3.864 3.864 0 01-.648.054c-.38 0-.734-.07-1.062-.21a2.44 2.44 0 01-.846-.606 2.885 2.885 0 01-.564-.984 3.997 3.997 0 01-.204-1.326c0-.452.062-.87.186-1.254.128-.384.312-.714.552-.99.244-.28.542-.498.894-.654a3.023 3.023 0 011.224-.234c.428 0 .804.07 1.128.21.328.136.618.33.87.582l-.282.384zm2.514.138c.192-.416.428-.74.708-.972.28-.236.622-.354 1.026-.354.128 0 .25.014.366.042.12.028.226.072.318.132l-.078.798c-.024.1-.084.15-.18.15-.056 0-.138-.012-.246-.036a1.694 1.694 0 00-.366-.036c-.192 0-.364.028-.516.084-.148.056-.282.14-.402.252a1.782 1.782 0 00-.318.408c-.092.16-.176.344-.252.552V44h-1.074v-6.078h.612c.116 0 .196.022.24.066.044.044.074.12.09.228l.072.924zm7.18 1.158c0-.248-.037-.474-.109-.678a1.437 1.437 0 00-.306-.534 1.292 1.292 0 00-.486-.348 1.616 1.616 0 00-.654-.126c-.512 0-.918.15-1.218.45-.296.296-.48.708-.552 1.236h3.324zm.863 2.85c-.132.16-.29.3-.474.42a3.022 3.022 0 01-.594.288 3.503 3.503 0 01-.648.168c-.224.04-.446.06-.666.06-.42 0-.808-.07-1.164-.21a2.636 2.636 0 01-.918-.624 2.919 2.919 0 01-.6-1.02 4.135 4.135 0 01-.216-1.392c0-.424.064-.82.192-1.188.132-.368.32-.686.564-.954.244-.272.542-.484.894-.636a2.902 2.902 0 011.188-.234c.364 0 .7.062 1.008.186.312.12.58.296.804.528.228.228.406.512.534.852.128.336.192.72.192 1.152 0 .168-.018.28-.054.336-.036.056-.104.084-.204.084H21.37c.012.384.064.718.156 1.002.096.284.228.522.396.714.168.188.368.33.6.426a2.1 2.1 0 00.78.138c.268 0 .498-.03.69-.09a3.456 3.456 0 00.852-.402.47.47 0 01.246-.096c.088 0 .156.034.204.102l.3.39zm4.702-1.884a8.645 8.645 0 00-1.26.12c-.344.06-.626.14-.846.24-.216.1-.374.218-.474.354a.772.772 0 00-.144.456c0 .16.026.298.078.414a.814.814 0 00.21.288.956.956 0 00.318.162c.124.032.256.048.396.048.188 0 .36-.018.516-.054.156-.04.302-.096.438-.168.14-.072.272-.158.396-.258.128-.1.252-.214.372-.342v-1.26zm-3.45-2.484a3.47 3.47 0 011.086-.726c.388-.16.818-.24 1.29-.24.34 0 .642.056.906.168.264.112.486.268.666.468.18.2.316.442.408.726.092.284.138.596.138.936V44h-.474a.49.49 0 01-.24-.048c-.056-.036-.1-.104-.132-.204l-.12-.576a6.48 6.48 0 01-.468.396 2.93 2.93 0 01-.48.288 2.585 2.585 0 01-.54.174 2.77 2.77 0 01-.63.066c-.236 0-.458-.032-.666-.096a1.61 1.61 0 01-.546-.3 1.453 1.453 0 01-.366-.498 1.807 1.807 0 01-.132-.72c0-.24.066-.47.198-.69.132-.224.346-.422.642-.594.296-.172.682-.312 1.158-.42.476-.112 1.06-.176 1.752-.192v-.474c0-.472-.102-.828-.306-1.068-.204-.244-.502-.366-.894-.366-.264 0-.486.034-.666.102-.176.064-.33.138-.462.222-.128.08-.24.154-.336.222a.48.48 0 01-.276.096.319.319 0 01-.186-.054.57.57 0 01-.132-.144l-.192-.342zm9.661.144a.237.237 0 01-.222.132.418.418 0 01-.204-.066 3.59 3.59 0 00-.282-.144 2.152 2.152 0 00-.39-.15 1.802 1.802 0 00-.54-.072c-.18 0-.342.024-.486.072a1.16 1.16 0 00-.372.186.875.875 0 00-.234.282.754.754 0 00-.078.342c0 .156.044.286.132.39.092.104.212.194.36.27.148.076.316.144.504.204.188.056.38.118.576.186.2.064.394.136.582.216.188.08.356.18.504.3a1.329 1.329 0 01.492 1.068c0 .28-.05.54-.15.78a1.73 1.73 0 01-.444.618 2.17 2.17 0 01-.72.408c-.284.1-.612.15-.984.15a3.11 3.11 0 01-1.152-.204 2.966 2.966 0 01-.876-.534l.252-.408a.366.366 0 01.114-.12.308.308 0 01.168-.042c.072 0 .148.028.228.084.08.056.176.118.288.186a1.915 1.915 0 001.032.27c.208 0 .39-.026.546-.078.156-.056.286-.13.39-.222a.837.837 0 00.228-.318.955.955 0 00.078-.384.616.616 0 00-.138-.414 1.052 1.052 0 00-.354-.282 2.606 2.606 0 00-.51-.204l-.582-.186a7.84 7.84 0 01-.582-.216 2.137 2.137 0 01-.504-.312 1.445 1.445 0 01-.36-.456 1.533 1.533 0 01-.132-.666c0-.232.048-.454.144-.666.096-.216.236-.404.42-.564.184-.164.41-.294.678-.39.268-.096.574-.144.918-.144.4 0 .758.064 1.074.192.32.124.596.296.828.516l-.24.39zm5.72 1.374c0-.248-.036-.474-.108-.678a1.437 1.437 0 00-.306-.534 1.292 1.292 0 00-.486-.348 1.616 1.616 0 00-.654-.126c-.513 0-.919.15-1.218.45-.297.296-.48.708-.552 1.236h3.324zm.864 2.85c-.133.16-.29.3-.474.42a3.022 3.022 0 01-.594.288 3.503 3.503 0 01-.649.168c-.224.04-.446.06-.666.06-.42 0-.807-.07-1.163-.21a2.636 2.636 0 01-.919-.624 2.919 2.919 0 01-.6-1.02 4.135 4.135 0 01-.216-1.392c0-.424.064-.82.192-1.188.133-.368.32-.686.564-.954.244-.272.542-.484.895-.636a2.902 2.902 0 011.188-.234c.364 0 .7.062 1.008.186.312.12.58.296.804.528.227.228.406.512.534.852.128.336.192.72.192 1.152 0 .168-.018.28-.054.336-.037.056-.105.084-.205.084h-4.061c.012.384.064.718.156 1.002.095.284.227.522.395.714.169.188.368.33.6.426a2.1 2.1 0 00.78.138c.268 0 .498-.03.69-.09a3.456 3.456 0 00.852-.402.47.47 0 01.246-.096c.089 0 .157.034.205.102l.3.39zm5.552-.612c.196.264.41.45.642.558.232.108.492.162.78.162.568 0 1.004-.202 1.308-.606.304-.404.456-.98.456-1.728 0-.396-.036-.736-.108-1.02a1.926 1.926 0 00-.3-.696 1.171 1.171 0 00-.486-.402 1.616 1.616 0 00-.654-.126c-.348 0-.654.08-.918.24-.26.16-.5.386-.72.678v2.94zm-.054-3.672c.256-.316.552-.57.888-.762a2.28 2.28 0 011.152-.288c.352 0 .67.068.954.204.284.132.526.33.726.594.2.26.354.584.462.972.108.388.162.834.162 1.338 0 .448-.06.866-.18 1.254-.12.384-.294.718-.522 1.002-.224.28-.5.502-.828.666-.324.16-.69.24-1.098.24-.372 0-.692-.062-.96-.186a2.301 2.301 0 01-.702-.528v2.688h-1.074v-8.136h.642c.152 0 .246.074.282.222l.096.72zm9.774 1.434c0-.248-.036-.474-.108-.678a1.437 1.437 0 00-.306-.534 1.292 1.292 0 00-.486-.348 1.616 1.616 0 00-.654-.126c-.512 0-.918.15-1.218.45-.296.296-.48.708-.552 1.236h3.324zm.864 2.85c-.132.16-.29.3-.474.42a3.022 3.022 0 01-.594.288 3.503 3.503 0 01-.648.168c-.224.04-.446.06-.666.06-.42 0-.808-.07-1.164-.21a2.636 2.636 0 01-.918-.624 2.919 2.919 0 01-.6-1.02 4.135 4.135 0 01-.216-1.392c0-.424.064-.82.192-1.188.132-.368.32-.686.564-.954.244-.272.542-.484.894-.636a2.902 2.902 0 011.188-.234c.364 0 .7.062 1.008.186.312.12.58.296.804.528.228.228.406.512.534.852.128.336.192.72.192 1.152 0 .168-.018.28-.054.336-.036.056-.104.084-.204.084h-4.062c.012.384.064.718.156 1.002.096.284.228.522.396.714.168.188.368.33.6.426a2.1 2.1 0 00.78.138c.268 0 .498-.03.69-.09a3.456 3.456 0 00.852-.402.47.47 0 01.246-.096c.088 0 .156.034.204.102l.3.39zm2.422-4.008c.192-.416.428-.74.708-.972.28-.236.622-.354 1.026-.354.128 0 .25.014.366.042.12.028.226.072.318.132l-.078.798c-.024.1-.084.15-.18.15-.056 0-.138-.012-.246-.036a1.694 1.694 0 00-.366-.036c-.192 0-.364.028-.516.084-.148.056-.282.14-.402.252a1.782 1.782 0 00-.318.408c-.092.16-.176.344-.252.552V44h-1.074v-6.078h.612c.116 0 .196.022.24.066.044.044.074.12.09.228l.072.924zM67.82 44v-6.078h.642c.152 0 .246.074.282.222l.078.624c.224-.276.476-.502.756-.678.28-.176.604-.264.972-.264.408 0 .738.114.99.342.256.228.44.536.552.924.088-.22.2-.41.336-.57a1.987 1.987 0 011.014-.624c.196-.048.394-.072.594-.072.32 0 .604.052.852.156.252.1.464.248.636.444.176.196.31.438.402.726.092.284.138.61.138.978V44H74.99v-3.87c0-.476-.104-.836-.312-1.08-.208-.248-.508-.372-.9-.372-.176 0-.344.032-.504.096-.156.06-.294.15-.414.27-.12.12-.216.272-.288.456-.068.18-.102.39-.102.63V44h-1.074v-3.87c0-.488-.098-.852-.294-1.092-.196-.24-.482-.36-.858-.36-.264 0-.508.072-.732.216a2.38 2.38 0 00-.618.576V44H67.82zm12.429-6.174a3.1 3.1 0 011.2.222c.356.148.66.358.912.63s.444.602.576.99c.136.384.204.814.204 1.29 0 .48-.068.912-.204 1.296a2.735 2.735 0 01-.576.984 2.572 2.572 0 01-.912.63 3.175 3.175 0 01-1.2.216c-.448 0-.852-.072-1.212-.216a2.572 2.572 0 01-.912-.63 2.805 2.805 0 01-.582-.984 3.972 3.972 0 01-.198-1.296c0-.476.066-.906.198-1.29.136-.388.33-.718.582-.99.252-.272.556-.482.912-.63.36-.148.764-.222 1.212-.222zm0 5.424c.6 0 1.048-.2 1.344-.6.296-.404.444-.966.444-1.686 0-.724-.148-1.288-.444-1.692-.296-.404-.744-.606-1.344-.606-.304 0-.57.052-.798.156a1.507 1.507 0 00-.564.45c-.148.196-.26.438-.336.726a3.941 3.941 0 00-.108.966c0 .72.148 1.282.444 1.686.3.4.754.6 1.362.6zm5.254-4.446c.132-.148.272-.282.42-.402.148-.12.304-.222.468-.306a2.443 2.443 0 011.134-.27c.332 0 .624.056.876.168.256.108.468.264.636.468.172.2.302.442.39.726.088.284.132.598.132.942V44h-1.074v-3.87c0-.46-.106-.816-.318-1.068-.208-.256-.526-.384-.954-.384-.316 0-.612.076-.888.228a2.936 2.936 0 00-.756.618V44h-1.074v-6.078h.642c.152 0 .246.074.282.222l.084.66zm7.468 5.292c-.48 0-.85-.134-1.11-.402-.256-.268-.384-.654-.384-1.158v-3.72h-.732a.247.247 0 01-.162-.054c-.044-.04-.066-.1-.066-.18v-.426l.996-.126.246-1.878a.254.254 0 01.078-.144.24.24 0 01.168-.06h.54v2.094h1.758v.774h-1.758v3.648c0 .256.062.446.186.57a.65.65 0 00.48.186.875.875 0 00.504-.144c.06-.036.11-.068.15-.096.044-.032.082-.048.114-.048.056 0 .106.034.15.102l.312.51a2.029 2.029 0 01-.666.408c-.26.096-.528.144-.804.144zm3.509-5.364c.26-.276.548-.496.864-.66.316-.164.68-.246 1.092-.246.332 0 .624.056.876.168.256.108.468.264.636.468.172.2.302.442.39.726.088.284.132.598.132.942V44h-1.074v-3.87c0-.46-.106-.816-.318-1.068-.208-.256-.526-.384-.954-.384-.316 0-.612.076-.888.228a2.936 2.936 0 00-.756.618V44h-1.074v-8.838h1.074v3.57z"/></g><defs><clipPath id="clip0_147_733"><path fill="#fff" d="M0 0h102v48H0z"/></clipPath></defs></svg>