<svg width="104" height="48" fill="none" xmlns="http://www.w3.org/2000/svg"><g clip-path="url(#clip0_147_724)"><g clip-path="url(#clip1_147_724)"><circle cx="20" cy="24" r="18" stroke="#03CEA4" stroke-width="4"/></g><g clip-path="url(#clip2_147_724)" fill="#1E212C"><path d="M61.81 20.7c.267 0 .477.077.63.23.16.147.24.343.24.59V23h-9.92v-.82a1.391 1.391 0 01.44-1.02l4.39-4.4a19.2 19.2 0 00.98-1.07c.293-.34.537-.677.73-1.01a4.6 4.6 0 00.44-1.01c.107-.347.16-.71.16-1.09 0-.347-.05-.65-.15-.91-.1-.267-.243-.49-.43-.67a1.66 1.66 0 00-.66-.4 2.476 2.476 0 00-.86-.14c-.293 0-.567.043-.82.13-.247.08-.467.197-.66.35-.193.147-.357.32-.49.52s-.233.42-.3.66c-.113.307-.26.51-.44.61-.18.1-.44.123-.78.07l-1.3-.23c.1-.693.293-1.3.58-1.82a4.33 4.33 0 011.07-1.31 4.397 4.397 0 011.48-.79c.56-.18 1.16-.27 1.8-.27.667 0 1.277.1 1.83.3.553.193 1.027.47 1.42.83s.7.793.92 1.3a4.2 4.2 0 01.33 1.69c0 .533-.08 1.027-.24 1.48a5.844 5.844 0 01-.63 1.3c-.26.413-.567.813-.92 1.2-.353.387-.723.78-1.11 1.18l-3.26 3.33c.313-.093.623-.163.93-.21.313-.053.61-.08.89-.08h3.71zm12.892-4.93c0 1.26-.137 2.357-.41 3.29-.267.927-.64 1.693-1.12 2.3a4.524 4.524 0 01-1.69 1.36 5.024 5.024 0 01-2.1.44 5.023 5.023 0 01-2.1-.44 4.569 4.569 0 01-1.67-1.36c-.474-.607-.844-1.373-1.11-2.3-.267-.933-.4-2.03-.4-3.29 0-1.267.133-2.363.4-3.29.266-.927.636-1.693 1.11-2.3.473-.607 1.03-1.057 1.67-1.35.646-.3 1.346-.45 2.1-.45.753 0 1.453.15 2.1.45a4.433 4.433 0 011.69 1.35c.48.607.853 1.373 1.12 2.3.273.927.41 2.023.41 3.29zm-2.55 0c0-1.047-.077-1.913-.23-2.6-.154-.687-.36-1.233-.62-1.64-.254-.407-.547-.69-.88-.85a2.297 2.297 0 00-1.04-.25 2.27 2.27 0 00-1.03.25c-.327.16-.617.443-.87.85-.254.407-.457.953-.61 1.64-.147.687-.22 1.553-.22 2.6 0 1.047.073 1.913.22 2.6.153.687.356 1.233.61 1.64.253.407.543.693.87.86a2.354 2.354 0 002.07 0c.333-.167.626-.453.88-.86.26-.407.466-.953.62-1.64.153-.687.23-1.553.23-2.6zm14.151 0c0 1.26-.136 2.357-.41 3.29-.267.927-.64 1.693-1.12 2.3a4.523 4.523 0 01-1.69 1.36 5.023 5.023 0 01-2.1.44 5.024 5.024 0 01-2.1-.44 4.57 4.57 0 01-1.67-1.36c-.473-.607-.843-1.373-1.11-2.3-.266-.933-.4-2.03-.4-3.29 0-1.267.133-2.363.4-3.29s.637-1.693 1.11-2.3c.474-.607 1.03-1.057 1.67-1.35a4.93 4.93 0 012.1-.45c.754 0 1.453.15 2.1.45a4.431 4.431 0 011.69 1.35c.48.607.853 1.373 1.12 2.3.273.927.41 2.023.41 3.29zm-2.55 0c0-1.047-.076-1.913-.23-2.6-.153-.687-.36-1.233-.62-1.64-.253-.407-.547-.69-.88-.85a2.297 2.297 0 00-1.04-.25c-.353 0-.697.083-1.03.25-.327.16-.617.443-.87.85s-.457.953-.61 1.64c-.147.687-.22 1.553-.22 2.6 0 1.047.073 1.913.22 2.6.153.687.357 1.233.61 1.64.254.407.543.693.87.86a2.355 2.355 0 002.07 0c.334-.167.627-.453.88-.86.26-.407.467-.953.62-1.64.154-.687.23-1.553.23-2.6zm10.502-3.73c0 .547-.094 1.04-.28 1.48-.18.44-.424.817-.73 1.13a3.317 3.317 0 01-2.34.96c-.48 0-.924-.083-1.33-.25a3.12 3.12 0 01-1.06-.71 3.387 3.387 0 01-.69-1.13 4.151 4.151 0 01-.25-1.48c0-.56.083-1.067.25-1.52a3.33 3.33 0 01.69-1.15 3.06 3.06 0 011.06-.72 3.36 3.36 0 011.33-.26c.48 0 .923.087 1.33.26.413.167.77.407 1.07.72.3.313.533.697.7 1.15.166.453.25.96.25 1.52zm-1.9 0c0-.387-.04-.71-.12-.97a1.688 1.688 0 00-.31-.63 1.042 1.042 0 00-.46-.34 1.423 1.423 0 00-.56-.11c-.2 0-.387.037-.56.11-.174.067-.324.18-.45.34-.12.16-.217.37-.29.63-.074.26-.11.583-.11.97 0 .373.036.687.11.94.073.247.17.447.29.6.126.153.276.263.45.33.173.067.36.1.56.1.2 0 .386-.033.56-.1.18-.067.333-.177.46-.33.133-.153.236-.353.31-.6.08-.253.12-.567.12-.94zm6.71-3.11c.086-.1.186-.19.3-.27.12-.08.286-.12.5-.12h1.8l-10.74 14.09a1.2 1.2 0 01-.31.27.894.894 0 01-.44.1h-1.84l10.73-14.07zm3.36 10.67c0 .547-.094 1.04-.28 1.48-.18.44-.424.817-.73 1.13a3.372 3.372 0 01-1.07.72 3.32 3.32 0 01-1.27.25c-.48 0-.924-.083-1.33-.25a3.246 3.246 0 01-1.06-.72 3.387 3.387 0 01-.69-1.13 4.151 4.151 0 01-.25-1.48c0-.56.083-1.067.25-1.52a3.35 3.35 0 01.69-1.15 3.06 3.06 0 011.06-.72 3.36 3.36 0 011.33-.26c.48 0 .923.087 1.33.26.413.167.766.407 1.06.72.3.313.533.697.7 1.15.173.453.26.96.26 1.52zm-1.91 0c0-.387-.037-.71-.11-.97a1.703 1.703 0 00-.31-.63 1.044 1.044 0 00-.46-.34 1.423 1.423 0 00-.56-.11c-.2 0-.387.037-.56.11-.174.067-.324.18-.45.34-.127.16-.227.37-.3.63-.067.26-.1.583-.1.97 0 .373.033.687.1.94.073.253.173.457.3.61.126.153.276.263.45.33.173.067.36.1.56.1.2 0 .386-.033.56-.1.18-.067.333-.177.46-.33.133-.153.236-.357.31-.61.073-.253.11-.567.11-.94zM55.48 39.566c.336 0 .632-.04.888-.12.26-.084.476-.2.648-.348.176-.152.308-.332.396-.54.088-.208.132-.438.132-.69 0-.512-.168-.898-.504-1.158-.336-.26-.84-.39-1.512-.39h-1.272v3.246h1.224zM59.452 44H58.42c-.212 0-.368-.082-.468-.246l-2.232-3.072a.62.62 0 00-.222-.204c-.076-.044-.196-.066-.36-.066h-.882V44h-1.158v-8.598h2.43c.544 0 1.014.056 1.41.168.396.108.722.266.978.474.26.208.452.46.576.756.124.292.186.62.186.984 0 .304-.048.588-.144.852a2.257 2.257 0 01-.42.714c-.18.208-.402.386-.666.534-.26.148-.556.26-.888.336.148.084.276.206.384.366L59.452 44zm9.031-4.296c0 .644-.102 1.236-.306 1.776a4.066 4.066 0 01-.864 1.386 3.89 3.89 0 01-1.344.906 4.537 4.537 0 01-1.728.318 4.537 4.537 0 01-1.728-.318 3.903 3.903 0 01-1.338-.906 4.066 4.066 0 01-.864-1.386 4.987 4.987 0 01-.306-1.776c0-.644.102-1.234.306-1.77.204-.54.492-1.004.864-1.392a3.863 3.863 0 011.338-.912 4.463 4.463 0 011.728-.324c.632 0 1.208.108 1.728.324.524.216.972.52 1.344.912.372.388.66.852.864 1.392.204.536.306 1.126.306 1.77zm-1.194 0a4.37 4.37 0 00-.216-1.422 2.977 2.977 0 00-.612-1.062 2.639 2.639 0 00-.96-.672 3.259 3.259 0 00-1.26-.234c-.46 0-.878.078-1.254.234-.376.156-.698.38-.966.672a2.977 2.977 0 00-.612 1.062 4.37 4.37 0 00-.216 1.422c0 .528.072 1.002.216 1.422.144.416.348.77.612 1.062.268.288.59.51.966.666.376.152.794.228 1.254.228.464 0 .884-.076 1.26-.228.376-.156.696-.378.96-.666.264-.292.468-.646.612-1.062a4.37 4.37 0 00.216-1.422zM71.313 44h-1.164v-8.598h1.164V44z"/></g></g><defs><clipPath id="clip0_147_724"><path fill="#fff" d="M0 0h104v48H0z"/></clipPath><clipPath id="clip1_147_724"><path fill="#fff" transform="translate(0 4)" d="M0 0h40v40H0z"/></clipPath><clipPath id="clip2_147_724"><path fill="#fff" transform="translate(52)" d="M0 0h52v48H0z"/></clipPath></defs></svg>