<svg width="134" height="48" fill="none" xmlns="http://www.w3.org/2000/svg"><g clip-path="url(#clip0_147_400)"><g clip-path="url(#clip1_147_400)"><circle cx="20" cy="24" r="18" stroke="#5A87FC" stroke-width="4"/></g><g clip-path="url(#clip2_147_400)" fill="#1E212C"><path d="M61.81 20.7c.267 0 .477.077.63.23.16.147.24.343.24.59V23h-9.92v-.82a1.391 1.391 0 01.44-1.02l4.39-4.4a19.2 19.2 0 00.98-1.07c.293-.34.537-.677.73-1.01a4.6 4.6 0 00.44-1.01c.107-.347.16-.71.16-1.09 0-.347-.05-.65-.15-.91-.1-.267-.243-.49-.43-.67a1.66 1.66 0 00-.66-.4 2.476 2.476 0 00-.86-.14c-.293 0-.567.043-.82.13-.247.08-.467.197-.66.35-.193.147-.357.32-.49.52s-.233.42-.3.66c-.113.307-.26.51-.44.61-.18.1-.44.123-.78.07l-1.3-.23c.1-.693.293-1.3.58-1.82a4.33 4.33 0 011.07-1.31 4.397 4.397 0 011.48-.79c.56-.18 1.16-.27 1.8-.27.667 0 1.277.1 1.83.3.553.193 1.027.47 1.42.83s.7.793.92 1.3a4.2 4.2 0 01.33 1.69c0 .533-.08 1.027-.24 1.48a5.844 5.844 0 01-.63 1.3c-.26.413-.567.813-.92 1.2-.353.387-.723.78-1.11 1.18l-3.26 3.33c.313-.093.623-.163.93-.21.313-.053.61-.08.89-.08h3.71zm12.892-4.93c0 1.26-.137 2.357-.41 3.29-.267.927-.64 1.693-1.12 2.3a4.524 4.524 0 01-1.69 1.36 5.024 5.024 0 01-2.1.44 5.023 5.023 0 01-2.1-.44 4.569 4.569 0 01-1.67-1.36c-.474-.607-.844-1.373-1.11-2.3-.267-.933-.4-2.03-.4-3.29 0-1.267.133-2.363.4-3.29.266-.927.636-1.693 1.11-2.3.473-.607 1.03-1.057 1.67-1.35.646-.3 1.346-.45 2.1-.45.753 0 1.453.15 2.1.45a4.433 4.433 0 011.69 1.35c.48.607.853 1.373 1.12 2.3.273.927.41 2.023.41 3.29zm-2.55 0c0-1.047-.077-1.913-.23-2.6-.154-.687-.36-1.233-.62-1.64-.254-.407-.547-.69-.88-.85a2.297 2.297 0 00-1.04-.25 2.27 2.27 0 00-1.03.25c-.327.16-.617.443-.87.85-.254.407-.457.953-.61 1.64-.147.687-.22 1.553-.22 2.6 0 1.047.073 1.913.22 2.6.153.687.356 1.233.61 1.64.253.407.543.693.87.86a2.354 2.354 0 002.07 0c.333-.167.626-.453.88-.86.26-.407.466-.953.62-1.64.153-.687.23-1.553.23-2.6zm14.151 0c0 1.26-.136 2.357-.41 3.29-.267.927-.64 1.693-1.12 2.3a4.523 4.523 0 01-1.69 1.36 5.023 5.023 0 01-2.1.44 5.024 5.024 0 01-2.1-.44 4.57 4.57 0 01-1.67-1.36c-.473-.607-.843-1.373-1.11-2.3-.266-.933-.4-2.03-.4-3.29 0-1.267.133-2.363.4-3.29s.637-1.693 1.11-2.3c.474-.607 1.03-1.057 1.67-1.35a4.93 4.93 0 012.1-.45c.754 0 1.453.15 2.1.45a4.431 4.431 0 011.69 1.35c.48.607.853 1.373 1.12 2.3.273.927.41 2.023.41 3.29zm-2.55 0c0-1.047-.076-1.913-.23-2.6-.153-.687-.36-1.233-.62-1.64-.253-.407-.547-.69-.88-.85a2.297 2.297 0 00-1.04-.25c-.353 0-.697.083-1.03.25-.327.16-.617.443-.87.85s-.457.953-.61 1.64c-.147.687-.22 1.553-.22 2.6 0 1.047.073 1.913.22 2.6.153.687.357 1.233.61 1.64.254.407.543.693.87.86a2.355 2.355 0 002.07 0c.334-.167.627-.453.88-.86.26-.407.467-.953.62-1.64.154-.687.23-1.553.23-2.6zm10.502-3.73c0 .547-.094 1.04-.28 1.48-.18.44-.424.817-.73 1.13a3.317 3.317 0 01-2.34.96c-.48 0-.924-.083-1.33-.25a3.12 3.12 0 01-1.06-.71 3.387 3.387 0 01-.69-1.13 4.151 4.151 0 01-.25-1.48c0-.56.083-1.067.25-1.52a3.33 3.33 0 01.69-1.15 3.06 3.06 0 011.06-.72 3.36 3.36 0 011.33-.26c.48 0 .923.087 1.33.26.413.167.77.407 1.07.72.3.313.533.697.7 1.15.166.453.25.96.25 1.52zm-1.9 0c0-.387-.04-.71-.12-.97a1.688 1.688 0 00-.31-.63 1.042 1.042 0 00-.46-.34 1.423 1.423 0 00-.56-.11c-.2 0-.387.037-.56.11-.174.067-.324.18-.45.34-.12.16-.217.37-.29.63-.074.26-.11.583-.11.97 0 .373.036.687.11.94.073.247.17.447.29.6.126.153.276.263.45.33.173.067.36.1.56.1.2 0 .386-.033.56-.1.18-.067.333-.177.46-.33.133-.153.236-.353.31-.6.08-.253.12-.567.12-.94zm6.71-3.11c.086-.1.186-.19.3-.27.12-.08.286-.12.5-.12h1.8l-10.74 14.09a1.2 1.2 0 01-.31.27.894.894 0 01-.44.1h-1.84l10.73-14.07zm3.36 10.67c0 .547-.094 1.04-.28 1.48-.18.44-.424.817-.73 1.13a3.372 3.372 0 01-1.07.72 3.32 3.32 0 01-1.27.25c-.48 0-.924-.083-1.33-.25a3.246 3.246 0 01-1.06-.72 3.387 3.387 0 01-.69-1.13 4.151 4.151 0 01-.25-1.48c0-.56.083-1.067.25-1.52a3.35 3.35 0 01.69-1.15 3.06 3.06 0 011.06-.72 3.36 3.36 0 011.33-.26c.48 0 .923.087 1.33.26.413.167.766.407 1.06.72.3.313.533.697.7 1.15.173.453.26.96.26 1.52zm-1.91 0c0-.387-.037-.71-.11-.97a1.703 1.703 0 00-.31-.63 1.044 1.044 0 00-.46-.34 1.423 1.423 0 00-.56-.11c-.2 0-.387.037-.56.11-.174.067-.324.18-.45.34-.127.16-.227.37-.3.63-.067.26-.1.583-.1.97 0 .373.033.687.1.94.073.253.173.457.3.61.126.153.276.263.45.33.173.067.36.1.56.1.2 0 .386-.033.56-.1.18-.067.333-.177.46-.33.133-.153.236-.357.31-.61.073-.253.11-.567.11-.94zM60.082 39.866v3.3a4.87 4.87 0 01-1.386.702 5.387 5.387 0 01-1.608.228c-.692 0-1.316-.106-1.872-.318a4.217 4.217 0 01-1.428-.9 3.976 3.976 0 01-.906-1.392 4.836 4.836 0 01-.318-1.782c0-.656.102-1.254.306-1.794.208-.54.502-1.002.882-1.386.38-.388.842-.688 1.386-.9.544-.212 1.152-.318 1.824-.318.34 0 .656.026.948.078a4.067 4.067 0 011.5.558c.212.132.41.282.594.45l-.33.528a.356.356 0 01-.204.156c-.08.02-.17 0-.27-.06a8.773 8.773 0 01-.33-.204 2.684 2.684 0 00-.456-.228 3.373 3.373 0 00-.63-.192 4.104 4.104 0 00-.858-.078c-.484 0-.922.08-1.314.24a2.73 2.73 0 00-1.002.678 2.966 2.966 0 00-.636 1.068 4.17 4.17 0 00-.222 1.404c0 .54.076 1.024.228 1.452.156.424.376.786.66 1.086a2.86 2.86 0 001.044.678c.408.156.866.234 1.374.234.4 0 .754-.044 1.062-.132.312-.092.616-.218.912-.378v-1.89h-1.338a.265.265 0 01-.186-.066.22.22 0 01-.066-.162v-.66h2.64zm2.45-.726c.192-.416.428-.74.708-.972.28-.236.622-.354 1.026-.354.128 0 .25.014.366.042.12.028.226.072.318.132l-.078.798c-.024.1-.084.15-.18.15-.056 0-.138-.012-.246-.036a1.694 1.694 0 00-.366-.036c-.192 0-.364.028-.516.084-.148.056-.282.14-.402.252a1.782 1.782 0 00-.318.408c-.092.16-.176.344-.252.552V44h-1.074v-6.078h.612c.116 0 .196.022.24.066.044.044.074.12.09.228l.072.924zm5.673-1.314a3.1 3.1 0 011.2.222c.356.148.66.358.912.63s.444.602.576.99c.136.384.204.814.204 1.29 0 .48-.068.912-.204 1.296a2.735 2.735 0 01-.576.984 2.572 2.572 0 01-.912.63 3.175 3.175 0 01-1.2.216c-.448 0-.852-.072-1.212-.216a2.572 2.572 0 01-.912-.63 2.805 2.805 0 01-.582-.984 3.972 3.972 0 01-.198-1.296c0-.476.066-.906.198-1.29.136-.388.33-.718.582-.99.252-.272.556-.482.912-.63.36-.148.764-.222 1.212-.222zm0 5.424c.6 0 1.048-.2 1.344-.6.296-.404.444-.966.444-1.686 0-.724-.148-1.288-.444-1.692-.296-.404-.744-.606-1.344-.606-.304 0-.57.052-.798.156a1.507 1.507 0 00-.564.45c-.148.196-.26.438-.336.726a3.941 3.941 0 00-.108.966c0 .72.148 1.282.444 1.686.3.4.754.6 1.362.6zm12.535-5.328L78.772 44h-.846c-.104 0-.176-.068-.216-.204l-1.344-4.122a2.376 2.376 0 01-.078-.276l-.06-.282-.06.282c-.02.092-.046.186-.078.282l-1.368 4.116c-.036.136-.116.204-.24.204h-.804l-1.968-6.078h.84a.33.33 0 01.21.066c.06.044.1.096.12.156l1.164 3.912c.068.288.122.56.162.816l.108-.402c.04-.136.082-.274.126-.414l1.284-3.936c.02-.06.054-.11.102-.15a.296.296 0 01.186-.06h.468c.08 0 .146.02.198.06a.31.31 0 01.108.15l1.254 3.936c.044.14.084.278.12.414.036.136.07.27.102.402a6.862 6.862 0 01.174-.816l1.188-3.912a.296.296 0 01.114-.156.311.311 0 01.198-.066h.804zm2.906 6.174c-.48 0-.85-.134-1.11-.402-.256-.268-.384-.654-.384-1.158v-3.72h-.732a.247.247 0 01-.162-.054c-.044-.04-.066-.1-.066-.18v-.426l.996-.126.246-1.878a.254.254 0 01.078-.144.24.24 0 01.168-.06h.54v2.094h1.758v.774H83.22v3.648c0 .256.062.446.186.57a.65.65 0 00.48.186.875.875 0 00.504-.144c.06-.036.11-.068.15-.096.044-.032.082-.048.114-.048.056 0 .106.034.15.102l.312.51a2.029 2.029 0 01-.666.408c-.26.096-.528.144-.804.144zm3.508-5.364c.26-.276.548-.496.864-.66.316-.164.68-.246 1.092-.246.332 0 .624.056.876.168.256.108.468.264.636.468.172.2.302.442.39.726.088.284.132.598.132.942V44H90.07v-3.87c0-.46-.106-.816-.318-1.068-.208-.256-.526-.384-.954-.384-.316 0-.612.076-.888.228a2.936 2.936 0 00-.756.618V44H86.08v-8.838h1.074v3.57zm9.816-.81V44h-1.068v-6.078h1.068zm.228-1.908a.673.673 0 01-.066.294.815.815 0 01-.168.24.753.753 0 01-.246.162.73.73 0 01-.294.06.73.73 0 01-.528-.222.875.875 0 01-.162-.24.73.73 0 01-.06-.294.73.73 0 01.06-.294.753.753 0 01.162-.246.742.742 0 01.234-.168.73.73 0 01.294-.06.73.73 0 01.294.06c.096.04.178.096.246.168.072.068.128.15.168.246.044.092.066.19.066.294zm2.535 2.79c.132-.148.272-.282.42-.402.148-.12.304-.222.468-.306a2.443 2.443 0 011.134-.27c.332 0 .624.056.876.168.256.108.468.264.636.468.172.2.302.442.39.726.088.284.132.598.132.942V44h-1.074v-3.87c0-.46-.106-.816-.318-1.068-.208-.256-.526-.384-.954-.384-.316 0-.612.076-.888.228a2.938 2.938 0 00-.756.618V44h-1.074v-6.078h.642c.152 0 .246.074.282.222l.084.66zm12.294.12a.237.237 0 01-.222.132.418.418 0 01-.204-.066 3.59 3.59 0 00-.282-.144 2.152 2.152 0 00-.39-.15 1.802 1.802 0 00-.54-.072c-.18 0-.342.024-.486.072a1.16 1.16 0 00-.372.186.875.875 0 00-.234.282.754.754 0 00-.078.342c0 .156.044.286.132.39.092.104.212.194.36.27.148.076.316.144.504.204.188.056.38.118.576.186.2.064.394.136.582.216.188.08.356.18.504.3a1.329 1.329 0 01.492 1.068c0 .28-.05.54-.15.78a1.73 1.73 0 01-.444.618 2.17 2.17 0 01-.72.408c-.284.1-.612.15-.984.15a3.11 3.11 0 01-1.152-.204 2.966 2.966 0 01-.876-.534l.252-.408a.366.366 0 01.114-.12.308.308 0 01.168-.042c.072 0 .148.028.228.084.08.056.176.118.288.186a1.915 1.915 0 001.032.27c.208 0 .39-.026.546-.078.156-.056.286-.13.39-.222a.837.837 0 00.228-.318.955.955 0 00.078-.384.616.616 0 00-.138-.414 1.052 1.052 0 00-.354-.282 2.606 2.606 0 00-.51-.204l-.582-.186a7.84 7.84 0 01-.582-.216 2.137 2.137 0 01-.504-.312 1.445 1.445 0 01-.36-.456 1.533 1.533 0 01-.132-.666c0-.232.048-.454.144-.666.096-.216.236-.404.42-.564.184-.164.41-.294.678-.39.268-.096.574-.144.918-.144.4 0 .758.064 1.074.192.32.124.596.296.828.516l-.24.39zm4.945 2.34a8.645 8.645 0 00-1.26.12c-.344.06-.626.14-.846.24-.216.1-.374.218-.474.354a.772.772 0 00-.144.456c0 .16.026.298.078.414a.814.814 0 00.21.288.956.956 0 00.318.162c.124.032.256.048.396.048.188 0 .36-.018.516-.054.156-.04.302-.096.438-.168.14-.072.272-.158.396-.258.128-.1.252-.214.372-.342v-1.26zm-3.45-2.484a3.47 3.47 0 011.086-.726c.388-.16.818-.24 1.29-.24.34 0 .642.056.906.168.264.112.486.268.666.468.18.2.316.442.408.726.092.284.138.596.138.936V44h-.474a.49.49 0 01-.24-.048c-.056-.036-.1-.104-.132-.204l-.12-.576c-.16.148-.316.28-.468.396a2.935 2.935 0 01-.48.288 2.585 2.585 0 01-.54.174 2.77 2.77 0 01-.63.066c-.236 0-.458-.032-.666-.096a1.61 1.61 0 01-.546-.3 1.453 1.453 0 01-.366-.498 1.807 1.807 0 01-.132-.72c0-.24.066-.47.198-.69.132-.224.346-.422.642-.594.296-.172.682-.312 1.158-.42.476-.112 1.06-.176 1.752-.192v-.474c0-.472-.102-.828-.306-1.068-.204-.244-.502-.366-.894-.366-.264 0-.486.034-.666.102-.176.064-.33.138-.462.222-.128.08-.24.154-.336.222a.48.48 0 01-.276.096.319.319 0 01-.186-.054.567.567 0 01-.132-.144l-.192-.342zm7.225-3.618V44h-1.068v-8.838h1.068zm5.8 5.136c0-.248-.036-.474-.108-.678a1.437 1.437 0 00-.306-.534 1.292 1.292 0 00-.486-.348 1.616 1.616 0 00-.654-.126c-.512 0-.918.15-1.218.45-.296.296-.48.708-.552 1.236h3.324zm.864 2.85c-.132.16-.29.3-.474.42a3.022 3.022 0 01-.594.288 3.503 3.503 0 01-.648.168c-.224.04-.446.06-.666.06-.42 0-.808-.07-1.164-.21a2.636 2.636 0 01-.918-.624 2.919 2.919 0 01-.6-1.02 4.135 4.135 0 01-.216-1.392c0-.424.064-.82.192-1.188.132-.368.32-.686.564-.954.244-.272.542-.484.894-.636a2.902 2.902 0 011.188-.234c.364 0 .7.062 1.008.186.312.12.58.296.804.528.228.228.406.512.534.852.128.336.192.72.192 1.152 0 .168-.018.28-.054.336-.036.056-.104.084-.204.084h-4.062c.012.384.064.718.156 1.002.096.284.228.522.396.714.168.188.368.33.6.426a2.1 2.1 0 00.78.138c.268 0 .498-.03.69-.09a3.456 3.456 0 00.852-.402.47.47 0 01.246-.096c.088 0 .156.034.204.102l.3.39zm4.948-4.224a.237.237 0 01-.222.132.418.418 0 01-.204-.066 3.59 3.59 0 00-.282-.144 2.152 2.152 0 00-.39-.15 1.802 1.802 0 00-.54-.072c-.18 0-.342.024-.486.072a1.16 1.16 0 00-.372.186.875.875 0 00-.234.282.754.754 0 00-.078.342c0 .156.044.286.132.39.092.104.212.194.36.27.148.076.316.144.504.204.188.056.38.118.576.186.2.064.394.136.582.216.188.08.356.18.504.3a1.329 1.329 0 01.492 1.068c0 .28-.05.54-.15.78a1.73 1.73 0 01-.444.618 2.17 2.17 0 01-.72.408c-.284.1-.612.15-.984.15a3.11 3.11 0 01-1.152-.204 2.966 2.966 0 01-.876-.534l.252-.408a.366.366 0 01.114-.12.308.308 0 01.168-.042c.072 0 .148.028.228.084.08.056.176.118.288.186a1.915 1.915 0 001.032.27c.208 0 .39-.026.546-.078.156-.056.286-.13.39-.222a.837.837 0 00.228-.318.955.955 0 00.078-.384.616.616 0 00-.138-.414 1.052 1.052 0 00-.354-.282 2.606 2.606 0 00-.51-.204l-.582-.186a7.84 7.84 0 01-.582-.216 2.137 2.137 0 01-.504-.312 1.445 1.445 0 01-.36-.456 1.533 1.533 0 01-.132-.666c0-.232.048-.454.144-.666.096-.216.236-.404.42-.564.184-.164.41-.294.678-.39.268-.096.574-.144.918-.144.4 0 .758.064 1.074.192.32.124.596.296.828.516l-.24.39z"/></g></g><defs><clipPath id="clip0_147_400"><path fill="#fff" d="M0 0h134v48H0z"/></clipPath><clipPath id="clip1_147_400"><path fill="#fff" transform="translate(0 4)" d="M0 0h40v40H0z"/></clipPath><clipPath id="clip2_147_400"><path fill="#fff" transform="translate(52)" d="M0 0h82v48H0z"/></clipPath></defs></svg>