<svg width="84" height="48" fill="none" xmlns="http://www.w3.org/2000/svg"><g clip-path="url(#clip0_147_201)"><g clip-path="url(#clip1_147_201)" fill="#1E212C"><path d="M10.35 21.15V23h-8v-1.85h2.93v-8.43c0-.333.01-.677.03-1.03l-2.08 1.74a.915.915 0 01-.36.18.87.87 0 01-.6-.1.635.635 0 01-.18-.17l-.78-1.07 4.41-3.75h2.03v12.63h2.6zm2.432 4.3a.464.464 0 01-.18-.37.41.41 0 01.05-.18.925.925 0 01.14-.18l.27-.3a3.61 3.61 0 00.32-.4c.106-.147.203-.31.29-.49.093-.173.163-.36.21-.56-.214 0-.407-.037-.58-.11a1.453 1.453 0 01-.45-.32 1.593 1.593 0 01-.29-.47 1.68 1.68 0 01-.1-.59c0-.187.033-.36.1-.52a1.3 1.3 0 01.3-.43c.126-.127.28-.223.46-.29.18-.073.376-.11.59-.11.253 0 .473.047.66.14.193.087.35.21.47.37.126.153.22.333.28.54.066.2.1.413.1.64 0 .32-.05.657-.15 1.01a5.015 5.015 0 01-.42 1.06c-.187.353-.42.697-.7 1.03-.274.333-.587.64-.94.92l-.43-.39zm9.307-4.22c.407 0 .763-.057 1.07-.17.307-.12.563-.283.77-.49.213-.207.373-.453.48-.74.107-.287.16-.597.16-.93 0-.793-.22-1.393-.66-1.8-.44-.407-1.047-.61-1.82-.61-.773 0-1.38.203-1.82.61-.44.407-.66 1.007-.66 1.8 0 .333.053.643.16.93.107.287.263.533.47.74.213.207.473.37.78.49.307.113.663.17 1.07.17zm0-10.99a2.42 2.42 0 00-.95.17 1.839 1.839 0 00-1.06 1.11c-.08.247-.12.507-.12.78 0 .287.033.567.1.84.073.267.193.507.36.72.167.207.387.373.66.5s.61.19 1.01.19.737-.063 1.01-.19.493-.293.66-.5c.167-.213.283-.453.35-.72.073-.273.11-.553.11-.84a2.33 2.33 0 00-.13-.78 1.842 1.842 0 00-.39-.65 1.835 1.835 0 00-.66-.46 2.42 2.42 0 00-.95-.17zm2.44 5.22c.88.287 1.53.727 1.95 1.32.42.587.63 1.307.63 2.16 0 .64-.123 1.22-.37 1.74-.24.52-.58.963-1.02 1.33-.44.367-.97.65-1.59.85-.613.2-1.293.3-2.04.3-.747 0-1.43-.1-2.05-.3a4.725 4.725 0 01-1.58-.85 3.869 3.869 0 01-1.03-1.33c-.24-.52-.36-1.1-.36-1.74 0-.853.21-1.573.63-2.16.42-.593 1.07-1.033 1.95-1.32-.7-.293-1.227-.71-1.58-1.25-.347-.54-.52-1.19-.52-1.95 0-.547.11-1.057.33-1.53.227-.473.54-.883.94-1.23.4-.353.877-.627 1.43-.82.56-.2 1.173-.3 1.84-.3s1.277.1 1.83.3c.56.193 1.04.467 1.44.82.4.347.71.757.93 1.23.227.473.34.983.34 1.53 0 .76-.177 1.41-.53 1.95-.347.54-.87.957-1.57 1.25zm10.482 2.09v-4.73c0-.447.03-.94.09-1.48l-4.49 6.21h4.4zm3.97 0v1.43c0 .133-.044.25-.13.35a.482.482 0 01-.37.14h-1.32V23h-2.15v-3.53h-6.1a.69.69 0 01-.44-.15.693.693 0 01-.24-.39l-.26-1.25 6.85-9.15h2.34v9.02h1.82zm11.611-1.78c0 1.26-.136 2.357-.41 3.29-.267.927-.64 1.693-1.12 2.3a4.523 4.523 0 01-1.69 1.36 5.024 5.024 0 01-2.1.44 5.024 5.024 0 01-2.1-.44 4.569 4.569 0 01-1.67-1.36c-.473-.607-.843-1.373-1.11-2.3-.267-.933-.4-2.03-.4-3.29 0-1.267.134-2.363.4-3.29.267-.927.637-1.693 1.11-2.3.473-.607 1.03-1.057 1.67-1.35a4.93 4.93 0 012.1-.45c.754 0 1.453.15 2.1.45a4.432 4.432 0 011.69 1.35c.48.607.854 1.373 1.12 2.3.273.927.41 2.023.41 3.29zm-2.55 0c0-1.047-.077-1.913-.23-2.6-.153-.687-.36-1.233-.62-1.64-.253-.407-.547-.69-.88-.85a2.297 2.297 0 00-1.04-.25c-.353 0-.697.083-1.03.25-.326.16-.616.443-.87.85-.253.407-.456.953-.61 1.64-.147.687-.22 1.553-.22 2.6 0 1.047.073 1.913.22 2.6.154.687.357 1.233.61 1.64.254.407.544.693.87.86a2.355 2.355 0 002.07 0c.334-.167.627-.453.88-.86.26-.407.467-.953.62-1.64.154-.687.23-1.553.23-2.6zM6.912 36.38H4.128V44H2.97v-7.62H.18v-.978h6.732v.978zm2.947 4.884a8.645 8.645 0 00-1.26.12c-.344.06-.626.14-.846.24-.216.1-.374.218-.474.354a.772.772 0 00-.144.456c0 .16.026.298.078.414a.814.814 0 00.21.288.956.956 0 00.318.162c.124.032.256.048.396.048.188 0 .36-.018.516-.054.156-.04.302-.096.438-.168.14-.072.272-.158.396-.258.128-.1.252-.214.372-.342v-1.26zm-3.45-2.484a3.47 3.47 0 011.086-.726c.388-.16.818-.24 1.29-.24.34 0 .642.056.906.168.264.112.486.268.666.468.18.2.316.442.408.726.092.284.138.596.138.936V44h-.474a.49.49 0 01-.24-.048c-.056-.036-.1-.104-.132-.204l-.12-.576c-.16.148-.316.28-.468.396a2.935 2.935 0 01-.48.288 2.585 2.585 0 01-.54.174 2.77 2.77 0 01-.63.066c-.236 0-.458-.032-.666-.096a1.61 1.61 0 01-.546-.3 1.453 1.453 0 01-.366-.498 1.807 1.807 0 01-.132-.72c0-.24.066-.47.198-.69.132-.224.346-.422.642-.594.296-.172.682-.312 1.158-.42.476-.112 1.06-.176 1.752-.192v-.474c0-.472-.102-.828-.306-1.068-.204-.244-.502-.366-.894-.366-.264 0-.486.034-.666.102-.176.064-.33.138-.462.222-.128.08-.24.154-.336.222a.48.48 0 01-.276.096.319.319 0 01-.186-.054.567.567 0 01-.132-.144l-.192-.342zm7.135.36c.192-.416.428-.74.708-.972.28-.236.622-.354 1.026-.354.128 0 .25.014.366.042.12.028.226.072.318.132l-.078.798c-.024.1-.084.15-.18.15-.056 0-.138-.012-.246-.036a1.694 1.694 0 00-.366-.036c-.192 0-.364.028-.516.084-.148.056-.282.14-.402.252a1.782 1.782 0 00-.318.408c-.092.16-.176.344-.252.552V44H12.53v-6.078h.612c.116 0 .196.022.24.066.044.044.074.12.09.228l.072.924zm5.334 1.89c.216 0 .406-.03.57-.09.164-.06.302-.144.414-.252.112-.108.196-.236.252-.384a1.43 1.43 0 00.084-.498c0-.372-.114-.668-.342-.888-.224-.22-.55-.33-.978-.33-.432 0-.762.11-.99.33-.224.22-.336.516-.336.888 0 .18.028.346.084.498a1.102 1.102 0 00.672.636c.164.06.354.09.57.09zm1.926 3.3a.513.513 0 00-.126-.36.838.838 0 00-.342-.216 2.036 2.036 0 00-.492-.108 8.573 8.573 0 00-.6-.054l-.636-.036a7.504 7.504 0 01-.624-.06 1.685 1.685 0 00-.552.396.8.8 0 00-.108.93c.072.12.18.222.324.306.144.088.324.156.54.204.22.052.478.078.774.078.288 0 .546-.026.774-.078.228-.052.42-.126.576-.222.16-.096.282-.21.366-.342a.8.8 0 00.126-.438zm1.086-6.168v.396c0 .132-.084.216-.252.252l-.69.09c.136.264.204.556.204.876a1.862 1.862 0 01-.642 1.428c-.2.172-.44.304-.72.396-.28.092-.584.138-.912.138-.284 0-.552-.034-.804-.102-.128.08-.226.166-.294.258a.438.438 0 00-.102.27.37.37 0 00.174.33c.12.072.276.124.468.156s.41.052.654.06c.248.008.5.022.756.042.26.016.512.046.756.09.248.044.468.116.66.216.192.1.346.238.462.414.12.176.18.404.18.684 0 .26-.066.512-.198.756a1.98 1.98 0 01-.558.648 2.798 2.798 0 01-.9.456c-.352.116-.75.174-1.194.174-.444 0-.832-.044-1.164-.132a2.732 2.732 0 01-.828-.354 1.562 1.562 0 01-.498-.516 1.218 1.218 0 01-.162-.606c0-.3.094-.554.282-.762.188-.208.446-.374.774-.498a1.149 1.149 0 01-.432-.318c-.104-.136-.156-.318-.156-.546 0-.088.016-.178.048-.27.032-.096.08-.19.144-.282a1.55 1.55 0 01.582-.492c-.3-.168-.534-.39-.702-.666a1.852 1.852 0 01-.252-.972c0-.296.056-.564.168-.804a1.78 1.78 0 01.48-.618c.204-.172.446-.304.726-.396.284-.092.594-.138.93-.138.264 0 .51.03.738.09.228.056.436.14.624.252h1.65zm5.079 2.136c0-.248-.036-.474-.108-.678a1.437 1.437 0 00-.306-.534 1.292 1.292 0 00-.486-.348 1.616 1.616 0 00-.654-.126c-.512 0-.918.15-1.218.45-.296.296-.48.708-.552 1.236h3.324zm.864 2.85c-.132.16-.29.3-.474.42a3.022 3.022 0 01-.594.288 3.503 3.503 0 01-.648.168c-.224.04-.446.06-.666.06-.42 0-.808-.07-1.164-.21a2.636 2.636 0 01-.918-.624 2.919 2.919 0 01-.6-1.02 4.135 4.135 0 01-.216-1.392c0-.424.064-.82.192-1.188.132-.368.32-.686.564-.954.244-.272.542-.484.894-.636a2.902 2.902 0 011.188-.234c.364 0 .7.062 1.008.186.312.12.58.296.804.528.228.228.406.512.534.852.128.336.192.72.192 1.152 0 .168-.018.28-.054.336-.036.056-.104.084-.204.084h-4.062c.012.384.064.718.156 1.002.096.284.228.522.396.714.168.188.368.33.6.426a2.1 2.1 0 00.78.138c.268 0 .498-.03.69-.09a3.456 3.456 0 00.852-.402.47.47 0 01.246-.096c.088 0 .156.034.204.102l.3.39zm3.227.948c-.48 0-.85-.134-1.11-.402-.256-.268-.384-.654-.384-1.158v-3.72h-.732a.247.247 0 01-.162-.054c-.044-.04-.066-.1-.066-.18v-.426l.996-.126.246-1.878a.254.254 0 01.078-.144.24.24 0 01.168-.06h.54v2.094h1.758v.774h-1.758v3.648c0 .256.062.446.186.57a.65.65 0 00.48.186.875.875 0 00.504-.144c.06-.036.11-.068.15-.096.044-.032.082-.048.114-.048.056 0 .106.034.15.102l.312.51a2.029 2.029 0 01-.666.408c-.26.096-.528.144-.804.144zm6.633-6.174V44h-1.068v-6.078h1.068zm.228-1.908a.673.673 0 01-.066.294.815.815 0 01-.168.24.753.753 0 01-.246.162.73.73 0 01-.294.06.73.73 0 01-.528-.222.875.875 0 01-.162-.24.73.73 0 01-.06-.294.73.73 0 01.06-.294.753.753 0 01.162-.246.742.742 0 01.234-.168.73.73 0 01.294-.06.73.73 0 01.294.06c.096.04.178.096.246.168.072.068.128.15.168.246.044.092.066.19.066.294zm2.535 2.79c.132-.148.272-.282.42-.402.148-.12.304-.222.468-.306a2.443 2.443 0 011.134-.27c.332 0 .624.056.876.168.256.108.468.264.636.468.172.2.302.442.39.726.088.284.132.598.132.942V44h-1.074v-3.87c0-.46-.106-.816-.318-1.068-.208-.256-.526-.384-.954-.384-.316 0-.612.076-.888.228a2.936 2.936 0 00-.756.618V44h-1.074v-6.078h.642c.152 0 .246.074.282.222l.084.66zm10.762-.882L48.74 44h-.96l-2.478-6.078h.87a.33.33 0 01.33.222l1.542 3.912c.048.148.09.292.126.432.036.14.07.28.102.42.032-.14.066-.28.102-.42.036-.14.08-.284.132-.432l1.56-3.912a.33.33 0 01.12-.156.311.311 0 01.198-.066h.834zm4.883 2.376a2 2 0 00-.108-.678 1.437 1.437 0 00-.306-.534 1.292 1.292 0 00-.485-.348 1.616 1.616 0 00-.654-.126c-.513 0-.919.15-1.218.45-.297.296-.48.708-.552 1.236h3.324zm.864 2.85c-.132.16-.29.3-.474.42a3.022 3.022 0 01-.593.288 3.503 3.503 0 01-.649.168c-.224.04-.446.06-.666.06-.42 0-.807-.07-1.163-.21a2.636 2.636 0 01-.919-.624 2.919 2.919 0 01-.6-1.02 4.135 4.135 0 01-.216-1.392c0-.424.064-.82.192-1.188.133-.368.32-.686.564-.954.244-.272.542-.484.895-.636a2.902 2.902 0 011.188-.234c.364 0 .7.062 1.008.186.312.12.58.296.804.528.227.228.406.512.534.852.128.336.192.72.192 1.152 0 .168-.018.28-.054.336-.037.056-.105.084-.205.084h-4.061c.012.384.064.718.156 1.002.095.284.227.522.395.714.169.188.368.33.6.426a2.1 2.1 0 00.78.138c.268 0 .498-.03.69-.09a3.456 3.456 0 00.852-.402.47.47 0 01.246-.096c.089 0 .157.034.205.102l.3.39zm4.948-4.224a.237.237 0 01-.222.132.418.418 0 01-.204-.066 3.59 3.59 0 00-.282-.144 2.152 2.152 0 00-.39-.15 1.802 1.802 0 00-.54-.072c-.18 0-.342.024-.486.072a1.16 1.16 0 00-.372.186.875.875 0 00-.234.282.754.754 0 00-.078.342c0 .156.044.286.132.39.092.104.212.194.36.27.148.076.316.144.504.204.188.056.38.118.576.186.2.064.394.136.582.216.188.08.356.18.504.3a1.329 1.329 0 01.492 1.068c0 .28-.05.54-.15.78a1.73 1.73 0 01-.444.618 2.17 2.17 0 01-.72.408c-.284.1-.612.15-.984.15a3.11 3.11 0 01-1.152-.204 2.966 2.966 0 01-.876-.534l.252-.408a.366.366 0 01.114-.12.308.308 0 01.168-.042c.072 0 .148.028.228.084.08.056.176.118.288.186a1.915 1.915 0 001.032.27c.208 0 .39-.026.546-.078.156-.056.286-.13.39-.222a.837.837 0 00.228-.318.955.955 0 00.078-.384.616.616 0 00-.138-.414 1.052 1.052 0 00-.354-.282 2.606 2.606 0 00-.51-.204l-.582-.186a7.84 7.84 0 01-.582-.216 2.137 2.137 0 01-.504-.312 1.445 1.445 0 01-.36-.456 1.533 1.533 0 01-.132-.666c0-.232.048-.454.144-.666.096-.216.236-.404.42-.564.184-.164.41-.294.678-.39.268-.096.574-.144.918-.144.4 0 .758.064 1.074.192.32.124.596.296.828.516l-.24.39zm3.518 5.172c-.48 0-.85-.134-1.11-.402-.256-.268-.384-.654-.384-1.158v-3.72h-.732a.247.247 0 01-.162-.054c-.044-.04-.066-.1-.066-.18v-.426l.996-.126.246-1.878a.254.254 0 01.078-.144.24.24 0 01.168-.06h.54v2.094h1.758v.774h-1.758v3.648c0 .256.062.446.186.57a.65.65 0 00.48.186.875.875 0 00.504-.144c.06-.036.11-.068.15-.096.044-.032.082-.048.114-.048.056 0 .106.034.15.102l.312.51a2.029 2.029 0 01-.666.408c-.26.096-.528.144-.804.144zm4.961-6.27a3.1 3.1 0 011.2.222c.356.148.66.358.912.63s.444.602.576.99c.136.384.204.814.204 1.29 0 .48-.068.912-.204 1.296a2.735 2.735 0 01-.576.984 2.572 2.572 0 01-.912.63 3.175 3.175 0 01-1.2.216c-.448 0-.852-.072-1.212-.216a2.572 2.572 0 01-.912-.63 2.805 2.805 0 01-.582-.984 3.972 3.972 0 01-.198-1.296c0-.476.066-.906.198-1.29.136-.388.33-.718.582-.99.252-.272.556-.482.912-.63.36-.148.764-.222 1.212-.222zm0 5.424c.6 0 1.048-.2 1.344-.6.296-.404.444-.966.444-1.686 0-.724-.148-1.288-.444-1.692-.296-.404-.744-.606-1.344-.606-.304 0-.57.052-.798.156a1.507 1.507 0 00-.564.45c-.148.196-.26.438-.336.726a3.941 3.941 0 00-.108.966c0 .72.148 1.282.444 1.686.3.4.754.6 1.362.6zm5.261-4.11c.192-.416.428-.74.708-.972.28-.236.622-.354 1.026-.354.128 0 .25.014.366.042.12.028.226.072.318.132l-.078.798c-.024.1-.084.15-.18.15-.056 0-.138-.012-.246-.036a1.694 1.694 0 00-.366-.036c-.192 0-.364.028-.516.084-.148.056-.282.14-.402.252a1.782 1.782 0 00-.318.408c-.092.16-.176.344-.252.552V44h-1.074v-6.078h.612c.116 0 .196.022.24.066.044.044.074.12.09.228l.072.924zm6.862-.216a.237.237 0 01-.222.132.418.418 0 01-.204-.066 3.59 3.59 0 00-.282-.144 2.152 2.152 0 00-.39-.15 1.802 1.802 0 00-.54-.072c-.18 0-.342.024-.486.072a1.16 1.16 0 00-.372.186.875.875 0 00-.234.282.754.754 0 00-.078.342c0 .156.044.286.132.39.092.104.212.194.36.27.148.076.316.144.504.204.188.056.38.118.576.186.2.064.394.136.582.216.188.08.356.18.504.3a1.329 1.329 0 01.492 1.068c0 .28-.05.54-.15.78a1.73 1.73 0 01-.444.618 2.17 2.17 0 01-.72.408c-.284.1-.612.15-.984.15a3.11 3.11 0 01-1.152-.204 2.966 2.966 0 01-.876-.534l.252-.408a.366.366 0 01.114-.12.308.308 0 01.168-.042c.072 0 .148.028.228.084.08.056.176.118.288.186a1.915 1.915 0 001.032.27c.208 0 .39-.026.546-.078.156-.056.286-.13.39-.222a.837.837 0 00.228-.318.955.955 0 00.078-.384.616.616 0 00-.138-.414 1.052 1.052 0 00-.354-.282 2.606 2.606 0 00-.51-.204l-.582-.186a7.84 7.84 0 01-.582-.216 2.137 2.137 0 01-.504-.312 1.445 1.445 0 01-.36-.456 1.533 1.533 0 01-.132-.666c0-.232.048-.454.144-.666.096-.216.236-.404.42-.564.184-.164.41-.294.678-.39.268-.096.574-.144.918-.144.4 0 .758.064 1.074.192.32.124.596.296.828.516l-.24.39z"/></g></g><defs><clipPath id="clip0_147_201"><path fill="#fff" d="M0 0h84v48H0z"/></clipPath><clipPath id="clip1_147_201"><path fill="#fff" d="M0 0h84v48H0z"/></clipPath></defs></svg>