<svg width="52" height="48" fill="none" xmlns="http://www.w3.org/2000/svg"><g clip-path="url(#clip0_147_785)"><g clip-path="url(#clip1_147_785)" fill="#1E212C"><path d="M10.35 21.15V23h-8v-1.85h2.93v-8.43c0-.333.01-.677.03-1.03l-2.08 1.74a.915.915 0 01-.36.18.87.87 0 01-.6-.1.635.635 0 01-.18-.17l-.78-1.07 4.41-3.75h2.03v12.63h2.6zm4.552-8.27c0 .807.206 1.423.62 1.85.42.42 1.013.63 1.78.63.4 0 .756-.063 1.07-.19.313-.127.576-.3.79-.52.213-.22.373-.48.48-.78.113-.3.17-.623.17-.97 0-.393-.06-.743-.18-1.05a2.157 2.157 0 00-.51-.79 2.23 2.23 0 00-.79-.49c-.3-.113-.63-.17-.99-.17-.374 0-.71.063-1.01.19-.3.12-.557.29-.77.51-.214.22-.377.483-.49.79-.114.3-.17.63-.17.99zm3.28 4.51a14.168 14.168 0 00.61-.81 4.11 4.11 0 01-1.1.49c-.4.107-.82.16-1.26.16-.5 0-.99-.087-1.47-.26a3.717 3.717 0 01-1.28-.78 4.1 4.1 0 01-.91-1.3c-.227-.52-.34-1.127-.34-1.82 0-.647.12-1.253.36-1.82a4.57 4.57 0 011.01-1.49 4.737 4.737 0 011.56-1.01 5.289 5.289 0 012.01-.37c.74 0 1.403.117 1.99.35a4.29 4.29 0 011.51.98c.42.42.74.923.96 1.51.226.587.34 1.23.34 1.93 0 .447-.04.87-.12 1.27-.074.4-.18.787-.32 1.16-.14.367-.31.727-.51 1.08-.2.353-.424.703-.67 1.05l-3.31 4.72a1.35 1.35 0 01-.51.41c-.227.107-.484.16-.77.16h-2.27l4.49-5.61zm16.121-1.62c0 1.26-.136 2.357-.41 3.29-.267.927-.64 1.693-1.12 2.3a4.523 4.523 0 01-1.69 1.36 5.023 5.023 0 01-2.1.44 5.024 5.024 0 01-2.1-.44 4.57 4.57 0 01-1.67-1.36c-.473-.607-.843-1.373-1.11-2.3-.267-.933-.4-2.03-.4-3.29 0-1.267.134-2.363.4-3.29.267-.927.637-1.693 1.11-2.3.473-.607 1.03-1.057 1.67-1.35a4.93 4.93 0 012.1-.45c.753 0 1.453.15 2.1.45a4.431 4.431 0 011.69 1.35c.48.607.853 1.373 1.12 2.3.273.927.41 2.023.41 3.29zm-2.55 0c0-1.047-.076-1.913-.23-2.6-.153-.687-.36-1.233-.62-1.64-.253-.407-.546-.69-.88-.85a2.297 2.297 0 00-1.04-.25c-.353 0-.697.083-1.03.25-.326.16-.616.443-.87.85-.253.407-.456.953-.61 1.64-.146.687-.22 1.553-.22 2.6 0 1.047.073 1.913.22 2.6.154.687.357 1.233.61 1.64.254.407.544.693.87.86a2.355 2.355 0 002.07 0c.334-.167.627-.453.88-.86.26-.407.467-.953.62-1.64.154-.687.23-1.553.23-2.6zm13.732 1.43h-3.88v4.12h-2.01V17.2h-3.86v-1.83h3.86v-4.1h2.01v4.1h3.88v1.83zM3.636 39.86c.332 0 .624-.044.876-.132.256-.088.47-.21.642-.366.176-.16.308-.35.396-.57.088-.22.132-.462.132-.726 0-.548-.17-.976-.51-1.284-.336-.308-.848-.462-1.536-.462h-1.38v3.54h1.38zm0-4.458c.544 0 1.016.064 1.416.192a2.69 2.69 0 011.002.534c.264.232.46.512.588.84.132.328.198.694.198 1.098 0 .4-.07.766-.21 1.098-.14.332-.346.618-.618.858a2.86 2.86 0 01-1.002.564 4.345 4.345 0 01-1.374.198h-1.38V44H1.098v-8.598h2.538zM8.95 39.14c.192-.416.428-.74.708-.972.28-.236.622-.354 1.026-.354.128 0 .25.014.366.042.12.028.226.072.318.132l-.078.798c-.024.1-.084.15-.18.15-.056 0-.138-.012-.246-.036a1.694 1.694 0 00-.366-.036c-.192 0-.364.028-.516.084-.148.056-.282.14-.402.252a1.782 1.782 0 00-.318.408c-.092.16-.176.344-.252.552V44H7.936v-6.078h.612c.116 0 .196.022.24.066.044.044.074.12.09.228l.072.924zm5.673-1.314a3.1 3.1 0 011.2.222c.356.148.66.358.912.63s.444.602.576.99c.136.384.204.814.204 1.29 0 .48-.068.912-.204 1.296a2.735 2.735 0 01-.576.984 2.572 2.572 0 01-.912.63 3.175 3.175 0 01-1.2.216c-.448 0-.852-.072-1.212-.216a2.572 2.572 0 01-.912-.63 2.805 2.805 0 01-.582-.984 3.972 3.972 0 01-.198-1.296c0-.476.066-.906.198-1.29.136-.388.33-.718.582-.99.252-.272.556-.482.912-.63.36-.148.764-.222 1.212-.222zm0 5.424c.6 0 1.048-.2 1.344-.6.296-.404.444-.966.444-1.686 0-.724-.148-1.288-.444-1.692-.296-.404-.744-.606-1.344-.606-.304 0-.57.052-.798.156a1.507 1.507 0 00-.564.45c-.148.196-.26.438-.336.726a3.941 3.941 0 00-.108.966c0 .72.148 1.282.444 1.686.3.4.754.6 1.362.6zm7.786-4.326a.237.237 0 01-.222.132.418.418 0 01-.204-.066 3.59 3.59 0 00-.282-.144 2.152 2.152 0 00-.39-.15 1.802 1.802 0 00-.54-.072c-.18 0-.342.024-.486.072a1.16 1.16 0 00-.372.186.875.875 0 00-.234.282.754.754 0 00-.078.342c0 .156.044.286.132.39.092.104.212.194.36.27.148.076.316.144.504.204.188.056.38.118.576.186.2.064.394.136.582.216.188.08.356.18.504.3a1.329 1.329 0 01.492 1.068c0 .28-.05.54-.15.78a1.73 1.73 0 01-.444.618 2.17 2.17 0 01-.72.408c-.284.1-.612.15-.984.15a3.11 3.11 0 01-1.152-.204 2.966 2.966 0 01-.876-.534l.252-.408a.366.366 0 01.114-.12.308.308 0 01.168-.042c.072 0 .148.028.228.084.08.056.176.118.288.186a1.915 1.915 0 001.032.27c.208 0 .39-.026.546-.078.156-.056.286-.13.39-.222a.837.837 0 00.228-.318.955.955 0 00.078-.384.616.616 0 00-.138-.414 1.052 1.052 0 00-.354-.282 2.606 2.606 0 00-.51-.204l-.582-.186a7.84 7.84 0 01-.582-.216 2.137 2.137 0 01-.504-.312 1.445 1.445 0 01-.36-.456 1.533 1.533 0 01-.132-.666c0-.232.048-.454.144-.666.096-.216.236-.404.42-.564.184-.164.41-.294.678-.39.268-.096.574-.144.918-.144.4 0 .758.064 1.074.192.32.124.596.296.828.516l-.24.39zm2.726 3.612c.196.264.41.45.642.558.232.108.492.162.78.162.568 0 1.004-.202 1.308-.606.304-.404.456-.98.456-1.728 0-.396-.036-.736-.108-1.02a1.926 1.926 0 00-.3-.696 1.171 1.171 0 00-.486-.402 1.616 1.616 0 00-.654-.126c-.348 0-.654.08-.918.24-.26.16-.5.386-.72.678v2.94zm-.054-3.672c.256-.316.552-.57.888-.762a2.28 2.28 0 011.152-.288c.352 0 .67.068.954.204.284.132.526.33.726.594.2.26.354.584.462.972.108.388.162.834.162 1.338 0 .448-.06.866-.18 1.254-.12.384-.294.718-.522 1.002-.224.28-.5.502-.828.666-.324.16-.69.24-1.098.24-.372 0-.692-.062-.96-.186a2.301 2.301 0 01-.702-.528v2.688H24.06v-8.136h.642c.152 0 .246.074.282.222l.096.72zm9.774 1.434c0-.248-.036-.474-.108-.678a1.437 1.437 0 00-.306-.534 1.292 1.292 0 00-.486-.348 1.616 1.616 0 00-.654-.126c-.512 0-.918.15-1.218.45-.296.296-.48.708-.552 1.236h3.324zm.864 2.85c-.132.16-.29.3-.474.42a3.022 3.022 0 01-.594.288 3.503 3.503 0 01-.648.168c-.224.04-.446.06-.666.06-.42 0-.808-.07-1.164-.21a2.636 2.636 0 01-.918-.624 2.919 2.919 0 01-.6-1.02 4.135 4.135 0 01-.216-1.392c0-.424.064-.82.192-1.188.132-.368.32-.686.564-.954.244-.272.542-.484.894-.636a2.902 2.902 0 011.188-.234c.364 0 .7.062 1.008.186.312.12.58.296.804.528.228.228.406.512.534.852.128.336.192.72.192 1.152 0 .168-.018.28-.054.336-.036.056-.104.084-.204.084h-4.062c.012.384.064.718.156 1.002.096.284.228.522.396.714.168.188.368.33.6.426a2.1 2.1 0 00.78.138c.268 0 .498-.03.69-.09a3.456 3.456 0 00.852-.402.47.47 0 01.246-.096c.088 0 .156.034.204.102l.3.39zm5.638-4.146a.477.477 0 01-.096.102.216.216 0 01-.132.036.365.365 0 01-.198-.072 2.74 2.74 0 00-.27-.168 1.91 1.91 0 00-.39-.162 1.76 1.76 0 00-.564-.078c-.3 0-.564.054-.792.162-.228.104-.42.256-.576.456a2.15 2.15 0 00-.348.726 3.692 3.692 0 00-.114.954c0 .368.042.696.126.984.084.284.202.524.354.72.156.192.342.34.558.444.22.1.466.15.738.15.26 0 .474-.03.642-.09.168-.064.306-.134.414-.21.112-.076.204-.144.276-.204a.35.35 0 01.222-.096c.088 0 .156.034.204.102l.3.39a2.128 2.128 0 01-.45.42c-.168.116-.35.214-.546.294a3.011 3.011 0 01-.606.168 3.864 3.864 0 01-.648.054c-.38 0-.734-.07-1.062-.21a2.44 2.44 0 01-.846-.606 2.885 2.885 0 01-.564-.984 3.997 3.997 0 01-.204-1.326c0-.452.062-.87.186-1.254.128-.384.312-.714.552-.99.244-.28.542-.498.894-.654a3.023 3.023 0 011.224-.234c.428 0 .804.07 1.128.21.328.136.618.33.87.582l-.282.384zm3.367 5.094c-.48 0-.85-.134-1.11-.402-.256-.268-.384-.654-.384-1.158v-3.72h-.732a.247.247 0 01-.162-.054c-.044-.04-.066-.1-.066-.18v-.426l.996-.126.246-1.878a.254.254 0 01.078-.144.24.24 0 01.168-.06h.54v2.094h1.758v.774h-1.758v3.648c0 .256.062.446.186.57a.65.65 0 00.48.186.875.875 0 00.504-.144c.06-.036.11-.068.15-.096.044-.032.082-.048.114-.048.056 0 .106.034.15.102l.312.51a2.029 2.029 0 01-.666.408c-.26.096-.528.144-.804.144zm5.975-5.172a.237.237 0 01-.222.132.418.418 0 01-.204-.066 3.59 3.59 0 00-.283-.144 2.152 2.152 0 00-.39-.15 1.802 1.802 0 00-.54-.072c-.18 0-.342.024-.486.072a1.16 1.16 0 00-.371.186.875.875 0 00-.235.282.754.754 0 00-.078.342c0 .156.044.286.133.39.091.104.211.194.36.27.148.076.316.144.503.204.188.056.38.118.576.186.2.064.394.136.582.216.189.08.357.18.505.3a1.329 1.329 0 01.492 1.068c0 .28-.05.54-.15.78a1.73 1.73 0 01-.444.618 2.17 2.17 0 01-.72.408c-.284.1-.612.15-.984.15a3.11 3.11 0 01-1.153-.204 2.966 2.966 0 01-.876-.534l.253-.408a.366.366 0 01.114-.12.308.308 0 01.167-.042c.073 0 .149.028.229.084.08.056.176.118.288.186a1.915 1.915 0 001.032.27c.207 0 .39-.026.545-.078.157-.056.287-.13.39-.222a.837.837 0 00.229-.318.955.955 0 00.078-.384.616.616 0 00-.139-.414 1.052 1.052 0 00-.353-.282 2.606 2.606 0 00-.51-.204l-.582-.186a7.84 7.84 0 01-.582-.216 2.137 2.137 0 01-.505-.312 1.445 1.445 0 01-.36-.456 1.533 1.533 0 01-.132-.666c0-.232.049-.454.145-.666.096-.216.236-.404.42-.564.183-.164.41-.294.677-.39.268-.096.575-.144.918-.144.4 0 .758.064 1.075.192.32.124.596.296.828.516l-.24.39z"/></g></g><defs><clipPath id="clip0_147_785"><path fill="#fff" d="M0 0h52v48H0z"/></clipPath><clipPath id="clip1_147_785"><path fill="#fff" d="M0 0h52v48H0z"/></clipPath></defs></svg>