<svg width="139" height="48" fill="none" xmlns="http://www.w3.org/2000/svg"><g clip-path="url(#clip0_147_778)"><g clip-path="url(#clip1_147_778)"><circle opacity=".3" cx="20" cy="24" r="18" stroke="#5A87FC" stroke-width="4"/><path d="M20 40c8.837 0 16-7.163 16-16S28.837 8 20 8V4c11.046 0 20 8.954 20 20s-8.954 20-20 20S0 35.046 0 24c0-1.727.219-3.402.63-5l3.87 1.016A16.03 16.03 0 004 24c0 8.837 7.163 16 16 16z" fill="#5A87FC"/></g><g clip-path="url(#clip2_147_778)" fill="#1E212C"><path d="M62.92 8.54v1.07c0 .32-.033.58-.1.78a4.097 4.097 0 01-.2.49l-5.48 11.28a1.74 1.74 0 01-.48.6c-.207.16-.483.24-.83.24h-1.79l5.59-11.05c.127-.227.25-.433.37-.62.127-.193.267-.377.42-.55H53.5a.547.547 0 01-.4-.17.547.547 0 01-.17-.4V8.54h9.99zm11.782 7.23c0 1.26-.137 2.357-.41 3.29-.267.927-.64 1.693-1.12 2.3a4.524 4.524 0 01-1.69 1.36 5.024 5.024 0 01-2.1.44 5.023 5.023 0 01-2.1-.44 4.569 4.569 0 01-1.67-1.36c-.474-.607-.844-1.373-1.11-2.3-.267-.933-.4-2.03-.4-3.29 0-1.267.133-2.363.4-3.29.266-.927.636-1.693 1.11-2.3.473-.607 1.03-1.057 1.67-1.35.646-.3 1.346-.45 2.1-.45.753 0 1.453.15 2.1.45a4.433 4.433 0 011.69 1.35c.48.607.853 1.373 1.12 2.3.273.927.41 2.023.41 3.29zm-2.55 0c0-1.047-.077-1.913-.23-2.6-.154-.687-.36-1.233-.62-1.64-.254-.407-.547-.69-.88-.85a2.297 2.297 0 00-1.04-.25 2.27 2.27 0 00-1.03.25c-.327.16-.617.443-.87.85-.254.407-.457.953-.61 1.64-.147.687-.22 1.553-.22 2.6 0 1.047.073 1.913.22 2.6.153.687.356 1.233.61 1.64.253.407.543.693.87.86a2.354 2.354 0 002.07 0c.333-.167.626-.453.88-.86.26-.407.466-.953.62-1.64.153-.687.23-1.553.23-2.6zm10.501-3.73c0 .547-.093 1.04-.28 1.48-.18.44-.423.817-.73 1.13a3.317 3.317 0 01-2.34.96c-.48 0-.923-.083-1.33-.25a3.122 3.122 0 01-1.06-.71 3.387 3.387 0 01-.69-1.13 4.153 4.153 0 01-.25-1.48c0-.56.084-1.067.25-1.52a3.36 3.36 0 01.69-1.15c.3-.313.654-.553 1.06-.72.407-.173.85-.26 1.33-.26.48 0 .924.087 1.33.26.413.167.77.407 1.07.72.3.313.534.697.7 1.15.167.453.25.96.25 1.52zm-1.9 0c0-.387-.04-.71-.12-.97a1.686 1.686 0 00-.31-.63 1.041 1.041 0 00-.46-.34 1.423 1.423 0 00-.56-.11c-.2 0-.386.037-.56.11-.173.067-.323.18-.45.34-.12.16-.217.37-.29.63-.073.26-.11.583-.11.97 0 .373.037.687.11.94.073.247.17.447.29.6.127.153.277.263.45.33.174.067.36.1.56.1.2 0 .387-.033.56-.1.18-.067.334-.177.46-.33.134-.153.237-.353.31-.6.08-.253.12-.567.12-.94zm6.71-3.11c.087-.1.187-.19.3-.27.12-.08.287-.12.5-.12h1.8l-10.74 14.09c-.086.107-.19.197-.31.27a.894.894 0 01-.44.1h-1.84l10.73-14.07zm3.36 10.67c0 .547-.093 1.04-.28 1.48-.18.44-.423.817-.73 1.13a3.36 3.36 0 01-1.07.72c-.406.167-.83.25-1.27.25-.48 0-.923-.083-1.33-.25a3.247 3.247 0 01-1.06-.72 3.387 3.387 0 01-.69-1.13 4.153 4.153 0 01-.25-1.48c0-.56.084-1.067.25-1.52a3.35 3.35 0 01.69-1.15c.3-.313.654-.553 1.06-.72.407-.173.85-.26 1.33-.26.48 0 .924.087 1.33.26.413.167.767.407 1.06.72.3.313.534.697.7 1.15.174.453.26.96.26 1.52zm-1.91 0c0-.387-.037-.71-.11-.97a1.686 1.686 0 00-.31-.63 1.041 1.041 0 00-.46-.34 1.423 1.423 0 00-.56-.11c-.2 0-.386.037-.56.11-.173.067-.323.18-.45.34a1.79 1.79 0 00-.3.63c-.066.26-.1.583-.1.97 0 .373.034.687.1.94.074.253.174.457.3.61.127.153.277.263.45.33.174.067.36.1.56.1.2 0 .387-.033.56-.1.18-.067.334-.177.46-.33a1.59 1.59 0 00.31-.61c.073-.253.11-.567.11-.94zM54.262 44h-1.164v-8.598h1.164V44zm2.861-5.196c.133-.148.273-.282.42-.402.148-.12.304-.222.468-.306a2.443 2.443 0 011.134-.27c.332 0 .624.056.877.168.256.108.468.264.636.468.172.2.301.442.39.726.087.284.131.598.131.942V44h-1.074v-3.87c0-.46-.105-.816-.317-1.068-.208-.256-.526-.384-.954-.384-.317 0-.613.076-.889.228a2.936 2.936 0 00-.755.618V44h-1.075v-6.078h.642c.153 0 .247.074.282.222l.084.66zm9.914.198a.477.477 0 01-.096.102.216.216 0 01-.132.036.365.365 0 01-.198-.072 2.74 2.74 0 00-.27-.168 1.91 1.91 0 00-.39-.162 1.76 1.76 0 00-.564-.078c-.3 0-.564.054-.792.162-.228.104-.42.256-.576.456a2.15 2.15 0 00-.348.726 3.692 3.692 0 00-.114.954c0 .368.042.696.126.984.084.284.202.524.354.72.156.192.342.34.558.444.22.1.466.15.738.15.26 0 .474-.03.642-.09.168-.064.306-.134.414-.21.112-.076.204-.144.276-.204a.35.35 0 01.222-.096c.088 0 .156.034.204.102l.3.39a2.128 2.128 0 01-.45.42c-.168.116-.35.214-.546.294a3.011 3.011 0 01-.606.168 3.864 3.864 0 01-.648.054c-.38 0-.734-.07-1.062-.21a2.44 2.44 0 01-.846-.606 2.885 2.885 0 01-.564-.984 3.997 3.997 0 01-.204-1.326c0-.452.062-.87.186-1.254.128-.384.312-.714.552-.99.244-.28.542-.498.894-.654a3.023 3.023 0 011.224-.234c.428 0 .804.07 1.128.21.328.136.618.33.87.582l-.282.384zm2.514.138c.192-.416.428-.74.708-.972.28-.236.622-.354 1.026-.354.128 0 .25.014.366.042.12.028.226.072.318.132l-.078.798c-.024.1-.084.15-.18.15-.056 0-.138-.012-.246-.036a1.694 1.694 0 00-.366-.036c-.192 0-.364.028-.516.084-.148.056-.282.14-.402.252a1.782 1.782 0 00-.318.408c-.092.16-.176.344-.252.552V44h-1.074v-6.078h.612c.116 0 .196.022.24.066.044.044.074.12.09.228l.072.924zm7.18 1.158c0-.248-.037-.474-.109-.678a1.437 1.437 0 00-.306-.534 1.292 1.292 0 00-.486-.348 1.616 1.616 0 00-.654-.126c-.512 0-.918.15-1.218.45-.296.296-.48.708-.552 1.236h3.324zm.863 2.85c-.132.16-.29.3-.474.42a3.022 3.022 0 01-.594.288 3.503 3.503 0 01-.648.168c-.224.04-.446.06-.666.06-.42 0-.808-.07-1.164-.21a2.636 2.636 0 01-.918-.624 2.919 2.919 0 01-.6-1.02 4.135 4.135 0 01-.216-1.392c0-.424.064-.82.192-1.188.132-.368.32-.686.564-.954.244-.272.542-.484.894-.636a2.902 2.902 0 011.188-.234c.364 0 .7.062 1.008.186.312.12.58.296.804.528.228.228.406.512.534.852.128.336.192.72.192 1.152 0 .168-.018.28-.054.336-.036.056-.104.084-.204.084H73.37c.012.384.064.718.156 1.002.096.284.228.522.396.714.168.188.368.33.6.426a2.1 2.1 0 00.78.138c.268 0 .498-.03.69-.09a3.456 3.456 0 00.852-.402.47.47 0 01.246-.096c.088 0 .156.034.204.102l.3.39zm4.702-1.884a8.645 8.645 0 00-1.26.12c-.344.06-.626.14-.846.24-.216.1-.374.218-.474.354a.772.772 0 00-.144.456c0 .16.026.298.078.414a.814.814 0 00.21.288.956.956 0 00.318.162c.124.032.256.048.396.048.188 0 .36-.018.516-.054.156-.04.302-.096.438-.168.14-.072.272-.158.396-.258.128-.1.252-.214.372-.342v-1.26zm-3.45-2.484a3.47 3.47 0 011.086-.726c.388-.16.818-.24 1.29-.24.34 0 .642.056.906.168.264.112.486.268.666.468.18.2.316.442.408.726.092.284.138.596.138.936V44h-.474a.49.49 0 01-.24-.048c-.056-.036-.1-.104-.132-.204l-.12-.576a6.48 6.48 0 01-.468.396 2.93 2.93 0 01-.48.288 2.585 2.585 0 01-.54.174 2.77 2.77 0 01-.63.066c-.236 0-.458-.032-.666-.096a1.61 1.61 0 01-.546-.3 1.453 1.453 0 01-.366-.498 1.807 1.807 0 01-.132-.72c0-.24.066-.47.198-.69.132-.224.346-.422.642-.594.296-.172.682-.312 1.158-.42.476-.112 1.06-.176 1.752-.192v-.474c0-.472-.102-.828-.306-1.068-.204-.244-.502-.366-.894-.366-.264 0-.486.034-.666.102-.176.064-.33.138-.462.222-.128.08-.24.154-.336.222a.48.48 0 01-.276.096.319.319 0 01-.186-.054.57.57 0 01-.132-.144l-.192-.342zm9.661.144a.237.237 0 01-.222.132.418.418 0 01-.204-.066 3.59 3.59 0 00-.282-.144 2.152 2.152 0 00-.39-.15 1.802 1.802 0 00-.54-.072c-.18 0-.342.024-.486.072a1.16 1.16 0 00-.372.186.875.875 0 00-.234.282.754.754 0 00-.078.342c0 .156.044.286.132.39.092.104.212.194.36.27.148.076.316.144.504.204.188.056.38.118.576.186.2.064.394.136.582.216.188.08.356.18.504.3a1.329 1.329 0 01.492 1.068c0 .28-.05.54-.15.78a1.73 1.73 0 01-.444.618 2.17 2.17 0 01-.72.408c-.284.1-.612.15-.984.15a3.11 3.11 0 01-1.152-.204 2.966 2.966 0 01-.876-.534l.252-.408a.366.366 0 01.114-.12.308.308 0 01.168-.042c.072 0 .148.028.228.084.08.056.176.118.288.186a1.915 1.915 0 001.032.27c.208 0 .39-.026.546-.078.156-.056.286-.13.39-.222a.837.837 0 00.228-.318.955.955 0 00.078-.384.616.616 0 00-.138-.414 1.052 1.052 0 00-.354-.282 2.606 2.606 0 00-.51-.204l-.582-.186a7.84 7.84 0 01-.582-.216 2.137 2.137 0 01-.504-.312 1.445 1.445 0 01-.36-.456 1.533 1.533 0 01-.132-.666c0-.232.048-.454.144-.666.096-.216.236-.404.42-.564.184-.164.41-.294.678-.39.268-.096.574-.144.918-.144.4 0 .758.064 1.074.192.32.124.596.296.828.516l-.24.39zm5.72 1.374c0-.248-.037-.474-.109-.678a1.437 1.437 0 00-.305-.534 1.292 1.292 0 00-.487-.348 1.616 1.616 0 00-.653-.126c-.513 0-.919.15-1.219.45-.295.296-.48.708-.551 1.236h3.323zm.864 2.85c-.132.16-.29.3-.474.42a3.022 3.022 0 01-.595.288 3.503 3.503 0 01-.648.168c-.224.04-.445.06-.665.06-.42 0-.809-.07-1.165-.21a2.636 2.636 0 01-.918-.624 2.919 2.919 0 01-.6-1.02 4.135 4.135 0 01-.215-1.392c0-.424.063-.82.191-1.188.133-.368.32-.686.565-.954.244-.272.542-.484.894-.636a2.902 2.902 0 011.188-.234c.364 0 .7.062 1.007.186.313.12.58.296.804.528.229.228.407.512.535.852.127.336.191.72.191 1.152 0 .168-.018.28-.054.336-.035.056-.104.084-.204.084h-4.061c.011.384.063.718.155 1.002.096.284.228.522.396.714.168.188.368.33.6.426a2.1 2.1 0 00.78.138c.269 0 .498-.03.69-.09a3.456 3.456 0 00.853-.402.47.47 0 01.246-.096c.087 0 .156.034.203.102l.3.39zm5.606-5.226V44h-1.068v-6.078h1.068zm.228-1.908a.673.673 0 01-.066.294.815.815 0 01-.168.24.753.753 0 01-.246.162.73.73 0 01-.294.06.73.73 0 01-.528-.222.875.875 0 01-.162-.24.73.73 0 01-.06-.294.73.73 0 01.06-.294.753.753 0 01.162-.246.742.742 0 01.234-.168.73.73 0 01.294-.06.73.73 0 01.294.06c.096.04.178.096.246.168.072.068.128.15.168.246.044.092.066.19.066.294zm2.534 2.79c.132-.148.272-.282.42-.402.148-.12.304-.222.468-.306a2.443 2.443 0 011.134-.27c.332 0 .624.056.876.168.256.108.468.264.636.468.172.2.302.442.39.726.088.284.132.598.132.942V44h-1.074v-3.87c0-.46-.106-.816-.318-1.068-.208-.256-.526-.384-.954-.384-.316 0-.612.076-.888.228a2.936 2.936 0 00-.756.618V44h-1.074v-6.078h.642c.152 0 .246.074.282.222l.084.66zm9.858-3.642V44h-1.068v-8.838h1.068zm5.8 5.136c0-.248-.036-.474-.108-.678a1.437 1.437 0 00-.306-.534 1.292 1.292 0 00-.486-.348 1.616 1.616 0 00-.654-.126c-.512 0-.918.15-1.218.45-.296.296-.48.708-.552 1.236h3.324zm.864 2.85c-.132.16-.29.3-.474.42a3.022 3.022 0 01-.594.288 3.503 3.503 0 01-.648.168c-.224.04-.446.06-.666.06-.42 0-.808-.07-1.164-.21a2.636 2.636 0 01-.918-.624 2.919 2.919 0 01-.6-1.02 4.135 4.135 0 01-.216-1.392c0-.424.064-.82.192-1.188.132-.368.32-.686.564-.954.244-.272.542-.484.894-.636a2.902 2.902 0 011.188-.234c.364 0 .7.062 1.008.186.312.12.58.296.804.528.228.228.406.512.534.852.128.336.192.72.192 1.152 0 .168-.018.28-.054.336-.036.056-.104.084-.204.084h-4.062c.012.384.064.718.156 1.002.096.284.228.522.396.714.168.188.368.33.6.426a2.1 2.1 0 00.78.138c.268 0 .498-.03.69-.09a3.456 3.456 0 00.852-.402.47.47 0 01.246-.096c.088 0 .156.034.204.102l.3.39zm4.702-1.884a8.645 8.645 0 00-1.26.12c-.344.06-.626.14-.846.24-.216.1-.374.218-.474.354a.772.772 0 00-.144.456c0 .16.026.298.078.414a.814.814 0 00.21.288.956.956 0 00.318.162c.124.032.256.048.396.048.188 0 .36-.018.516-.054.156-.04.302-.096.438-.168.14-.072.272-.158.396-.258.128-.1.252-.214.372-.342v-1.26zm-3.45-2.484a3.47 3.47 0 011.086-.726c.388-.16.818-.24 1.29-.24.34 0 .642.056.906.168.264.112.486.268.666.468.18.2.316.442.408.726.092.284.138.596.138.936V44h-.474a.49.49 0 01-.24-.048c-.056-.036-.1-.104-.132-.204l-.12-.576c-.16.148-.316.28-.468.396a2.935 2.935 0 01-.48.288 2.585 2.585 0 01-.54.174 2.77 2.77 0 01-.63.066c-.236 0-.458-.032-.666-.096a1.61 1.61 0 01-.546-.3 1.453 1.453 0 01-.366-.498 1.807 1.807 0 01-.132-.72c0-.24.066-.47.198-.69.132-.224.346-.422.642-.594.296-.172.682-.312 1.158-.42.476-.112 1.06-.176 1.752-.192v-.474c0-.472-.102-.828-.306-1.068-.204-.244-.502-.366-.894-.366-.264 0-.486.034-.666.102-.176.064-.33.138-.462.222-.128.08-.24.154-.336.222a.48.48 0 01-.276.096.319.319 0 01-.186-.054.567.567 0 01-.132-.144l-.192-.342zm10.081.588c-.2-.268-.416-.454-.648-.558a1.826 1.826 0 00-.78-.162c-.564 0-.998.202-1.302.606-.304.404-.456.98-.456 1.728 0 .396.034.736.102 1.02.068.28.168.512.3.696.132.18.294.312.486.396.192.084.41.126.654.126.352 0 .658-.08.918-.24.264-.16.506-.386.726-.678v-2.934zm1.068-4.206V44h-.636c-.152 0-.248-.074-.288-.222l-.096-.738a3.31 3.31 0 01-.888.756 2.26 2.26 0 01-1.152.288c-.348 0-.664-.066-.948-.198a1.994 1.994 0 01-.726-.594c-.2-.26-.354-.584-.462-.972a5.004 5.004 0 01-.162-1.338c0-.448.06-.864.18-1.248.12-.388.292-.724.516-1.008.224-.284.498-.506.822-.666a2.434 2.434 0 011.104-.246c.372 0 .69.064.954.192.268.124.506.298.714.522v-3.366h1.068zm5.227 3.762a.237.237 0 01-.222.132.418.418 0 01-.204-.066 3.59 3.59 0 00-.282-.144 2.152 2.152 0 00-.39-.15 1.802 1.802 0 00-.54-.072c-.18 0-.342.024-.486.072a1.16 1.16 0 00-.372.186.875.875 0 00-.234.282.754.754 0 00-.078.342c0 .156.044.286.132.39.092.104.212.194.36.27.148.076.316.144.504.204.188.056.38.118.576.186.2.064.394.136.582.216.188.08.356.18.504.3a1.329 1.329 0 01.492 1.068c0 .28-.05.54-.15.78a1.73 1.73 0 01-.444.618 2.17 2.17 0 01-.72.408c-.284.1-.612.15-.984.15a3.11 3.11 0 01-1.152-.204 2.966 2.966 0 01-.876-.534l.252-.408a.366.366 0 01.114-.12.308.308 0 01.168-.042c.072 0 .148.028.228.084.08.056.176.118.288.186a1.915 1.915 0 001.032.27c.208 0 .39-.026.546-.078.156-.056.286-.13.39-.222a.837.837 0 00.228-.318.955.955 0 00.078-.384.616.616 0 00-.138-.414 1.052 1.052 0 00-.354-.282 2.606 2.606 0 00-.51-.204l-.582-.186a7.84 7.84 0 01-.582-.216 2.137 2.137 0 01-.504-.312 1.445 1.445 0 01-.36-.456 1.533 1.533 0 01-.132-.666c0-.232.048-.454.144-.666.096-.216.236-.404.42-.564.184-.164.41-.294.678-.39.268-.096.574-.144.918-.144.4 0 .758.064 1.074.192.32.124.596.296.828.516l-.24.39z"/></g></g><defs><clipPath id="clip0_147_778"><path fill="#fff" d="M0 0h139v48H0z"/></clipPath><clipPath id="clip1_147_778"><path fill="#fff" transform="translate(0 4)" d="M0 0h40v40H0z"/></clipPath><clipPath id="clip2_147_778"><path fill="#fff" transform="translate(52)" d="M0 0h87v48H0z"/></clipPath></defs></svg>