<svg width="109" height="48" fill="none" xmlns="http://www.w3.org/2000/svg"><g clip-path="url(#clip0_147_194)"><g clip-path="url(#clip1_147_194)"><circle opacity=".3" cx="20" cy="24" r="18" stroke="#FF4242" stroke-width="4"/><path d="M20 40c8.837 0 16-7.163 16-16S28.837 8 20 8V4c11.046 0 20 8.954 20 20s-8.954 20-20 20S0 35.046 0 24c0-1.727.219-3.402.63-5l3.87 1.016A16.03 16.03 0 004 24c0 8.837 7.163 16 16 16z" fill="#FF4242"/></g><g clip-path="url(#clip2_147_194)" fill="#1E212C"><path d="M57.8 21.23c.407 0 .763-.057 1.07-.17a2.21 2.21 0 00.77-.49c.213-.207.373-.453.48-.74.107-.287.16-.597.16-.93 0-.793-.22-1.393-.66-1.8-.44-.407-1.047-.61-1.82-.61-.773 0-1.38.203-1.82.61-.44.407-.66 1.007-.66 1.8 0 .333.053.643.16.93.107.287.263.533.47.74.213.207.473.37.78.49.307.113.663.17 1.07.17zm0-10.99a2.42 2.42 0 00-.95.17 1.842 1.842 0 00-1.06 1.11c-.08.247-.12.507-.12.78 0 .287.033.567.1.84.073.267.193.507.36.72.167.207.387.373.66.5s.61.19 1.01.19.737-.063 1.01-.19.493-.293.66-.5c.167-.213.283-.453.35-.72.073-.273.11-.553.11-.84a2.33 2.33 0 00-.13-.78 1.842 1.842 0 00-.39-.65 1.833 1.833 0 00-.66-.46 2.42 2.42 0 00-.95-.17zm2.44 5.22c.88.287 1.53.727 1.95 1.32.42.587.63 1.307.63 2.16 0 .64-.123 1.22-.37 1.74-.24.52-.58.963-1.02 1.33-.44.367-.97.65-1.59.85-.613.2-1.293.3-2.04.3-.747 0-1.43-.1-2.05-.3a4.726 4.726 0 01-1.58-.85 3.87 3.87 0 01-1.03-1.33c-.24-.52-.36-1.1-.36-1.74 0-.853.21-1.573.63-2.16.42-.593 1.07-1.033 1.95-1.32-.7-.293-1.227-.71-1.58-1.25-.347-.54-.52-1.19-.52-1.95 0-.547.11-1.057.33-1.53.227-.473.54-.883.94-1.23a4.25 4.25 0 011.43-.82c.56-.2 1.173-.3 1.84-.3s1.277.1 1.83.3c.56.193 1.04.467 1.44.82.4.347.71.757.93 1.23.227.473.34.983.34 1.53 0 .76-.177 1.41-.53 1.95-.347.54-.87.957-1.57 1.25zm14.462.31c0 1.26-.137 2.357-.41 3.29-.267.927-.64 1.693-1.12 2.3a4.524 4.524 0 01-1.69 1.36 5.024 5.024 0 01-2.1.44 5.023 5.023 0 01-2.1-.44 4.569 4.569 0 01-1.67-1.36c-.474-.607-.844-1.373-1.11-2.3-.267-.933-.4-2.03-.4-3.29 0-1.267.133-2.363.4-3.29.266-.927.636-1.693 1.11-2.3.473-.607 1.03-1.057 1.67-1.35.646-.3 1.346-.45 2.1-.45.753 0 1.453.15 2.1.45a4.433 4.433 0 011.69 1.35c.48.607.853 1.373 1.12 2.3.273.927.41 2.023.41 3.29zm-2.55 0c0-1.047-.077-1.913-.23-2.6-.154-.687-.36-1.233-.62-1.64-.254-.407-.547-.69-.88-.85a2.297 2.297 0 00-1.04-.25 2.27 2.27 0 00-1.03.25c-.327.16-.617.443-.87.85-.254.407-.457.953-.61 1.64-.147.687-.22 1.553-.22 2.6 0 1.047.073 1.913.22 2.6.153.687.356 1.233.61 1.64.253.407.543.693.87.86a2.354 2.354 0 002.07 0c.333-.167.626-.453.88-.86.26-.407.466-.953.62-1.64.153-.687.23-1.553.23-2.6zm10.501-3.73c0 .547-.093 1.04-.28 1.48-.18.44-.423.817-.73 1.13a3.317 3.317 0 01-2.34.96c-.48 0-.923-.083-1.33-.25a3.122 3.122 0 01-1.06-.71 3.387 3.387 0 01-.69-1.13 4.153 4.153 0 01-.25-1.48c0-.56.084-1.067.25-1.52a3.36 3.36 0 01.69-1.15c.3-.313.654-.553 1.06-.72.407-.173.85-.26 1.33-.26.48 0 .924.087 1.33.26.413.167.77.407 1.07.72.3.313.534.697.7 1.15.167.453.25.96.25 1.52zm-1.9 0c0-.387-.04-.71-.12-.97a1.686 1.686 0 00-.31-.63 1.041 1.041 0 00-.46-.34 1.423 1.423 0 00-.56-.11c-.2 0-.386.037-.56.11-.173.067-.323.18-.45.34-.12.16-.217.37-.29.63-.073.26-.11.583-.11.97 0 .373.037.687.11.94.073.247.17.447.29.6.127.153.277.263.45.33.174.067.36.1.56.1.2 0 .387-.033.56-.1.18-.067.334-.177.46-.33.134-.153.237-.353.31-.6.08-.253.12-.567.12-.94zm6.71-3.11c.087-.1.187-.19.3-.27.12-.08.287-.12.5-.12h1.8l-10.74 14.09c-.086.107-.19.197-.31.27a.894.894 0 01-.44.1h-1.84l10.73-14.07zm3.36 10.67c0 .547-.093 1.04-.28 1.48-.18.44-.423.817-.73 1.13a3.36 3.36 0 01-1.07.72c-.406.167-.83.25-1.27.25-.48 0-.923-.083-1.33-.25a3.247 3.247 0 01-1.06-.72 3.387 3.387 0 01-.69-1.13 4.153 4.153 0 01-.25-1.48c0-.56.084-1.067.25-1.52a3.35 3.35 0 01.69-1.15c.3-.313.654-.553 1.06-.72.407-.173.85-.26 1.33-.26.48 0 .924.087 1.33.26.413.167.767.407 1.06.72.3.313.534.697.7 1.15.174.453.26.96.26 1.52zm-1.91 0c0-.387-.037-.71-.11-.97a1.686 1.686 0 00-.31-.63 1.041 1.041 0 00-.46-.34 1.423 1.423 0 00-.56-.11c-.2 0-.386.037-.56.11-.173.067-.323.18-.45.34a1.79 1.79 0 00-.3.63c-.066.26-.1.583-.1.97 0 .373.034.687.1.94.074.253.174.457.3.61.127.153.277.263.45.33.174.067.36.1.56.1.2 0 .387-.033.56-.1.18-.067.334-.177.46-.33a1.59 1.59 0 00.31-.61c.073-.253.11-.567.11-.94zM61.042 39.704c0 .644-.102 1.236-.306 1.776a4.066 4.066 0 01-.864 1.386 3.89 3.89 0 01-1.344.906 4.537 4.537 0 01-1.728.318 4.537 4.537 0 01-1.728-.318 3.903 3.903 0 01-1.338-.906 4.066 4.066 0 01-.864-1.386 4.987 4.987 0 01-.306-1.776c0-.644.102-1.234.306-1.77.204-.54.492-1.004.864-1.392a3.863 3.863 0 011.338-.912 4.463 4.463 0 011.728-.324c.632 0 1.208.108 1.728.324.524.216.972.52 1.344.912.372.388.66.852.864 1.392.204.536.306 1.126.306 1.77zm-1.194 0a4.37 4.37 0 00-.216-1.422 2.977 2.977 0 00-.612-1.062 2.639 2.639 0 00-.96-.672 3.259 3.259 0 00-1.26-.234c-.46 0-.878.078-1.254.234-.376.156-.698.38-.966.672a2.977 2.977 0 00-.612 1.062 4.37 4.37 0 00-.216 1.422c0 .528.072 1.002.216 1.422.144.416.348.77.612 1.062.268.288.59.51.966.666.376.152.794.228 1.254.228.464 0 .884-.076 1.26-.228.376-.156.696-.378.96-.666.264-.292.468-.646.612-1.062a4.37 4.37 0 00.216-1.422zm3.564 2.832c.196.264.41.45.642.558.232.108.492.162.78.162.568 0 1.004-.202 1.308-.606.304-.404.456-.98.456-1.728 0-.396-.036-.736-.108-1.02a1.926 1.926 0 00-.3-.696 1.171 1.171 0 00-.486-.402 1.616 1.616 0 00-.654-.126c-.348 0-.654.08-.918.24-.26.16-.5.386-.72.678v2.94zm-.054-3.672c.256-.316.552-.57.888-.762a2.28 2.28 0 011.152-.288c.352 0 .67.068.954.204.284.132.526.33.726.594.2.26.354.584.462.972.108.388.162.834.162 1.338 0 .448-.06.866-.18 1.254-.12.384-.294.718-.522 1.002-.224.28-.5.502-.828.666-.324.16-.69.24-1.098.24-.372 0-.692-.062-.96-.186a2.301 2.301 0 01-.702-.528v2.688h-1.074v-8.136h.642c.152 0 .246.074.282.222l.096.72zm9.775 1.434c0-.248-.036-.474-.108-.678a1.437 1.437 0 00-.306-.534 1.292 1.292 0 00-.486-.348 1.616 1.616 0 00-.654-.126c-.512 0-.918.15-1.218.45-.296.296-.48.708-.552 1.236h3.324zm.864 2.85c-.132.16-.29.3-.474.42a3.022 3.022 0 01-.594.288 3.503 3.503 0 01-.648.168c-.224.04-.446.06-.666.06-.42 0-.808-.07-1.164-.21a2.636 2.636 0 01-.918-.624 2.919 2.919 0 01-.6-1.02 4.135 4.135 0 01-.216-1.392c0-.424.064-.82.192-1.188.132-.368.32-.686.564-.954.244-.272.542-.484.894-.636a2.902 2.902 0 011.188-.234c.364 0 .7.062 1.008.186.312.12.58.296.804.528.228.228.406.512.534.852.128.336.192.72.192 1.152 0 .168-.018.28-.054.336-.036.056-.104.084-.204.084h-4.062c.012.384.064.718.156 1.002.096.284.228.522.396.714.168.188.368.33.6.426a2.1 2.1 0 00.78.138c.268 0 .498-.03.69-.09a3.456 3.456 0 00.852-.402.47.47 0 01.246-.096c.088 0 .156.034.204.102l.3.39zm2.416-4.344c.132-.148.272-.282.42-.402.148-.12.304-.222.468-.306a2.443 2.443 0 011.134-.27c.332 0 .624.056.876.168.256.108.468.264.636.468.172.2.302.442.39.726.088.284.132.598.132.942V44h-1.074v-3.87c0-.46-.106-.816-.318-1.068-.208-.256-.526-.384-.954-.384-.316 0-.612.076-.888.228a2.936 2.936 0 00-.756.618V44h-1.074v-6.078h.642c.152 0 .246.074.282.222l.084.66zm11.387.762c.336 0 .632-.04.888-.12.26-.084.476-.2.648-.348.176-.152.308-.332.396-.54.088-.208.132-.438.132-.69 0-.512-.168-.898-.504-1.158-.336-.26-.84-.39-1.512-.39h-1.272v3.246H87.8zM91.772 44H90.74c-.212 0-.368-.082-.468-.246l-2.232-3.072a.62.62 0 00-.222-.204c-.076-.044-.196-.066-.36-.066h-.882V44h-1.158v-8.598h2.43c.544 0 1.014.056 1.41.168.396.108.722.266.978.474.26.208.452.46.576.756.124.292.186.62.186.984 0 .304-.048.588-.144.852a2.257 2.257 0 01-.42.714c-.18.208-.402.386-.666.534-.26.148-.556.26-.888.336.148.084.276.206.384.366L91.772 44zm4.118-2.736a8.645 8.645 0 00-1.26.12c-.344.06-.626.14-.846.24-.216.1-.374.218-.474.354a.772.772 0 00-.144.456c0 .16.026.298.078.414a.814.814 0 00.21.288.956.956 0 00.318.162c.124.032.256.048.396.048.188 0 .36-.018.516-.054.156-.04.302-.096.438-.168.14-.072.272-.158.396-.258.128-.1.252-.214.372-.342v-1.26zm-3.45-2.484a3.47 3.47 0 011.086-.726c.388-.16.818-.24 1.29-.24.34 0 .642.056.906.168.264.112.486.268.666.468.18.2.316.442.408.726.092.284.138.596.138.936V44h-.474a.49.49 0 01-.24-.048c-.056-.036-.1-.104-.132-.204l-.12-.576c-.16.148-.316.28-.468.396a2.935 2.935 0 01-.48.288 2.585 2.585 0 01-.54.174 2.77 2.77 0 01-.63.066c-.236 0-.458-.032-.666-.096a1.61 1.61 0 01-.546-.3 1.453 1.453 0 01-.366-.498 1.807 1.807 0 01-.132-.72c0-.24.066-.47.198-.69.132-.224.346-.422.642-.594.296-.172.682-.312 1.158-.42.476-.112 1.06-.176 1.752-.192v-.474c0-.472-.102-.828-.306-1.068-.204-.244-.502-.366-.894-.366-.264 0-.486.034-.666.102-.176.064-.33.138-.462.222-.128.08-.24.154-.336.222a.48.48 0 01-.276.096.319.319 0 01-.186-.054.567.567 0 01-.132-.144l-.192-.342zm7.905 5.316c-.48 0-.85-.134-1.11-.402-.256-.268-.384-.654-.384-1.158v-3.72h-.732a.247.247 0 01-.162-.054c-.044-.04-.066-.1-.066-.18v-.426l.996-.126.246-1.878a.254.254 0 01.078-.144.24.24 0 01.168-.06h.54v2.094h1.758v.774h-1.758v3.648c0 .256.062.446.186.57a.65.65 0 00.48.186.875.875 0 00.504-.144c.06-.036.11-.068.15-.096.044-.032.082-.048.114-.048.056 0 .106.034.15.102l.312.51a2.029 2.029 0 01-.666.408c-.26.096-.528.144-.804.144zm6.467-3.798c0-.248-.036-.474-.108-.678a1.437 1.437 0 00-.306-.534 1.292 1.292 0 00-.486-.348 1.616 1.616 0 00-.654-.126c-.512 0-.918.15-1.218.45-.296.296-.48.708-.552 1.236h3.324zm.864 2.85c-.132.16-.29.3-.474.42a3.022 3.022 0 01-.594.288 3.503 3.503 0 01-.648.168c-.224.04-.446.06-.666.06-.42 0-.808-.07-1.164-.21a2.636 2.636 0 01-.918-.624 2.919 2.919 0 01-.6-1.02 4.135 4.135 0 01-.216-1.392c0-.424.064-.82.192-1.188.132-.368.32-.686.564-.954.244-.272.542-.484.894-.636a2.902 2.902 0 011.188-.234c.364 0 .7.062 1.008.186.312.12.58.296.804.528.228.228.406.512.534.852.128.336.192.72.192 1.152 0 .168-.018.28-.054.336-.036.056-.104.084-.204.084h-4.062c.012.384.064.718.156 1.002.096.284.228.522.396.714.168.188.368.33.6.426a2.1 2.1 0 00.78.138c.268 0 .498-.03.69-.09a3.456 3.456 0 00.852-.402.47.47 0 01.246-.096c.088 0 .156.034.204.102l.3.39z"/></g></g><defs><clipPath id="clip0_147_194"><path fill="#fff" d="M0 0h109v48H0z"/></clipPath><clipPath id="clip1_147_194"><path fill="#fff" transform="translate(0 4)" d="M0 0h40v40H0z"/></clipPath><clipPath id="clip2_147_194"><path fill="#fff" transform="translate(52)" d="M0 0h57v48H0z"/></clipPath></defs></svg>