<svg width="122" height="48" fill="none" xmlns="http://www.w3.org/2000/svg"><g clip-path="url(#clip0_147_812)"><g clip-path="url(#clip1_147_812)"><circle cx="20" cy="24" r="18" stroke="#03CEA4" stroke-width="4"/></g><g clip-path="url(#clip2_147_812)" fill="#1E212C"><path d="M62.35 21.15V23h-8v-1.85h2.93v-8.43c0-.333.01-.677.03-1.03l-2.08 1.74a.915.915 0 01-.36.18.87.87 0 01-.6-.1.635.635 0 01-.18-.17l-.78-1.07 4.41-3.75h2.03v12.63h2.6zm12.352-5.38c0 1.26-.137 2.357-.41 3.29-.267.927-.64 1.693-1.12 2.3a4.524 4.524 0 01-1.69 1.36 5.024 5.024 0 01-2.1.44 5.023 5.023 0 01-2.1-.44 4.569 4.569 0 01-1.67-1.36c-.474-.607-.844-1.373-1.11-2.3-.267-.933-.4-2.03-.4-3.29 0-1.267.133-2.363.4-3.29.266-.927.636-1.693 1.11-2.3.473-.607 1.03-1.057 1.67-1.35.646-.3 1.346-.45 2.1-.45.753 0 1.453.15 2.1.45a4.433 4.433 0 011.69 1.35c.48.607.853 1.373 1.12 2.3.273.927.41 2.023.41 3.29zm-2.55 0c0-1.047-.077-1.913-.23-2.6-.154-.687-.36-1.233-.62-1.64-.254-.407-.547-.69-.88-.85a2.297 2.297 0 00-1.04-.25 2.27 2.27 0 00-1.03.25c-.327.16-.617.443-.87.85-.254.407-.457.953-.61 1.64-.147.687-.22 1.553-.22 2.6 0 1.047.073 1.913.22 2.6.153.687.356 1.233.61 1.64.253.407.543.693.87.86a2.354 2.354 0 002.07 0c.333-.167.626-.453.88-.86.26-.407.466-.953.62-1.64.153-.687.23-1.553.23-2.6zm14.151 0c0 1.26-.136 2.357-.41 3.29-.267.927-.64 1.693-1.12 2.3a4.523 4.523 0 01-1.69 1.36 5.023 5.023 0 01-2.1.44 5.024 5.024 0 01-2.1-.44 4.57 4.57 0 01-1.67-1.36c-.473-.607-.843-1.373-1.11-2.3-.266-.933-.4-2.03-.4-3.29 0-1.267.133-2.363.4-3.29s.637-1.693 1.11-2.3c.474-.607 1.03-1.057 1.67-1.35a4.93 4.93 0 012.1-.45c.754 0 1.453.15 2.1.45a4.431 4.431 0 011.69 1.35c.48.607.853 1.373 1.12 2.3.273.927.41 2.023.41 3.29zm-2.55 0c0-1.047-.076-1.913-.23-2.6-.153-.687-.36-1.233-.62-1.64-.253-.407-.547-.69-.88-.85a2.297 2.297 0 00-1.04-.25c-.353 0-.697.083-1.03.25-.327.16-.617.443-.87.85s-.457.953-.61 1.64c-.147.687-.22 1.553-.22 2.6 0 1.047.073 1.913.22 2.6.153.687.357 1.233.61 1.64.254.407.543.693.87.86a2.355 2.355 0 002.07 0c.334-.167.627-.453.88-.86.26-.407.467-.953.62-1.64.154-.687.23-1.553.23-2.6zm10.502-3.73c0 .547-.094 1.04-.28 1.48-.18.44-.424.817-.73 1.13a3.317 3.317 0 01-2.34.96c-.48 0-.924-.083-1.33-.25a3.12 3.12 0 01-1.06-.71 3.387 3.387 0 01-.69-1.13 4.151 4.151 0 01-.25-1.48c0-.56.083-1.067.25-1.52a3.33 3.33 0 01.69-1.15 3.06 3.06 0 011.06-.72 3.36 3.36 0 011.33-.26c.48 0 .923.087 1.33.26.413.167.77.407 1.07.72.3.313.533.697.7 1.15.166.453.25.96.25 1.52zm-1.9 0c0-.387-.04-.71-.12-.97a1.688 1.688 0 00-.31-.63 1.042 1.042 0 00-.46-.34 1.423 1.423 0 00-.56-.11c-.2 0-.387.037-.56.11-.174.067-.324.18-.45.34-.12.16-.217.37-.29.63-.074.26-.11.583-.11.97 0 .373.036.687.11.94.073.247.17.447.29.6.126.153.276.263.45.33.173.067.36.1.56.1.2 0 .386-.033.56-.1.18-.067.333-.177.46-.33.133-.153.236-.353.31-.6.08-.253.12-.567.12-.94zm6.71-3.11c.086-.1.186-.19.3-.27.12-.08.286-.12.5-.12h1.8l-10.74 14.09a1.2 1.2 0 01-.31.27.894.894 0 01-.44.1h-1.84l10.73-14.07zm3.36 10.67c0 .547-.094 1.04-.28 1.48-.18.44-.424.817-.73 1.13a3.372 3.372 0 01-1.07.72 3.32 3.32 0 01-1.27.25c-.48 0-.924-.083-1.33-.25a3.246 3.246 0 01-1.06-.72 3.387 3.387 0 01-.69-1.13 4.151 4.151 0 01-.25-1.48c0-.56.083-1.067.25-1.52a3.35 3.35 0 01.69-1.15 3.06 3.06 0 011.06-.72 3.36 3.36 0 011.33-.26c.48 0 .923.087 1.33.26.413.167.766.407 1.06.72.3.313.533.697.7 1.15.173.453.26.96.26 1.52zm-1.91 0c0-.387-.037-.71-.11-.97a1.703 1.703 0 00-.31-.63 1.044 1.044 0 00-.46-.34 1.423 1.423 0 00-.56-.11c-.2 0-.387.037-.56.11-.174.067-.324.18-.45.34-.127.16-.227.37-.3.63-.067.26-.1.583-.1.97 0 .373.033.687.1.94.073.253.173.457.3.61.126.153.276.263.45.33.173.067.36.1.56.1.2 0 .386-.033.56-.1.18-.067.333-.177.46-.33.133-.153.236-.357.31-.61.073-.253.11-.567.11-.94zM60.55 39.704c0 .644-.102 1.23-.306 1.758-.204.528-.492.98-.864 1.356-.372.376-.82.668-1.344.876a4.694 4.694 0 01-1.728.306h-3.21v-8.598h3.21c.632 0 1.208.104 1.728.312.524.204.972.496 1.344.876.372.376.66.828.864 1.356.204.528.306 1.114.306 1.758zm-1.194 0c0-.528-.072-1-.216-1.416a2.984 2.984 0 00-.612-1.056 2.61 2.61 0 00-.96-.66 3.335 3.335 0 00-1.26-.228h-2.046v6.714h2.046c.464 0 .884-.076 1.26-.228.376-.152.696-.37.96-.654.264-.288.468-.64.612-1.056.144-.416.216-.888.216-1.416zm6.605.594c0-.248-.036-.474-.108-.678a1.437 1.437 0 00-.306-.534 1.292 1.292 0 00-.486-.348 1.616 1.616 0 00-.654-.126c-.512 0-.918.15-1.218.45-.296.296-.48.708-.552 1.236h3.324zm.864 2.85c-.132.16-.29.3-.474.42a3.022 3.022 0 01-.594.288 3.503 3.503 0 01-.648.168c-.224.04-.446.06-.666.06-.42 0-.808-.07-1.164-.21a2.636 2.636 0 01-.918-.624 2.919 2.919 0 01-.6-1.02 4.135 4.135 0 01-.216-1.392c0-.424.064-.82.192-1.188.132-.368.32-.686.564-.954.244-.272.542-.484.894-.636a2.902 2.902 0 011.188-.234c.364 0 .7.062 1.008.186.312.12.58.296.804.528.228.228.406.512.534.852.128.336.192.72.192 1.152 0 .168-.018.28-.054.336-.036.056-.104.084-.204.084H62.6c.012.384.064.718.156 1.002.096.284.228.522.396.714.168.188.368.33.6.426a2.1 2.1 0 00.78.138c.268 0 .498-.03.69-.09a3.456 3.456 0 00.852-.402.47.47 0 01.246-.096c.088 0 .156.034.204.102l.3.39zm2.512-7.986V44h-1.068v-8.838h1.068zm2.86 2.76V44h-1.068v-6.078h1.068zm.228-1.908a.673.673 0 01-.066.294.815.815 0 01-.168.24.753.753 0 01-.246.162.73.73 0 01-.294.06.73.73 0 01-.528-.222.875.875 0 01-.162-.24.73.73 0 01-.06-.294.73.73 0 01.06-.294.753.753 0 01.162-.246.742.742 0 01.234-.168.73.73 0 01.294-.06.73.73 0 01.294.06c.096.04.178.096.246.168.072.068.128.15.168.246.044.092.066.19.066.294zm6.734 1.908L76.681 44h-.96l-2.478-6.078h.87a.33.33 0 01.33.222l1.543 3.912c.047.148.09.292.126.432.035.14.07.28.102.42.032-.14.066-.28.102-.42.035-.14.08-.284.132-.432l1.56-3.912a.33.33 0 01.12-.156.311.311 0 01.198-.066h.834zm4.884 2.376c0-.248-.036-.474-.108-.678a1.437 1.437 0 00-.306-.534 1.292 1.292 0 00-.486-.348 1.616 1.616 0 00-.654-.126c-.512 0-.918.15-1.218.45-.296.296-.48.708-.552 1.236h3.324zm.864 2.85c-.132.16-.29.3-.474.42a3.022 3.022 0 01-.594.288 3.503 3.503 0 01-.648.168c-.224.04-.446.06-.666.06-.42 0-.808-.07-1.164-.21a2.636 2.636 0 01-.918-.624 2.919 2.919 0 01-.6-1.02 4.135 4.135 0 01-.216-1.392c0-.424.064-.82.192-1.188.132-.368.32-.686.564-.954.244-.272.542-.484.894-.636a2.902 2.902 0 011.188-.234c.364 0 .7.062 1.008.186.312.12.58.296.804.528.228.228.406.512.534.852.128.336.192.72.192 1.152 0 .168-.018.28-.054.336-.036.056-.104.084-.204.084h-4.062c.012.384.064.718.156 1.002.096.284.228.522.396.714.168.188.368.33.6.426a2.1 2.1 0 00.78.138c.268 0 .498-.03.69-.09a3.456 3.456 0 00.852-.402.47.47 0 01.246-.096c.088 0 .156.034.204.102l.3.39zm2.422-4.008c.192-.416.428-.74.708-.972.28-.236.622-.354 1.026-.354.128 0 .25.014.366.042.12.028.226.072.318.132l-.078.798c-.024.1-.084.15-.18.15-.056 0-.138-.012-.246-.036a1.694 1.694 0 00-.366-.036c-.192 0-.364.028-.516.084-.148.056-.282.14-.402.252a1.782 1.782 0 00-.318.408c-.092.16-.176.344-.252.552V44h-1.074v-6.078h.612c.116 0 .196.022.24.066.044.044.074.12.09.228l.072.924zm6.557 2.124a8.645 8.645 0 00-1.26.12c-.344.06-.626.14-.846.24-.216.1-.374.218-.474.354a.772.772 0 00-.144.456c0 .16.026.298.078.414a.814.814 0 00.21.288.956.956 0 00.318.162c.124.032.256.048.396.048.188 0 .36-.018.516-.054.156-.04.302-.096.438-.168.14-.072.272-.158.396-.258.128-.1.252-.214.372-.342v-1.26zm-3.45-2.484a3.47 3.47 0 011.086-.726c.388-.16.818-.24 1.29-.24.34 0 .642.056.906.168.264.112.486.268.666.468.18.2.316.442.408.726.092.284.138.596.138.936V44h-.474a.49.49 0 01-.24-.048c-.056-.036-.1-.104-.132-.204l-.12-.576c-.16.148-.316.28-.468.396a2.935 2.935 0 01-.48.288 2.585 2.585 0 01-.54.174 2.77 2.77 0 01-.63.066c-.236 0-.458-.032-.666-.096a1.61 1.61 0 01-.546-.3 1.453 1.453 0 01-.366-.498 1.807 1.807 0 01-.132-.72c0-.24.066-.47.198-.69.132-.224.346-.422.642-.594.296-.172.682-.312 1.158-.42.476-.112 1.06-.176 1.752-.192v-.474c0-.472-.102-.828-.306-1.068-.204-.244-.502-.366-.894-.366-.264 0-.486.034-.666.102-.176.064-.33.138-.462.222-.128.08-.24.154-.336.222a.48.48 0 01-.276.096.319.319 0 01-.186-.054.567.567 0 01-.132-.144l-.192-.342zm7.195 3.756c.196.264.41.45.642.558.236.108.494.162.774.162.572 0 1.01-.202 1.314-.606.304-.404.456-1.006.456-1.806 0-.744-.136-1.29-.408-1.638-.268-.352-.652-.528-1.152-.528-.348 0-.652.08-.912.24-.256.16-.494.386-.714.678v2.94zm0-3.738c.256-.296.544-.532.864-.708a2.3 2.3 0 011.116-.264c.356 0 .676.068.96.204.288.136.532.334.732.594.2.256.352.568.456.936.108.368.162.782.162 1.242 0 .492-.06.94-.18 1.344-.12.404-.294.75-.522 1.038a2.372 2.372 0 01-.822.666 2.486 2.486 0 01-1.092.234c-.4 0-.738-.074-1.014-.222a2.257 2.257 0 01-.714-.642l-.054.552c-.032.152-.124.228-.276.228h-.69v-8.838h1.074v3.636zm6.769-.876V44h-1.068v-6.078h1.068zm.228-1.908a.673.673 0 01-.066.294.815.815 0 01-.168.24.753.753 0 01-.246.162.73.73 0 01-.294.06.73.73 0 01-.528-.222.875.875 0 01-.162-.24.73.73 0 01-.06-.294.73.73 0 01.06-.294.753.753 0 01.162-.246.742.742 0 01.234-.168.73.73 0 01.294-.06.73.73 0 01.294.06c.096.04.178.096.246.168.072.068.128.15.168.246.044.092.066.19.066.294zm2.631-.852V44h-1.068v-8.838h1.068zm2.86 2.76V44h-1.068v-6.078h1.068zm.228-1.908a.673.673 0 01-.066.294.815.815 0 01-.168.24.753.753 0 01-.246.162.73.73 0 01-.294.06.73.73 0 01-.528-.222.875.875 0 01-.162-.24.73.73 0 01-.06-.294.73.73 0 01.06-.294.753.753 0 01.162-.246.742.742 0 01.234-.168.73.73 0 01.294-.06.73.73 0 01.294.06c.096.04.178.096.246.168.072.068.128.15.168.246.044.092.066.19.066.294zm3.392 8.082c-.48 0-.85-.134-1.11-.402-.256-.268-.384-.654-.384-1.158v-3.72h-.732a.247.247 0 01-.162-.054c-.044-.04-.066-.1-.066-.18v-.426l.996-.126.246-1.878a.254.254 0 01.078-.144.24.24 0 01.168-.06h.54v2.094h1.758v.774h-1.758v3.648c0 .256.062.446.186.57a.65.65 0 00.48.186.875.875 0 00.504-.144c.06-.036.11-.068.15-.096.044-.032.082-.048.114-.048.056 0 .106.034.15.102l.312.51a2.029 2.029 0 01-.666.408c-.26.096-.528.144-.804.144zm7.679-6.174l-3.39 7.872a.54.54 0 01-.138.192c-.052.048-.134.072-.246.072h-.792l1.11-2.412-2.508-5.724h.924c.092 0 .164.024.216.072a.335.335 0 01.114.15l1.626 3.828c.064.168.118.344.162.528.056-.188.116-.366.18-.534l1.578-3.822a.33.33 0 01.12-.156.327.327 0 01.198-.066h.846z"/></g></g><defs><clipPath id="clip0_147_812"><path fill="#fff" d="M0 0h122v48H0z"/></clipPath><clipPath id="clip1_147_812"><path fill="#fff" transform="translate(0 4)" d="M0 0h40v40H0z"/></clipPath><clipPath id="clip2_147_812"><path fill="#fff" transform="translate(52)" d="M0 0h70v48H0z"/></clipPath></defs></svg>