<svg width="80" height="80" fill="none" xmlns="http://www.w3.org/2000/svg"><g clip-path="url(#clip0_1772_2380)" fill="#F52F6E"><path opacity=".3" fill-rule="evenodd" clip-rule="evenodd" d="M40 72c17.673 0 32-14.327 32-32C72 22.327 57.673 8 40 8 22.327 8 8 22.327 8 40c0 17.673 14.327 32 32 32zm0 8c22.091 0 40-17.909 40-40S62.091 0 40 0 0 17.909 0 40s17.909 40 40 40z"/><path d="M40 72c17.673 0 32-14.327 32-32C72 22.327 57.673 8 40 8V0c22.091 0 40 17.909 40 40S62.091 80 40 80 0 62.091 0 40c0-3.453.438-6.804 1.26-10L9 32.032A32.06 32.06 0 008 40c0 17.673 14.327 32 32 32z"/></g><defs><clipPath id="clip0_1772_2380"><path fill="#fff" d="M0 0h80v80H0z"/></clipPath></defs></svg>