<svg width="48" height="48" fill="none" xmlns="http://www.w3.org/2000/svg"><g clip-path="url(#clip0_147_247)" fill="#7772F1"><path d="M33.356 37.775a.94.94 0 00-1.6.663.94.94 0 00.936.937c.248 0 .489-.1.664-.275a.944.944 0 00.275-.663.94.94 0 00-.275-.662z"/><path d="M47.813 19.126a.938.938 0 00-.75-.376h-3.824V.937A.938.938 0 0042.301 0h-17.25a.938.938 0 00-.937.938v7.218h-9.668a.938.938 0 00-.938.938v9.656h-3.477a.938.938 0 00-.899 1.203l5.53 18.75a.937.937 0 00.9.672h12.985a.938.938 0 000-1.875H16.262l-4.977-16.875H45.81L40.832 37.5h-3.426a.938.938 0 000 1.875h4.127a.938.938 0 00.899-.672l5.53-18.75a.938.938 0 00-.149-.827zm-17.43-.376h-15v-8.719h14.999v8.719zm10.981 0h-9.106V9.094a.938.938 0 00-.938-.938h-5.331V1.875h15.375V18.75z"/><path d="M42.572 41.062H13.645L5.876 14.72a.937.937 0 00-.899-.672H.937a.938.938 0 000 1.875h3.34l7.769 26.342a.937.937 0 00.899.672h4.651a3.447 3.447 0 00-.39 1.594A3.473 3.473 0 0020.677 48a3.473 3.473 0 003.468-3.469c0-.574-.14-1.116-.39-1.594h7.675a3.447 3.447 0 00-.39 1.594A3.473 3.473 0 0034.51 48a3.473 3.473 0 003.468-3.469 3.44 3.44 0 00-.39-1.594h4.985a.938.938 0 000-1.875zm-21.897 5.063a1.595 1.595 0 01-1.593-1.594c0-.879.715-1.594 1.593-1.594a1.595 1.595 0 01.001 3.188zm13.833 0a1.595 1.595 0 01-1.594-1.594 1.595 1.595 0 111.594 1.594zM23.546 23.618a.945.945 0 00-.664-.274c-.247 0-.489.1-.663.274a.943.943 0 000 1.326.946.946 0 00.663.275c.247 0 .488-.1.664-.275a.943.943 0 000-1.326z"/><path d="M18.94 23.344h-6.807a.938.938 0 000 1.875h6.807a.938.938 0 000-1.875z"/></g><defs><clipPath id="clip0_147_247"><path fill="#fff" d="M0 0h48v48H0z"/></clipPath></defs></svg>