<svg width="48" height="48" fill="none" xmlns="http://www.w3.org/2000/svg"><g clip-path="url(#clip0_147_266)" fill="#7772F1"><path d="M47.244 1.61a.936.936 0 00-.267-.568l-.01-.01a.937.937 0 00-.574-.273 30.513 30.513 0 00-15.125.416 30.51 30.51 0 00-13.15 7.74l-.624.625h-8.55a.938.938 0 00-.663.274L.275 17.82a.938.938 0 000 1.326l3.806 3.807-.85.85a.938.938 0 000 1.326l3.249 3.249-2.55 4.514a.938.938 0 00.153 1.124l1.185 1.186a18.722 18.722 0 00-4.197 7.717l-1.04 3.898a.938.938 0 001.148 1.147l3.897-1.04a18.722 18.722 0 007.718-4.196l1.183 1.183a.937.937 0 001.124.153l4.515-2.55 3.258 3.258a.935.935 0 001.326 0l.85-.85 3.792 3.792a.938.938 0 001.326 0l8.006-8.007a.938.938 0 00.275-.663v-8.521l.638-.638a30.513 30.513 0 007.74-13.15 30.51 30.51 0 00.417-15.126zM2.264 18.482l7.068-7.068h6.287L7.122 19.91v.001l-1.715 1.715-3.143-3.144zm2.33 26.63l-2.333.622.622-2.332a16.847 16.847 0 013.712-6.874l4.872 4.871a16.843 16.843 0 01-6.874 3.713zm10.205-3.032l-1.25-1.25a.926.926 0 00-.147-.147l-6.09-6.09a.967.967 0 00-.148-.148l-1.252-1.252 1.944-3.44L18.24 40.137l-3.44 1.944zm21.775-3.425l-7.069 7.07-3.129-3.13 10.198-10.198v6.258zm1.188-10.097L24.388 41.932v.001l-.002.001-.849.85-3.099-3.1L8.31 27.555h-.001l-3.09-3.09 2.566-2.564 12.512 12.512a.935.935 0 001.326 0 .938.938 0 000-1.326L9.111 20.574l10.333-10.333C26.323 3.362 36.03.487 45.517 2.486c2 9.487-.876 19.194-7.755 26.073z"/><path d="M34.936 19.059a.938.938 0 00-.938.937v.06a.937.937 0 00.93.945h.008a.938.938 0 00.937-.93v-.075a.938.938 0 00-.937-.937z"/><path d="M34.465 22.682a.937.937 0 00-1.283.336 6.027 6.027 0 01-5.185 2.98c-3.31 0-6-2.693-6-6.001 0-3.309 2.69-6 6-6a5.99 5.99 0 014.6 2.146.938.938 0 001.436-1.205 7.861 7.861 0 00-6.036-2.817c-4.343 0-7.876 3.533-7.876 7.876 0 4.342 3.533 7.875 7.876 7.875a7.909 7.909 0 006.804-3.908.937.937 0 00-.337-1.282zM23.823 35.288a.938.938 0 10-1.327 1.327.938.938 0 001.327-1.327z"/></g><defs><clipPath id="clip0_147_266"><path fill="#fff" d="M0 0h48v48H0z"/></clipPath></defs></svg>