<svg width="48" height="48" fill="none" xmlns="http://www.w3.org/2000/svg"><g clip-path="url(#clip0_147_1001)" fill="#7772F1"><path d="M45.188 10.125H35.06V7.312A6.57 6.57 0 0028.5.75h-8.995a6.57 6.57 0 00-6.563 6.563v2.812H2.812A2.816 2.816 0 000 12.938v9.937c0 1.416.751 2.66 1.876 3.353v18.21A2.816 2.816 0 004.69 47.25h15.937a.938.938 0 000-1.875H4.689a.939.939 0 01-.938-.938v-17.63c.062.004.124.006.187.006h5.971a3.984 3.984 0 003.97 3.705 3.984 3.984 0 003.969-3.706h12.306a3.984 3.984 0 003.97 3.706 3.984 3.984 0 003.97-3.706h5.968c.064 0 .127-.001.19-.004v17.63a.94.94 0 01-.938.937H28.126a.938.938 0 000 1.875h15.188a2.816 2.816 0 002.812-2.813v-18.21A3.938 3.938 0 0048 22.875v-9.938a2.816 2.816 0 00-2.813-2.812zM14.816 7.312a4.693 4.693 0 014.688-4.687h8.995a4.693 4.693 0 014.687 4.688v2.812h-1.875V7.312A2.816 2.816 0 0028.5 4.5h-8.995a2.816 2.816 0 00-2.813 2.813v2.812h-1.875V7.312zm14.62 0v2.813h-10.87V7.312c0-.516.42-.937.938-.937h8.995c.517 0 .937.42.937.938zM15.983 25.873v.665a2.107 2.107 0 01-2.104 2.105 2.107 2.107 0 01-2.105-2.105v-2.35h4.21v1.685zm20.246.665a2.108 2.108 0 01-2.105 2.105 2.107 2.107 0 01-2.105-2.105v-2.35h4.21v2.35zm9.896-3.663a2.065 2.065 0 01-2.063 2.063h-5.958V23.25a.938.938 0 00-.938-.938h-6.084a.938.938 0 00-.938.938v1.688H17.858V23.25a.938.938 0 00-.937-.938h-6.085a.938.938 0 00-.937.938v1.688H3.938a2.065 2.065 0 01-2.063-2.063v-9.938c0-.516.42-.937.938-.937h42.374c.517 0 .938.42.938.938v9.937z"/><path d="M25.089 45.65a.947.947 0 00-.664-.275c-.247 0-.488.1-.663.275a.944.944 0 00-.274.663c0 .246.1.488.274.662a.947.947 0 00.663.275c.246 0 .488-.1.664-.275a.944.944 0 00.273-.663.943.943 0 00-.273-.662zm5.763-30.703a.944.944 0 00-.663-.275.94.94 0 00-.662.275.944.944 0 00-.275.662c0 .247.1.489.275.663a.945.945 0 00.662.275c.247 0 .489-.1.663-.275a.945.945 0 00.275-.663.94.94 0 00-.275-.662zm15.926-.275H34.131a.938.938 0 000 1.875h12.647a.937.937 0 100-1.875z"/></g><defs><clipPath id="clip0_147_1001"><path fill="#fff" d="M0 0h48v48H0z"/></clipPath></defs></svg>