<svg width="48" height="48" fill="none" xmlns="http://www.w3.org/2000/svg"><g clip-path="url(#clip0_147_297)" fill="#7772F1"><path d="M43.781 0H4.22A4.224 4.224 0 000 4.219v42.843c0 .518.42.938.938.938h46.124c.518 0 .938-.42.938-.938V4.22A4.224 4.224 0 0043.781 0zm2.344 46.125H1.875v-35.25h35.906a.938.938 0 100-1.875H1.875V4.219a2.346 2.346 0 012.344-2.344H43.78a2.346 2.346 0 012.344 2.344v41.906z"/><path d="M7.875 2.625a2.816 2.816 0 00-2.813 2.813A2.816 2.816 0 007.876 8.25a2.816 2.816 0 002.813-2.813 2.816 2.816 0 00-2.813-2.812zm0 3.75a.939.939 0 010-1.875.939.939 0 010 1.875zm7.199-3.75a2.816 2.816 0 00-2.812 2.813 2.816 2.816 0 002.812 2.812 2.816 2.816 0 002.813-2.813 2.816 2.816 0 00-2.813-2.812zm0 3.75a.939.939 0 010-1.875.939.939 0 010 1.875zm7.199-3.75a2.816 2.816 0 00-2.812 2.813 2.816 2.816 0 002.812 2.812 2.816 2.816 0 002.813-2.813 2.816 2.816 0 00-2.813-2.812zm0 3.75a.939.939 0 010-1.875.939.939 0 010 1.875zM42 13.367H28.406a.937.937 0 000 1.875h12.657v10.875H6.937V15.242h12.75a.937.937 0 100-1.875H6a.937.937 0 00-.938.938v12.75c0 .518.42.937.938.937h36c.518 0 .938-.42.938-.937v-12.75a.938.938 0 00-.938-.938zM15.75 31.313H6a.937.937 0 00-.938.937V42c0 .518.42.938.938.938h9.75c.518 0 .938-.42.938-.938v-9.75a.937.937 0 00-.938-.938zm-.938 9.75H6.939v-7.876h7.875v7.876zm14.063-9.75h-9.75a.937.937 0 00-.938.937V42c0 .518.42.938.938.938h9.75c.518 0 .938-.42.938-.938v-9.75a.937.937 0 00-.938-.938zm-.938 9.75h-7.875v-7.876h7.875v7.876zM42 31.313h-9.75a.937.937 0 00-.938.937V42c0 .518.42.938.938.938H42c.518 0 .938-.42.938-.938v-9.75a.937.937 0 00-.938-.938zm-.938 9.75h-7.874v-7.876h7.874v7.876zm1.601-31.788A.945.945 0 0042 9c-.247 0-.488.1-.663.275a.944.944 0 00-.275.662c0 .247.1.489.275.663a.944.944 0 00.663.275c.247 0 .488-.1.663-.275a.944.944 0 00.275-.662c0-.247-.1-.489-.275-.663z"/><path d="M24.811 13.642a.943.943 0 00-.663-.275.94.94 0 00-.662.275.944.944 0 00-.275.663.94.94 0 001.6.663.943.943 0 00.275-.663c0-.247-.1-.489-.275-.663z"/></g><defs><clipPath id="clip0_147_297"><path fill="#fff" d="M0 0h48v48H0z"/></clipPath></defs></svg>