<svg width="118" height="48" fill="none" xmlns="http://www.w3.org/2000/svg"><g clip-path="url(#clip0_9_1167)"><g clip-path="url(#clip1_9_1167)"><circle opacity=".3" cx="20" cy="24" r="18" stroke="#F89828" stroke-width="4"/><path d="M20 40c8.837 0 16-7.163 16-16S28.837 8 20 8V4c11.046 0 20 8.954 20 20s-8.954 20-20 20S0 35.046 0 24c0-5.707 2.39-10.856 6.225-14.5l2.498 3.15A15.95 15.95 0 004 24c0 8.837 7.163 16 16 16z" fill="#F89828"/></g><g clip-path="url(#clip2_9_1167)" fill="#1E212C"><path d="M55.3 12.88c0 .807.207 1.423.62 1.85.42.42 1.013.63 1.78.63.4 0 .757-.063 1.07-.19a2.14 2.14 0 001.27-1.3c.113-.3.17-.623.17-.97 0-.393-.06-.743-.18-1.05a2.157 2.157 0 00-.51-.79 2.228 2.228 0 00-.79-.49c-.3-.113-.63-.17-.99-.17-.373 0-.71.063-1.01.19-.3.12-.557.29-.77.51-.213.22-.377.483-.49.79-.113.3-.17.63-.17.99zm3.28 4.51a14.168 14.168 0 00.61-.81c-.333.213-.7.377-1.1.49-.4.107-.82.16-1.26.16-.5 0-.99-.087-1.47-.26a3.717 3.717 0 01-1.28-.78 4.102 4.102 0 01-.91-1.3c-.227-.52-.34-1.127-.34-1.82 0-.647.12-1.253.36-1.82a4.572 4.572 0 011.01-1.49 4.737 4.737 0 011.56-1.01 5.29 5.29 0 012.01-.37c.74 0 1.403.117 1.99.35.593.233 1.097.56 1.51.98.42.42.74.923.96 1.51.227.587.34 1.23.34 1.93 0 .447-.04.87-.12 1.27-.073.4-.18.787-.32 1.16-.14.367-.31.727-.51 1.08-.2.353-.423.703-.67 1.05l-3.31 4.72c-.113.16-.283.297-.51.41-.227.107-.483.16-.77.16h-2.27l4.49-5.61zm16.122-1.62c0 1.26-.137 2.357-.41 3.29-.267.927-.64 1.693-1.12 2.3a4.524 4.524 0 01-1.69 1.36 5.024 5.024 0 01-2.1.44 5.023 5.023 0 01-2.1-.44 4.569 4.569 0 01-1.67-1.36c-.474-.607-.844-1.373-1.11-2.3-.267-.933-.4-2.03-.4-3.29 0-1.267.133-2.363.4-3.29.266-.927.636-1.693 1.11-2.3.473-.607 1.03-1.057 1.67-1.35.646-.3 1.346-.45 2.1-.45.753 0 1.453.15 2.1.45a4.433 4.433 0 011.69 1.35c.48.607.853 1.373 1.12 2.3.273.927.41 2.023.41 3.29zm-2.55 0c0-1.047-.077-1.913-.23-2.6-.154-.687-.36-1.233-.62-1.64-.254-.407-.547-.69-.88-.85a2.297 2.297 0 00-1.04-.25 2.27 2.27 0 00-1.03.25c-.327.16-.617.443-.87.85-.254.407-.457.953-.61 1.64-.147.687-.22 1.553-.22 2.6 0 1.047.073 1.913.22 2.6.153.687.356 1.233.61 1.64.253.407.543.693.87.86a2.354 2.354 0 002.07 0c.333-.167.626-.453.88-.86.26-.407.466-.953.62-1.64.153-.687.23-1.553.23-2.6zm10.501-3.73c0 .547-.093 1.04-.28 1.48-.18.44-.423.817-.73 1.13a3.317 3.317 0 01-2.34.96c-.48 0-.923-.083-1.33-.25a3.122 3.122 0 01-1.06-.71 3.387 3.387 0 01-.69-1.13 4.153 4.153 0 01-.25-1.48c0-.56.084-1.067.25-1.52a3.36 3.36 0 01.69-1.15c.3-.313.654-.553 1.06-.72.407-.173.85-.26 1.33-.26.48 0 .924.087 1.33.26.413.167.77.407 1.07.72.3.313.534.697.7 1.15.167.453.25.96.25 1.52zm-1.9 0c0-.387-.04-.71-.12-.97a1.686 1.686 0 00-.31-.63 1.041 1.041 0 00-.46-.34 1.423 1.423 0 00-.56-.11c-.2 0-.386.037-.56.11-.173.067-.323.18-.45.34-.12.16-.217.37-.29.63-.073.26-.11.583-.11.97 0 .373.037.687.11.94.073.247.17.447.29.6.127.153.277.263.45.33.174.067.36.1.56.1.2 0 .387-.033.56-.1.18-.067.334-.177.46-.33.134-.153.237-.353.31-.6.08-.253.12-.567.12-.94zm6.71-3.11c.087-.1.187-.19.3-.27.12-.08.287-.12.5-.12h1.8l-10.74 14.09c-.086.107-.19.197-.31.27a.894.894 0 01-.44.1h-1.84l10.73-14.07zm3.36 10.67c0 .547-.093 1.04-.28 1.48-.18.44-.423.817-.73 1.13a3.36 3.36 0 01-1.07.72c-.406.167-.83.25-1.27.25-.48 0-.923-.083-1.33-.25a3.247 3.247 0 01-1.06-.72 3.387 3.387 0 01-.69-1.13 4.153 4.153 0 01-.25-1.48c0-.56.084-1.067.25-1.52a3.35 3.35 0 01.69-1.15c.3-.313.654-.553 1.06-.72.407-.173.85-.26 1.33-.26.48 0 .924.087 1.33.26.413.167.767.407 1.06.72.3.313.534.697.7 1.15.174.453.26.96.26 1.52zm-1.91 0c0-.387-.037-.71-.11-.97a1.686 1.686 0 00-.31-.63 1.041 1.041 0 00-.46-.34 1.423 1.423 0 00-.56-.11c-.2 0-.386.037-.56.11-.173.067-.323.18-.45.34a1.79 1.79 0 00-.3.63c-.066.26-.1.583-.1.97 0 .373.034.687.1.94.074.253.174.457.3.61.127.153.277.263.45.33.174.067.36.1.56.1.2 0 .387-.033.56-.1.18-.067.334-.177.46-.33a1.59 1.59 0 00.31-.61c.073-.253.11-.567.11-.94zM58.402 43.052l-.006.948h-5.298v-8.598h5.298v.948h-4.134v2.856h3.348v.912h-3.348v2.934h4.14zm2.214-4.248c.132-.148.272-.282.42-.402.148-.12.304-.222.468-.306a2.443 2.443 0 011.134-.27c.332 0 .624.056.876.168.256.108.468.264.636.468.172.2.302.442.39.726.088.284.132.598.132.942V44h-1.074v-3.87c0-.46-.106-.816-.318-1.068-.208-.256-.526-.384-.954-.384-.316 0-.612.076-.888.228a2.936 2.936 0 00-.756.618V44h-1.074v-6.078h.642c.152 0 .246.074.282.222l.084.66zm7.801 2.226c.216 0 .406-.03.57-.09.164-.06.302-.144.414-.252.112-.108.196-.236.252-.384a1.43 1.43 0 00.084-.498c0-.372-.114-.668-.342-.888-.224-.22-.55-.33-.978-.33-.432 0-.762.11-.99.33-.224.22-.336.516-.336.888 0 .18.028.346.084.498a1.102 1.102 0 00.672.636c.164.06.354.09.57.09zm1.926 3.3a.513.513 0 00-.126-.36.838.838 0 00-.342-.216 2.036 2.036 0 00-.492-.108 8.573 8.573 0 00-.6-.054l-.636-.036a7.504 7.504 0 01-.624-.06 1.685 1.685 0 00-.552.396.8.8 0 00-.108.93c.072.12.18.222.324.306.144.088.324.156.54.204.22.052.478.078.774.078.288 0 .546-.026.774-.078.228-.052.42-.126.576-.222.16-.096.282-.21.366-.342a.8.8 0 00.126-.438zm1.086-6.168v.396c0 .132-.084.216-.252.252l-.69.09c.136.264.204.556.204.876a1.862 1.862 0 01-.642 1.428c-.2.172-.44.304-.72.396-.28.092-.584.138-.912.138-.284 0-.552-.034-.804-.102-.128.08-.226.166-.294.258a.438.438 0 00-.102.27.37.37 0 00.174.33c.12.072.276.124.468.156s.41.052.654.06c.248.008.5.022.756.042.26.016.512.046.756.09.248.044.468.116.66.216.192.1.346.238.462.414.12.176.18.404.18.684 0 .26-.066.512-.198.756a1.98 1.98 0 01-.558.648 2.798 2.798 0 01-.9.456c-.352.116-.75.174-1.194.174-.444 0-.832-.044-1.164-.132a2.732 2.732 0 01-.828-.354 1.562 1.562 0 01-.498-.516 1.218 1.218 0 01-.162-.606c0-.3.094-.554.282-.762.188-.208.446-.374.774-.498a1.149 1.149 0 01-.432-.318c-.104-.136-.156-.318-.156-.546 0-.088.016-.178.048-.27.032-.096.08-.19.144-.282a1.55 1.55 0 01.582-.492c-.3-.168-.534-.39-.702-.666a1.852 1.852 0 01-.252-.972c0-.296.056-.564.168-.804a1.78 1.78 0 01.48-.618c.204-.172.446-.304.726-.396.284-.092.594-.138.93-.138.264 0 .51.03.738.09.228.056.436.14.624.252h1.65zm4.398 3.102a8.645 8.645 0 00-1.26.12c-.343.06-.625.14-.845.24-.216.1-.374.218-.474.354a.772.772 0 00-.145.456c0 .16.026.298.079.414a.814.814 0 00.21.288.956.956 0 00.318.162c.124.032.256.048.396.048.188 0 .36-.018.516-.054a2.272 2.272 0 00.833-.426c.129-.1.252-.214.373-.342v-1.26zm-3.45-2.484a3.47 3.47 0 011.087-.726 3.35 3.35 0 011.29-.24c.34 0 .641.056.905.168.264.112.486.268.666.468.18.2.316.442.409.726.092.284.138.596.138.936V44h-.475a.49.49 0 01-.24-.048c-.055-.036-.1-.104-.132-.204l-.12-.576c-.16.148-.316.28-.468.396a2.935 2.935 0 01-.48.288 2.585 2.585 0 01-.54.174 2.77 2.77 0 01-.63.066c-.236 0-.458-.032-.666-.096a1.61 1.61 0 01-.545-.3 1.453 1.453 0 01-.366-.498 1.807 1.807 0 01-.132-.72c0-.24.066-.47.197-.69.132-.224.346-.422.642-.594.296-.172.683-.312 1.159-.42.476-.112 1.06-.176 1.752-.192v-.474c0-.472-.103-.828-.306-1.068-.205-.244-.503-.366-.895-.366a1.89 1.89 0 00-.665.102c-.177.064-.33.138-.463.222a6.99 6.99 0 00-.335.222.48.48 0 01-.276.096.319.319 0 01-.187-.054.567.567 0 01-.131-.144l-.192-.342zm8.24 2.25c.215 0 .405-.03.57-.09.163-.06.301-.144.413-.252.112-.108.196-.236.252-.384a1.43 1.43 0 00.084-.498c0-.372-.114-.668-.342-.888-.224-.22-.55-.33-.978-.33-.432 0-.762.11-.99.33-.224.22-.336.516-.336.888 0 .18.028.346.084.498a1.102 1.102 0 00.672.636c.164.06.354.09.57.09zm1.925 3.3a.513.513 0 00-.126-.36.838.838 0 00-.342-.216 2.036 2.036 0 00-.492-.108 8.573 8.573 0 00-.6-.054l-.636-.036a7.504 7.504 0 01-.624-.06 1.685 1.685 0 00-.552.396.8.8 0 00-.108.93c.072.12.18.222.324.306.144.088.324.156.54.204.22.052.478.078.774.078.288 0 .546-.026.774-.078.228-.052.42-.126.576-.222.16-.096.282-.21.366-.342a.8.8 0 00.126-.438zm1.086-6.168v.396c0 .132-.084.216-.252.252l-.69.09c.136.264.204.556.204.876a1.862 1.862 0 01-.642 1.428c-.2.172-.44.304-.72.396-.28.092-.584.138-.912.138-.284 0-.552-.034-.804-.102-.128.08-.226.166-.294.258a.438.438 0 00-.102.27.37.37 0 00.174.33c.12.072.276.124.468.156s.41.052.654.06c.248.008.5.022.756.042.26.016.512.046.756.09.248.044.468.116.66.216.192.1.346.238.462.414.12.176.18.404.18.684 0 .26-.066.512-.198.756a1.98 1.98 0 01-.558.648 2.798 2.798 0 01-.9.456c-.352.116-.75.174-1.194.174-.444 0-.832-.044-1.164-.132a2.732 2.732 0 01-.828-.354 1.562 1.562 0 01-.498-.516 1.218 1.218 0 01-.162-.606c0-.3.094-.554.282-.762.188-.208.446-.374.774-.498a1.149 1.149 0 01-.432-.318c-.104-.136-.156-.318-.156-.546 0-.088.016-.178.048-.27.032-.096.08-.19.144-.282a1.55 1.55 0 01.582-.492c-.3-.168-.534-.39-.702-.666a1.852 1.852 0 01-.252-.972c0-.296.056-.564.168-.804a1.78 1.78 0 01.48-.618c.204-.172.446-.304.726-.396.284-.092.594-.138.93-.138.264 0 .51.03.738.09.228.056.436.14.624.252h1.65zm5.079 2.136c0-.248-.036-.474-.108-.678a1.437 1.437 0 00-.306-.534 1.292 1.292 0 00-.486-.348 1.616 1.616 0 00-.654-.126c-.512 0-.918.15-1.218.45-.296.296-.48.708-.552 1.236h3.324zm.864 2.85c-.132.16-.29.3-.474.42a3.022 3.022 0 01-.594.288 3.503 3.503 0 01-.648.168c-.224.04-.446.06-.666.06-.42 0-.808-.07-1.164-.21a2.636 2.636 0 01-.918-.624 2.919 2.919 0 01-.6-1.02 4.135 4.135 0 01-.216-1.392c0-.424.064-.82.192-1.188.132-.368.32-.686.564-.954.244-.272.542-.484.894-.636a2.902 2.902 0 011.188-.234c.364 0 .7.062 1.008.186.312.12.58.296.804.528.228.228.406.512.534.852.128.336.192.72.192 1.152 0 .168-.018.28-.054.336-.036.056-.104.084-.204.084h-4.062c.012.384.064.718.156 1.002.096.284.228.522.396.714.168.188.368.33.6.426a2.1 2.1 0 00.78.138c.268 0 .498-.03.69-.09a3.456 3.456 0 00.852-.402.47.47 0 01.246-.096c.088 0 .156.034.204.102l.3.39zm1.408.852v-6.078h.642c.152 0 .246.074.282.222l.078.624c.224-.276.476-.502.756-.678.28-.176.604-.264.972-.264.408 0 .738.114.99.342.256.228.44.536.552.924.088-.22.2-.41.336-.57a1.987 1.987 0 011.014-.624c.196-.048.394-.072.594-.072.32 0 .604.052.852.156.252.1.464.248.636.444.176.196.31.438.402.726.092.284.138.61.138.978V44h-1.074v-3.87c0-.476-.104-.836-.312-1.08-.208-.248-.508-.372-.9-.372-.176 0-.344.032-.504.096-.156.06-.294.15-.414.27-.12.12-.216.272-.288.456-.068.18-.102.39-.102.63V44h-1.074v-3.87c0-.488-.098-.852-.294-1.092-.196-.24-.482-.36-.858-.36-.264 0-.508.072-.732.216a2.38 2.38 0 00-.618.576V44h-1.074zm13.935-3.702c0-.248-.036-.474-.108-.678a1.437 1.437 0 00-.306-.534 1.292 1.292 0 00-.486-.348 1.616 1.616 0 00-.654-.126c-.512 0-.918.15-1.218.45-.296.296-.48.708-.552 1.236h3.324zm.864 2.85c-.132.16-.29.3-.474.42a3.022 3.022 0 01-.594.288 3.503 3.503 0 01-.648.168c-.224.04-.446.06-.666.06-.42 0-.808-.07-1.164-.21a2.636 2.636 0 01-.918-.624 2.919 2.919 0 01-.6-1.02 4.135 4.135 0 01-.216-1.392c0-.424.064-.82.192-1.188.132-.368.32-.686.564-.954.244-.272.542-.484.894-.636a2.902 2.902 0 011.188-.234c.364 0 .7.062 1.008.186.312.12.58.296.804.528.228.228.406.512.534.852.128.336.192.72.192 1.152 0 .168-.018.28-.054.336-.036.056-.104.084-.204.084h-4.062c.012.384.064.718.156 1.002.096.284.228.522.396.714.168.188.368.33.6.426a2.1 2.1 0 00.78.138c.268 0 .498-.03.69-.09a3.456 3.456 0 00.852-.402.47.47 0 01.246-.096c.088 0 .156.034.204.102l.3.39zm2.416-4.344c.132-.148.272-.282.42-.402.148-.12.304-.222.468-.306a2.443 2.443 0 011.134-.27c.332 0 .624.056.876.168.256.108.468.264.636.468.172.2.302.442.39.726.088.284.132.598.132.942V44h-1.074v-3.87c0-.46-.106-.816-.318-1.068-.208-.256-.526-.384-.954-.384-.316 0-.612.076-.888.228a2.936 2.936 0 00-.756.618V44h-1.074v-6.078h.642c.152 0 .246.074.282.222l.084.66zm7.467 5.292c-.48 0-.85-.134-1.11-.402-.256-.268-.384-.654-.384-1.158v-3.72h-.732a.247.247 0 01-.162-.054c-.044-.04-.066-.1-.066-.18v-.426l.996-.126.246-1.878a.254.254 0 01.078-.144.24.24 0 01.168-.06h.54v2.094h1.758v.774h-1.758v3.648c0 .256.062.446.186.57a.65.65 0 00.48.186.875.875 0 00.504-.144c.06-.036.11-.068.15-.096.044-.032.082-.048.114-.048.056 0 .106.034.15.102l.312.51a2.029 2.029 0 01-.666.408c-.26.096-.528.144-.804.144z"/></g></g><defs><clipPath id="clip0_9_1167"><path fill="#fff" d="M0 0h118v48H0z"/></clipPath><clipPath id="clip1_9_1167"><path fill="#fff" transform="translate(0 4)" d="M0 0h40v40H0z"/></clipPath><clipPath id="clip2_9_1167"><path fill="#fff" transform="translate(52)" d="M0 0h66v48H0z"/></clipPath></defs></svg>