<svg width="48" height="48" fill="none" xmlns="http://www.w3.org/2000/svg"><g clip-path="url(#clip0_147_946)" fill="#7772F1"><path d="M47.995 21.077A24.14 24.14 0 0041.11 6.893 24.14 24.14 0 0026.926.006a.938.938 0 00-1.047.931v8.165a.938.938 0 001.875 0V2.017a22.086 22.086 0 0118.231 18.232H27.754v-4.68a.938.938 0 00-1.875 0v5.617c0 .518.42.938.937.938h20.248a.936.936 0 00.931-1.047z"/><path d="M26.816 11.347a.938.938 0 00-.937.937v.025a.938.938 0 001.875 0v-.025a.938.938 0 00-.938-.937zm-4.73 30.163a17.335 17.335 0 01-10.358-3.732.937.937 0 10-1.159 1.475 19.196 19.196 0 0011.494 4.132.938.938 0 00.023-1.875zm3.588.696a.938.938 0 00-1.042-.82l-.02.003a.938.938 0 00.222 1.862l.02-.003a.938.938 0 00.82-1.042z"/><path d="M44.437 24.375l-.049.001H23.625V3.562a.938.938 0 00-.938-.937A22.54 22.54 0 006.645 9.27 22.54 22.54 0 000 25.313a22.54 22.54 0 006.645 16.042A22.539 22.539 0 0022.688 48c6.06 0 11.757-2.36 16.042-6.645a22.539 22.539 0 006.645-16.042.938.938 0 00-.938-.938zm-21.75 21.75c-11.476 0-20.812-9.337-20.812-20.813 0-11.161 8.833-20.299 19.875-20.791v20.793c0 .312.153.588.388.758v.001l16.83 12.189c-3.816 4.788-9.696 7.863-16.28 7.863zm17.383-9.38L25.58 26.25h17.9a20.682 20.682 0 01-3.409 10.494z"/></g><defs><clipPath id="clip0_147_946"><path fill="#fff" d="M0 0h48v48H0z"/></clipPath></defs></svg>