<svg width="48" height="48" fill="none" xmlns="http://www.w3.org/2000/svg"><path d="M23.538 5.525a.943.943 0 00-.663-.275c-.247 0-.488.1-.663.275a.944.944 0 00-.274.662c0 .247.1.489.274.663a.946.946 0 00.663.275.94.94 0 00.663-1.6z" fill="#7772F1"/><path d="M47.063 35.813h-1.5v-25.5A5.068 5.068 0 0040.5 5.25H26.812a.938.938 0 000 1.875H40.5a3.191 3.191 0 013.188 3.188v3.612L20.024 28.92l-7.693-7.693a.938.938 0 00-1.326 0l-6.694 6.694V22.32l7.357-7.357 7.56 7.56a.94.94 0 001.166.13l14.674-9.3a.938.938 0 001.855.05l.377-2.164a.938.938 0 00-.924-1.098h-2.094a.938.938 0 00-.436 1.767l-13.822 8.76-7.693-7.694a.938.938 0 00-1.326 0l-6.694 6.694v-9.355A3.191 3.191 0 017.5 7.124h11.156a.938.938 0 000-1.875H7.5a5.068 5.068 0 00-5.063 5.063v25.5h-1.5A.938.938 0 000 36.75v1.219a4.787 4.787 0 004.781 4.781H43.22A4.787 4.787 0 0048 37.969V36.75a.938.938 0 00-.938-.938zm-9.75-15.628l6.374-4.04v19.668h-6.374V20.184zm-8.25 5.228l6.375-4.04v14.44h-6.376v-10.4zm-8.25 5.228l6.375-4.04v9.212h-6.375V30.64zm-8.25-6.531l6.374 6.375v5.328h-6.375V24.11zm-8.25 6.463l6.375-6.375v11.614H4.311v-5.24zm41.812 7.396a2.91 2.91 0 01-2.906 2.906H4.78a2.91 2.91 0 01-2.906-2.906v-.282h44.25v.282z" fill="#7772F1"/></svg>