<svg width="48" height="48" fill="none" xmlns="http://www.w3.org/2000/svg"><path d="M36.938 22.602a.938.938 0 00-.938.937v.14a.937.937 0 101.875 0v-.14a.937.937 0 00-.938-.937z" fill="#7772F1"/><path d="M42.938 17.613V8.07a3.473 3.473 0 00-3.47-3.468 3.45 3.45 0 00-2.13.734L27.306 9.094a.937.937 0 10.658 1.756l8.045-3.014a3.556 3.556 0 00-.01.234v10.875a.938.938 0 001.876 0V8.07c0-.879.715-1.594 1.594-1.594.878 0 1.593.715 1.593 1.594v30.938c0 .878-.715 1.593-1.593 1.593a1.596 1.596 0 01-1.594-1.593V27.664a.938.938 0 00-1.875 0v11.344c0 .078.004.156.009.234l-23.634-8.853v-13.7l9.516-3.564a.937.937 0 10-.658-1.756l-9.965 3.733H5.53A5.537 5.537 0 000 20.632v5.813a5.537 5.537 0 005.353 5.527l4.13 10.823a.938.938 0 00.877.604h5.437a.937.937 0 00.876-1.272l-3.619-9.481 24.284 9.096a3.45 3.45 0 002.13.735 3.473 3.473 0 003.47-3.469v-9.543A6.01 6.01 0 0048 23.54a6.01 6.01 0 00-5.063-5.926zM5.53 30.102a3.66 3.66 0 01-3.656-3.657v-5.812a3.66 3.66 0 013.656-3.656h4.97v13.125H5.531zm8.905 11.421h-3.431L7.36 31.977h3.43l3.645 9.546zm28.502-13.968v-8.032a4.131 4.131 0 013.187 4.016 4.131 4.131 0 01-3.188 4.016z" fill="#7772F1"/><path d="M25.286 10.437a.945.945 0 00-.663-.275c-.247 0-.488.1-.663.275a.944.944 0 00-.274.663c0 .246.1.488.274.662a.945.945 0 00.663.275c.247 0 .488-.1.663-.275a.945.945 0 00.275-.662c0-.247-.1-.489-.275-.663zM6.85 20.595a.94.94 0 00-1.325 0 .945.945 0 00-.275.663c0 .246.1.487.275.663a.944.944 0 00.662.274c.247 0 .489-.1.663-.274a.944.944 0 00.275-.663.94.94 0 00-.275-.663zm1.025 5.1h-3a.938.938 0 000 1.875h3a.937.937 0 100-1.875z" fill="#7772F1"/></svg>