<svg width="48" height="48" fill="none" xmlns="http://www.w3.org/2000/svg"><g clip-path="url(#clip0_147_610)" fill="#7772F1"><path d="M29.282 34.127a2.799 2.799 0 00-.828-1.805l-3.56-3.562a3.732 3.732 0 001.516-.918l.09-.09c1.57-1.57 1.444-4.249-.28-5.973-.82-.82-1.881-1.309-2.987-1.375-1.15-.07-2.21.32-2.985 1.095l-.09.09a3.732 3.732 0 00-.919 1.518l-3.561-3.562c-1.05-1.05-2.694-1.113-3.666-.141l-3.227 3.228a1.67 1.67 0 00-.44 1.535c.13.616.56 1.12 1.15 1.348.372.144.709.365 1.002.658l.103.103c.495.496.79 1.126.83 1.775.036.606-.16 1.155-.55 1.546-.39.39-.94.586-1.546.549-.648-.04-1.279-.334-1.775-.83l-.102-.102a2.883 2.883 0 01-.659-1.003 1.852 1.852 0 00-1.347-1.15 1.67 1.67 0 00-1.536.44L.691 30.725c-.971.972-.908 2.616.141 3.666l3.562 3.56a3.734 3.734 0 00-1.518.92l-.09.09c-1.57 1.57-1.444 4.248.28 5.972.915.915 2.1 1.38 3.244 1.38 1.012 0 1.992-.363 2.729-1.1l.09-.09a3.73 3.73 0 00.918-1.518l3.562 3.562a2.8 2.8 0 001.959.833c.647 0 1.262-.248 1.706-.692l3.07-3.07c.239.58.59 1.104 1.044 1.559l.103.102c1.724 1.724 4.403 1.85 5.972.28 1.57-1.569 1.444-4.248-.28-5.972l-.103-.102a4.75 4.75 0 00-1.558-1.044l3.073-3.074c.48-.479.73-1.157.687-1.86zm-2.012.534l-3.228 3.228a1.67 1.67 0 00-.44 1.536c.13.616.56 1.12 1.15 1.347.372.144.71.366 1.003.659l.102.102c.993.993 1.119 2.483.28 3.32-.838.839-2.328.713-3.32-.28l-.103-.102a2.883 2.883 0 01-.658-1.003 1.851 1.851 0 00-1.348-1.149 1.67 1.67 0 00-1.535.44l-3.224 3.224a.535.535 0 01-.422.14.94.94 0 01-.592-.282l-1.429-1.428 3.111-3.112a.938.938 0 00-1.326-1.326l-3.11 3.112-.972-.971a1.836 1.836 0 00-1.294-.547c-.162 0-.326.023-.485.07a1.59 1.59 0 00-1.121 1.214c-.079.37-.249.688-.506.944l-.09.09c-.839.84-2.328.713-3.321-.28-.993-.993-1.119-2.482-.28-3.32l.09-.091c.257-.257.574-.427.945-.506a1.594 1.594 0 001.213-1.12c.184-.62 0-1.303-.477-1.78l-3.725-3.725a.94.94 0 01-.282-.593.538.538 0 01.14-.421l3.07-3.07c.24.58.59 1.103 1.045 1.558l.102.102c1.724 1.724 4.403 1.85 5.973.281 1.569-1.57 1.443-4.248-.28-5.972l-.103-.103a4.75 4.75 0 00-1.559-1.044l3.074-3.073c.237-.237.7-.172 1.014.14l3.725 3.726c.478.478 1.16.66 1.78.477.576-.17.995-.624 1.12-1.214.079-.37.25-.688.506-.944l.09-.091c.392-.39.94-.586 1.546-.55.65.04 1.28.335 1.776.83.992.994 1.118 2.483.28 3.321l-.09.091a1.858 1.858 0 01-.945.506 1.594 1.594 0 00-1.214 1.12c-.183.62 0 1.303.477 1.78l3.725 3.726a.94.94 0 01.283.592.538.538 0 01-.141.421z"/><path d="M19.024 37.57a.944.944 0 00-.663-.274c-.246 0-.488.1-.663.275a.944.944 0 00-.274.662c0 .247.1.489.274.663a.943.943 0 00.663.275c.247 0 .489-.1.663-.275a.944.944 0 00.275-.663.94.94 0 00-.275-.662zm19.908-25.664a.944.944 0 00-.663-.274c-.246 0-.488.1-.662.274a.945.945 0 00-.275.663c0 .247.1.489.275.663a.945.945 0 00.663.275.94.94 0 00.662-.275.944.944 0 00.275-.663c0-.246-.1-.488-.275-.663z"/><path d="M45.951 21.547a4.786 4.786 0 00-1.788-1.132l3.143-3.143c.48-.479.73-1.157.687-1.86a2.799 2.799 0 00-.828-1.805l-3.491-3.492a3.74 3.74 0 001.309-.845l.09-.091c1.57-1.57 1.444-4.249-.28-5.973-1.724-1.723-4.403-1.85-5.973-.28l-.09.09a3.74 3.74 0 00-.846 1.31L34.389.83c-1.05-1.05-2.694-1.113-3.666-.142L27.58 3.832a4.785 4.785 0 00-1.131-1.788l-.103-.102c-1.723-1.724-4.403-1.85-5.972-.28-1.57 1.569-1.443 4.248.28 5.971l.103.103a4.77 4.77 0 001.788 1.131l-3.143 3.143c-.972.972-.908 2.616.142 3.666l3.728 3.726c.478.477 1.16.66 1.78.476.576-.17.995-.624 1.12-1.213.08-.37.25-.688.506-.945l.091-.09c.39-.391.94-.586 1.546-.55.648.04 1.279.334 1.775.83.496.496.79 1.127.83 1.775.036.606-.159 1.155-.55 1.546l-.09.09a1.859 1.859 0 01-.945.506 1.594 1.594 0 00-1.213 1.121 1.8 1.8 0 00.476 1.78l3.722 3.724c.551.551 1.267.83 1.963.83.628 0 1.241-.227 1.703-.689l3.142-3.142a4.785 4.785 0 001.132 1.787l.102.103c1.724 1.724 4.403 1.85 5.972.28 1.57-1.569 1.444-4.248-.28-5.972l-.103-.102zm-.943 4.748c-.838.839-2.328.713-3.32-.28l-.103-.102a2.887 2.887 0 01-.707-1.142 1.87 1.87 0 00-1.334-1.233 1.668 1.668 0 00-1.584.429l-3.3 3.3a.536.536 0 01-.422.141.94.94 0 01-.592-.282l-3.558-3.56a3.734 3.734 0 001.517-.919l.091-.09c.775-.776 1.164-1.836 1.095-2.985-.067-1.107-.555-2.168-1.375-2.988-.82-.82-1.882-1.309-2.988-1.375-1.15-.07-2.21.32-2.985 1.095l-.09.09a3.734 3.734 0 00-.919 1.518L20.87 14.35a.94.94 0 01-.282-.593.538.538 0 01.141-.421l3.3-3.3c.41-.41.57-1.001.43-1.584a1.87 1.87 0 00-1.233-1.334 2.89 2.89 0 01-1.142-.708l-.102-.102c-.993-.993-1.12-2.483-.28-3.321.837-.838 2.327-.713 3.32.28l.102.103c.327.326.572.721.708 1.141a1.87 1.87 0 001.334 1.233c.583.14 1.175-.02 1.583-.428l3.301-3.301c.237-.237.7-.172 1.014.141l3.642 3.643c.462.461 1.125.65 1.73.49.561-.147.99-.568 1.145-1.126.089-.318.249-.594.476-.82l.09-.091c.838-.839 2.328-.713 3.321.28.993.993 1.119 2.483.28 3.32l-.09.091a1.846 1.846 0 01-.82.476 1.6 1.6 0 00-1.128 1.145c-.158.605.03 1.268.491 1.73l3.64 3.638a.94.94 0 01.281.593.538.538 0 01-.14.421l-1.505 1.505-3.107-3.107a.937.937 0 00-1.326 1.325l3.107 3.107-.47.471c-.409.409-.57 1-.43 1.583a1.87 1.87 0 001.234 1.334 2.9 2.9 0 011.141.708l.103.103c.993.993 1.119 2.482.28 3.32z"/></g><defs><clipPath id="clip0_147_610"><path fill="#fff" d="M0 0h48v48H0z"/></clipPath></defs></svg>