<svg width="48" height="48" fill="none" xmlns="http://www.w3.org/2000/svg"><g clip-path="url(#clip0_147_154)" fill="#7772F1"><path d="M47.725 8.805l-8.53-8.53A.937.937 0 0038.53 0H10.688a2.816 2.816 0 00-2.813 2.813V4.6C3.27 6.406 0 10.895 0 16.134c0 .517.42.937.938.937h11.445c.518 0 .938-.42.938-.938V4.689a.938.938 0 00-.938-.938c-.903 0-1.784.098-2.633.283v-1.22c0-.517.42-.938.938-.938h26.906v5.719a2.816 2.816 0 002.812 2.812h5.719v34.782c0 .516-.42.937-.938.937h-34.5a.939.939 0 01-.937-.938v-8.03a.938.938 0 00-1.875 0v8.03A2.816 2.816 0 0010.688 48h34.5A2.816 2.816 0 0048 45.187V9.468a.937.937 0 00-.275-.662zm-36.28-3.138v9.529H1.917c.449-5.048 4.482-9.081 9.53-9.53zM40.407 8.53a.939.939 0 01-.937-.937V3.2l5.33 5.33h-4.394z"/><path d="M9.475 33.087a.944.944 0 00-.662-.275c-.247 0-.489.1-.663.275a.945.945 0 00-.275.663c0 .247.1.488.275.663a.944.944 0 00.662.275c.247 0 .489-.1.663-.275a.944.944 0 00.275-.663c0-.247-.1-.488-.275-.663zM15.74 7.108a.938.938 0 00-.937.938v10.508H4.295a.938.938 0 00-.938.938c0 6.828 5.556 12.383 12.384 12.383s12.383-5.555 12.383-12.383c0-6.828-5.555-12.384-12.383-12.384zm.938 1.917a10.462 10.462 0 015.797 2.406l-5.797 5.798V9.024zM15.741 30c-5.479 0-9.991-4.214-10.467-9.57H15.74a.935.935 0 00.663-.275l7.398-7.398a10.461 10.461 0 012.447 6.735C26.25 25.286 21.535 30 15.741 30zm25.328-.412a2.816 2.816 0 00-2.59 3.908l-5.402 5.402a2.796 2.796 0 00-2.428-.013l-3.587-3.587a2.816 2.816 0 00-2.62-3.836 2.816 2.816 0 00-2.812 2.813c0 .42.094.82.26 1.178l-3.44 3.44a2.816 2.816 0 00-4.022 2.539 2.816 2.816 0 002.812 2.812 2.816 2.816 0 002.537-4.027l3.42-3.42a2.794 2.794 0 002.634-.077l3.486 3.485a2.816 2.816 0 002.533 4.035 2.816 2.816 0 002.545-4.008l5.35-5.35a2.816 2.816 0 004.136-2.481 2.816 2.816 0 00-2.813-2.813zM17.24 42.369a.939.939 0 010-1.875c.252 0 .48.1.649.262l.01.012.014.013a.939.939 0 01-.673 1.588zm7.203-7.156a.939.939 0 010-1.875.939.939 0 010 1.875zm7.406 7.152a.939.939 0 010-1.875.939.939 0 010 1.875zm9.22-9.027a.939.939 0 010-1.875.939.939 0 010 1.875zm-4.687-11.307h-4.948a.938.938 0 000 1.875h4.948a.938.938 0 000-1.875zm4.931.275a.944.944 0 00-.663-.275.94.94 0 00-.662.275.945.945 0 00-.275.663c0 .246.1.488.275.662a.943.943 0 00.662.275c.247 0 .489-.1.663-.274a.944.944 0 00.275-.663c0-.247-.1-.489-.275-.663zm1.573-9.275H31.434a.938.938 0 000 1.875h11.451a.938.938 0 000-1.875zm0 4.5H31.434a.938.938 0 000 1.875h11.451a.938.938 0 000-1.875z"/></g><defs><clipPath id="clip0_147_154"><path fill="#fff" d="M0 0h48v48H0z"/></clipPath></defs></svg>