<svg width="17" height="17" viewBox="0 0 17 17" fill="none" xmlns="http://www.w3.org/2000/svg">
<path fill-rule="evenodd" clip-rule="evenodd" d="M8.00543 2.66732C6.71677 2.66732 5.6721 3.71199 5.6721 5.00065C5.6721 6.28932 6.71677 7.33398 8.00543 7.33398C9.29409 7.33398 10.3388 6.28932 10.3388 5.00065C10.3388 3.71199 9.29409 2.66732 8.00543 2.66732ZM4.33876 5.00065C4.33876 2.97561 5.98039 1.33398 8.00543 1.33398C10.0305 1.33398 11.6721 2.97561 11.6721 5.00065C11.6721 7.0257 10.0305 8.66732 8.00543 8.66732C5.98039 8.66732 4.33876 7.0257 4.33876 5.00065Z" fill="#787A80"/>
<path fill-rule="evenodd" clip-rule="evenodd" d="M4.0748 10.6673C3.61259 10.6673 3.25132 10.8924 3.10467 11.2157C2.9017 11.6633 2.71789 12.1961 2.67452 12.7014C2.65513 12.9273 2.74933 13.0938 2.87911 13.1744C3.56522 13.6006 5.15502 14.334 8.00543 14.334C10.8558 14.334 12.4456 13.6006 13.1317 13.1744C13.2615 13.0938 13.3557 12.9273 13.3363 12.7014C13.293 12.1961 13.1092 11.6633 12.9062 11.2157C12.7595 10.8924 12.3983 10.6673 11.9361 10.6673H4.0748ZM1.89038 10.665C2.29568 9.77136 3.2007 9.33398 4.0748 9.33398H11.9361C12.8102 9.33398 13.7152 9.77136 14.1205 10.665C14.3533 11.1783 14.6031 11.8683 14.6648 12.5874C14.721 13.2422 14.4488 13.9259 13.8353 14.307C12.933 14.8676 11.0985 15.6673 8.00543 15.6673C4.91236 15.6673 3.0779 14.8676 2.17554 14.307C1.56203 13.9259 1.28987 13.2422 1.34607 12.5874C1.40779 11.8683 1.65759 11.1783 1.89038 10.665Z" fill="#787A80"/>
</svg>
