<svg width="52" height="48" viewBox="0 0 52 48" fill="none" xmlns="http://www.w3.org/2000/svg">
<g clip-path="url(#clip0_147_785)">
<g clip-path="url(#clip1_147_785)">
<path d="M10.35 21.15V23H2.35V21.15H5.28V12.72C5.28 12.3867 5.29 12.0433 5.31 11.69L3.23 13.43C3.11 13.5233 2.99 13.5833 2.87 13.61C2.75667 13.63 2.64667 13.63 2.54 13.61C2.44 13.59 2.35 13.5567 2.27 13.51C2.19 13.4567 2.13 13.4 2.09 13.34L1.31 12.27L5.72 8.52H7.75V21.15H10.35ZM14.9016 12.88C14.9016 13.6867 15.1082 14.3033 15.5216 14.73C15.9416 15.15 16.5349 15.36 17.3016 15.36C17.7016 15.36 18.0582 15.2967 18.3716 15.17C18.6849 15.0433 18.9482 14.87 19.1616 14.65C19.3749 14.43 19.5349 14.17 19.6416 13.87C19.7549 13.57 19.8116 13.2467 19.8116 12.9C19.8116 12.5067 19.7516 12.1567 19.6316 11.85C19.5116 11.5367 19.3416 11.2733 19.1216 11.06C18.9016 10.8467 18.6382 10.6833 18.3316 10.57C18.0316 10.4567 17.7016 10.4 17.3416 10.4C16.9682 10.4 16.6316 10.4633 16.3316 10.59C16.0316 10.71 15.7749 10.88 15.5616 11.1C15.3482 11.32 15.1849 11.5833 15.0716 11.89C14.9582 12.19 14.9016 12.52 14.9016 12.88ZM18.1816 17.39C18.2949 17.25 18.4016 17.1133 18.5016 16.98C18.6016 16.8467 18.6982 16.7133 18.7916 16.58C18.4582 16.7933 18.0916 16.9567 17.6916 17.07C17.2916 17.1767 16.8716 17.23 16.4316 17.23C15.9316 17.23 15.4416 17.1433 14.9616 16.97C14.4816 16.7967 14.0549 16.5367 13.6816 16.19C13.3082 15.8367 13.0049 15.4033 12.7716 14.89C12.5449 14.37 12.4316 13.7633 12.4316 13.07C12.4316 12.4233 12.5516 11.8167 12.7916 11.25C13.0316 10.6833 13.3682 10.1867 13.8016 9.76C14.2349 9.33333 14.7549 8.99667 15.3616 8.75C15.9682 8.50333 16.6382 8.38 17.3716 8.38C18.1116 8.38 18.7749 8.49667 19.3616 8.73C19.9549 8.96333 20.4582 9.29 20.8716 9.71C21.2916 10.13 21.6116 10.6333 21.8316 11.22C22.0582 11.8067 22.1716 12.45 22.1716 13.15C22.1716 13.5967 22.1316 14.02 22.0516 14.42C21.9782 14.82 21.8716 15.2067 21.7316 15.58C21.5916 15.9467 21.4216 16.3067 21.2216 16.66C21.0216 17.0133 20.7982 17.3633 20.5516 17.71L17.2416 22.43C17.1282 22.59 16.9582 22.7267 16.7316 22.84C16.5049 22.9467 16.2482 23 15.9616 23H13.6916L18.1816 17.39ZM34.3031 15.77C34.3031 17.03 34.1665 18.1267 33.8931 19.06C33.6265 19.9867 33.2531 20.7533 32.7731 21.36C32.2998 21.9667 31.7365 22.42 31.0831 22.72C30.4365 23.0133 29.7365 23.16 28.9831 23.16C28.2298 23.16 27.5298 23.0133 26.8831 22.72C26.2431 22.42 25.6865 21.9667 25.2131 21.36C24.7398 20.7533 24.3698 19.9867 24.1031 19.06C23.8365 18.1267 23.7031 17.03 23.7031 15.77C23.7031 14.5033 23.8365 13.4067 24.1031 12.48C24.3698 11.5533 24.7398 10.7867 25.2131 10.18C25.6865 9.57333 26.2431 9.12333 26.8831 8.83C27.5298 8.53 28.2298 8.38 28.9831 8.38C29.7365 8.38 30.4365 8.53 31.0831 8.83C31.7365 9.12333 32.2998 9.57333 32.7731 10.18C33.2531 10.7867 33.6265 11.5533 33.8931 12.48C34.1665 13.4067 34.3031 14.5033 34.3031 15.77ZM31.7531 15.77C31.7531 14.7233 31.6765 13.8567 31.5231 13.17C31.3698 12.4833 31.1631 11.9367 30.9031 11.53C30.6498 11.1233 30.3565 10.84 30.0231 10.68C29.6898 10.5133 29.3431 10.43 28.9831 10.43C28.6298 10.43 28.2865 10.5133 27.9531 10.68C27.6265 10.84 27.3365 11.1233 27.0831 11.53C26.8298 11.9367 26.6265 12.4833 26.4731 13.17C26.3265 13.8567 26.2531 14.7233 26.2531 15.77C26.2531 16.8167 26.3265 17.6833 26.4731 18.37C26.6265 19.0567 26.8298 19.6033 27.0831 20.01C27.3365 20.4167 27.6265 20.7033 27.9531 20.87C28.2865 21.03 28.6298 21.11 28.9831 21.11C29.3431 21.11 29.6898 21.03 30.0231 20.87C30.3565 20.7033 30.6498 20.4167 30.9031 20.01C31.1631 19.6033 31.3698 19.0567 31.5231 18.37C31.6765 17.6833 31.7531 16.8167 31.7531 15.77ZM45.4847 17.2H41.6047V21.32H39.5947V17.2H35.7347V15.37H39.5947V11.27H41.6047V15.37H45.4847V17.2Z" fill="#1E212C"/>
<path d="M3.636 39.86C3.968 39.86 4.26 39.816 4.512 39.728C4.768 39.64 4.982 39.518 5.154 39.362C5.33 39.202 5.462 39.012 5.55 38.792C5.638 38.572 5.682 38.33 5.682 38.066C5.682 37.518 5.512 37.09 5.172 36.782C4.836 36.474 4.324 36.32 3.636 36.32H2.256V39.86H3.636ZM3.636 35.402C4.18 35.402 4.652 35.466 5.052 35.594C5.456 35.718 5.79 35.896 6.054 36.128C6.318 36.36 6.514 36.64 6.642 36.968C6.774 37.296 6.84 37.662 6.84 38.066C6.84 38.466 6.77 38.832 6.63 39.164C6.49 39.496 6.284 39.782 6.012 40.022C5.744 40.262 5.41 40.45 5.01 40.586C4.614 40.718 4.156 40.784 3.636 40.784H2.256V44H1.098V35.402H3.636ZM8.94984 39.14C9.14184 38.724 9.37784 38.4 9.65784 38.168C9.93784 37.932 10.2798 37.814 10.6838 37.814C10.8118 37.814 10.9338 37.828 11.0498 37.856C11.1698 37.884 11.2758 37.928 11.3678 37.988L11.2898 38.786C11.2658 38.886 11.2058 38.936 11.1098 38.936C11.0538 38.936 10.9718 38.924 10.8638 38.9C10.7558 38.876 10.6338 38.864 10.4978 38.864C10.3058 38.864 10.1338 38.892 9.98184 38.948C9.83384 39.004 9.69984 39.088 9.57984 39.2C9.46384 39.308 9.35784 39.444 9.26184 39.608C9.16984 39.768 9.08584 39.952 9.00984 40.16V44H7.93584V37.922H8.54784C8.66384 37.922 8.74384 37.944 8.78784 37.988C8.83184 38.032 8.86184 38.108 8.87784 38.216L8.94984 39.14ZM14.6228 37.826C15.0668 37.826 15.4668 37.9 15.8228 38.048C16.1788 38.196 16.4828 38.406 16.7348 38.678C16.9868 38.95 17.1788 39.28 17.3108 39.668C17.4468 40.052 17.5148 40.482 17.5148 40.958C17.5148 41.438 17.4468 41.87 17.3108 42.254C17.1788 42.638 16.9868 42.966 16.7348 43.238C16.4828 43.51 16.1788 43.72 15.8228 43.868C15.4668 44.012 15.0668 44.084 14.6228 44.084C14.1748 44.084 13.7708 44.012 13.4108 43.868C13.0548 43.72 12.7508 43.51 12.4988 43.238C12.2468 42.966 12.0528 42.638 11.9168 42.254C11.7848 41.87 11.7188 41.438 11.7188 40.958C11.7188 40.482 11.7848 40.052 11.9168 39.668C12.0528 39.28 12.2468 38.95 12.4988 38.678C12.7508 38.406 13.0548 38.196 13.4108 38.048C13.7708 37.9 14.1748 37.826 14.6228 37.826ZM14.6228 43.25C15.2228 43.25 15.6708 43.05 15.9668 42.65C16.2628 42.246 16.4108 41.684 16.4108 40.964C16.4108 40.24 16.2628 39.676 15.9668 39.272C15.6708 38.868 15.2228 38.666 14.6228 38.666C14.3188 38.666 14.0528 38.718 13.8248 38.822C13.6008 38.926 13.4128 39.076 13.2608 39.272C13.1128 39.468 13.0008 39.71 12.9248 39.998C12.8528 40.282 12.8168 40.604 12.8168 40.964C12.8168 41.684 12.9648 42.246 13.2608 42.65C13.5608 43.05 14.0148 43.25 14.6228 43.25ZM22.4094 38.924C22.3614 39.012 22.2874 39.056 22.1874 39.056C22.1274 39.056 22.0594 39.034 21.9834 38.99C21.9074 38.946 21.8134 38.898 21.7014 38.846C21.5934 38.79 21.4634 38.74 21.3114 38.696C21.1594 38.648 20.9794 38.624 20.7714 38.624C20.5914 38.624 20.4294 38.648 20.2854 38.696C20.1414 38.74 20.0174 38.802 19.9134 38.882C19.8134 38.962 19.7354 39.056 19.6794 39.164C19.6274 39.268 19.6014 39.382 19.6014 39.506C19.6014 39.662 19.6454 39.792 19.7334 39.896C19.8254 40 19.9454 40.09 20.0934 40.166C20.2414 40.242 20.4094 40.31 20.5974 40.37C20.7854 40.426 20.9774 40.488 21.1734 40.556C21.3734 40.62 21.5674 40.692 21.7554 40.772C21.9434 40.852 22.1114 40.952 22.2594 41.072C22.4074 41.192 22.5254 41.34 22.6134 41.516C22.7054 41.688 22.7514 41.896 22.7514 42.14C22.7514 42.42 22.7014 42.68 22.6014 42.92C22.5014 43.156 22.3534 43.362 22.1574 43.538C21.9614 43.71 21.7214 43.846 21.4374 43.946C21.1534 44.046 20.8254 44.096 20.4534 44.096C20.0294 44.096 19.6454 44.028 19.3014 43.892C18.9574 43.752 18.6654 43.574 18.4254 43.358L18.6774 42.95C18.7094 42.898 18.7474 42.858 18.7914 42.83C18.8354 42.802 18.8914 42.788 18.9594 42.788C19.0314 42.788 19.1074 42.816 19.1874 42.872C19.2674 42.928 19.3634 42.99 19.4754 43.058C19.5914 43.126 19.7314 43.188 19.8954 43.244C20.0594 43.3 20.2634 43.328 20.5074 43.328C20.7154 43.328 20.8974 43.302 21.0534 43.25C21.2094 43.194 21.3394 43.12 21.4434 43.028C21.5474 42.936 21.6234 42.83 21.6714 42.71C21.7234 42.59 21.7494 42.462 21.7494 42.326C21.7494 42.158 21.7034 42.02 21.6114 41.912C21.5234 41.8 21.4054 41.706 21.2574 41.63C21.1094 41.55 20.9394 41.482 20.7474 41.426C20.5594 41.366 20.3654 41.304 20.1654 41.24C19.9694 41.176 19.7754 41.104 19.5834 41.024C19.3954 40.94 19.2274 40.836 19.0794 40.712C18.9314 40.588 18.8114 40.436 18.7194 40.256C18.6314 40.072 18.5874 39.85 18.5874 39.59C18.5874 39.358 18.6354 39.136 18.7314 38.924C18.8274 38.708 18.9674 38.52 19.1514 38.36C19.3354 38.196 19.5614 38.066 19.8294 37.97C20.0974 37.874 20.4034 37.826 20.7474 37.826C21.1474 37.826 21.5054 37.89 21.8214 38.018C22.1414 38.142 22.4174 38.314 22.6494 38.534L22.4094 38.924ZM25.1348 42.536C25.3308 42.8 25.5448 42.986 25.7768 43.094C26.0088 43.202 26.2688 43.256 26.5568 43.256C27.1248 43.256 27.5608 43.054 27.8648 42.65C28.1688 42.246 28.3208 41.67 28.3208 40.922C28.3208 40.526 28.2848 40.186 28.2128 39.902C28.1448 39.618 28.0448 39.386 27.9128 39.206C27.7808 39.022 27.6188 38.888 27.4268 38.804C27.2348 38.72 27.0168 38.678 26.7728 38.678C26.4248 38.678 26.1188 38.758 25.8548 38.918C25.5948 39.078 25.3548 39.304 25.1348 39.596V42.536ZM25.0808 38.864C25.3368 38.548 25.6328 38.294 25.9688 38.102C26.3048 37.91 26.6888 37.814 27.1208 37.814C27.4728 37.814 27.7908 37.882 28.0748 38.018C28.3588 38.15 28.6008 38.348 28.8008 38.612C29.0008 38.872 29.1548 39.196 29.2628 39.584C29.3708 39.972 29.4248 40.418 29.4248 40.922C29.4248 41.37 29.3648 41.788 29.2448 42.176C29.1248 42.56 28.9508 42.894 28.7228 43.178C28.4988 43.458 28.2228 43.68 27.8948 43.844C27.5708 44.004 27.2048 44.084 26.7968 44.084C26.4248 44.084 26.1048 44.022 25.8368 43.898C25.5728 43.77 25.3388 43.594 25.1348 43.37V46.058H24.0608V37.922H24.7028C24.8548 37.922 24.9488 37.996 24.9848 38.144L25.0808 38.864ZM34.8554 40.298C34.8554 40.05 34.8194 39.824 34.7474 39.62C34.6794 39.412 34.5774 39.234 34.4414 39.086C34.3094 38.934 34.1474 38.818 33.9554 38.738C33.7634 38.654 33.5454 38.612 33.3014 38.612C32.7894 38.612 32.3834 38.762 32.0834 39.062C31.7874 39.358 31.6034 39.77 31.5314 40.298H34.8554ZM35.7194 43.148C35.5874 43.308 35.4294 43.448 35.2454 43.568C35.0614 43.684 34.8634 43.78 34.6514 43.856C34.4434 43.932 34.2274 43.988 34.0034 44.024C33.7794 44.064 33.5574 44.084 33.3374 44.084C32.9174 44.084 32.5294 44.014 32.1734 43.874C31.8214 43.73 31.5154 43.522 31.2554 43.25C30.9994 42.974 30.7994 42.634 30.6554 42.23C30.5114 41.826 30.4394 41.362 30.4394 40.838C30.4394 40.414 30.5034 40.018 30.6314 39.65C30.7634 39.282 30.9514 38.964 31.1954 38.696C31.4394 38.424 31.7374 38.212 32.0894 38.06C32.4414 37.904 32.8374 37.826 33.2774 37.826C33.6414 37.826 33.9774 37.888 34.2854 38.012C34.5974 38.132 34.8654 38.308 35.0894 38.54C35.3174 38.768 35.4954 39.052 35.6234 39.392C35.7514 39.728 35.8154 40.112 35.8154 40.544C35.8154 40.712 35.7974 40.824 35.7614 40.88C35.7254 40.936 35.6574 40.964 35.5574 40.964H31.4954C31.5074 41.348 31.5594 41.682 31.6514 41.966C31.7474 42.25 31.8794 42.488 32.0474 42.68C32.2154 42.868 32.4154 43.01 32.6474 43.106C32.8794 43.198 33.1394 43.244 33.4274 43.244C33.6954 43.244 33.9254 43.214 34.1174 43.154C34.3134 43.09 34.4814 43.022 34.6214 42.95C34.7614 42.878 34.8774 42.812 34.9694 42.752C35.0654 42.688 35.1474 42.656 35.2154 42.656C35.3034 42.656 35.3714 42.69 35.4194 42.758L35.7194 43.148ZM41.3573 39.002C41.3253 39.046 41.2933 39.08 41.2613 39.104C41.2293 39.128 41.1853 39.14 41.1293 39.14C41.0693 39.14 41.0033 39.116 40.9313 39.068C40.8593 39.016 40.7693 38.96 40.6613 38.9C40.5573 38.84 40.4273 38.786 40.2713 38.738C40.1193 38.686 39.9313 38.66 39.7073 38.66C39.4073 38.66 39.1433 38.714 38.9153 38.822C38.6873 38.926 38.4953 39.078 38.3393 39.278C38.1873 39.478 38.0713 39.72 37.9913 40.004C37.9153 40.288 37.8773 40.606 37.8773 40.958C37.8773 41.326 37.9193 41.654 38.0033 41.942C38.0873 42.226 38.2053 42.466 38.3573 42.662C38.5133 42.854 38.6993 43.002 38.9153 43.106C39.1353 43.206 39.3813 43.256 39.6533 43.256C39.9133 43.256 40.1273 43.226 40.2953 43.166C40.4633 43.102 40.6013 43.032 40.7093 42.956C40.8213 42.88 40.9133 42.812 40.9853 42.752C41.0613 42.688 41.1353 42.656 41.2073 42.656C41.2953 42.656 41.3633 42.69 41.4113 42.758L41.7113 43.148C41.5793 43.312 41.4293 43.452 41.2613 43.568C41.0933 43.684 40.9113 43.782 40.7153 43.862C40.5233 43.938 40.3213 43.994 40.1093 44.03C39.8973 44.066 39.6813 44.084 39.4613 44.084C39.0813 44.084 38.7273 44.014 38.3993 43.874C38.0753 43.734 37.7933 43.532 37.5533 43.268C37.3133 43 37.1253 42.672 36.9893 42.284C36.8533 41.896 36.7853 41.454 36.7853 40.958C36.7853 40.506 36.8473 40.088 36.9713 39.704C37.0993 39.32 37.2833 38.99 37.5233 38.714C37.7673 38.434 38.0653 38.216 38.4173 38.06C38.7733 37.904 39.1813 37.826 39.6413 37.826C40.0693 37.826 40.4453 37.896 40.7693 38.036C41.0973 38.172 41.3873 38.366 41.6393 38.618L41.3573 39.002ZM44.7237 44.096C44.2437 44.096 43.8737 43.962 43.6137 43.694C43.3577 43.426 43.2297 43.04 43.2297 42.536V38.816H42.4977C42.4337 38.816 42.3797 38.798 42.3357 38.762C42.2917 38.722 42.2697 38.662 42.2697 38.582V38.156L43.2657 38.03L43.5117 36.152C43.5237 36.092 43.5497 36.044 43.5897 36.008C43.6337 35.968 43.6897 35.948 43.7577 35.948H44.2977V38.042H46.0557V38.816H44.2977V42.464C44.2977 42.72 44.3597 42.91 44.4837 43.034C44.6077 43.158 44.7677 43.22 44.9637 43.22C45.0757 43.22 45.1717 43.206 45.2517 43.178C45.3357 43.146 45.4077 43.112 45.4677 43.076C45.5277 43.04 45.5777 43.008 45.6177 42.98C45.6617 42.948 45.6997 42.932 45.7317 42.932C45.7877 42.932 45.8377 42.966 45.8817 43.034L46.1937 43.544C46.0097 43.716 45.7877 43.852 45.5277 43.952C45.2677 44.048 44.9997 44.096 44.7237 44.096ZM50.6985 38.924C50.6505 39.012 50.5765 39.056 50.4765 39.056C50.4165 39.056 50.3485 39.034 50.2725 38.99C50.1965 38.946 50.1025 38.898 49.9905 38.846C49.8825 38.79 49.7525 38.74 49.6005 38.696C49.4485 38.648 49.2685 38.624 49.0605 38.624C48.8805 38.624 48.7185 38.648 48.5745 38.696C48.4305 38.74 48.3065 38.802 48.2025 38.882C48.1025 38.962 48.0245 39.056 47.9685 39.164C47.9165 39.268 47.8905 39.382 47.8905 39.506C47.8905 39.662 47.9345 39.792 48.0225 39.896C48.1145 40 48.2345 40.09 48.3825 40.166C48.5305 40.242 48.6985 40.31 48.8865 40.37C49.0745 40.426 49.2665 40.488 49.4625 40.556C49.6625 40.62 49.8565 40.692 50.0445 40.772C50.2325 40.852 50.4005 40.952 50.5485 41.072C50.6965 41.192 50.8145 41.34 50.9025 41.516C50.9945 41.688 51.0405 41.896 51.0405 42.14C51.0405 42.42 50.9905 42.68 50.8905 42.92C50.7905 43.156 50.6425 43.362 50.4465 43.538C50.2505 43.71 50.0105 43.846 49.7265 43.946C49.4425 44.046 49.1145 44.096 48.7425 44.096C48.3185 44.096 47.9345 44.028 47.5905 43.892C47.2465 43.752 46.9545 43.574 46.7145 43.358L46.9665 42.95C46.9985 42.898 47.0365 42.858 47.0805 42.83C47.1245 42.802 47.1805 42.788 47.2485 42.788C47.3205 42.788 47.3965 42.816 47.4765 42.872C47.5565 42.928 47.6525 42.99 47.7645 43.058C47.8805 43.126 48.0205 43.188 48.1845 43.244C48.3485 43.3 48.5525 43.328 48.7965 43.328C49.0045 43.328 49.1865 43.302 49.3425 43.25C49.4985 43.194 49.6285 43.12 49.7325 43.028C49.8365 42.936 49.9125 42.83 49.9605 42.71C50.0125 42.59 50.0385 42.462 50.0385 42.326C50.0385 42.158 49.9925 42.02 49.9005 41.912C49.8125 41.8 49.6945 41.706 49.5465 41.63C49.3985 41.55 49.2285 41.482 49.0365 41.426C48.8485 41.366 48.6545 41.304 48.4545 41.24C48.2585 41.176 48.0645 41.104 47.8725 41.024C47.6845 40.94 47.5165 40.836 47.3685 40.712C47.2205 40.588 47.1005 40.436 47.0085 40.256C46.9205 40.072 46.8765 39.85 46.8765 39.59C46.8765 39.358 46.9245 39.136 47.0205 38.924C47.1165 38.708 47.2565 38.52 47.4405 38.36C47.6245 38.196 47.8505 38.066 48.1185 37.97C48.3865 37.874 48.6925 37.826 49.0365 37.826C49.4365 37.826 49.7945 37.89 50.1105 38.018C50.4305 38.142 50.7065 38.314 50.9385 38.534L50.6985 38.924Z" fill="#1E212C"/>
</g>
</g>
<defs>
<clipPath id="clip0_147_785">
<rect width="52" height="48" fill="white"/>
</clipPath>
<clipPath id="clip1_147_785">
<rect width="52" height="48" fill="white"/>
</clipPath>
</defs>
</svg>
