<svg width="109" height="48" viewBox="0 0 109 48" fill="none" xmlns="http://www.w3.org/2000/svg">
<g clip-path="url(#clip0_147_194)">
<g clip-path="url(#clip1_147_194)">
<circle opacity="0.3" cx="20" cy="24" r="18" stroke="#FF4242" stroke-width="4"/>
<path d="M20 40C28.8366 40 36 32.8366 36 24C36 15.1634 28.8366 8 20 8V4C31.0457 4 40 12.9543 40 24C40 35.0457 31.0457 44 20 44C8.9543 44 0 35.0457 0 24C0 22.2735 0.218765 20.5981 0.630087 19L4.5 20.0158C4.17357 21.2896 4 22.6245 4 24C4 32.8366 11.1634 40 20 40Z" fill="#FF4242"/>
</g>
<g clip-path="url(#clip2_147_194)">
<path d="M57.8 21.23C58.2067 21.23 58.5633 21.1733 58.87 21.06C59.1767 20.94 59.4333 20.7767 59.64 20.57C59.8533 20.3633 60.0133 20.1167 60.12 19.83C60.2267 19.5433 60.28 19.2333 60.28 18.9C60.28 18.1067 60.06 17.5067 59.62 17.1C59.18 16.6933 58.5733 16.49 57.8 16.49C57.0267 16.49 56.42 16.6933 55.98 17.1C55.54 17.5067 55.32 18.1067 55.32 18.9C55.32 19.2333 55.3733 19.5433 55.48 19.83C55.5867 20.1167 55.7433 20.3633 55.95 20.57C56.1633 20.7767 56.4233 20.94 56.73 21.06C57.0367 21.1733 57.3933 21.23 57.8 21.23ZM57.8 10.24C57.4333 10.24 57.1167 10.2967 56.85 10.41C56.5833 10.5233 56.36 10.6767 56.18 10.87C56.0067 11.0567 55.8767 11.2733 55.79 11.52C55.71 11.7667 55.67 12.0267 55.67 12.3C55.67 12.5867 55.7033 12.8667 55.77 13.14C55.8433 13.4067 55.9633 13.6467 56.13 13.86C56.2967 14.0667 56.5167 14.2333 56.79 14.36C57.0633 14.4867 57.4 14.55 57.8 14.55C58.2 14.55 58.5367 14.4867 58.81 14.36C59.0833 14.2333 59.3033 14.0667 59.47 13.86C59.6367 13.6467 59.7533 13.4067 59.82 13.14C59.8933 12.8667 59.93 12.5867 59.93 12.3C59.93 12.0267 59.8867 11.7667 59.8 11.52C59.7133 11.2733 59.5833 11.0567 59.41 10.87C59.2367 10.6767 59.0167 10.5233 58.75 10.41C58.4833 10.2967 58.1667 10.24 57.8 10.24ZM60.24 15.46C61.12 15.7467 61.77 16.1867 62.19 16.78C62.61 17.3667 62.82 18.0867 62.82 18.94C62.82 19.58 62.6967 20.16 62.45 20.68C62.21 21.2 61.87 21.6433 61.43 22.01C60.99 22.3767 60.46 22.66 59.84 22.86C59.2267 23.06 58.5467 23.16 57.8 23.16C57.0533 23.16 56.37 23.06 55.75 22.86C55.1367 22.66 54.61 22.3767 54.17 22.01C53.73 21.6433 53.3867 21.2 53.14 20.68C52.9 20.16 52.78 19.58 52.78 18.94C52.78 18.0867 52.99 17.3667 53.41 16.78C53.83 16.1867 54.48 15.7467 55.36 15.46C54.66 15.1667 54.1333 14.75 53.78 14.21C53.4333 13.67 53.26 13.02 53.26 12.26C53.26 11.7133 53.37 11.2033 53.59 10.73C53.8167 10.2567 54.13 9.84667 54.53 9.5C54.93 9.14667 55.4067 8.87333 55.96 8.68C56.52 8.48 57.1333 8.38 57.8 8.38C58.4667 8.38 59.0767 8.48 59.63 8.68C60.19 8.87333 60.67 9.14667 61.07 9.5C61.47 9.84667 61.78 10.2567 62 10.73C62.2267 11.2033 62.34 11.7133 62.34 12.26C62.34 13.02 62.1633 13.67 61.81 14.21C61.4633 14.75 60.94 15.1667 60.24 15.46ZM74.7016 15.77C74.7016 17.03 74.5649 18.1267 74.2916 19.06C74.0249 19.9867 73.6516 20.7533 73.1716 21.36C72.6982 21.9667 72.1349 22.42 71.4816 22.72C70.8349 23.0133 70.1349 23.16 69.3816 23.16C68.6282 23.16 67.9282 23.0133 67.2816 22.72C66.6416 22.42 66.0849 21.9667 65.6116 21.36C65.1382 20.7533 64.7682 19.9867 64.5016 19.06C64.2349 18.1267 64.1016 17.03 64.1016 15.77C64.1016 14.5033 64.2349 13.4067 64.5016 12.48C64.7682 11.5533 65.1382 10.7867 65.6116 10.18C66.0849 9.57333 66.6416 9.12333 67.2816 8.83C67.9282 8.53 68.6282 8.38 69.3816 8.38C70.1349 8.38 70.8349 8.53 71.4816 8.83C72.1349 9.12333 72.6982 9.57333 73.1716 10.18C73.6516 10.7867 74.0249 11.5533 74.2916 12.48C74.5649 13.4067 74.7016 14.5033 74.7016 15.77ZM72.1516 15.77C72.1516 14.7233 72.0749 13.8567 71.9216 13.17C71.7682 12.4833 71.5616 11.9367 71.3016 11.53C71.0482 11.1233 70.7549 10.84 70.4216 10.68C70.0882 10.5133 69.7416 10.43 69.3816 10.43C69.0282 10.43 68.6849 10.5133 68.3516 10.68C68.0249 10.84 67.7349 11.1233 67.4816 11.53C67.2282 11.9367 67.0249 12.4833 66.8716 13.17C66.7249 13.8567 66.6516 14.7233 66.6516 15.77C66.6516 16.8167 66.7249 17.6833 66.8716 18.37C67.0249 19.0567 67.2282 19.6033 67.4816 20.01C67.7349 20.4167 68.0249 20.7033 68.3516 20.87C68.6849 21.03 69.0282 21.11 69.3816 21.11C69.7416 21.11 70.0882 21.03 70.4216 20.87C70.7549 20.7033 71.0482 20.4167 71.3016 20.01C71.5616 19.6033 71.7682 19.0567 71.9216 18.37C72.0749 17.6833 72.1516 16.8167 72.1516 15.77ZM82.6531 12.04C82.6531 12.5867 82.5598 13.08 82.3731 13.52C82.1931 13.96 81.9498 14.3367 81.6431 14.65C81.3365 14.9567 80.9798 15.1933 80.5731 15.36C80.1665 15.5267 79.7431 15.61 79.3031 15.61C78.8231 15.61 78.3798 15.5267 77.9731 15.36C77.5665 15.1933 77.2131 14.9567 76.9131 14.65C76.6198 14.3367 76.3898 13.96 76.2231 13.52C76.0565 13.08 75.9731 12.5867 75.9731 12.04C75.9731 11.48 76.0565 10.9733 76.2231 10.52C76.3898 10.0667 76.6198 9.68333 76.9131 9.37C77.2131 9.05667 77.5665 8.81667 77.9731 8.65C78.3798 8.47667 78.8231 8.39 79.3031 8.39C79.7831 8.39 80.2265 8.47667 80.6331 8.65C81.0465 8.81667 81.4031 9.05667 81.7031 9.37C82.0031 9.68333 82.2365 10.0667 82.4031 10.52C82.5698 10.9733 82.6531 11.48 82.6531 12.04ZM80.7531 12.04C80.7531 11.6533 80.7131 11.33 80.6331 11.07C80.5598 10.81 80.4565 10.6 80.3231 10.44C80.1965 10.28 80.0431 10.1667 79.8631 10.1C79.6898 10.0267 79.5031 9.99 79.3031 9.99C79.1031 9.99 78.9165 10.0267 78.7431 10.1C78.5698 10.1667 78.4198 10.28 78.2931 10.44C78.1731 10.6 78.0765 10.81 78.0031 11.07C77.9298 11.33 77.8931 11.6533 77.8931 12.04C77.8931 12.4133 77.9298 12.7267 78.0031 12.98C78.0765 13.2267 78.1731 13.4267 78.2931 13.58C78.4198 13.7333 78.5698 13.8433 78.7431 13.91C78.9165 13.9767 79.1031 14.01 79.3031 14.01C79.5031 14.01 79.6898 13.9767 79.8631 13.91C80.0431 13.8433 80.1965 13.7333 80.3231 13.58C80.4565 13.4267 80.5598 13.2267 80.6331 12.98C80.7131 12.7267 80.7531 12.4133 80.7531 12.04ZM87.4631 8.93C87.5498 8.83 87.6498 8.74 87.7631 8.66C87.8831 8.58 88.0498 8.54 88.2631 8.54H90.0631L79.3231 22.63C79.2365 22.7367 79.1331 22.8267 79.0131 22.9C78.8931 22.9667 78.7465 23 78.5731 23H76.7331L87.4631 8.93ZM90.8231 19.6C90.8231 20.1467 90.7298 20.64 90.5431 21.08C90.3631 21.52 90.1198 21.8967 89.8131 22.21C89.5065 22.5167 89.1498 22.7567 88.7431 22.93C88.3365 23.0967 87.9131 23.18 87.4731 23.18C86.9931 23.18 86.5498 23.0967 86.1431 22.93C85.7365 22.7567 85.3831 22.5167 85.0831 22.21C84.7898 21.8967 84.5598 21.52 84.3931 21.08C84.2265 20.64 84.1431 20.1467 84.1431 19.6C84.1431 19.04 84.2265 18.5333 84.3931 18.08C84.5598 17.6267 84.7898 17.2433 85.0831 16.93C85.3831 16.6167 85.7365 16.3767 86.1431 16.21C86.5498 16.0367 86.9931 15.95 87.4731 15.95C87.9531 15.95 88.3965 16.0367 88.8031 16.21C89.2165 16.3767 89.5698 16.6167 89.8631 16.93C90.1631 17.2433 90.3965 17.6267 90.5631 18.08C90.7365 18.5333 90.8231 19.04 90.8231 19.6ZM88.9131 19.6C88.9131 19.2133 88.8765 18.89 88.8031 18.63C88.7298 18.37 88.6265 18.16 88.4931 18C88.3665 17.84 88.2131 17.7267 88.0331 17.66C87.8598 17.5867 87.6731 17.55 87.4731 17.55C87.2731 17.55 87.0865 17.5867 86.9131 17.66C86.7398 17.7267 86.5898 17.84 86.4631 18C86.3365 18.16 86.2365 18.37 86.1631 18.63C86.0965 18.89 86.0631 19.2133 86.0631 19.6C86.0631 19.9733 86.0965 20.2867 86.1631 20.54C86.2365 20.7933 86.3365 20.9967 86.4631 21.15C86.5898 21.3033 86.7398 21.4133 86.9131 21.48C87.0865 21.5467 87.2731 21.58 87.4731 21.58C87.6731 21.58 87.8598 21.5467 88.0331 21.48C88.2131 21.4133 88.3665 21.3033 88.4931 21.15C88.6265 20.9967 88.7298 20.7933 88.8031 20.54C88.8765 20.2867 88.9131 19.9733 88.9131 19.6Z" fill="#1E212C"/>
<path d="M61.042 39.704C61.042 40.348 60.94 40.94 60.736 41.48C60.532 42.016 60.244 42.478 59.872 42.866C59.5 43.254 59.052 43.556 58.528 43.772C58.008 43.984 57.432 44.09 56.8 44.09C56.168 44.09 55.592 43.984 55.072 43.772C54.552 43.556 54.106 43.254 53.734 42.866C53.362 42.478 53.074 42.016 52.87 41.48C52.666 40.94 52.564 40.348 52.564 39.704C52.564 39.06 52.666 38.47 52.87 37.934C53.074 37.394 53.362 36.93 53.734 36.542C54.106 36.15 54.552 35.846 55.072 35.63C55.592 35.414 56.168 35.306 56.8 35.306C57.432 35.306 58.008 35.414 58.528 35.63C59.052 35.846 59.5 36.15 59.872 36.542C60.244 36.93 60.532 37.394 60.736 37.934C60.94 38.47 61.042 39.06 61.042 39.704ZM59.848 39.704C59.848 39.176 59.776 38.702 59.632 38.282C59.488 37.862 59.284 37.508 59.02 37.22C58.756 36.928 58.436 36.704 58.06 36.548C57.684 36.392 57.264 36.314 56.8 36.314C56.34 36.314 55.922 36.392 55.546 36.548C55.17 36.704 54.848 36.928 54.58 37.22C54.316 37.508 54.112 37.862 53.968 38.282C53.824 38.702 53.752 39.176 53.752 39.704C53.752 40.232 53.824 40.706 53.968 41.126C54.112 41.542 54.316 41.896 54.58 42.188C54.848 42.476 55.17 42.698 55.546 42.854C55.922 43.006 56.34 43.082 56.8 43.082C57.264 43.082 57.684 43.006 58.06 42.854C58.436 42.698 58.756 42.476 59.02 42.188C59.284 41.896 59.488 41.542 59.632 41.126C59.776 40.706 59.848 40.232 59.848 39.704ZM63.4122 42.536C63.6082 42.8 63.8222 42.986 64.0542 43.094C64.2862 43.202 64.5462 43.256 64.8342 43.256C65.4022 43.256 65.8382 43.054 66.1422 42.65C66.4462 42.246 66.5982 41.67 66.5982 40.922C66.5982 40.526 66.5622 40.186 66.4902 39.902C66.4222 39.618 66.3222 39.386 66.1902 39.206C66.0582 39.022 65.8962 38.888 65.7042 38.804C65.5122 38.72 65.2942 38.678 65.0502 38.678C64.7022 38.678 64.3962 38.758 64.1322 38.918C63.8722 39.078 63.6322 39.304 63.4122 39.596V42.536ZM63.3582 38.864C63.6142 38.548 63.9102 38.294 64.2462 38.102C64.5822 37.91 64.9662 37.814 65.3982 37.814C65.7502 37.814 66.0682 37.882 66.3522 38.018C66.6362 38.15 66.8782 38.348 67.0782 38.612C67.2782 38.872 67.4322 39.196 67.5402 39.584C67.6482 39.972 67.7022 40.418 67.7022 40.922C67.7022 41.37 67.6422 41.788 67.5222 42.176C67.4022 42.56 67.2282 42.894 67.0002 43.178C66.7762 43.458 66.5002 43.68 66.1722 43.844C65.8482 44.004 65.4822 44.084 65.0742 44.084C64.7022 44.084 64.3822 44.022 64.1142 43.898C63.8502 43.77 63.6162 43.594 63.4122 43.37V46.058H62.3382V37.922H62.9802C63.1322 37.922 63.2262 37.996 63.2622 38.144L63.3582 38.864ZM73.1328 40.298C73.1328 40.05 73.0968 39.824 73.0248 39.62C72.9568 39.412 72.8548 39.234 72.7188 39.086C72.5868 38.934 72.4248 38.818 72.2328 38.738C72.0408 38.654 71.8228 38.612 71.5788 38.612C71.0668 38.612 70.6608 38.762 70.3608 39.062C70.0648 39.358 69.8808 39.77 69.8088 40.298H73.1328ZM73.9968 43.148C73.8648 43.308 73.7068 43.448 73.5228 43.568C73.3388 43.684 73.1408 43.78 72.9288 43.856C72.7208 43.932 72.5048 43.988 72.2808 44.024C72.0568 44.064 71.8348 44.084 71.6148 44.084C71.1948 44.084 70.8068 44.014 70.4508 43.874C70.0988 43.73 69.7928 43.522 69.5328 43.25C69.2768 42.974 69.0768 42.634 68.9328 42.23C68.7888 41.826 68.7168 41.362 68.7168 40.838C68.7168 40.414 68.7808 40.018 68.9088 39.65C69.0408 39.282 69.2288 38.964 69.4728 38.696C69.7168 38.424 70.0148 38.212 70.3668 38.06C70.7188 37.904 71.1148 37.826 71.5548 37.826C71.9188 37.826 72.2548 37.888 72.5628 38.012C72.8748 38.132 73.1428 38.308 73.3668 38.54C73.5948 38.768 73.7728 39.052 73.9008 39.392C74.0288 39.728 74.0928 40.112 74.0928 40.544C74.0928 40.712 74.0748 40.824 74.0388 40.88C74.0028 40.936 73.9348 40.964 73.8348 40.964H69.7728C69.7848 41.348 69.8368 41.682 69.9288 41.966C70.0248 42.25 70.1568 42.488 70.3248 42.68C70.4928 42.868 70.6928 43.01 70.9248 43.106C71.1568 43.198 71.4168 43.244 71.7048 43.244C71.9728 43.244 72.2028 43.214 72.3948 43.154C72.5908 43.09 72.7588 43.022 72.8988 42.95C73.0388 42.878 73.1548 42.812 73.2468 42.752C73.3428 42.688 73.4248 42.656 73.4928 42.656C73.5808 42.656 73.6488 42.69 73.6968 42.758L73.9968 43.148ZM76.4126 38.804C76.5446 38.656 76.6846 38.522 76.8326 38.402C76.9806 38.282 77.1366 38.18 77.3006 38.096C77.4686 38.008 77.6446 37.942 77.8286 37.898C78.0166 37.85 78.2186 37.826 78.4346 37.826C78.7666 37.826 79.0586 37.882 79.3106 37.994C79.5666 38.102 79.7786 38.258 79.9466 38.462C80.1186 38.662 80.2486 38.904 80.3366 39.188C80.4246 39.472 80.4686 39.786 80.4686 40.13V44H79.3946V40.13C79.3946 39.67 79.2886 39.314 79.0766 39.062C78.8686 38.806 78.5506 38.678 78.1226 38.678C77.8066 38.678 77.5106 38.754 77.2346 38.906C76.9626 39.058 76.7106 39.264 76.4786 39.524V44H75.4046V37.922H76.0466C76.1986 37.922 76.2926 37.996 76.3286 38.144L76.4126 38.804ZM87.8003 39.566C88.1363 39.566 88.4323 39.526 88.6883 39.446C88.9483 39.362 89.1643 39.246 89.3363 39.098C89.5123 38.946 89.6443 38.766 89.7323 38.558C89.8203 38.35 89.8643 38.12 89.8643 37.868C89.8643 37.356 89.6963 36.97 89.3603 36.71C89.0243 36.45 88.5203 36.32 87.8483 36.32H86.5763V39.566H87.8003ZM91.7723 44H90.7403C90.5283 44 90.3723 43.918 90.2723 43.754L88.0403 40.682C87.9723 40.586 87.8983 40.518 87.8183 40.478C87.7423 40.434 87.6223 40.412 87.4583 40.412H86.5763V44H85.4183V35.402H87.8483C88.3923 35.402 88.8623 35.458 89.2583 35.57C89.6543 35.678 89.9803 35.836 90.2363 36.044C90.4963 36.252 90.6883 36.504 90.8123 36.8C90.9363 37.092 90.9983 37.42 90.9983 37.784C90.9983 38.088 90.9503 38.372 90.8543 38.636C90.7583 38.9 90.6183 39.138 90.4343 39.35C90.2543 39.558 90.0323 39.736 89.7683 39.884C89.5083 40.032 89.2123 40.144 88.8803 40.22C89.0283 40.304 89.1563 40.426 89.2643 40.586L91.7723 44ZM95.89 41.264C95.398 41.28 94.978 41.32 94.63 41.384C94.286 41.444 94.004 41.524 93.784 41.624C93.568 41.724 93.41 41.842 93.31 41.978C93.214 42.114 93.166 42.266 93.166 42.434C93.166 42.594 93.192 42.732 93.244 42.848C93.296 42.964 93.366 43.06 93.454 43.136C93.546 43.208 93.652 43.262 93.772 43.298C93.896 43.33 94.028 43.346 94.168 43.346C94.356 43.346 94.528 43.328 94.684 43.292C94.84 43.252 94.986 43.196 95.122 43.124C95.262 43.052 95.394 42.966 95.518 42.866C95.646 42.766 95.77 42.652 95.89 42.524V41.264ZM92.44 38.78C92.776 38.456 93.138 38.214 93.526 38.054C93.914 37.894 94.344 37.814 94.816 37.814C95.156 37.814 95.458 37.87 95.722 37.982C95.986 38.094 96.208 38.25 96.388 38.45C96.568 38.65 96.704 38.892 96.796 39.176C96.888 39.46 96.934 39.772 96.934 40.112V44H96.46C96.356 44 96.276 43.984 96.22 43.952C96.164 43.916 96.12 43.848 96.088 43.748L95.968 43.172C95.808 43.32 95.652 43.452 95.5 43.568C95.348 43.68 95.188 43.776 95.02 43.856C94.852 43.932 94.672 43.99 94.48 44.03C94.292 44.074 94.082 44.096 93.85 44.096C93.614 44.096 93.392 44.064 93.184 44C92.976 43.932 92.794 43.832 92.638 43.7C92.486 43.568 92.364 43.402 92.272 43.202C92.184 42.998 92.14 42.758 92.14 42.482C92.14 42.242 92.206 42.012 92.338 41.792C92.47 41.568 92.684 41.37 92.98 41.198C93.276 41.026 93.662 40.886 94.138 40.778C94.614 40.666 95.198 40.602 95.89 40.586V40.112C95.89 39.64 95.788 39.284 95.584 39.044C95.38 38.8 95.082 38.678 94.69 38.678C94.426 38.678 94.204 38.712 94.024 38.78C93.848 38.844 93.694 38.918 93.562 39.002C93.434 39.082 93.322 39.156 93.226 39.224C93.134 39.288 93.042 39.32 92.95 39.32C92.878 39.32 92.816 39.302 92.764 39.266C92.712 39.226 92.668 39.178 92.632 39.122L92.44 38.78ZM100.345 44.096C99.8648 44.096 99.4948 43.962 99.2348 43.694C98.9788 43.426 98.8508 43.04 98.8508 42.536V38.816H98.1188C98.0548 38.816 98.0008 38.798 97.9568 38.762C97.9128 38.722 97.8908 38.662 97.8908 38.582V38.156L98.8868 38.03L99.1328 36.152C99.1448 36.092 99.1708 36.044 99.2108 36.008C99.2548 35.968 99.3108 35.948 99.3788 35.948H99.9188V38.042H101.677V38.816H99.9188V42.464C99.9188 42.72 99.9808 42.91 100.105 43.034C100.229 43.158 100.389 43.22 100.585 43.22C100.697 43.22 100.793 43.206 100.873 43.178C100.957 43.146 101.029 43.112 101.089 43.076C101.149 43.04 101.199 43.008 101.239 42.98C101.283 42.948 101.321 42.932 101.353 42.932C101.409 42.932 101.459 42.966 101.503 43.034L101.815 43.544C101.631 43.716 101.409 43.852 101.149 43.952C100.889 44.048 100.621 44.096 100.345 44.096ZM106.812 40.298C106.812 40.05 106.776 39.824 106.704 39.62C106.636 39.412 106.534 39.234 106.398 39.086C106.266 38.934 106.104 38.818 105.912 38.738C105.72 38.654 105.502 38.612 105.258 38.612C104.746 38.612 104.34 38.762 104.04 39.062C103.744 39.358 103.56 39.77 103.488 40.298H106.812ZM107.676 43.148C107.544 43.308 107.386 43.448 107.202 43.568C107.018 43.684 106.82 43.78 106.608 43.856C106.4 43.932 106.184 43.988 105.96 44.024C105.736 44.064 105.514 44.084 105.294 44.084C104.874 44.084 104.486 44.014 104.13 43.874C103.778 43.73 103.472 43.522 103.212 43.25C102.956 42.974 102.756 42.634 102.612 42.23C102.468 41.826 102.396 41.362 102.396 40.838C102.396 40.414 102.46 40.018 102.588 39.65C102.72 39.282 102.908 38.964 103.152 38.696C103.396 38.424 103.694 38.212 104.046 38.06C104.398 37.904 104.794 37.826 105.234 37.826C105.598 37.826 105.934 37.888 106.242 38.012C106.554 38.132 106.822 38.308 107.046 38.54C107.274 38.768 107.452 39.052 107.58 39.392C107.708 39.728 107.772 40.112 107.772 40.544C107.772 40.712 107.754 40.824 107.718 40.88C107.682 40.936 107.614 40.964 107.514 40.964H103.452C103.464 41.348 103.516 41.682 103.608 41.966C103.704 42.25 103.836 42.488 104.004 42.68C104.172 42.868 104.372 43.01 104.604 43.106C104.836 43.198 105.096 43.244 105.384 43.244C105.652 43.244 105.882 43.214 106.074 43.154C106.27 43.09 106.438 43.022 106.578 42.95C106.718 42.878 106.834 42.812 106.926 42.752C107.022 42.688 107.104 42.656 107.172 42.656C107.26 42.656 107.328 42.69 107.376 42.758L107.676 43.148Z" fill="#1E212C"/>
</g>
</g>
<defs>
<clipPath id="clip0_147_194">
<rect width="109" height="48" fill="white"/>
</clipPath>
<clipPath id="clip1_147_194">
<rect width="40" height="40" fill="white" transform="translate(0 4)"/>
</clipPath>
<clipPath id="clip2_147_194">
<rect width="57" height="48" fill="white" transform="translate(52)"/>
</clipPath>
</defs>
</svg>
