<svg width="84" height="48" viewBox="0 0 84 48" fill="none" xmlns="http://www.w3.org/2000/svg">
<g clip-path="url(#clip0_147_201)">
<g clip-path="url(#clip1_147_201)">
<path d="M10.35 21.15V23H2.35V21.15H5.28V12.72C5.28 12.3867 5.29 12.0433 5.31 11.69L3.23 13.43C3.11 13.5233 2.99 13.5833 2.87 13.61C2.75667 13.63 2.64667 13.63 2.54 13.61C2.44 13.59 2.35 13.5567 2.27 13.51C2.19 13.4567 2.13 13.4 2.09 13.34L1.31 12.27L5.72 8.52H7.75V21.15H10.35ZM12.7816 25.45C12.6616 25.35 12.6016 25.2267 12.6016 25.08C12.6016 25.0267 12.6182 24.9667 12.6516 24.9C12.6916 24.8333 12.7382 24.7733 12.7916 24.72C12.8649 24.64 12.9549 24.54 13.0616 24.42C13.1682 24.3067 13.2749 24.1733 13.3816 24.02C13.4882 23.8733 13.5849 23.71 13.6716 23.53C13.7649 23.3567 13.8349 23.17 13.8816 22.97C13.6682 22.97 13.4749 22.9333 13.3016 22.86C13.1282 22.78 12.9782 22.6733 12.8516 22.54C12.7316 22.4067 12.6349 22.25 12.5616 22.07C12.4949 21.89 12.4616 21.6933 12.4616 21.48C12.4616 21.2933 12.4949 21.12 12.5616 20.96C12.6349 20.7933 12.7349 20.65 12.8616 20.53C12.9882 20.4033 13.1416 20.3067 13.3216 20.24C13.5016 20.1667 13.6982 20.13 13.9116 20.13C14.1649 20.13 14.3849 20.1767 14.5716 20.27C14.7649 20.3567 14.9216 20.48 15.0416 20.64C15.1682 20.7933 15.2616 20.9733 15.3216 21.18C15.3882 21.38 15.4216 21.5933 15.4216 21.82C15.4216 22.14 15.3716 22.4767 15.2716 22.83C15.1782 23.1833 15.0382 23.5367 14.8516 23.89C14.6649 24.2433 14.4316 24.5867 14.1516 24.92C13.8782 25.2533 13.5649 25.56 13.2116 25.84L12.7816 25.45ZM22.0891 21.23C22.4957 21.23 22.8524 21.1733 23.1591 21.06C23.4657 20.94 23.7224 20.7767 23.9291 20.57C24.1424 20.3633 24.3024 20.1167 24.4091 19.83C24.5157 19.5433 24.5691 19.2333 24.5691 18.9C24.5691 18.1067 24.3491 17.5067 23.9091 17.1C23.4691 16.6933 22.8624 16.49 22.0891 16.49C21.3157 16.49 20.7091 16.6933 20.2691 17.1C19.8291 17.5067 19.6091 18.1067 19.6091 18.9C19.6091 19.2333 19.6624 19.5433 19.7691 19.83C19.8757 20.1167 20.0324 20.3633 20.2391 20.57C20.4524 20.7767 20.7124 20.94 21.0191 21.06C21.3257 21.1733 21.6824 21.23 22.0891 21.23ZM22.0891 10.24C21.7224 10.24 21.4057 10.2967 21.1391 10.41C20.8724 10.5233 20.6491 10.6767 20.4691 10.87C20.2957 11.0567 20.1657 11.2733 20.0791 11.52C19.9991 11.7667 19.9591 12.0267 19.9591 12.3C19.9591 12.5867 19.9924 12.8667 20.0591 13.14C20.1324 13.4067 20.2524 13.6467 20.4191 13.86C20.5857 14.0667 20.8057 14.2333 21.0791 14.36C21.3524 14.4867 21.6891 14.55 22.0891 14.55C22.4891 14.55 22.8257 14.4867 23.0991 14.36C23.3724 14.2333 23.5924 14.0667 23.7591 13.86C23.9257 13.6467 24.0424 13.4067 24.1091 13.14C24.1824 12.8667 24.2191 12.5867 24.2191 12.3C24.2191 12.0267 24.1757 11.7667 24.0891 11.52C24.0024 11.2733 23.8724 11.0567 23.6991 10.87C23.5257 10.6767 23.3057 10.5233 23.0391 10.41C22.7724 10.2967 22.4557 10.24 22.0891 10.24ZM24.5291 15.46C25.4091 15.7467 26.0591 16.1867 26.4791 16.78C26.8991 17.3667 27.1091 18.0867 27.1091 18.94C27.1091 19.58 26.9857 20.16 26.7391 20.68C26.4991 21.2 26.1591 21.6433 25.7191 22.01C25.2791 22.3767 24.7491 22.66 24.1291 22.86C23.5157 23.06 22.8357 23.16 22.0891 23.16C21.3424 23.16 20.6591 23.06 20.0391 22.86C19.4257 22.66 18.8991 22.3767 18.4591 22.01C18.0191 21.6433 17.6757 21.2 17.4291 20.68C17.1891 20.16 17.0691 19.58 17.0691 18.94C17.0691 18.0867 17.2791 17.3667 17.6991 16.78C18.1191 16.1867 18.7691 15.7467 19.6491 15.46C18.9491 15.1667 18.4224 14.75 18.0691 14.21C17.7224 13.67 17.5491 13.02 17.5491 12.26C17.5491 11.7133 17.6591 11.2033 17.8791 10.73C18.1057 10.2567 18.4191 9.84667 18.8191 9.5C19.2191 9.14667 19.6957 8.87333 20.2491 8.68C20.8091 8.48 21.4224 8.38 22.0891 8.38C22.7557 8.38 23.3657 8.48 23.9191 8.68C24.4791 8.87333 24.9591 9.14667 25.3591 9.5C25.7591 9.84667 26.0691 10.2567 26.2891 10.73C26.5157 11.2033 26.6291 11.7133 26.6291 12.26C26.6291 13.02 26.4524 13.67 26.0991 14.21C25.7524 14.75 25.2291 15.1667 24.5291 15.46ZM35.0106 17.55V12.82C35.0106 12.3733 35.0406 11.88 35.1006 11.34L30.6106 17.55H35.0106ZM38.9806 17.55V18.98C38.9806 19.1133 38.9373 19.23 38.8506 19.33C38.764 19.4233 38.6406 19.47 38.4806 19.47H37.1606V23H35.0106V19.47H28.9106C28.744 19.47 28.5973 19.42 28.4706 19.32C28.344 19.2133 28.264 19.0833 28.2306 18.93L27.9706 17.68L34.8206 8.53H37.1606V17.55H38.9806ZM50.5922 15.77C50.5922 17.03 50.4555 18.1267 50.1822 19.06C49.9155 19.9867 49.5422 20.7533 49.0622 21.36C48.5889 21.9667 48.0255 22.42 47.3722 22.72C46.7255 23.0133 46.0255 23.16 45.2722 23.16C44.5189 23.16 43.8189 23.0133 43.1722 22.72C42.5322 22.42 41.9755 21.9667 41.5022 21.36C41.0289 20.7533 40.6589 19.9867 40.3922 19.06C40.1255 18.1267 39.9922 17.03 39.9922 15.77C39.9922 14.5033 40.1255 13.4067 40.3922 12.48C40.6589 11.5533 41.0289 10.7867 41.5022 10.18C41.9755 9.57333 42.5322 9.12333 43.1722 8.83C43.8189 8.53 44.5189 8.38 45.2722 8.38C46.0255 8.38 46.7255 8.53 47.3722 8.83C48.0255 9.12333 48.5889 9.57333 49.0622 10.18C49.5422 10.7867 49.9155 11.5533 50.1822 12.48C50.4555 13.4067 50.5922 14.5033 50.5922 15.77ZM48.0422 15.77C48.0422 14.7233 47.9655 13.8567 47.8122 13.17C47.6589 12.4833 47.4522 11.9367 47.1922 11.53C46.9389 11.1233 46.6455 10.84 46.3122 10.68C45.9789 10.5133 45.6322 10.43 45.2722 10.43C44.9189 10.43 44.5755 10.5133 44.2422 10.68C43.9155 10.84 43.6255 11.1233 43.3722 11.53C43.1189 11.9367 42.9155 12.4833 42.7622 13.17C42.6155 13.8567 42.5422 14.7233 42.5422 15.77C42.5422 16.8167 42.6155 17.6833 42.7622 18.37C42.9155 19.0567 43.1189 19.6033 43.3722 20.01C43.6255 20.4167 43.9155 20.7033 44.2422 20.87C44.5755 21.03 44.9189 21.11 45.2722 21.11C45.6322 21.11 45.9789 21.03 46.3122 20.87C46.6455 20.7033 46.9389 20.4167 47.1922 20.01C47.4522 19.6033 47.6589 19.0567 47.8122 18.37C47.9655 17.6833 48.0422 16.8167 48.0422 15.77Z" fill="#1E212C"/>
<path d="M6.912 36.38H4.128V44H2.97V36.38H0.18V35.402H6.912V36.38ZM9.85875 41.264C9.36675 41.28 8.94675 41.32 8.59875 41.384C8.25475 41.444 7.97275 41.524 7.75275 41.624C7.53675 41.724 7.37875 41.842 7.27875 41.978C7.18275 42.114 7.13475 42.266 7.13475 42.434C7.13475 42.594 7.16075 42.732 7.21275 42.848C7.26475 42.964 7.33475 43.06 7.42275 43.136C7.51475 43.208 7.62075 43.262 7.74075 43.298C7.86475 43.33 7.99675 43.346 8.13675 43.346C8.32475 43.346 8.49675 43.328 8.65275 43.292C8.80875 43.252 8.95475 43.196 9.09075 43.124C9.23075 43.052 9.36275 42.966 9.48675 42.866C9.61475 42.766 9.73875 42.652 9.85875 42.524V41.264ZM6.40875 38.78C6.74475 38.456 7.10675 38.214 7.49475 38.054C7.88275 37.894 8.31275 37.814 8.78475 37.814C9.12475 37.814 9.42675 37.87 9.69075 37.982C9.95475 38.094 10.1768 38.25 10.3568 38.45C10.5368 38.65 10.6728 38.892 10.7648 39.176C10.8568 39.46 10.9028 39.772 10.9028 40.112V44H10.4288C10.3248 44 10.2448 43.984 10.1888 43.952C10.1328 43.916 10.0888 43.848 10.0568 43.748L9.93675 43.172C9.77675 43.32 9.62075 43.452 9.46875 43.568C9.31675 43.68 9.15675 43.776 8.98875 43.856C8.82075 43.932 8.64075 43.99 8.44875 44.03C8.26075 44.074 8.05075 44.096 7.81875 44.096C7.58275 44.096 7.36075 44.064 7.15275 44C6.94475 43.932 6.76275 43.832 6.60675 43.7C6.45475 43.568 6.33275 43.402 6.24075 43.202C6.15275 42.998 6.10875 42.758 6.10875 42.482C6.10875 42.242 6.17475 42.012 6.30675 41.792C6.43875 41.568 6.65275 41.37 6.94875 41.198C7.24475 41.026 7.63075 40.886 8.10675 40.778C8.58275 40.666 9.16675 40.602 9.85875 40.586V40.112C9.85875 39.64 9.75675 39.284 9.55275 39.044C9.34875 38.8 9.05075 38.678 8.65875 38.678C8.39475 38.678 8.17275 38.712 7.99275 38.78C7.81675 38.844 7.66275 38.918 7.53075 39.002C7.40275 39.082 7.29075 39.156 7.19475 39.224C7.10275 39.288 7.01075 39.32 6.91875 39.32C6.84675 39.32 6.78475 39.302 6.73275 39.266C6.68075 39.226 6.63675 39.178 6.60075 39.122L6.40875 38.78ZM13.5436 39.14C13.7356 38.724 13.9716 38.4 14.2516 38.168C14.5316 37.932 14.8736 37.814 15.2776 37.814C15.4056 37.814 15.5276 37.828 15.6436 37.856C15.7636 37.884 15.8696 37.928 15.9616 37.988L15.8836 38.786C15.8596 38.886 15.7996 38.936 15.7036 38.936C15.6476 38.936 15.5656 38.924 15.4576 38.9C15.3496 38.876 15.2276 38.864 15.0916 38.864C14.8996 38.864 14.7276 38.892 14.5756 38.948C14.4276 39.004 14.2936 39.088 14.1736 39.2C14.0576 39.308 13.9516 39.444 13.8556 39.608C13.7636 39.768 13.6796 39.952 13.6036 40.16V44H12.5296V37.922H13.1416C13.2576 37.922 13.3376 37.944 13.3816 37.988C13.4256 38.032 13.4556 38.108 13.4716 38.216L13.5436 39.14ZM18.8781 41.03C19.0941 41.03 19.2841 41 19.4481 40.94C19.6121 40.88 19.7501 40.796 19.8621 40.688C19.9741 40.58 20.0581 40.452 20.1141 40.304C20.1701 40.152 20.1981 39.986 20.1981 39.806C20.1981 39.434 20.0841 39.138 19.8561 38.918C19.6321 38.698 19.3061 38.588 18.8781 38.588C18.4461 38.588 18.1161 38.698 17.8881 38.918C17.6641 39.138 17.5521 39.434 17.5521 39.806C17.5521 39.986 17.5801 40.152 17.6361 40.304C17.6961 40.452 17.7821 40.58 17.8941 40.688C18.0061 40.796 18.1441 40.88 18.3081 40.94C18.4721 41 18.6621 41.03 18.8781 41.03ZM20.8041 44.33C20.8041 44.182 20.7621 44.062 20.6781 43.97C20.5941 43.878 20.4801 43.806 20.3361 43.754C20.1961 43.702 20.0321 43.666 19.8441 43.646C19.6561 43.622 19.4561 43.604 19.2441 43.592C19.0361 43.58 18.8241 43.568 18.6081 43.556C18.3921 43.544 18.1841 43.524 17.9841 43.496C17.7601 43.6 17.5761 43.732 17.4321 43.892C17.2921 44.048 17.2221 44.232 17.2221 44.444C17.2221 44.58 17.2561 44.706 17.3241 44.822C17.3961 44.942 17.5041 45.044 17.6481 45.128C17.7921 45.216 17.9721 45.284 18.1881 45.332C18.4081 45.384 18.6661 45.41 18.9621 45.41C19.2501 45.41 19.5081 45.384 19.7361 45.332C19.9641 45.28 20.1561 45.206 20.3121 45.11C20.4721 45.014 20.5941 44.9 20.6781 44.768C20.7621 44.636 20.8041 44.49 20.8041 44.33ZM21.8901 38.162V38.558C21.8901 38.69 21.8061 38.774 21.6381 38.81L20.9481 38.9C21.0841 39.164 21.1521 39.456 21.1521 39.776C21.1521 40.072 21.0941 40.342 20.9781 40.586C20.8661 40.826 20.7101 41.032 20.5101 41.204C20.3101 41.376 20.0701 41.508 19.7901 41.6C19.5101 41.692 19.2061 41.738 18.8781 41.738C18.5941 41.738 18.3261 41.704 18.0741 41.636C17.9461 41.716 17.8481 41.802 17.7801 41.894C17.7121 41.982 17.6781 42.072 17.6781 42.164C17.6781 42.308 17.7361 42.418 17.8521 42.494C17.9721 42.566 18.1281 42.618 18.3201 42.65C18.5121 42.682 18.7301 42.702 18.9741 42.71C19.2221 42.718 19.4741 42.732 19.7301 42.752C19.9901 42.768 20.2421 42.798 20.4861 42.842C20.7341 42.886 20.9541 42.958 21.1461 43.058C21.3381 43.158 21.4921 43.296 21.6081 43.472C21.7281 43.648 21.7881 43.876 21.7881 44.156C21.7881 44.416 21.7221 44.668 21.5901 44.912C21.4621 45.156 21.2761 45.372 21.0321 45.56C20.7881 45.752 20.4881 45.904 20.1321 46.016C19.7801 46.132 19.3821 46.19 18.9381 46.19C18.4941 46.19 18.1061 46.146 17.7741 46.058C17.4421 45.97 17.1661 45.852 16.9461 45.704C16.7261 45.556 16.5601 45.384 16.4481 45.188C16.3401 44.996 16.2861 44.794 16.2861 44.582C16.2861 44.282 16.3801 44.028 16.5681 43.82C16.7561 43.612 17.0141 43.446 17.3421 43.322C17.1621 43.242 17.0181 43.136 16.9101 43.004C16.8061 42.868 16.7541 42.686 16.7541 42.458C16.7541 42.37 16.7701 42.28 16.8021 42.188C16.8341 42.092 16.8821 41.998 16.9461 41.906C17.0141 41.81 17.0961 41.72 17.1921 41.636C17.2881 41.552 17.4001 41.478 17.5281 41.414C17.2281 41.246 16.9941 41.024 16.8261 40.748C16.6581 40.468 16.5741 40.144 16.5741 39.776C16.5741 39.48 16.6301 39.212 16.7421 38.972C16.8581 38.728 17.0181 38.522 17.2221 38.354C17.4261 38.182 17.6681 38.05 17.9481 37.958C18.2321 37.866 18.5421 37.82 18.8781 37.82C19.1421 37.82 19.3881 37.85 19.6161 37.91C19.8441 37.966 20.0521 38.05 20.2401 38.162H21.8901ZM26.9687 40.298C26.9687 40.05 26.9327 39.824 26.8607 39.62C26.7927 39.412 26.6907 39.234 26.5547 39.086C26.4227 38.934 26.2607 38.818 26.0687 38.738C25.8767 38.654 25.6587 38.612 25.4147 38.612C24.9027 38.612 24.4967 38.762 24.1967 39.062C23.9007 39.358 23.7167 39.77 23.6447 40.298H26.9687ZM27.8327 43.148C27.7007 43.308 27.5427 43.448 27.3587 43.568C27.1747 43.684 26.9767 43.78 26.7647 43.856C26.5567 43.932 26.3407 43.988 26.1167 44.024C25.8927 44.064 25.6707 44.084 25.4507 44.084C25.0307 44.084 24.6427 44.014 24.2867 43.874C23.9347 43.73 23.6287 43.522 23.3687 43.25C23.1127 42.974 22.9127 42.634 22.7687 42.23C22.6247 41.826 22.5527 41.362 22.5527 40.838C22.5527 40.414 22.6167 40.018 22.7447 39.65C22.8767 39.282 23.0647 38.964 23.3087 38.696C23.5527 38.424 23.8507 38.212 24.2027 38.06C24.5547 37.904 24.9507 37.826 25.3907 37.826C25.7547 37.826 26.0907 37.888 26.3987 38.012C26.7107 38.132 26.9787 38.308 27.2027 38.54C27.4307 38.768 27.6087 39.052 27.7367 39.392C27.8647 39.728 27.9287 40.112 27.9287 40.544C27.9287 40.712 27.9107 40.824 27.8747 40.88C27.8387 40.936 27.7707 40.964 27.6707 40.964H23.6087C23.6207 41.348 23.6727 41.682 23.7647 41.966C23.8607 42.25 23.9927 42.488 24.1607 42.68C24.3287 42.868 24.5287 43.01 24.7607 43.106C24.9927 43.198 25.2527 43.244 25.5407 43.244C25.8087 43.244 26.0387 43.214 26.2307 43.154C26.4267 43.09 26.5947 43.022 26.7347 42.95C26.8747 42.878 26.9907 42.812 27.0827 42.752C27.1787 42.688 27.2607 42.656 27.3287 42.656C27.4167 42.656 27.4847 42.69 27.5327 42.758L27.8327 43.148ZM31.0597 44.096C30.5797 44.096 30.2097 43.962 29.9497 43.694C29.6937 43.426 29.5657 43.04 29.5657 42.536V38.816H28.8337C28.7697 38.816 28.7157 38.798 28.6717 38.762C28.6277 38.722 28.6057 38.662 28.6057 38.582V38.156L29.6017 38.03L29.8477 36.152C29.8597 36.092 29.8857 36.044 29.9257 36.008C29.9697 35.968 30.0257 35.948 30.0937 35.948H30.6337V38.042H32.3917V38.816H30.6337V42.464C30.6337 42.72 30.6957 42.91 30.8197 43.034C30.9437 43.158 31.1037 43.22 31.2997 43.22C31.4117 43.22 31.5077 43.206 31.5877 43.178C31.6717 43.146 31.7437 43.112 31.8037 43.076C31.8637 43.04 31.9137 43.008 31.9537 42.98C31.9977 42.948 32.0357 42.932 32.0677 42.932C32.1237 42.932 32.1737 42.966 32.2177 43.034L32.5297 43.544C32.3457 43.716 32.1237 43.852 31.8637 43.952C31.6037 44.048 31.3357 44.096 31.0597 44.096ZM37.6928 37.922V44H36.6248V37.922H37.6928ZM37.9208 36.014C37.9208 36.118 37.8988 36.216 37.8548 36.308C37.8148 36.396 37.7588 36.476 37.6868 36.548C37.6188 36.616 37.5368 36.67 37.4408 36.71C37.3487 36.75 37.2508 36.77 37.1468 36.77C37.0428 36.77 36.9448 36.75 36.8528 36.71C36.7648 36.67 36.6868 36.616 36.6188 36.548C36.5508 36.476 36.4968 36.396 36.4568 36.308C36.4168 36.216 36.3968 36.118 36.3968 36.014C36.3968 35.91 36.4168 35.812 36.4568 35.72C36.4968 35.624 36.5508 35.542 36.6188 35.474C36.6868 35.402 36.7648 35.346 36.8528 35.306C36.9448 35.266 37.0428 35.246 37.1468 35.246C37.2508 35.246 37.3487 35.266 37.4408 35.306C37.5368 35.346 37.6188 35.402 37.6868 35.474C37.7588 35.542 37.8148 35.624 37.8548 35.72C37.8988 35.812 37.9208 35.91 37.9208 36.014ZM40.4556 38.804C40.5876 38.656 40.7276 38.522 40.8756 38.402C41.0236 38.282 41.1796 38.18 41.3436 38.096C41.5116 38.008 41.6876 37.942 41.8716 37.898C42.0596 37.85 42.2616 37.826 42.4776 37.826C42.8096 37.826 43.1016 37.882 43.3536 37.994C43.6096 38.102 43.8216 38.258 43.9896 38.462C44.1616 38.662 44.2916 38.904 44.3796 39.188C44.4676 39.472 44.5116 39.786 44.5116 40.13V44H43.4376V40.13C43.4376 39.67 43.3316 39.314 43.1196 39.062C42.9116 38.806 42.5936 38.678 42.1656 38.678C41.8496 38.678 41.5536 38.754 41.2776 38.906C41.0056 39.058 40.7536 39.264 40.5216 39.524V44H39.4476V37.922H40.0896C40.2416 37.922 40.3356 37.996 40.3716 38.144L40.4556 38.804ZM51.2181 37.922L48.7401 44H47.7801L45.3021 37.922H46.1721C46.2601 37.922 46.3321 37.944 46.3881 37.988C46.4441 38.032 46.4821 38.084 46.5021 38.144L48.0441 42.056C48.0921 42.204 48.1341 42.348 48.1701 42.488C48.2061 42.628 48.2401 42.768 48.2721 42.908C48.3041 42.768 48.3381 42.628 48.3741 42.488C48.4101 42.348 48.4541 42.204 48.5061 42.056L50.0661 38.144C50.0901 38.08 50.1301 38.028 50.1861 37.988C50.2421 37.944 50.3081 37.922 50.3841 37.922H51.2181ZM56.1015 40.298C56.1015 40.05 56.0655 39.824 55.9935 39.62C55.9255 39.412 55.8235 39.234 55.6875 39.086C55.5555 38.934 55.3935 38.818 55.2015 38.738C55.0095 38.654 54.7915 38.612 54.5475 38.612C54.0355 38.612 53.6295 38.762 53.3295 39.062C53.0335 39.358 52.8495 39.77 52.7775 40.298H56.1015ZM56.9655 43.148C56.8335 43.308 56.6755 43.448 56.4915 43.568C56.3075 43.684 56.1095 43.78 55.8975 43.856C55.6895 43.932 55.4735 43.988 55.2495 44.024C55.0255 44.064 54.8035 44.084 54.5835 44.084C54.1635 44.084 53.7755 44.014 53.4195 43.874C53.0675 43.73 52.7615 43.522 52.5015 43.25C52.2455 42.974 52.0455 42.634 51.9015 42.23C51.7575 41.826 51.6855 41.362 51.6855 40.838C51.6855 40.414 51.7495 40.018 51.8775 39.65C52.0095 39.282 52.1975 38.964 52.4415 38.696C52.6855 38.424 52.9835 38.212 53.3355 38.06C53.6875 37.904 54.0835 37.826 54.5235 37.826C54.8875 37.826 55.2235 37.888 55.5315 38.012C55.8435 38.132 56.1115 38.308 56.3355 38.54C56.5635 38.768 56.7415 39.052 56.8695 39.392C56.9975 39.728 57.0615 40.112 57.0615 40.544C57.0615 40.712 57.0435 40.824 57.0075 40.88C56.9715 40.936 56.9035 40.964 56.8035 40.964H52.7415C52.7535 41.348 52.8055 41.682 52.8975 41.966C52.9935 42.25 53.1255 42.488 53.2935 42.68C53.4615 42.868 53.6615 43.01 53.8935 43.106C54.1255 43.198 54.3855 43.244 54.6735 43.244C54.9415 43.244 55.1715 43.214 55.3635 43.154C55.5595 43.09 55.7275 43.022 55.8675 42.95C56.0075 42.878 56.1235 42.812 56.2155 42.752C56.3115 42.688 56.3935 42.656 56.4615 42.656C56.5495 42.656 56.6175 42.69 56.6655 42.758L56.9655 43.148ZM61.9133 38.924C61.8653 39.012 61.7913 39.056 61.6913 39.056C61.6313 39.056 61.5633 39.034 61.4873 38.99C61.4113 38.946 61.3173 38.898 61.2053 38.846C61.0973 38.79 60.9673 38.74 60.8153 38.696C60.6633 38.648 60.4833 38.624 60.2753 38.624C60.0953 38.624 59.9333 38.648 59.7893 38.696C59.6453 38.74 59.5213 38.802 59.4173 38.882C59.3173 38.962 59.2393 39.056 59.1833 39.164C59.1313 39.268 59.1053 39.382 59.1053 39.506C59.1053 39.662 59.1493 39.792 59.2373 39.896C59.3293 40 59.4493 40.09 59.5973 40.166C59.7453 40.242 59.9133 40.31 60.1013 40.37C60.2893 40.426 60.4813 40.488 60.6773 40.556C60.8773 40.62 61.0713 40.692 61.2593 40.772C61.4473 40.852 61.6153 40.952 61.7633 41.072C61.9113 41.192 62.0293 41.34 62.1173 41.516C62.2093 41.688 62.2553 41.896 62.2553 42.14C62.2553 42.42 62.2053 42.68 62.1053 42.92C62.0053 43.156 61.8573 43.362 61.6613 43.538C61.4653 43.71 61.2253 43.846 60.9413 43.946C60.6573 44.046 60.3293 44.096 59.9573 44.096C59.5333 44.096 59.1493 44.028 58.8053 43.892C58.4613 43.752 58.1693 43.574 57.9293 43.358L58.1813 42.95C58.2133 42.898 58.2513 42.858 58.2953 42.83C58.3393 42.802 58.3953 42.788 58.4633 42.788C58.5353 42.788 58.6113 42.816 58.6913 42.872C58.7713 42.928 58.8673 42.99 58.9793 43.058C59.0953 43.126 59.2353 43.188 59.3993 43.244C59.5633 43.3 59.7673 43.328 60.0113 43.328C60.2193 43.328 60.4013 43.302 60.5573 43.25C60.7133 43.194 60.8433 43.12 60.9473 43.028C61.0513 42.936 61.1273 42.83 61.1753 42.71C61.2273 42.59 61.2533 42.462 61.2533 42.326C61.2533 42.158 61.2073 42.02 61.1153 41.912C61.0273 41.8 60.9093 41.706 60.7613 41.63C60.6133 41.55 60.4433 41.482 60.2513 41.426C60.0633 41.366 59.8693 41.304 59.6693 41.24C59.4733 41.176 59.2793 41.104 59.0873 41.024C58.8993 40.94 58.7313 40.836 58.5833 40.712C58.4353 40.588 58.3153 40.436 58.2233 40.256C58.1353 40.072 58.0913 39.85 58.0913 39.59C58.0913 39.358 58.1393 39.136 58.2353 38.924C58.3313 38.708 58.4713 38.52 58.6553 38.36C58.8393 38.196 59.0653 38.066 59.3333 37.97C59.6013 37.874 59.9073 37.826 60.2513 37.826C60.6513 37.826 61.0093 37.89 61.3253 38.018C61.6453 38.142 61.9213 38.314 62.1533 38.534L61.9133 38.924ZM65.4308 44.096C64.9508 44.096 64.5808 43.962 64.3208 43.694C64.0648 43.426 63.9368 43.04 63.9368 42.536V38.816H63.2048C63.1408 38.816 63.0868 38.798 63.0428 38.762C62.9988 38.722 62.9768 38.662 62.9768 38.582V38.156L63.9728 38.03L64.2188 36.152C64.2308 36.092 64.2568 36.044 64.2968 36.008C64.3408 35.968 64.3968 35.948 64.4648 35.948H65.0048V38.042H66.7628V38.816H65.0048V42.464C65.0048 42.72 65.0668 42.91 65.1908 43.034C65.3148 43.158 65.4748 43.22 65.6708 43.22C65.7828 43.22 65.8788 43.206 65.9588 43.178C66.0428 43.146 66.1148 43.112 66.1748 43.076C66.2348 43.04 66.2848 43.008 66.3248 42.98C66.3688 42.948 66.4068 42.932 66.4388 42.932C66.4948 42.932 66.5448 42.966 66.5888 43.034L66.9008 43.544C66.7168 43.716 66.4948 43.852 66.2348 43.952C65.9748 44.048 65.7068 44.096 65.4308 44.096ZM70.3924 37.826C70.8364 37.826 71.2364 37.9 71.5924 38.048C71.9484 38.196 72.2524 38.406 72.5044 38.678C72.7564 38.95 72.9484 39.28 73.0804 39.668C73.2164 40.052 73.2844 40.482 73.2844 40.958C73.2844 41.438 73.2164 41.87 73.0804 42.254C72.9484 42.638 72.7564 42.966 72.5044 43.238C72.2524 43.51 71.9484 43.72 71.5924 43.868C71.2364 44.012 70.8364 44.084 70.3924 44.084C69.9444 44.084 69.5404 44.012 69.1804 43.868C68.8244 43.72 68.5204 43.51 68.2684 43.238C68.0164 42.966 67.8224 42.638 67.6864 42.254C67.5544 41.87 67.4884 41.438 67.4884 40.958C67.4884 40.482 67.5544 40.052 67.6864 39.668C67.8224 39.28 68.0164 38.95 68.2684 38.678C68.5204 38.406 68.8244 38.196 69.1804 38.048C69.5404 37.9 69.9444 37.826 70.3924 37.826ZM70.3924 43.25C70.9924 43.25 71.4404 43.05 71.7364 42.65C72.0324 42.246 72.1804 41.684 72.1804 40.964C72.1804 40.24 72.0324 39.676 71.7364 39.272C71.4404 38.868 70.9924 38.666 70.3924 38.666C70.0884 38.666 69.8224 38.718 69.5944 38.822C69.3704 38.926 69.1824 39.076 69.0304 39.272C68.8824 39.468 68.7704 39.71 68.6944 39.998C68.6224 40.282 68.5864 40.604 68.5864 40.964C68.5864 41.684 68.7344 42.246 69.0304 42.65C69.3304 43.05 69.7844 43.25 70.3924 43.25ZM75.653 39.14C75.845 38.724 76.081 38.4 76.361 38.168C76.641 37.932 76.983 37.814 77.387 37.814C77.515 37.814 77.637 37.828 77.753 37.856C77.873 37.884 77.979 37.928 78.071 37.988L77.993 38.786C77.969 38.886 77.909 38.936 77.813 38.936C77.757 38.936 77.675 38.924 77.567 38.9C77.459 38.876 77.337 38.864 77.201 38.864C77.009 38.864 76.837 38.892 76.685 38.948C76.537 39.004 76.403 39.088 76.283 39.2C76.167 39.308 76.061 39.444 75.965 39.608C75.873 39.768 75.789 39.952 75.713 40.16V44H74.639V37.922H75.251C75.367 37.922 75.447 37.944 75.491 37.988C75.535 38.032 75.565 38.108 75.581 38.216L75.653 39.14ZM82.5149 38.924C82.4669 39.012 82.3929 39.056 82.2929 39.056C82.2329 39.056 82.1649 39.034 82.0889 38.99C82.0129 38.946 81.9189 38.898 81.8069 38.846C81.6989 38.79 81.5689 38.74 81.4169 38.696C81.2649 38.648 81.0849 38.624 80.8769 38.624C80.6969 38.624 80.5349 38.648 80.3909 38.696C80.2469 38.74 80.1229 38.802 80.0189 38.882C79.9189 38.962 79.8409 39.056 79.7849 39.164C79.7329 39.268 79.7069 39.382 79.7069 39.506C79.7069 39.662 79.7509 39.792 79.8389 39.896C79.9309 40 80.0509 40.09 80.1989 40.166C80.3469 40.242 80.5149 40.31 80.7029 40.37C80.8909 40.426 81.0829 40.488 81.2789 40.556C81.4789 40.62 81.6729 40.692 81.8609 40.772C82.0489 40.852 82.2169 40.952 82.3649 41.072C82.5129 41.192 82.6309 41.34 82.7189 41.516C82.8109 41.688 82.8569 41.896 82.8569 42.14C82.8569 42.42 82.8069 42.68 82.7069 42.92C82.6069 43.156 82.4589 43.362 82.2629 43.538C82.0669 43.71 81.8269 43.846 81.5429 43.946C81.2589 44.046 80.9309 44.096 80.5589 44.096C80.1349 44.096 79.7509 44.028 79.4069 43.892C79.0629 43.752 78.7709 43.574 78.5309 43.358L78.7829 42.95C78.8149 42.898 78.8529 42.858 78.8969 42.83C78.9409 42.802 78.9969 42.788 79.0649 42.788C79.1369 42.788 79.2129 42.816 79.2929 42.872C79.3729 42.928 79.4689 42.99 79.5809 43.058C79.6969 43.126 79.8369 43.188 80.0009 43.244C80.1649 43.3 80.3689 43.328 80.6129 43.328C80.8209 43.328 81.0029 43.302 81.1589 43.25C81.3149 43.194 81.4449 43.12 81.5489 43.028C81.6529 42.936 81.7289 42.83 81.7769 42.71C81.8289 42.59 81.8549 42.462 81.8549 42.326C81.8549 42.158 81.8089 42.02 81.7169 41.912C81.6289 41.8 81.5109 41.706 81.3629 41.63C81.2149 41.55 81.0449 41.482 80.8529 41.426C80.6649 41.366 80.4709 41.304 80.2709 41.24C80.0749 41.176 79.8809 41.104 79.6889 41.024C79.5009 40.94 79.3329 40.836 79.1849 40.712C79.0369 40.588 78.9169 40.436 78.8249 40.256C78.7369 40.072 78.6929 39.85 78.6929 39.59C78.6929 39.358 78.7409 39.136 78.8369 38.924C78.9329 38.708 79.0729 38.52 79.2569 38.36C79.4409 38.196 79.6669 38.066 79.9349 37.97C80.2029 37.874 80.5089 37.826 80.8529 37.826C81.2529 37.826 81.6109 37.89 81.9269 38.018C82.2469 38.142 82.5229 38.314 82.7549 38.534L82.5149 38.924Z" fill="#1E212C"/>
</g>
</g>
<defs>
<clipPath id="clip0_147_201">
<rect width="84" height="48" fill="white"/>
</clipPath>
<clipPath id="clip1_147_201">
<rect width="84" height="48" fill="white"/>
</clipPath>
</defs>
</svg>
