<svg width="104" height="48" viewBox="0 0 104 48" fill="none" xmlns="http://www.w3.org/2000/svg">
<g clip-path="url(#clip0_147_724)">
<g clip-path="url(#clip1_147_724)">
<circle cx="20" cy="24" r="18" stroke="#03CEA4" stroke-width="4"/>
</g>
<g clip-path="url(#clip2_147_724)">
<path d="M61.81 20.7C62.0767 20.7 62.2867 20.7767 62.44 20.93C62.6 21.0767 62.68 21.2733 62.68 21.52V23H52.76V22.18C52.76 22.0133 52.7933 21.84 52.86 21.66C52.9333 21.4733 53.0467 21.3067 53.2 21.16L57.59 16.76C57.9567 16.3867 58.2833 16.03 58.57 15.69C58.8633 15.35 59.1067 15.0133 59.3 14.68C59.4933 14.3467 59.64 14.01 59.74 13.67C59.8467 13.3233 59.9 12.96 59.9 12.58C59.9 12.2333 59.85 11.93 59.75 11.67C59.65 11.4033 59.5067 11.18 59.32 11C59.14 10.82 58.92 10.6867 58.66 10.6C58.4067 10.5067 58.12 10.46 57.8 10.46C57.5067 10.46 57.2333 10.5033 56.98 10.59C56.7333 10.67 56.5133 10.7867 56.32 10.94C56.1267 11.0867 55.9633 11.26 55.83 11.46C55.6967 11.66 55.5967 11.88 55.53 12.12C55.4167 12.4267 55.27 12.63 55.09 12.73C54.91 12.83 54.65 12.8533 54.31 12.8L53.01 12.57C53.11 11.8767 53.3033 11.27 53.59 10.75C53.8767 10.2233 54.2333 9.78667 54.66 9.44C55.0933 9.08667 55.5867 8.82333 56.14 8.65C56.7 8.47 57.3 8.38 57.94 8.38C58.6067 8.38 59.2167 8.48 59.77 8.68C60.3233 8.87333 60.7967 9.15 61.19 9.51C61.5833 9.87 61.89 10.3033 62.11 10.81C62.33 11.3167 62.44 11.88 62.44 12.5C62.44 13.0333 62.36 13.5267 62.2 13.98C62.0467 14.4333 61.8367 14.8667 61.57 15.28C61.31 15.6933 61.0033 16.0933 60.65 16.48C60.2967 16.8667 59.9267 17.26 59.54 17.66L56.28 20.99C56.5933 20.8967 56.9033 20.8267 57.21 20.78C57.5233 20.7267 57.82 20.7 58.1 20.7H61.81ZM74.7016 15.77C74.7016 17.03 74.5649 18.1267 74.2916 19.06C74.0249 19.9867 73.6516 20.7533 73.1716 21.36C72.6982 21.9667 72.1349 22.42 71.4816 22.72C70.8349 23.0133 70.1349 23.16 69.3816 23.16C68.6282 23.16 67.9282 23.0133 67.2816 22.72C66.6416 22.42 66.0849 21.9667 65.6116 21.36C65.1382 20.7533 64.7682 19.9867 64.5016 19.06C64.2349 18.1267 64.1016 17.03 64.1016 15.77C64.1016 14.5033 64.2349 13.4067 64.5016 12.48C64.7682 11.5533 65.1382 10.7867 65.6116 10.18C66.0849 9.57333 66.6416 9.12333 67.2816 8.83C67.9282 8.53 68.6282 8.38 69.3816 8.38C70.1349 8.38 70.8349 8.53 71.4816 8.83C72.1349 9.12333 72.6982 9.57333 73.1716 10.18C73.6516 10.7867 74.0249 11.5533 74.2916 12.48C74.5649 13.4067 74.7016 14.5033 74.7016 15.77ZM72.1516 15.77C72.1516 14.7233 72.0749 13.8567 71.9216 13.17C71.7682 12.4833 71.5616 11.9367 71.3016 11.53C71.0482 11.1233 70.7549 10.84 70.4216 10.68C70.0882 10.5133 69.7416 10.43 69.3816 10.43C69.0282 10.43 68.6849 10.5133 68.3516 10.68C68.0249 10.84 67.7349 11.1233 67.4816 11.53C67.2282 11.9367 67.0249 12.4833 66.8716 13.17C66.7249 13.8567 66.6516 14.7233 66.6516 15.77C66.6516 16.8167 66.7249 17.6833 66.8716 18.37C67.0249 19.0567 67.2282 19.6033 67.4816 20.01C67.7349 20.4167 68.0249 20.7033 68.3516 20.87C68.6849 21.03 69.0282 21.11 69.3816 21.11C69.7416 21.11 70.0882 21.03 70.4216 20.87C70.7549 20.7033 71.0482 20.4167 71.3016 20.01C71.5616 19.6033 71.7682 19.0567 71.9216 18.37C72.0749 17.6833 72.1516 16.8167 72.1516 15.77ZM86.3031 15.77C86.3031 17.03 86.1665 18.1267 85.8931 19.06C85.6265 19.9867 85.2531 20.7533 84.7731 21.36C84.2998 21.9667 83.7365 22.42 83.0831 22.72C82.4365 23.0133 81.7365 23.16 80.9831 23.16C80.2298 23.16 79.5298 23.0133 78.8831 22.72C78.2431 22.42 77.6865 21.9667 77.2131 21.36C76.7398 20.7533 76.3698 19.9867 76.1031 19.06C75.8365 18.1267 75.7031 17.03 75.7031 15.77C75.7031 14.5033 75.8365 13.4067 76.1031 12.48C76.3698 11.5533 76.7398 10.7867 77.2131 10.18C77.6865 9.57333 78.2431 9.12333 78.8831 8.83C79.5298 8.53 80.2298 8.38 80.9831 8.38C81.7365 8.38 82.4365 8.53 83.0831 8.83C83.7365 9.12333 84.2998 9.57333 84.7731 10.18C85.2531 10.7867 85.6265 11.5533 85.8931 12.48C86.1665 13.4067 86.3031 14.5033 86.3031 15.77ZM83.7531 15.77C83.7531 14.7233 83.6765 13.8567 83.5231 13.17C83.3698 12.4833 83.1631 11.9367 82.9031 11.53C82.6498 11.1233 82.3565 10.84 82.0231 10.68C81.6898 10.5133 81.3431 10.43 80.9831 10.43C80.6298 10.43 80.2865 10.5133 79.9531 10.68C79.6265 10.84 79.3365 11.1233 79.0831 11.53C78.8298 11.9367 78.6265 12.4833 78.4731 13.17C78.3265 13.8567 78.2531 14.7233 78.2531 15.77C78.2531 16.8167 78.3265 17.6833 78.4731 18.37C78.6265 19.0567 78.8298 19.6033 79.0831 20.01C79.3365 20.4167 79.6265 20.7033 79.9531 20.87C80.2865 21.03 80.6298 21.11 80.9831 21.11C81.3431 21.11 81.6898 21.03 82.0231 20.87C82.3565 20.7033 82.6498 20.4167 82.9031 20.01C83.1631 19.6033 83.3698 19.0567 83.5231 18.37C83.6765 17.6833 83.7531 16.8167 83.7531 15.77ZM94.2547 12.04C94.2547 12.5867 94.1614 13.08 93.9747 13.52C93.7947 13.96 93.5514 14.3367 93.2447 14.65C92.938 14.9567 92.5814 15.1933 92.1747 15.36C91.768 15.5267 91.3447 15.61 90.9047 15.61C90.4247 15.61 89.9814 15.5267 89.5747 15.36C89.168 15.1933 88.8147 14.9567 88.5147 14.65C88.2214 14.3367 87.9914 13.96 87.8247 13.52C87.658 13.08 87.5747 12.5867 87.5747 12.04C87.5747 11.48 87.658 10.9733 87.8247 10.52C87.9914 10.0667 88.2214 9.68333 88.5147 9.37C88.8147 9.05667 89.168 8.81667 89.5747 8.65C89.9814 8.47667 90.4247 8.39 90.9047 8.39C91.3847 8.39 91.828 8.47667 92.2347 8.65C92.648 8.81667 93.0047 9.05667 93.3047 9.37C93.6047 9.68333 93.838 10.0667 94.0047 10.52C94.1714 10.9733 94.2547 11.48 94.2547 12.04ZM92.3547 12.04C92.3547 11.6533 92.3147 11.33 92.2347 11.07C92.1614 10.81 92.058 10.6 91.9247 10.44C91.798 10.28 91.6447 10.1667 91.4647 10.1C91.2914 10.0267 91.1047 9.99 90.9047 9.99C90.7047 9.99 90.518 10.0267 90.3447 10.1C90.1714 10.1667 90.0214 10.28 89.8947 10.44C89.7747 10.6 89.678 10.81 89.6047 11.07C89.5314 11.33 89.4947 11.6533 89.4947 12.04C89.4947 12.4133 89.5314 12.7267 89.6047 12.98C89.678 13.2267 89.7747 13.4267 89.8947 13.58C90.0214 13.7333 90.1714 13.8433 90.3447 13.91C90.518 13.9767 90.7047 14.01 90.9047 14.01C91.1047 14.01 91.2914 13.9767 91.4647 13.91C91.6447 13.8433 91.798 13.7333 91.9247 13.58C92.058 13.4267 92.1614 13.2267 92.2347 12.98C92.3147 12.7267 92.3547 12.4133 92.3547 12.04ZM99.0647 8.93C99.1514 8.83 99.2514 8.74 99.3647 8.66C99.4847 8.58 99.6514 8.54 99.8647 8.54H101.665L90.9247 22.63C90.838 22.7367 90.7347 22.8267 90.6147 22.9C90.4947 22.9667 90.348 23 90.1747 23H88.3347L99.0647 8.93ZM102.425 19.6C102.425 20.1467 102.331 20.64 102.145 21.08C101.965 21.52 101.721 21.8967 101.415 22.21C101.108 22.5167 100.751 22.7567 100.345 22.93C99.938 23.0967 99.5147 23.18 99.0747 23.18C98.5947 23.18 98.1514 23.0967 97.7447 22.93C97.338 22.7567 96.9847 22.5167 96.6847 22.21C96.3914 21.8967 96.1614 21.52 95.9947 21.08C95.828 20.64 95.7447 20.1467 95.7447 19.6C95.7447 19.04 95.828 18.5333 95.9947 18.08C96.1614 17.6267 96.3914 17.2433 96.6847 16.93C96.9847 16.6167 97.338 16.3767 97.7447 16.21C98.1514 16.0367 98.5947 15.95 99.0747 15.95C99.5547 15.95 99.998 16.0367 100.405 16.21C100.818 16.3767 101.171 16.6167 101.465 16.93C101.765 17.2433 101.998 17.6267 102.165 18.08C102.338 18.5333 102.425 19.04 102.425 19.6ZM100.515 19.6C100.515 19.2133 100.478 18.89 100.405 18.63C100.331 18.37 100.228 18.16 100.095 18C99.968 17.84 99.8147 17.7267 99.6347 17.66C99.4614 17.5867 99.2747 17.55 99.0747 17.55C98.8747 17.55 98.688 17.5867 98.5147 17.66C98.3414 17.7267 98.1914 17.84 98.0647 18C97.938 18.16 97.838 18.37 97.7647 18.63C97.698 18.89 97.6647 19.2133 97.6647 19.6C97.6647 19.9733 97.698 20.2867 97.7647 20.54C97.838 20.7933 97.938 20.9967 98.0647 21.15C98.1914 21.3033 98.3414 21.4133 98.5147 21.48C98.688 21.5467 98.8747 21.58 99.0747 21.58C99.2747 21.58 99.4614 21.5467 99.6347 21.48C99.8147 21.4133 99.968 21.3033 100.095 21.15C100.228 20.9967 100.331 20.7933 100.405 20.54C100.478 20.2867 100.515 19.9733 100.515 19.6Z" fill="#1E212C"/>
<path d="M55.48 39.566C55.816 39.566 56.112 39.526 56.368 39.446C56.628 39.362 56.844 39.246 57.016 39.098C57.192 38.946 57.324 38.766 57.412 38.558C57.5 38.35 57.544 38.12 57.544 37.868C57.544 37.356 57.376 36.97 57.04 36.71C56.704 36.45 56.2 36.32 55.528 36.32H54.256V39.566H55.48ZM59.452 44H58.42C58.208 44 58.052 43.918 57.952 43.754L55.72 40.682C55.652 40.586 55.578 40.518 55.498 40.478C55.422 40.434 55.302 40.412 55.138 40.412H54.256V44H53.098V35.402H55.528C56.072 35.402 56.542 35.458 56.938 35.57C57.334 35.678 57.66 35.836 57.916 36.044C58.176 36.252 58.368 36.504 58.492 36.8C58.616 37.092 58.678 37.42 58.678 37.784C58.678 38.088 58.63 38.372 58.534 38.636C58.438 38.9 58.298 39.138 58.114 39.35C57.934 39.558 57.712 39.736 57.448 39.884C57.188 40.032 56.892 40.144 56.56 40.22C56.708 40.304 56.836 40.426 56.944 40.586L59.452 44ZM68.4834 39.704C68.4834 40.348 68.3814 40.94 68.1774 41.48C67.9734 42.016 67.6854 42.478 67.3134 42.866C66.9414 43.254 66.4934 43.556 65.9694 43.772C65.4494 43.984 64.8734 44.09 64.2414 44.09C63.6094 44.09 63.0334 43.984 62.5134 43.772C61.9934 43.556 61.5474 43.254 61.1754 42.866C60.8034 42.478 60.5154 42.016 60.3114 41.48C60.1074 40.94 60.0054 40.348 60.0054 39.704C60.0054 39.06 60.1074 38.47 60.3114 37.934C60.5154 37.394 60.8034 36.93 61.1754 36.542C61.5474 36.15 61.9934 35.846 62.5134 35.63C63.0334 35.414 63.6094 35.306 64.2414 35.306C64.8734 35.306 65.4494 35.414 65.9694 35.63C66.4934 35.846 66.9414 36.15 67.3134 36.542C67.6854 36.93 67.9734 37.394 68.1774 37.934C68.3814 38.47 68.4834 39.06 68.4834 39.704ZM67.2894 39.704C67.2894 39.176 67.2174 38.702 67.0734 38.282C66.9294 37.862 66.7254 37.508 66.4614 37.22C66.1974 36.928 65.8774 36.704 65.5014 36.548C65.1254 36.392 64.7054 36.314 64.2414 36.314C63.7814 36.314 63.3634 36.392 62.9874 36.548C62.6114 36.704 62.2894 36.928 62.0214 37.22C61.7574 37.508 61.5534 37.862 61.4094 38.282C61.2654 38.702 61.1934 39.176 61.1934 39.704C61.1934 40.232 61.2654 40.706 61.4094 41.126C61.5534 41.542 61.7574 41.896 62.0214 42.188C62.2894 42.476 62.6114 42.698 62.9874 42.854C63.3634 43.006 63.7814 43.082 64.2414 43.082C64.7054 43.082 65.1254 43.006 65.5014 42.854C65.8774 42.698 66.1974 42.476 66.4614 42.188C66.7254 41.896 66.9294 41.542 67.0734 41.126C67.2174 40.706 67.2894 40.232 67.2894 39.704ZM71.3128 44H70.1488V35.402H71.3128V44Z" fill="#1E212C"/>
</g>
</g>
<defs>
<clipPath id="clip0_147_724">
<rect width="104" height="48" fill="white"/>
</clipPath>
<clipPath id="clip1_147_724">
<rect width="40" height="40" fill="white" transform="translate(0 4)"/>
</clipPath>
<clipPath id="clip2_147_724">
<rect width="52" height="48" fill="white" transform="translate(52)"/>
</clipPath>
</defs>
</svg>
