<svg width="118" height="48" viewBox="0 0 118 48" fill="none" xmlns="http://www.w3.org/2000/svg">
<g clip-path="url(#clip0_147_805)">
<g clip-path="url(#clip1_147_805)">
<circle opacity="0.3" cx="20" cy="24" r="18" stroke="#F89828" stroke-width="4"/>
<path d="M20 40C28.8366 40 36 32.8366 36 24C36 15.1634 28.8366 8 20 8V4C31.0457 4 40 12.9543 40 24C40 35.0457 31.0457 44 20 44C8.9543 44 0 35.0457 0 24C0 22.2735 0.218765 20.5981 0.630087 19L4.5 20.0158C4.17357 21.2896 4 22.6245 4 24C4 32.8366 11.1634 40 20 40Z" fill="#F89828"/>
</g>
<g clip-path="url(#clip2_147_805)">
<path d="M55.3 12.88C55.3 13.6867 55.5067 14.3033 55.92 14.73C56.34 15.15 56.9333 15.36 57.7 15.36C58.1 15.36 58.4567 15.2967 58.77 15.17C59.0833 15.0433 59.3467 14.87 59.56 14.65C59.7733 14.43 59.9333 14.17 60.04 13.87C60.1533 13.57 60.21 13.2467 60.21 12.9C60.21 12.5067 60.15 12.1567 60.03 11.85C59.91 11.5367 59.74 11.2733 59.52 11.06C59.3 10.8467 59.0367 10.6833 58.73 10.57C58.43 10.4567 58.1 10.4 57.74 10.4C57.3667 10.4 57.03 10.4633 56.73 10.59C56.43 10.71 56.1733 10.88 55.96 11.1C55.7467 11.32 55.5833 11.5833 55.47 11.89C55.3567 12.19 55.3 12.52 55.3 12.88ZM58.58 17.39C58.6933 17.25 58.8 17.1133 58.9 16.98C59 16.8467 59.0967 16.7133 59.19 16.58C58.8567 16.7933 58.49 16.9567 58.09 17.07C57.69 17.1767 57.27 17.23 56.83 17.23C56.33 17.23 55.84 17.1433 55.36 16.97C54.88 16.7967 54.4533 16.5367 54.08 16.19C53.7067 15.8367 53.4033 15.4033 53.17 14.89C52.9433 14.37 52.83 13.7633 52.83 13.07C52.83 12.4233 52.95 11.8167 53.19 11.25C53.43 10.6833 53.7667 10.1867 54.2 9.76C54.6333 9.33333 55.1533 8.99667 55.76 8.75C56.3667 8.50333 57.0367 8.38 57.77 8.38C58.51 8.38 59.1733 8.49667 59.76 8.73C60.3533 8.96333 60.8567 9.29 61.27 9.71C61.69 10.13 62.01 10.6333 62.23 11.22C62.4567 11.8067 62.57 12.45 62.57 13.15C62.57 13.5967 62.53 14.02 62.45 14.42C62.3767 14.82 62.27 15.2067 62.13 15.58C61.99 15.9467 61.82 16.3067 61.62 16.66C61.42 17.0133 61.1967 17.3633 60.95 17.71L57.64 22.43C57.5267 22.59 57.3567 22.7267 57.13 22.84C56.9033 22.9467 56.6467 23 56.36 23H54.09L58.58 17.39ZM74.7016 15.77C74.7016 17.03 74.5649 18.1267 74.2916 19.06C74.0249 19.9867 73.6516 20.7533 73.1716 21.36C72.6982 21.9667 72.1349 22.42 71.4816 22.72C70.8349 23.0133 70.1349 23.16 69.3816 23.16C68.6282 23.16 67.9282 23.0133 67.2816 22.72C66.6416 22.42 66.0849 21.9667 65.6116 21.36C65.1382 20.7533 64.7682 19.9867 64.5016 19.06C64.2349 18.1267 64.1016 17.03 64.1016 15.77C64.1016 14.5033 64.2349 13.4067 64.5016 12.48C64.7682 11.5533 65.1382 10.7867 65.6116 10.18C66.0849 9.57333 66.6416 9.12333 67.2816 8.83C67.9282 8.53 68.6282 8.38 69.3816 8.38C70.1349 8.38 70.8349 8.53 71.4816 8.83C72.1349 9.12333 72.6982 9.57333 73.1716 10.18C73.6516 10.7867 74.0249 11.5533 74.2916 12.48C74.5649 13.4067 74.7016 14.5033 74.7016 15.77ZM72.1516 15.77C72.1516 14.7233 72.0749 13.8567 71.9216 13.17C71.7682 12.4833 71.5616 11.9367 71.3016 11.53C71.0482 11.1233 70.7549 10.84 70.4216 10.68C70.0882 10.5133 69.7416 10.43 69.3816 10.43C69.0282 10.43 68.6849 10.5133 68.3516 10.68C68.0249 10.84 67.7349 11.1233 67.4816 11.53C67.2282 11.9367 67.0249 12.4833 66.8716 13.17C66.7249 13.8567 66.6516 14.7233 66.6516 15.77C66.6516 16.8167 66.7249 17.6833 66.8716 18.37C67.0249 19.0567 67.2282 19.6033 67.4816 20.01C67.7349 20.4167 68.0249 20.7033 68.3516 20.87C68.6849 21.03 69.0282 21.11 69.3816 21.11C69.7416 21.11 70.0882 21.03 70.4216 20.87C70.7549 20.7033 71.0482 20.4167 71.3016 20.01C71.5616 19.6033 71.7682 19.0567 71.9216 18.37C72.0749 17.6833 72.1516 16.8167 72.1516 15.77ZM82.6531 12.04C82.6531 12.5867 82.5598 13.08 82.3731 13.52C82.1931 13.96 81.9498 14.3367 81.6431 14.65C81.3365 14.9567 80.9798 15.1933 80.5731 15.36C80.1665 15.5267 79.7431 15.61 79.3031 15.61C78.8231 15.61 78.3798 15.5267 77.9731 15.36C77.5665 15.1933 77.2131 14.9567 76.9131 14.65C76.6198 14.3367 76.3898 13.96 76.2231 13.52C76.0565 13.08 75.9731 12.5867 75.9731 12.04C75.9731 11.48 76.0565 10.9733 76.2231 10.52C76.3898 10.0667 76.6198 9.68333 76.9131 9.37C77.2131 9.05667 77.5665 8.81667 77.9731 8.65C78.3798 8.47667 78.8231 8.39 79.3031 8.39C79.7831 8.39 80.2265 8.47667 80.6331 8.65C81.0465 8.81667 81.4031 9.05667 81.7031 9.37C82.0031 9.68333 82.2365 10.0667 82.4031 10.52C82.5698 10.9733 82.6531 11.48 82.6531 12.04ZM80.7531 12.04C80.7531 11.6533 80.7131 11.33 80.6331 11.07C80.5598 10.81 80.4565 10.6 80.3231 10.44C80.1965 10.28 80.0431 10.1667 79.8631 10.1C79.6898 10.0267 79.5031 9.99 79.3031 9.99C79.1031 9.99 78.9165 10.0267 78.7431 10.1C78.5698 10.1667 78.4198 10.28 78.2931 10.44C78.1731 10.6 78.0765 10.81 78.0031 11.07C77.9298 11.33 77.8931 11.6533 77.8931 12.04C77.8931 12.4133 77.9298 12.7267 78.0031 12.98C78.0765 13.2267 78.1731 13.4267 78.2931 13.58C78.4198 13.7333 78.5698 13.8433 78.7431 13.91C78.9165 13.9767 79.1031 14.01 79.3031 14.01C79.5031 14.01 79.6898 13.9767 79.8631 13.91C80.0431 13.8433 80.1965 13.7333 80.3231 13.58C80.4565 13.4267 80.5598 13.2267 80.6331 12.98C80.7131 12.7267 80.7531 12.4133 80.7531 12.04ZM87.4631 8.93C87.5498 8.83 87.6498 8.74 87.7631 8.66C87.8831 8.58 88.0498 8.54 88.2631 8.54H90.0631L79.3231 22.63C79.2365 22.7367 79.1331 22.8267 79.0131 22.9C78.8931 22.9667 78.7465 23 78.5731 23H76.7331L87.4631 8.93ZM90.8231 19.6C90.8231 20.1467 90.7298 20.64 90.5431 21.08C90.3631 21.52 90.1198 21.8967 89.8131 22.21C89.5065 22.5167 89.1498 22.7567 88.7431 22.93C88.3365 23.0967 87.9131 23.18 87.4731 23.18C86.9931 23.18 86.5498 23.0967 86.1431 22.93C85.7365 22.7567 85.3831 22.5167 85.0831 22.21C84.7898 21.8967 84.5598 21.52 84.3931 21.08C84.2265 20.64 84.1431 20.1467 84.1431 19.6C84.1431 19.04 84.2265 18.5333 84.3931 18.08C84.5598 17.6267 84.7898 17.2433 85.0831 16.93C85.3831 16.6167 85.7365 16.3767 86.1431 16.21C86.5498 16.0367 86.9931 15.95 87.4731 15.95C87.9531 15.95 88.3965 16.0367 88.8031 16.21C89.2165 16.3767 89.5698 16.6167 89.8631 16.93C90.1631 17.2433 90.3965 17.6267 90.5631 18.08C90.7365 18.5333 90.8231 19.04 90.8231 19.6ZM88.9131 19.6C88.9131 19.2133 88.8765 18.89 88.8031 18.63C88.7298 18.37 88.6265 18.16 88.4931 18C88.3665 17.84 88.2131 17.7267 88.0331 17.66C87.8598 17.5867 87.6731 17.55 87.4731 17.55C87.2731 17.55 87.0865 17.5867 86.9131 17.66C86.7398 17.7267 86.5898 17.84 86.4631 18C86.3365 18.16 86.2365 18.37 86.1631 18.63C86.0965 18.89 86.0631 19.2133 86.0631 19.6C86.0631 19.9733 86.0965 20.2867 86.1631 20.54C86.2365 20.7933 86.3365 20.9967 86.4631 21.15C86.5898 21.3033 86.7398 21.4133 86.9131 21.48C87.0865 21.5467 87.2731 21.58 87.4731 21.58C87.6731 21.58 87.8598 21.5467 88.0331 21.48C88.2131 21.4133 88.3665 21.3033 88.4931 21.15C88.6265 20.9967 88.7298 20.7933 88.8031 20.54C88.8765 20.2867 88.9131 19.9733 88.9131 19.6Z" fill="#1E212C"/>
<path d="M58.402 43.052L58.396 44H53.098V35.402H58.396V36.35H54.262V39.206H57.61V40.118H54.262V43.052H58.402ZM60.6157 38.804C60.7477 38.656 60.8877 38.522 61.0357 38.402C61.1837 38.282 61.3397 38.18 61.5037 38.096C61.6717 38.008 61.8477 37.942 62.0317 37.898C62.2197 37.85 62.4217 37.826 62.6377 37.826C62.9697 37.826 63.2617 37.882 63.5137 37.994C63.7697 38.102 63.9817 38.258 64.1497 38.462C64.3217 38.662 64.4517 38.904 64.5397 39.188C64.6277 39.472 64.6717 39.786 64.6717 40.13V44H63.5977V40.13C63.5977 39.67 63.4917 39.314 63.2797 39.062C63.0717 38.806 62.7537 38.678 62.3257 38.678C62.0097 38.678 61.7137 38.754 61.4377 38.906C61.1657 39.058 60.9137 39.264 60.6817 39.524V44H59.6077V37.922H60.2497C60.4017 37.922 60.4957 37.996 60.5317 38.144L60.6157 38.804ZM68.4171 41.03C68.6331 41.03 68.8231 41 68.9871 40.94C69.1511 40.88 69.2891 40.796 69.4011 40.688C69.5131 40.58 69.5971 40.452 69.6531 40.304C69.7091 40.152 69.7371 39.986 69.7371 39.806C69.7371 39.434 69.6231 39.138 69.3951 38.918C69.1711 38.698 68.8451 38.588 68.4171 38.588C67.9851 38.588 67.6551 38.698 67.4271 38.918C67.2031 39.138 67.0911 39.434 67.0911 39.806C67.0911 39.986 67.1191 40.152 67.1751 40.304C67.2351 40.452 67.3211 40.58 67.4331 40.688C67.5451 40.796 67.6831 40.88 67.8471 40.94C68.0111 41 68.2011 41.03 68.4171 41.03ZM70.3431 44.33C70.3431 44.182 70.3011 44.062 70.2171 43.97C70.1331 43.878 70.0191 43.806 69.8751 43.754C69.7351 43.702 69.5711 43.666 69.3831 43.646C69.1951 43.622 68.9951 43.604 68.7831 43.592C68.5751 43.58 68.3631 43.568 68.1471 43.556C67.9311 43.544 67.7231 43.524 67.5231 43.496C67.2991 43.6 67.1151 43.732 66.9711 43.892C66.8311 44.048 66.7611 44.232 66.7611 44.444C66.7611 44.58 66.7951 44.706 66.8631 44.822C66.9351 44.942 67.0431 45.044 67.1871 45.128C67.3311 45.216 67.5111 45.284 67.7271 45.332C67.9471 45.384 68.2051 45.41 68.5011 45.41C68.7891 45.41 69.0471 45.384 69.2751 45.332C69.5031 45.28 69.6951 45.206 69.8511 45.11C70.0111 45.014 70.1331 44.9 70.2171 44.768C70.3011 44.636 70.3431 44.49 70.3431 44.33ZM71.4291 38.162V38.558C71.4291 38.69 71.3451 38.774 71.1771 38.81L70.4871 38.9C70.6231 39.164 70.6911 39.456 70.6911 39.776C70.6911 40.072 70.6331 40.342 70.5171 40.586C70.4051 40.826 70.2491 41.032 70.0491 41.204C69.8491 41.376 69.6091 41.508 69.3291 41.6C69.0491 41.692 68.7451 41.738 68.4171 41.738C68.1331 41.738 67.8651 41.704 67.6131 41.636C67.4851 41.716 67.3871 41.802 67.3191 41.894C67.2511 41.982 67.2171 42.072 67.2171 42.164C67.2171 42.308 67.2751 42.418 67.3911 42.494C67.5111 42.566 67.6671 42.618 67.8591 42.65C68.0511 42.682 68.2691 42.702 68.5131 42.71C68.7611 42.718 69.0131 42.732 69.2691 42.752C69.5291 42.768 69.7811 42.798 70.0251 42.842C70.2731 42.886 70.4931 42.958 70.6851 43.058C70.8771 43.158 71.0311 43.296 71.1471 43.472C71.2671 43.648 71.3271 43.876 71.3271 44.156C71.3271 44.416 71.2611 44.668 71.1291 44.912C71.0011 45.156 70.8151 45.372 70.5711 45.56C70.3271 45.752 70.0271 45.904 69.6711 46.016C69.3191 46.132 68.9211 46.19 68.4771 46.19C68.0331 46.19 67.6451 46.146 67.3131 46.058C66.9811 45.97 66.7051 45.852 66.4851 45.704C66.2651 45.556 66.0991 45.384 65.9871 45.188C65.8791 44.996 65.8251 44.794 65.8251 44.582C65.8251 44.282 65.9191 44.028 66.1071 43.82C66.2951 43.612 66.5531 43.446 66.8811 43.322C66.7011 43.242 66.5571 43.136 66.4491 43.004C66.3451 42.868 66.2931 42.686 66.2931 42.458C66.2931 42.37 66.3091 42.28 66.3411 42.188C66.3731 42.092 66.4211 41.998 66.4851 41.906C66.5531 41.81 66.6351 41.72 66.7311 41.636C66.8271 41.552 66.9391 41.478 67.0671 41.414C66.7671 41.246 66.5331 41.024 66.3651 40.748C66.1971 40.468 66.1131 40.144 66.1131 39.776C66.1131 39.48 66.1691 39.212 66.2811 38.972C66.3971 38.728 66.5571 38.522 66.7611 38.354C66.9651 38.182 67.2071 38.05 67.4871 37.958C67.7711 37.866 68.0811 37.82 68.4171 37.82C68.6811 37.82 68.9271 37.85 69.1551 37.91C69.3831 37.966 69.5911 38.05 69.7791 38.162H71.4291ZM75.8275 41.264C75.3355 41.28 74.9155 41.32 74.5675 41.384C74.2235 41.444 73.9415 41.524 73.7215 41.624C73.5055 41.724 73.3475 41.842 73.2475 41.978C73.1515 42.114 73.1035 42.266 73.1035 42.434C73.1035 42.594 73.1295 42.732 73.1815 42.848C73.2335 42.964 73.3035 43.06 73.3915 43.136C73.4835 43.208 73.5895 43.262 73.7095 43.298C73.8335 43.33 73.9655 43.346 74.1055 43.346C74.2935 43.346 74.4655 43.328 74.6215 43.292C74.7775 43.252 74.9235 43.196 75.0595 43.124C75.1995 43.052 75.3315 42.966 75.4555 42.866C75.5835 42.766 75.7075 42.652 75.8275 42.524V41.264ZM72.3775 38.78C72.7135 38.456 73.0755 38.214 73.4635 38.054C73.8515 37.894 74.2815 37.814 74.7535 37.814C75.0935 37.814 75.3955 37.87 75.6595 37.982C75.9235 38.094 76.1455 38.25 76.3255 38.45C76.5055 38.65 76.6415 38.892 76.7335 39.176C76.8255 39.46 76.8715 39.772 76.8715 40.112V44H76.3975C76.2935 44 76.2135 43.984 76.1575 43.952C76.1015 43.916 76.0575 43.848 76.0255 43.748L75.9055 43.172C75.7455 43.32 75.5895 43.452 75.4375 43.568C75.2855 43.68 75.1255 43.776 74.9575 43.856C74.7895 43.932 74.6095 43.99 74.4175 44.03C74.2295 44.074 74.0195 44.096 73.7875 44.096C73.5515 44.096 73.3295 44.064 73.1215 44C72.9135 43.932 72.7315 43.832 72.5755 43.7C72.4235 43.568 72.3015 43.402 72.2095 43.202C72.1215 42.998 72.0775 42.758 72.0775 42.482C72.0775 42.242 72.1435 42.012 72.2755 41.792C72.4075 41.568 72.6215 41.37 72.9175 41.198C73.2135 41.026 73.5995 40.886 74.0755 40.778C74.5515 40.666 75.1355 40.602 75.8275 40.586V40.112C75.8275 39.64 75.7255 39.284 75.5215 39.044C75.3175 38.8 75.0195 38.678 74.6275 38.678C74.3635 38.678 74.1415 38.712 73.9615 38.78C73.7855 38.844 73.6315 38.918 73.4995 39.002C73.3715 39.082 73.2595 39.156 73.1635 39.224C73.0715 39.288 72.9795 39.32 72.8875 39.32C72.8155 39.32 72.7535 39.302 72.7015 39.266C72.6495 39.226 72.6055 39.178 72.5695 39.122L72.3775 38.78ZM80.6163 41.03C80.8323 41.03 81.0223 41 81.1863 40.94C81.3503 40.88 81.4883 40.796 81.6003 40.688C81.7123 40.58 81.7963 40.452 81.8523 40.304C81.9083 40.152 81.9363 39.986 81.9363 39.806C81.9363 39.434 81.8223 39.138 81.5943 38.918C81.3703 38.698 81.0443 38.588 80.6163 38.588C80.1843 38.588 79.8543 38.698 79.6263 38.918C79.4023 39.138 79.2903 39.434 79.2903 39.806C79.2903 39.986 79.3183 40.152 79.3743 40.304C79.4343 40.452 79.5203 40.58 79.6323 40.688C79.7443 40.796 79.8823 40.88 80.0463 40.94C80.2103 41 80.4003 41.03 80.6163 41.03ZM82.5423 44.33C82.5423 44.182 82.5003 44.062 82.4163 43.97C82.3323 43.878 82.2183 43.806 82.0743 43.754C81.9343 43.702 81.7703 43.666 81.5823 43.646C81.3943 43.622 81.1943 43.604 80.9823 43.592C80.7743 43.58 80.5623 43.568 80.3463 43.556C80.1303 43.544 79.9223 43.524 79.7223 43.496C79.4983 43.6 79.3143 43.732 79.1703 43.892C79.0303 44.048 78.9603 44.232 78.9603 44.444C78.9603 44.58 78.9943 44.706 79.0623 44.822C79.1343 44.942 79.2423 45.044 79.3863 45.128C79.5303 45.216 79.7103 45.284 79.9263 45.332C80.1463 45.384 80.4043 45.41 80.7003 45.41C80.9883 45.41 81.2463 45.384 81.4743 45.332C81.7023 45.28 81.8943 45.206 82.0503 45.11C82.2103 45.014 82.3323 44.9 82.4163 44.768C82.5003 44.636 82.5423 44.49 82.5423 44.33ZM83.6283 38.162V38.558C83.6283 38.69 83.5443 38.774 83.3763 38.81L82.6863 38.9C82.8223 39.164 82.8903 39.456 82.8903 39.776C82.8903 40.072 82.8323 40.342 82.7163 40.586C82.6043 40.826 82.4483 41.032 82.2483 41.204C82.0483 41.376 81.8083 41.508 81.5283 41.6C81.2483 41.692 80.9443 41.738 80.6163 41.738C80.3323 41.738 80.0643 41.704 79.8123 41.636C79.6843 41.716 79.5863 41.802 79.5183 41.894C79.4503 41.982 79.4163 42.072 79.4163 42.164C79.4163 42.308 79.4743 42.418 79.5903 42.494C79.7103 42.566 79.8663 42.618 80.0583 42.65C80.2503 42.682 80.4683 42.702 80.7123 42.71C80.9603 42.718 81.2123 42.732 81.4683 42.752C81.7283 42.768 81.9803 42.798 82.2243 42.842C82.4723 42.886 82.6923 42.958 82.8843 43.058C83.0763 43.158 83.2303 43.296 83.3463 43.472C83.4663 43.648 83.5263 43.876 83.5263 44.156C83.5263 44.416 83.4603 44.668 83.3283 44.912C83.2003 45.156 83.0143 45.372 82.7703 45.56C82.5263 45.752 82.2263 45.904 81.8703 46.016C81.5183 46.132 81.1203 46.19 80.6763 46.19C80.2323 46.19 79.8443 46.146 79.5123 46.058C79.1803 45.97 78.9043 45.852 78.6843 45.704C78.4643 45.556 78.2983 45.384 78.1863 45.188C78.0783 44.996 78.0243 44.794 78.0243 44.582C78.0243 44.282 78.1183 44.028 78.3063 43.82C78.4943 43.612 78.7523 43.446 79.0803 43.322C78.9003 43.242 78.7563 43.136 78.6483 43.004C78.5443 42.868 78.4923 42.686 78.4923 42.458C78.4923 42.37 78.5083 42.28 78.5403 42.188C78.5723 42.092 78.6203 41.998 78.6843 41.906C78.7523 41.81 78.8343 41.72 78.9303 41.636C79.0263 41.552 79.1383 41.478 79.2663 41.414C78.9663 41.246 78.7323 41.024 78.5643 40.748C78.3963 40.468 78.3123 40.144 78.3123 39.776C78.3123 39.48 78.3683 39.212 78.4803 38.972C78.5963 38.728 78.7563 38.522 78.9603 38.354C79.1643 38.182 79.4063 38.05 79.6863 37.958C79.9703 37.866 80.2803 37.82 80.6163 37.82C80.8803 37.82 81.1263 37.85 81.3543 37.91C81.5823 37.966 81.7903 38.05 81.9783 38.162H83.6283ZM88.707 40.298C88.707 40.05 88.671 39.824 88.599 39.62C88.531 39.412 88.429 39.234 88.293 39.086C88.161 38.934 87.999 38.818 87.807 38.738C87.615 38.654 87.397 38.612 87.153 38.612C86.641 38.612 86.235 38.762 85.935 39.062C85.639 39.358 85.455 39.77 85.383 40.298H88.707ZM89.571 43.148C89.439 43.308 89.281 43.448 89.097 43.568C88.913 43.684 88.715 43.78 88.503 43.856C88.295 43.932 88.079 43.988 87.855 44.024C87.631 44.064 87.409 44.084 87.189 44.084C86.769 44.084 86.381 44.014 86.025 43.874C85.673 43.73 85.367 43.522 85.107 43.25C84.851 42.974 84.651 42.634 84.507 42.23C84.363 41.826 84.291 41.362 84.291 40.838C84.291 40.414 84.355 40.018 84.483 39.65C84.615 39.282 84.803 38.964 85.047 38.696C85.291 38.424 85.589 38.212 85.941 38.06C86.293 37.904 86.689 37.826 87.129 37.826C87.493 37.826 87.829 37.888 88.137 38.012C88.449 38.132 88.717 38.308 88.941 38.54C89.169 38.768 89.347 39.052 89.475 39.392C89.603 39.728 89.667 40.112 89.667 40.544C89.667 40.712 89.649 40.824 89.613 40.88C89.577 40.936 89.509 40.964 89.409 40.964H85.347C85.359 41.348 85.411 41.682 85.503 41.966C85.599 42.25 85.731 42.488 85.899 42.68C86.067 42.868 86.267 43.01 86.499 43.106C86.731 43.198 86.991 43.244 87.279 43.244C87.547 43.244 87.777 43.214 87.969 43.154C88.165 43.09 88.333 43.022 88.473 42.95C88.613 42.878 88.729 42.812 88.821 42.752C88.917 42.688 88.999 42.656 89.067 42.656C89.155 42.656 89.223 42.69 89.271 42.758L89.571 43.148ZM90.9788 44V37.922H91.6208C91.7728 37.922 91.8668 37.996 91.9028 38.144L91.9808 38.768C92.2048 38.492 92.4568 38.266 92.7368 38.09C93.0168 37.914 93.3408 37.826 93.7088 37.826C94.1168 37.826 94.4468 37.94 94.6988 38.168C94.9548 38.396 95.1388 38.704 95.2508 39.092C95.3388 38.872 95.4508 38.682 95.5868 38.522C95.7268 38.362 95.8828 38.23 96.0548 38.126C96.2268 38.022 96.4088 37.946 96.6008 37.898C96.7968 37.85 96.9948 37.826 97.1948 37.826C97.5148 37.826 97.7988 37.878 98.0468 37.982C98.2988 38.082 98.5108 38.23 98.6828 38.426C98.8588 38.622 98.9928 38.864 99.0848 39.152C99.1768 39.436 99.2228 39.762 99.2228 40.13V44H98.1488V40.13C98.1488 39.654 98.0448 39.294 97.8368 39.05C97.6288 38.802 97.3288 38.678 96.9368 38.678C96.7608 38.678 96.5928 38.71 96.4328 38.774C96.2768 38.834 96.1388 38.924 96.0188 39.044C95.8988 39.164 95.8028 39.316 95.7308 39.5C95.6628 39.68 95.6288 39.89 95.6288 40.13V44H94.5548V40.13C94.5548 39.642 94.4568 39.278 94.2608 39.038C94.0648 38.798 93.7788 38.678 93.4028 38.678C93.1388 38.678 92.8948 38.75 92.6708 38.894C92.4468 39.034 92.2408 39.226 92.0528 39.47V44H90.9788ZM104.914 40.298C104.914 40.05 104.878 39.824 104.806 39.62C104.738 39.412 104.636 39.234 104.5 39.086C104.368 38.934 104.206 38.818 104.014 38.738C103.822 38.654 103.604 38.612 103.36 38.612C102.848 38.612 102.442 38.762 102.142 39.062C101.846 39.358 101.662 39.77 101.59 40.298H104.914ZM105.778 43.148C105.646 43.308 105.488 43.448 105.304 43.568C105.12 43.684 104.922 43.78 104.71 43.856C104.502 43.932 104.286 43.988 104.062 44.024C103.838 44.064 103.616 44.084 103.396 44.084C102.976 44.084 102.588 44.014 102.232 43.874C101.88 43.73 101.574 43.522 101.314 43.25C101.058 42.974 100.858 42.634 100.714 42.23C100.57 41.826 100.498 41.362 100.498 40.838C100.498 40.414 100.562 40.018 100.69 39.65C100.822 39.282 101.01 38.964 101.254 38.696C101.498 38.424 101.796 38.212 102.148 38.06C102.5 37.904 102.896 37.826 103.336 37.826C103.7 37.826 104.036 37.888 104.344 38.012C104.656 38.132 104.924 38.308 105.148 38.54C105.376 38.768 105.554 39.052 105.682 39.392C105.81 39.728 105.874 40.112 105.874 40.544C105.874 40.712 105.856 40.824 105.82 40.88C105.784 40.936 105.716 40.964 105.616 40.964H101.554C101.566 41.348 101.618 41.682 101.71 41.966C101.806 42.25 101.938 42.488 102.106 42.68C102.274 42.868 102.474 43.01 102.706 43.106C102.938 43.198 103.198 43.244 103.486 43.244C103.754 43.244 103.984 43.214 104.176 43.154C104.372 43.09 104.54 43.022 104.68 42.95C104.82 42.878 104.936 42.812 105.028 42.752C105.124 42.688 105.206 42.656 105.274 42.656C105.362 42.656 105.43 42.69 105.478 42.758L105.778 43.148ZM108.194 38.804C108.326 38.656 108.466 38.522 108.614 38.402C108.762 38.282 108.918 38.18 109.082 38.096C109.25 38.008 109.426 37.942 109.61 37.898C109.798 37.85 110 37.826 110.216 37.826C110.548 37.826 110.84 37.882 111.092 37.994C111.348 38.102 111.56 38.258 111.728 38.462C111.9 38.662 112.03 38.904 112.118 39.188C112.206 39.472 112.25 39.786 112.25 40.13V44H111.176V40.13C111.176 39.67 111.07 39.314 110.858 39.062C110.65 38.806 110.332 38.678 109.904 38.678C109.588 38.678 109.292 38.754 109.016 38.906C108.744 39.058 108.492 39.264 108.26 39.524V44H107.186V37.922H107.828C107.98 37.922 108.074 37.996 108.11 38.144L108.194 38.804ZM115.661 44.096C115.181 44.096 114.811 43.962 114.551 43.694C114.295 43.426 114.167 43.04 114.167 42.536V38.816H113.435C113.371 38.816 113.317 38.798 113.273 38.762C113.229 38.722 113.207 38.662 113.207 38.582V38.156L114.203 38.03L114.449 36.152C114.461 36.092 114.487 36.044 114.527 36.008C114.571 35.968 114.627 35.948 114.695 35.948H115.235V38.042H116.993V38.816H115.235V42.464C115.235 42.72 115.297 42.91 115.421 43.034C115.545 43.158 115.705 43.22 115.901 43.22C116.013 43.22 116.109 43.206 116.189 43.178C116.273 43.146 116.345 43.112 116.405 43.076C116.465 43.04 116.515 43.008 116.555 42.98C116.599 42.948 116.637 42.932 116.669 42.932C116.725 42.932 116.775 42.966 116.819 43.034L117.131 43.544C116.947 43.716 116.725 43.852 116.465 43.952C116.205 44.048 115.937 44.096 115.661 44.096Z" fill="#1E212C"/>
</g>
</g>
<defs>
<clipPath id="clip0_147_805">
<rect width="118" height="48" fill="white"/>
</clipPath>
<clipPath id="clip1_147_805">
<rect width="40" height="40" fill="white" transform="translate(0 4)"/>
</clipPath>
<clipPath id="clip2_147_805">
<rect width="66" height="48" fill="white" transform="translate(52)"/>
</clipPath>
</defs>
</svg>
