<svg width="139" height="48" viewBox="0 0 139 48" fill="none" xmlns="http://www.w3.org/2000/svg">
<g clip-path="url(#clip0_147_778)">
<g clip-path="url(#clip1_147_778)">
<circle opacity="0.3" cx="20" cy="24" r="18" stroke="#5A87FC" stroke-width="4"/>
<path d="M20 40C28.8366 40 36 32.8366 36 24C36 15.1634 28.8366 8 20 8V4C31.0457 4 40 12.9543 40 24C40 35.0457 31.0457 44 20 44C8.9543 44 0 35.0457 0 24C0 22.2735 0.218765 20.5981 0.630087 19L4.5 20.0158C4.17357 21.2896 4 22.6245 4 24C4 32.8366 11.1634 40 20 40Z" fill="#5A87FC"/>
</g>
<g clip-path="url(#clip2_147_778)">
<path d="M62.92 8.54V9.61C62.92 9.93 62.8867 10.19 62.82 10.39C62.7533 10.5833 62.6867 10.7467 62.62 10.88L57.14 22.16C57.0267 22.3933 56.8667 22.5933 56.66 22.76C56.4533 22.92 56.1767 23 55.83 23H54.04L59.63 11.95C59.7567 11.7233 59.88 11.5167 60 11.33C60.1267 11.1367 60.2667 10.9533 60.42 10.78H53.5C53.3467 10.78 53.2133 10.7233 53.1 10.61C52.9867 10.4967 52.93 10.3633 52.93 10.21V8.54H62.92ZM74.7016 15.77C74.7016 17.03 74.5649 18.1267 74.2916 19.06C74.0249 19.9867 73.6516 20.7533 73.1716 21.36C72.6982 21.9667 72.1349 22.42 71.4816 22.72C70.8349 23.0133 70.1349 23.16 69.3816 23.16C68.6282 23.16 67.9282 23.0133 67.2816 22.72C66.6416 22.42 66.0849 21.9667 65.6116 21.36C65.1382 20.7533 64.7682 19.9867 64.5016 19.06C64.2349 18.1267 64.1016 17.03 64.1016 15.77C64.1016 14.5033 64.2349 13.4067 64.5016 12.48C64.7682 11.5533 65.1382 10.7867 65.6116 10.18C66.0849 9.57333 66.6416 9.12333 67.2816 8.83C67.9282 8.53 68.6282 8.38 69.3816 8.38C70.1349 8.38 70.8349 8.53 71.4816 8.83C72.1349 9.12333 72.6982 9.57333 73.1716 10.18C73.6516 10.7867 74.0249 11.5533 74.2916 12.48C74.5649 13.4067 74.7016 14.5033 74.7016 15.77ZM72.1516 15.77C72.1516 14.7233 72.0749 13.8567 71.9216 13.17C71.7682 12.4833 71.5616 11.9367 71.3016 11.53C71.0482 11.1233 70.7549 10.84 70.4216 10.68C70.0882 10.5133 69.7416 10.43 69.3816 10.43C69.0282 10.43 68.6849 10.5133 68.3516 10.68C68.0249 10.84 67.7349 11.1233 67.4816 11.53C67.2282 11.9367 67.0249 12.4833 66.8716 13.17C66.7249 13.8567 66.6516 14.7233 66.6516 15.77C66.6516 16.8167 66.7249 17.6833 66.8716 18.37C67.0249 19.0567 67.2282 19.6033 67.4816 20.01C67.7349 20.4167 68.0249 20.7033 68.3516 20.87C68.6849 21.03 69.0282 21.11 69.3816 21.11C69.7416 21.11 70.0882 21.03 70.4216 20.87C70.7549 20.7033 71.0482 20.4167 71.3016 20.01C71.5616 19.6033 71.7682 19.0567 71.9216 18.37C72.0749 17.6833 72.1516 16.8167 72.1516 15.77ZM82.6531 12.04C82.6531 12.5867 82.5598 13.08 82.3731 13.52C82.1931 13.96 81.9498 14.3367 81.6431 14.65C81.3365 14.9567 80.9798 15.1933 80.5731 15.36C80.1665 15.5267 79.7431 15.61 79.3031 15.61C78.8231 15.61 78.3798 15.5267 77.9731 15.36C77.5665 15.1933 77.2131 14.9567 76.9131 14.65C76.6198 14.3367 76.3898 13.96 76.2231 13.52C76.0565 13.08 75.9731 12.5867 75.9731 12.04C75.9731 11.48 76.0565 10.9733 76.2231 10.52C76.3898 10.0667 76.6198 9.68333 76.9131 9.37C77.2131 9.05667 77.5665 8.81667 77.9731 8.65C78.3798 8.47667 78.8231 8.39 79.3031 8.39C79.7831 8.39 80.2265 8.47667 80.6331 8.65C81.0465 8.81667 81.4031 9.05667 81.7031 9.37C82.0031 9.68333 82.2365 10.0667 82.4031 10.52C82.5698 10.9733 82.6531 11.48 82.6531 12.04ZM80.7531 12.04C80.7531 11.6533 80.7131 11.33 80.6331 11.07C80.5598 10.81 80.4565 10.6 80.3231 10.44C80.1965 10.28 80.0431 10.1667 79.8631 10.1C79.6898 10.0267 79.5031 9.99 79.3031 9.99C79.1031 9.99 78.9165 10.0267 78.7431 10.1C78.5698 10.1667 78.4198 10.28 78.2931 10.44C78.1731 10.6 78.0765 10.81 78.0031 11.07C77.9298 11.33 77.8931 11.6533 77.8931 12.04C77.8931 12.4133 77.9298 12.7267 78.0031 12.98C78.0765 13.2267 78.1731 13.4267 78.2931 13.58C78.4198 13.7333 78.5698 13.8433 78.7431 13.91C78.9165 13.9767 79.1031 14.01 79.3031 14.01C79.5031 14.01 79.6898 13.9767 79.8631 13.91C80.0431 13.8433 80.1965 13.7333 80.3231 13.58C80.4565 13.4267 80.5598 13.2267 80.6331 12.98C80.7131 12.7267 80.7531 12.4133 80.7531 12.04ZM87.4631 8.93C87.5498 8.83 87.6498 8.74 87.7631 8.66C87.8831 8.58 88.0498 8.54 88.2631 8.54H90.0631L79.3231 22.63C79.2365 22.7367 79.1331 22.8267 79.0131 22.9C78.8931 22.9667 78.7465 23 78.5731 23H76.7331L87.4631 8.93ZM90.8231 19.6C90.8231 20.1467 90.7298 20.64 90.5431 21.08C90.3631 21.52 90.1198 21.8967 89.8131 22.21C89.5065 22.5167 89.1498 22.7567 88.7431 22.93C88.3365 23.0967 87.9131 23.18 87.4731 23.18C86.9931 23.18 86.5498 23.0967 86.1431 22.93C85.7365 22.7567 85.3831 22.5167 85.0831 22.21C84.7898 21.8967 84.5598 21.52 84.3931 21.08C84.2265 20.64 84.1431 20.1467 84.1431 19.6C84.1431 19.04 84.2265 18.5333 84.3931 18.08C84.5598 17.6267 84.7898 17.2433 85.0831 16.93C85.3831 16.6167 85.7365 16.3767 86.1431 16.21C86.5498 16.0367 86.9931 15.95 87.4731 15.95C87.9531 15.95 88.3965 16.0367 88.8031 16.21C89.2165 16.3767 89.5698 16.6167 89.8631 16.93C90.1631 17.2433 90.3965 17.6267 90.5631 18.08C90.7365 18.5333 90.8231 19.04 90.8231 19.6ZM88.9131 19.6C88.9131 19.2133 88.8765 18.89 88.8031 18.63C88.7298 18.37 88.6265 18.16 88.4931 18C88.3665 17.84 88.2131 17.7267 88.0331 17.66C87.8598 17.5867 87.6731 17.55 87.4731 17.55C87.2731 17.55 87.0865 17.5867 86.9131 17.66C86.7398 17.7267 86.5898 17.84 86.4631 18C86.3365 18.16 86.2365 18.37 86.1631 18.63C86.0965 18.89 86.0631 19.2133 86.0631 19.6C86.0631 19.9733 86.0965 20.2867 86.1631 20.54C86.2365 20.7933 86.3365 20.9967 86.4631 21.15C86.5898 21.3033 86.7398 21.4133 86.9131 21.48C87.0865 21.5467 87.2731 21.58 87.4731 21.58C87.6731 21.58 87.8598 21.5467 88.0331 21.48C88.2131 21.4133 88.3665 21.3033 88.4931 21.15C88.6265 20.9967 88.7298 20.7933 88.8031 20.54C88.8765 20.2867 88.9131 19.9733 88.9131 19.6Z" fill="#1E212C"/>
<path d="M54.262 44H53.098V35.402H54.262V44ZM57.1235 38.804C57.2555 38.656 57.3955 38.522 57.5435 38.402C57.6915 38.282 57.8475 38.18 58.0115 38.096C58.1795 38.008 58.3555 37.942 58.5395 37.898C58.7275 37.85 58.9295 37.826 59.1455 37.826C59.4775 37.826 59.7695 37.882 60.0215 37.994C60.2775 38.102 60.4895 38.258 60.6575 38.462C60.8295 38.662 60.9595 38.904 61.0475 39.188C61.1355 39.472 61.1795 39.786 61.1795 40.13V44H60.1055V40.13C60.1055 39.67 59.9995 39.314 59.7875 39.062C59.5795 38.806 59.2615 38.678 58.8335 38.678C58.5175 38.678 58.2215 38.754 57.9455 38.906C57.6735 39.058 57.4215 39.264 57.1895 39.524V44H56.1155V37.922H56.7575C56.9095 37.922 57.0035 37.996 57.0395 38.144L57.1235 38.804ZM67.0369 39.002C67.0049 39.046 66.9729 39.08 66.9409 39.104C66.9089 39.128 66.8649 39.14 66.8089 39.14C66.7489 39.14 66.6829 39.116 66.6109 39.068C66.5389 39.016 66.4489 38.96 66.3409 38.9C66.2369 38.84 66.1069 38.786 65.9509 38.738C65.7989 38.686 65.6109 38.66 65.3869 38.66C65.0869 38.66 64.8229 38.714 64.5949 38.822C64.3669 38.926 64.1749 39.078 64.0189 39.278C63.8669 39.478 63.7509 39.72 63.6709 40.004C63.5949 40.288 63.5569 40.606 63.5569 40.958C63.5569 41.326 63.5989 41.654 63.6829 41.942C63.7669 42.226 63.8849 42.466 64.0369 42.662C64.1929 42.854 64.3789 43.002 64.5949 43.106C64.8149 43.206 65.0609 43.256 65.3329 43.256C65.5929 43.256 65.8069 43.226 65.9749 43.166C66.1429 43.102 66.2809 43.032 66.3889 42.956C66.5009 42.88 66.5929 42.812 66.6649 42.752C66.7409 42.688 66.8149 42.656 66.8869 42.656C66.9749 42.656 67.0429 42.69 67.0909 42.758L67.3909 43.148C67.2589 43.312 67.1089 43.452 66.9409 43.568C66.7729 43.684 66.5909 43.782 66.3949 43.862C66.2029 43.938 66.0009 43.994 65.7889 44.03C65.5769 44.066 65.3609 44.084 65.1409 44.084C64.7609 44.084 64.4069 44.014 64.0789 43.874C63.7549 43.734 63.4729 43.532 63.2329 43.268C62.9929 43 62.8049 42.672 62.6689 42.284C62.5329 41.896 62.4649 41.454 62.4649 40.958C62.4649 40.506 62.5269 40.088 62.6509 39.704C62.7789 39.32 62.9629 38.99 63.2029 38.714C63.4469 38.434 63.7449 38.216 64.0969 38.06C64.4529 37.904 64.8609 37.826 65.3209 37.826C65.7489 37.826 66.1249 37.896 66.4489 38.036C66.7769 38.172 67.0669 38.366 67.3189 38.618L67.0369 39.002ZM69.5514 39.14C69.7434 38.724 69.9794 38.4 70.2594 38.168C70.5394 37.932 70.8814 37.814 71.2854 37.814C71.4134 37.814 71.5354 37.828 71.6514 37.856C71.7714 37.884 71.8774 37.928 71.9694 37.988L71.8914 38.786C71.8674 38.886 71.8074 38.936 71.7114 38.936C71.6554 38.936 71.5734 38.924 71.4654 38.9C71.3574 38.876 71.2354 38.864 71.0994 38.864C70.9074 38.864 70.7354 38.892 70.5834 38.948C70.4354 39.004 70.3014 39.088 70.1814 39.2C70.0654 39.308 69.9594 39.444 69.8634 39.608C69.7714 39.768 69.6874 39.952 69.6114 40.16V44H68.5374V37.922H69.1494C69.2654 37.922 69.3454 37.944 69.3894 37.988C69.4334 38.032 69.4634 38.108 69.4794 38.216L69.5514 39.14ZM76.7304 40.298C76.7304 40.05 76.6944 39.824 76.6224 39.62C76.5544 39.412 76.4524 39.234 76.3164 39.086C76.1844 38.934 76.0224 38.818 75.8304 38.738C75.6384 38.654 75.4204 38.612 75.1764 38.612C74.6644 38.612 74.2584 38.762 73.9584 39.062C73.6624 39.358 73.4784 39.77 73.4064 40.298H76.7304ZM77.5944 43.148C77.4624 43.308 77.3044 43.448 77.1204 43.568C76.9364 43.684 76.7384 43.78 76.5264 43.856C76.3184 43.932 76.1024 43.988 75.8784 44.024C75.6544 44.064 75.4324 44.084 75.2124 44.084C74.7924 44.084 74.4044 44.014 74.0484 43.874C73.6964 43.73 73.3904 43.522 73.1304 43.25C72.8744 42.974 72.6744 42.634 72.5304 42.23C72.3864 41.826 72.3144 41.362 72.3144 40.838C72.3144 40.414 72.3784 40.018 72.5064 39.65C72.6384 39.282 72.8264 38.964 73.0704 38.696C73.3144 38.424 73.6124 38.212 73.9644 38.06C74.3164 37.904 74.7124 37.826 75.1524 37.826C75.5164 37.826 75.8524 37.888 76.1604 38.012C76.4724 38.132 76.7404 38.308 76.9644 38.54C77.1924 38.768 77.3704 39.052 77.4984 39.392C77.6264 39.728 77.6904 40.112 77.6904 40.544C77.6904 40.712 77.6724 40.824 77.6364 40.88C77.6004 40.936 77.5324 40.964 77.4324 40.964H73.3704C73.3824 41.348 73.4344 41.682 73.5264 41.966C73.6224 42.25 73.7544 42.488 73.9224 42.68C74.0904 42.868 74.2904 43.01 74.5224 43.106C74.7544 43.198 75.0144 43.244 75.3024 43.244C75.5704 43.244 75.8004 43.214 75.9924 43.154C76.1884 43.09 76.3564 43.022 76.4964 42.95C76.6364 42.878 76.7524 42.812 76.8444 42.752C76.9404 42.688 77.0224 42.656 77.0904 42.656C77.1784 42.656 77.2464 42.69 77.2944 42.758L77.5944 43.148ZM82.2963 41.264C81.8043 41.28 81.3843 41.32 81.0363 41.384C80.6923 41.444 80.4103 41.524 80.1903 41.624C79.9743 41.724 79.8163 41.842 79.7163 41.978C79.6203 42.114 79.5723 42.266 79.5723 42.434C79.5723 42.594 79.5983 42.732 79.6503 42.848C79.7023 42.964 79.7723 43.06 79.8603 43.136C79.9523 43.208 80.0583 43.262 80.1783 43.298C80.3023 43.33 80.4343 43.346 80.5743 43.346C80.7623 43.346 80.9343 43.328 81.0903 43.292C81.2463 43.252 81.3923 43.196 81.5283 43.124C81.6683 43.052 81.8003 42.966 81.9243 42.866C82.0523 42.766 82.1763 42.652 82.2963 42.524V41.264ZM78.8463 38.78C79.1823 38.456 79.5443 38.214 79.9323 38.054C80.3203 37.894 80.7503 37.814 81.2223 37.814C81.5623 37.814 81.8643 37.87 82.1283 37.982C82.3923 38.094 82.6143 38.25 82.7943 38.45C82.9743 38.65 83.1103 38.892 83.2023 39.176C83.2943 39.46 83.3403 39.772 83.3403 40.112V44H82.8663C82.7623 44 82.6823 43.984 82.6263 43.952C82.5703 43.916 82.5263 43.848 82.4943 43.748L82.3743 43.172C82.2143 43.32 82.0583 43.452 81.9062 43.568C81.7543 43.68 81.5943 43.776 81.4263 43.856C81.2583 43.932 81.0783 43.99 80.8863 44.03C80.6983 44.074 80.4883 44.096 80.2563 44.096C80.0203 44.096 79.7983 44.064 79.5903 44C79.3823 43.932 79.2003 43.832 79.0443 43.7C78.8923 43.568 78.7703 43.402 78.6783 43.202C78.5903 42.998 78.5463 42.758 78.5463 42.482C78.5463 42.242 78.6123 42.012 78.7443 41.792C78.8763 41.568 79.0903 41.37 79.3863 41.198C79.6823 41.026 80.0683 40.886 80.5443 40.778C81.0203 40.666 81.6043 40.602 82.2963 40.586V40.112C82.2963 39.64 82.1943 39.284 81.9903 39.044C81.7863 38.8 81.4883 38.678 81.0963 38.678C80.8323 38.678 80.6103 38.712 80.4303 38.78C80.2543 38.844 80.1003 38.918 79.9683 39.002C79.8403 39.082 79.7283 39.156 79.6323 39.224C79.5403 39.288 79.4483 39.32 79.3563 39.32C79.2843 39.32 79.2223 39.302 79.1703 39.266C79.1183 39.226 79.0743 39.178 79.0382 39.122L78.8463 38.78ZM88.5071 38.924C88.4591 39.012 88.3851 39.056 88.2851 39.056C88.2251 39.056 88.1571 39.034 88.0811 38.99C88.0051 38.946 87.9111 38.898 87.7991 38.846C87.6911 38.79 87.5611 38.74 87.4091 38.696C87.2571 38.648 87.0771 38.624 86.8691 38.624C86.6891 38.624 86.5271 38.648 86.3831 38.696C86.2391 38.74 86.1151 38.802 86.0111 38.882C85.9111 38.962 85.8331 39.056 85.7771 39.164C85.7251 39.268 85.6991 39.382 85.6991 39.506C85.6991 39.662 85.7431 39.792 85.8311 39.896C85.9231 40 86.0431 40.09 86.1911 40.166C86.3391 40.242 86.5071 40.31 86.6951 40.37C86.8831 40.426 87.0751 40.488 87.2711 40.556C87.4711 40.62 87.6651 40.692 87.8531 40.772C88.0411 40.852 88.2091 40.952 88.3571 41.072C88.5051 41.192 88.6231 41.34 88.7111 41.516C88.8031 41.688 88.8491 41.896 88.8491 42.14C88.8491 42.42 88.7991 42.68 88.6991 42.92C88.5991 43.156 88.4511 43.362 88.2551 43.538C88.0591 43.71 87.8191 43.846 87.5351 43.946C87.2511 44.046 86.9231 44.096 86.5511 44.096C86.1271 44.096 85.7431 44.028 85.3991 43.892C85.0551 43.752 84.7631 43.574 84.5231 43.358L84.7751 42.95C84.8071 42.898 84.8451 42.858 84.8891 42.83C84.9331 42.802 84.9891 42.788 85.0571 42.788C85.1291 42.788 85.2051 42.816 85.2851 42.872C85.3651 42.928 85.4611 42.99 85.5731 43.058C85.6891 43.126 85.8291 43.188 85.9931 43.244C86.1571 43.3 86.3611 43.328 86.6051 43.328C86.8131 43.328 86.9951 43.302 87.1511 43.25C87.3071 43.194 87.4371 43.12 87.5411 43.028C87.6451 42.936 87.7211 42.83 87.7691 42.71C87.8211 42.59 87.8471 42.462 87.8471 42.326C87.8471 42.158 87.8011 42.02 87.7091 41.912C87.6211 41.8 87.5031 41.706 87.3551 41.63C87.2071 41.55 87.0371 41.482 86.8451 41.426C86.6571 41.366 86.4631 41.304 86.2631 41.24C86.0671 41.176 85.8731 41.104 85.6811 41.024C85.4931 40.94 85.3251 40.836 85.1771 40.712C85.0291 40.588 84.9091 40.436 84.8171 40.256C84.7291 40.072 84.6851 39.85 84.6851 39.59C84.6851 39.358 84.7331 39.136 84.8291 38.924C84.9251 38.708 85.0651 38.52 85.2491 38.36C85.4331 38.196 85.6591 38.066 85.9271 37.97C86.1951 37.874 86.5011 37.826 86.8451 37.826C87.2451 37.826 87.6031 37.89 87.9191 38.018C88.2391 38.142 88.5151 38.314 88.7471 38.534L88.5071 38.924ZM94.2265 40.298C94.2265 40.05 94.1905 39.824 94.1185 39.62C94.0505 39.412 93.9485 39.234 93.8125 39.086C93.6805 38.934 93.5185 38.818 93.3265 38.738C93.1345 38.654 92.9165 38.612 92.6725 38.612C92.1605 38.612 91.7545 38.762 91.4545 39.062C91.1585 39.358 90.9745 39.77 90.9025 40.298H94.2265ZM95.0905 43.148C94.9585 43.308 94.8005 43.448 94.6165 43.568C94.4325 43.684 94.2345 43.78 94.0225 43.856C93.8145 43.932 93.5985 43.988 93.3745 44.024C93.1505 44.064 92.9285 44.084 92.7085 44.084C92.2885 44.084 91.9005 44.014 91.5445 43.874C91.1925 43.73 90.8865 43.522 90.6265 43.25C90.3705 42.974 90.1705 42.634 90.0265 42.23C89.8825 41.826 89.8105 41.362 89.8105 40.838C89.8105 40.414 89.8745 40.018 90.0025 39.65C90.1345 39.282 90.3225 38.964 90.5665 38.696C90.8105 38.424 91.1085 38.212 91.4605 38.06C91.8125 37.904 92.2085 37.826 92.6485 37.826C93.0125 37.826 93.3485 37.888 93.6565 38.012C93.9685 38.132 94.2365 38.308 94.4605 38.54C94.6885 38.768 94.8665 39.052 94.9945 39.392C95.1225 39.728 95.1865 40.112 95.1865 40.544C95.1865 40.712 95.1685 40.824 95.1325 40.88C95.0965 40.936 95.0285 40.964 94.9285 40.964H90.8665C90.8785 41.348 90.9305 41.682 91.0225 41.966C91.1185 42.25 91.2505 42.488 91.4185 42.68C91.5865 42.868 91.7865 43.01 92.0185 43.106C92.2505 43.198 92.5105 43.244 92.7985 43.244C93.0665 43.244 93.2965 43.214 93.4885 43.154C93.6845 43.09 93.8525 43.022 93.9925 42.95C94.1325 42.878 94.2485 42.812 94.3405 42.752C94.4365 42.688 94.5185 42.656 94.5865 42.656C94.6745 42.656 94.7425 42.69 94.7905 42.758L95.0905 43.148ZM100.697 37.922V44H99.6287V37.922H100.697ZM100.925 36.014C100.925 36.118 100.903 36.216 100.859 36.308C100.819 36.396 100.763 36.476 100.691 36.548C100.623 36.616 100.541 36.67 100.445 36.71C100.353 36.75 100.255 36.77 100.151 36.77C100.047 36.77 99.9487 36.75 99.8567 36.71C99.7687 36.67 99.6907 36.616 99.6227 36.548C99.5547 36.476 99.5007 36.396 99.4607 36.308C99.4207 36.216 99.4007 36.118 99.4007 36.014C99.4007 35.91 99.4207 35.812 99.4607 35.72C99.5007 35.624 99.5547 35.542 99.6227 35.474C99.6907 35.402 99.7687 35.346 99.8567 35.306C99.9487 35.266 100.047 35.246 100.151 35.246C100.255 35.246 100.353 35.266 100.445 35.306C100.541 35.346 100.623 35.402 100.691 35.474C100.763 35.542 100.819 35.624 100.859 35.72C100.903 35.812 100.925 35.91 100.925 36.014ZM103.459 38.804C103.591 38.656 103.731 38.522 103.879 38.402C104.027 38.282 104.183 38.18 104.347 38.096C104.515 38.008 104.691 37.942 104.875 37.898C105.063 37.85 105.265 37.826 105.481 37.826C105.813 37.826 106.105 37.882 106.357 37.994C106.613 38.102 106.825 38.258 106.993 38.462C107.165 38.662 107.295 38.904 107.383 39.188C107.471 39.472 107.515 39.786 107.515 40.13V44H106.441V40.13C106.441 39.67 106.335 39.314 106.123 39.062C105.915 38.806 105.597 38.678 105.169 38.678C104.853 38.678 104.557 38.754 104.281 38.906C104.009 39.058 103.757 39.264 103.525 39.524V44H102.451V37.922H103.093C103.245 37.922 103.339 37.996 103.375 38.144L103.459 38.804ZM113.317 35.162V44H112.249V35.162H113.317ZM119.117 40.298C119.117 40.05 119.081 39.824 119.009 39.62C118.941 39.412 118.839 39.234 118.703 39.086C118.571 38.934 118.409 38.818 118.217 38.738C118.025 38.654 117.807 38.612 117.563 38.612C117.051 38.612 116.645 38.762 116.345 39.062C116.049 39.358 115.865 39.77 115.793 40.298H119.117ZM119.981 43.148C119.849 43.308 119.691 43.448 119.507 43.568C119.323 43.684 119.125 43.78 118.913 43.856C118.705 43.932 118.489 43.988 118.265 44.024C118.041 44.064 117.819 44.084 117.599 44.084C117.179 44.084 116.791 44.014 116.435 43.874C116.083 43.73 115.777 43.522 115.517 43.25C115.261 42.974 115.061 42.634 114.917 42.23C114.773 41.826 114.701 41.362 114.701 40.838C114.701 40.414 114.765 40.018 114.893 39.65C115.025 39.282 115.213 38.964 115.457 38.696C115.701 38.424 115.999 38.212 116.351 38.06C116.703 37.904 117.099 37.826 117.539 37.826C117.903 37.826 118.239 37.888 118.547 38.012C118.859 38.132 119.127 38.308 119.351 38.54C119.579 38.768 119.757 39.052 119.885 39.392C120.013 39.728 120.077 40.112 120.077 40.544C120.077 40.712 120.059 40.824 120.023 40.88C119.987 40.936 119.919 40.964 119.819 40.964H115.757C115.769 41.348 115.821 41.682 115.913 41.966C116.009 42.25 116.141 42.488 116.309 42.68C116.477 42.868 116.677 43.01 116.909 43.106C117.141 43.198 117.401 43.244 117.689 43.244C117.957 43.244 118.187 43.214 118.379 43.154C118.575 43.09 118.743 43.022 118.883 42.95C119.023 42.878 119.139 42.812 119.231 42.752C119.327 42.688 119.409 42.656 119.477 42.656C119.565 42.656 119.633 42.69 119.681 42.758L119.981 43.148ZM124.683 41.264C124.191 41.28 123.771 41.32 123.423 41.384C123.079 41.444 122.797 41.524 122.577 41.624C122.361 41.724 122.203 41.842 122.103 41.978C122.007 42.114 121.959 42.266 121.959 42.434C121.959 42.594 121.985 42.732 122.037 42.848C122.089 42.964 122.159 43.06 122.247 43.136C122.339 43.208 122.445 43.262 122.565 43.298C122.689 43.33 122.821 43.346 122.961 43.346C123.149 43.346 123.321 43.328 123.477 43.292C123.633 43.252 123.779 43.196 123.915 43.124C124.055 43.052 124.187 42.966 124.311 42.866C124.439 42.766 124.563 42.652 124.683 42.524V41.264ZM121.233 38.78C121.569 38.456 121.931 38.214 122.319 38.054C122.707 37.894 123.137 37.814 123.609 37.814C123.949 37.814 124.251 37.87 124.515 37.982C124.779 38.094 125.001 38.25 125.181 38.45C125.361 38.65 125.497 38.892 125.589 39.176C125.681 39.46 125.727 39.772 125.727 40.112V44H125.253C125.149 44 125.069 43.984 125.013 43.952C124.957 43.916 124.913 43.848 124.881 43.748L124.761 43.172C124.601 43.32 124.445 43.452 124.293 43.568C124.141 43.68 123.981 43.776 123.813 43.856C123.645 43.932 123.465 43.99 123.273 44.03C123.085 44.074 122.875 44.096 122.643 44.096C122.407 44.096 122.185 44.064 121.977 44C121.769 43.932 121.587 43.832 121.431 43.7C121.279 43.568 121.157 43.402 121.065 43.202C120.977 42.998 120.933 42.758 120.933 42.482C120.933 42.242 120.999 42.012 121.131 41.792C121.263 41.568 121.477 41.37 121.773 41.198C122.069 41.026 122.455 40.886 122.931 40.778C123.407 40.666 123.991 40.602 124.683 40.586V40.112C124.683 39.64 124.581 39.284 124.377 39.044C124.173 38.8 123.875 38.678 123.483 38.678C123.219 38.678 122.997 38.712 122.817 38.78C122.641 38.844 122.487 38.918 122.355 39.002C122.227 39.082 122.115 39.156 122.019 39.224C121.927 39.288 121.835 39.32 121.743 39.32C121.671 39.32 121.609 39.302 121.557 39.266C121.505 39.226 121.461 39.178 121.425 39.122L121.233 38.78ZM131.314 39.368C131.114 39.1 130.898 38.914 130.666 38.81C130.434 38.702 130.174 38.648 129.886 38.648C129.322 38.648 128.888 38.85 128.584 39.254C128.28 39.658 128.128 40.234 128.128 40.982C128.128 41.378 128.162 41.718 128.23 42.002C128.298 42.282 128.398 42.514 128.53 42.698C128.662 42.878 128.824 43.01 129.016 43.094C129.208 43.178 129.426 43.22 129.67 43.22C130.022 43.22 130.328 43.14 130.588 42.98C130.852 42.82 131.094 42.594 131.314 42.302V39.368ZM132.382 35.162V44H131.746C131.594 44 131.498 43.926 131.458 43.778L131.362 43.04C131.102 43.352 130.806 43.604 130.474 43.796C130.142 43.988 129.758 44.084 129.322 44.084C128.974 44.084 128.658 44.018 128.374 43.886C128.09 43.75 127.848 43.552 127.648 43.292C127.448 43.032 127.294 42.708 127.186 42.32C127.078 41.932 127.024 41.486 127.024 40.982C127.024 40.534 127.084 40.118 127.204 39.734C127.324 39.346 127.496 39.01 127.72 38.726C127.944 38.442 128.218 38.22 128.542 38.06C128.87 37.896 129.238 37.814 129.646 37.814C130.018 37.814 130.336 37.878 130.6 38.006C130.868 38.13 131.106 38.304 131.314 38.528V35.162H132.382ZM137.609 38.924C137.561 39.012 137.487 39.056 137.387 39.056C137.327 39.056 137.259 39.034 137.183 38.99C137.107 38.946 137.013 38.898 136.901 38.846C136.793 38.79 136.663 38.74 136.511 38.696C136.359 38.648 136.179 38.624 135.971 38.624C135.791 38.624 135.629 38.648 135.485 38.696C135.341 38.74 135.217 38.802 135.113 38.882C135.013 38.962 134.935 39.056 134.879 39.164C134.827 39.268 134.801 39.382 134.801 39.506C134.801 39.662 134.845 39.792 134.933 39.896C135.025 40 135.145 40.09 135.293 40.166C135.441 40.242 135.609 40.31 135.797 40.37C135.985 40.426 136.177 40.488 136.373 40.556C136.573 40.62 136.767 40.692 136.955 40.772C137.143 40.852 137.311 40.952 137.459 41.072C137.607 41.192 137.725 41.34 137.813 41.516C137.905 41.688 137.951 41.896 137.951 42.14C137.951 42.42 137.901 42.68 137.801 42.92C137.701 43.156 137.553 43.362 137.357 43.538C137.161 43.71 136.921 43.846 136.637 43.946C136.353 44.046 136.025 44.096 135.653 44.096C135.229 44.096 134.845 44.028 134.501 43.892C134.157 43.752 133.865 43.574 133.625 43.358L133.877 42.95C133.909 42.898 133.947 42.858 133.991 42.83C134.035 42.802 134.091 42.788 134.159 42.788C134.231 42.788 134.307 42.816 134.387 42.872C134.467 42.928 134.563 42.99 134.675 43.058C134.791 43.126 134.931 43.188 135.095 43.244C135.259 43.3 135.463 43.328 135.707 43.328C135.915 43.328 136.097 43.302 136.253 43.25C136.409 43.194 136.539 43.12 136.643 43.028C136.747 42.936 136.823 42.83 136.871 42.71C136.923 42.59 136.949 42.462 136.949 42.326C136.949 42.158 136.903 42.02 136.811 41.912C136.723 41.8 136.605 41.706 136.457 41.63C136.309 41.55 136.139 41.482 135.947 41.426C135.759 41.366 135.565 41.304 135.365 41.24C135.169 41.176 134.975 41.104 134.783 41.024C134.595 40.94 134.427 40.836 134.279 40.712C134.131 40.588 134.011 40.436 133.919 40.256C133.831 40.072 133.787 39.85 133.787 39.59C133.787 39.358 133.835 39.136 133.931 38.924C134.027 38.708 134.167 38.52 134.351 38.36C134.535 38.196 134.761 38.066 135.029 37.97C135.297 37.874 135.603 37.826 135.947 37.826C136.347 37.826 136.705 37.89 137.021 38.018C137.341 38.142 137.617 38.314 137.849 38.534L137.609 38.924Z" fill="#1E212C"/>
</g>
</g>
<defs>
<clipPath id="clip0_147_778">
<rect width="139" height="48" fill="white"/>
</clipPath>
<clipPath id="clip1_147_778">
<rect width="40" height="40" fill="white" transform="translate(0 4)"/>
</clipPath>
<clipPath id="clip2_147_778">
<rect width="87" height="48" fill="white" transform="translate(52)"/>
</clipPath>
</defs>
</svg>
