<svg width="102" height="48" viewBox="0 0 102 48" fill="none" xmlns="http://www.w3.org/2000/svg">
<g clip-path="url(#clip0_147_733)">
<path d="M6.31 21.07C7.01667 20.9767 7.55 20.74 7.91 20.36C8.27667 19.9733 8.46 19.47 8.46 18.85C8.46 18.5967 8.41333 18.3767 8.32 18.19C8.23333 17.9967 8.10667 17.8267 7.94 17.68C7.78 17.5333 7.59 17.4067 7.37 17.3C7.15 17.1933 6.91 17.0933 6.65 17L6.31 21.07ZM5.67 10.5C5.29667 10.5467 4.98 10.6267 4.72 10.74C4.46 10.8467 4.24667 10.98 4.08 11.14C3.91333 11.3 3.79 11.48 3.71 11.68C3.63667 11.88 3.6 12.09 3.6 12.31C3.6 12.5633 3.64333 12.7867 3.73 12.98C3.82333 13.1667 3.94667 13.3367 4.1 13.49C4.26 13.6367 4.44667 13.77 4.66 13.89C4.87333 14.0033 5.10667 14.11 5.36 14.21L5.67 10.5ZM6.84 14.69C7.32 14.8367 7.79667 15 8.27 15.18C8.74333 15.3533 9.16667 15.58 9.54 15.86C9.92 16.14 10.2267 16.49 10.46 16.91C10.6933 17.3233 10.81 17.8433 10.81 18.47C10.81 19.09 10.7067 19.6733 10.5 20.22C10.2933 20.76 9.99 21.24 9.59 21.66C9.19 22.0733 8.7 22.4133 8.12 22.68C7.54 22.94 6.87667 23.0933 6.13 23.14L6.01 24.61C6.00333 24.7633 5.93667 24.9033 5.81 25.03C5.69 25.1633 5.53667 25.23 5.35 25.23H4.44L4.62 23.09C3.84 22.9833 3.10667 22.77 2.42 22.45C1.73333 22.13 1.15 21.7333 0.67 21.26L1.43 20.13C1.49667 20.03 1.58333 19.95 1.69 19.89C1.80333 19.8233 1.92333 19.79 2.05 19.79C2.19667 19.79 2.35333 19.8433 2.52 19.95C2.68667 20.05 2.87667 20.17 3.09 20.31C3.30333 20.4433 3.54667 20.58 3.82 20.72C4.09333 20.86 4.41667 20.9633 4.79 21.03L5.16 16.56C4.68667 16.4267 4.21667 16.27 3.75 16.09C3.29 15.91 2.87333 15.6733 2.5 15.38C2.13333 15.08 1.83667 14.7033 1.61 14.25C1.38333 13.7967 1.27 13.23 1.27 12.55C1.27 12.0433 1.37 11.55 1.57 11.07C1.77 10.5833 2.06333 10.15 2.45 9.77C2.84333 9.39 3.32333 9.07667 3.89 8.83C4.45667 8.58333 5.10667 8.44333 5.84 8.41L5.95 7.15C5.96333 6.99 6.03 6.84667 6.15 6.72C6.27 6.59333 6.42667 6.53 6.62 6.53H7.53L7.37 8.49C8.07667 8.60333 8.68667 8.80667 9.2 9.1C9.71333 9.38667 10.1567 9.71 10.53 10.07L9.93 10.98C9.84333 11.1133 9.75333 11.2133 9.66 11.28C9.56667 11.3467 9.45333 11.38 9.32 11.38C9.22 11.38 9.1 11.35 8.96 11.29C8.82 11.2233 8.66333 11.1467 8.49 11.06C8.31667 10.9667 8.12 10.8733 7.9 10.78C7.68667 10.6867 7.45 10.61 7.19 10.55L6.84 14.69ZM21.9516 21.15V23H13.9516V21.15H16.8816V12.72C16.8816 12.3867 16.8916 12.0433 16.9116 11.69L14.8316 13.43C14.7116 13.5233 14.5916 13.5833 14.4716 13.61C14.3582 13.63 14.2482 13.63 14.1416 13.61C14.0416 13.59 13.9516 13.5567 13.8716 13.51C13.7916 13.4567 13.7316 13.4 13.6916 13.34L12.9116 12.27L17.3216 8.52H19.3516V21.15H21.9516ZM33.0131 20.7C33.2798 20.7 33.4898 20.7767 33.6431 20.93C33.8031 21.0767 33.8831 21.2733 33.8831 21.52V23H23.9631V22.18C23.9631 22.0133 23.9965 21.84 24.0631 21.66C24.1365 21.4733 24.2498 21.3067 24.4031 21.16L28.7931 16.76C29.1598 16.3867 29.4865 16.03 29.7731 15.69C30.0665 15.35 30.3098 15.0133 30.5031 14.68C30.6965 14.3467 30.8431 14.01 30.9431 13.67C31.0498 13.3233 31.1031 12.96 31.1031 12.58C31.1031 12.2333 31.0531 11.93 30.9531 11.67C30.8531 11.4033 30.7098 11.18 30.5231 11C30.3431 10.82 30.1231 10.6867 29.8631 10.6C29.6098 10.5067 29.3231 10.46 29.0031 10.46C28.7098 10.46 28.4365 10.5033 28.1831 10.59C27.9365 10.67 27.7165 10.7867 27.5231 10.94C27.3298 11.0867 27.1665 11.26 27.0331 11.46C26.8998 11.66 26.7998 11.88 26.7331 12.12C26.6198 12.4267 26.4731 12.63 26.2931 12.73C26.1131 12.83 25.8531 12.8533 25.5131 12.8L24.2131 12.57C24.3131 11.8767 24.5065 11.27 24.7931 10.75C25.0798 10.2233 25.4365 9.78667 25.8631 9.44C26.2965 9.08667 26.7898 8.82333 27.3431 8.65C27.9031 8.47 28.5031 8.38 29.1431 8.38C29.8098 8.38 30.4198 8.48 30.9731 8.68C31.5265 8.87333 31.9998 9.15 32.3931 9.51C32.7865 9.87 33.0931 10.3033 33.3131 10.81C33.5331 11.3167 33.6431 11.88 33.6431 12.5C33.6431 13.0333 33.5631 13.5267 33.4031 13.98C33.2498 14.4333 33.0398 14.8667 32.7731 15.28C32.5131 15.6933 32.2065 16.0933 31.8531 16.48C31.4998 16.8667 31.1298 17.26 30.7431 17.66L27.4831 20.99C27.7965 20.8967 28.1065 20.8267 28.4131 20.78C28.7265 20.7267 29.0231 20.7 29.3031 20.7H33.0131ZM35.9847 25.45C35.8647 25.35 35.8047 25.2267 35.8047 25.08C35.8047 25.0267 35.8214 24.9667 35.8547 24.9C35.8947 24.8333 35.9414 24.7733 35.9947 24.72C36.068 24.64 36.158 24.54 36.2647 24.42C36.3714 24.3067 36.478 24.1733 36.5847 24.02C36.6914 23.8733 36.788 23.71 36.8747 23.53C36.968 23.3567 37.038 23.17 37.0847 22.97C36.8714 22.97 36.678 22.9333 36.5047 22.86C36.3314 22.78 36.1814 22.6733 36.0547 22.54C35.9347 22.4067 35.838 22.25 35.7647 22.07C35.698 21.89 35.6647 21.6933 35.6647 21.48C35.6647 21.2933 35.698 21.12 35.7647 20.96C35.838 20.7933 35.938 20.65 36.0647 20.53C36.1914 20.4033 36.3447 20.3067 36.5247 20.24C36.7047 20.1667 36.9014 20.13 37.1147 20.13C37.368 20.13 37.588 20.1767 37.7747 20.27C37.968 20.3567 38.1247 20.48 38.2447 20.64C38.3714 20.7933 38.4647 20.9733 38.5247 21.18C38.5914 21.38 38.6247 21.5933 38.6247 21.82C38.6247 22.14 38.5747 22.4767 38.4747 22.83C38.3814 23.1833 38.2414 23.5367 38.0547 23.89C37.868 24.2433 37.6347 24.5867 37.3547 24.92C37.0814 25.2533 36.768 25.56 36.4147 25.84L35.9847 25.45ZM50.5922 15.77C50.5922 17.03 50.4555 18.1267 50.1822 19.06C49.9155 19.9867 49.5422 20.7533 49.0622 21.36C48.5889 21.9667 48.0255 22.42 47.3722 22.72C46.7255 23.0133 46.0255 23.16 45.2722 23.16C44.5189 23.16 43.8189 23.0133 43.1722 22.72C42.5322 22.42 41.9755 21.9667 41.5022 21.36C41.0289 20.7533 40.6589 19.9867 40.3922 19.06C40.1255 18.1267 39.9922 17.03 39.9922 15.77C39.9922 14.5033 40.1255 13.4067 40.3922 12.48C40.6589 11.5533 41.0289 10.7867 41.5022 10.18C41.9755 9.57333 42.5322 9.12333 43.1722 8.83C43.8189 8.53 44.5189 8.38 45.2722 8.38C46.0255 8.38 46.7255 8.53 47.3722 8.83C48.0255 9.12333 48.5889 9.57333 49.0622 10.18C49.5422 10.7867 49.9155 11.5533 50.1822 12.48C50.4555 13.4067 50.5922 14.5033 50.5922 15.77ZM48.0422 15.77C48.0422 14.7233 47.9655 13.8567 47.8122 13.17C47.6589 12.4833 47.4522 11.9367 47.1922 11.53C46.9389 11.1233 46.6455 10.84 46.3122 10.68C45.9789 10.5133 45.6322 10.43 45.2722 10.43C44.9189 10.43 44.5755 10.5133 44.2422 10.68C43.9155 10.84 43.6255 11.1233 43.3722 11.53C43.1189 11.9367 42.9155 12.4833 42.7622 13.17C42.6155 13.8567 42.5422 14.7233 42.5422 15.77C42.5422 16.8167 42.6155 17.6833 42.7622 18.37C42.9155 19.0567 43.1189 19.6033 43.3722 20.01C43.6255 20.4167 43.9155 20.7033 44.2422 20.87C44.5755 21.03 44.9189 21.11 45.2722 21.11C45.6322 21.11 45.9789 21.03 46.3122 20.87C46.6455 20.7033 46.9389 20.4167 47.1922 20.01C47.4522 19.6033 47.6589 19.0567 47.8122 18.37C47.9655 17.6833 48.0422 16.8167 48.0422 15.77ZM62.1938 15.77C62.1938 17.03 62.0571 18.1267 61.7838 19.06C61.5171 19.9867 61.1438 20.7533 60.6638 21.36C60.1904 21.9667 59.6271 22.42 58.9738 22.72C58.3271 23.0133 57.6271 23.16 56.8738 23.16C56.1204 23.16 55.4204 23.0133 54.7738 22.72C54.1338 22.42 53.5771 21.9667 53.1038 21.36C52.6304 20.7533 52.2604 19.9867 51.9938 19.06C51.7271 18.1267 51.5938 17.03 51.5938 15.77C51.5938 14.5033 51.7271 13.4067 51.9938 12.48C52.2604 11.5533 52.6304 10.7867 53.1038 10.18C53.5771 9.57333 54.1338 9.12333 54.7738 8.83C55.4204 8.53 56.1204 8.38 56.8738 8.38C57.6271 8.38 58.3271 8.53 58.9738 8.83C59.6271 9.12333 60.1904 9.57333 60.6638 10.18C61.1438 10.7867 61.5171 11.5533 61.7838 12.48C62.0571 13.4067 62.1938 14.5033 62.1938 15.77ZM59.6438 15.77C59.6438 14.7233 59.5671 13.8567 59.4138 13.17C59.2604 12.4833 59.0538 11.9367 58.7938 11.53C58.5404 11.1233 58.2471 10.84 57.9138 10.68C57.5804 10.5133 57.2338 10.43 56.8738 10.43C56.5204 10.43 56.1771 10.5133 55.8438 10.68C55.5171 10.84 55.2271 11.1233 54.9738 11.53C54.7204 11.9367 54.5171 12.4833 54.3638 13.17C54.2171 13.8567 54.1438 14.7233 54.1438 15.77C54.1438 16.8167 54.2171 17.6833 54.3638 18.37C54.5171 19.0567 54.7204 19.6033 54.9738 20.01C55.2271 20.4167 55.5171 20.7033 55.8438 20.87C56.1771 21.03 56.5204 21.11 56.8738 21.11C57.2338 21.11 57.5804 21.03 57.9138 20.87C58.2471 20.7033 58.5404 20.4167 58.7938 20.01C59.0538 19.6033 59.2604 19.0567 59.4138 18.37C59.5671 17.6833 59.6438 16.8167 59.6438 15.77ZM73.7953 15.77C73.7953 17.03 73.6586 18.1267 73.3853 19.06C73.1186 19.9867 72.7453 20.7533 72.2653 21.36C71.792 21.9667 71.2286 22.42 70.5753 22.72C69.9286 23.0133 69.2286 23.16 68.4753 23.16C67.722 23.16 67.022 23.0133 66.3753 22.72C65.7353 22.42 65.1786 21.9667 64.7053 21.36C64.232 20.7533 63.862 19.9867 63.5953 19.06C63.3286 18.1267 63.1953 17.03 63.1953 15.77C63.1953 14.5033 63.3286 13.4067 63.5953 12.48C63.862 11.5533 64.232 10.7867 64.7053 10.18C65.1786 9.57333 65.7353 9.12333 66.3753 8.83C67.022 8.53 67.722 8.38 68.4753 8.38C69.2286 8.38 69.9286 8.53 70.5753 8.83C71.2286 9.12333 71.792 9.57333 72.2653 10.18C72.7453 10.7867 73.1186 11.5533 73.3853 12.48C73.6586 13.4067 73.7953 14.5033 73.7953 15.77ZM71.2453 15.77C71.2453 14.7233 71.1686 13.8567 71.0153 13.17C70.862 12.4833 70.6553 11.9367 70.3953 11.53C70.142 11.1233 69.8486 10.84 69.5153 10.68C69.182 10.5133 68.8353 10.43 68.4753 10.43C68.122 10.43 67.7786 10.5133 67.4453 10.68C67.1186 10.84 66.8286 11.1233 66.5753 11.53C66.322 11.9367 66.1186 12.4833 65.9653 13.17C65.8186 13.8567 65.7453 14.7233 65.7453 15.77C65.7453 16.8167 65.8186 17.6833 65.9653 18.37C66.1186 19.0567 66.322 19.6033 66.5753 20.01C66.8286 20.4167 67.1186 20.7033 67.4453 20.87C67.7786 21.03 68.122 21.11 68.4753 21.11C68.8353 21.11 69.182 21.03 69.5153 20.87C69.8486 20.7033 70.142 20.4167 70.3953 20.01C70.6553 19.6033 70.862 19.0567 71.0153 18.37C71.1686 17.6833 71.2453 16.8167 71.2453 15.77Z" fill="#1E212C"/>
<path d="M2.262 44H1.098V35.402H2.262V44ZM5.12353 38.804C5.25553 38.656 5.39553 38.522 5.54353 38.402C5.69153 38.282 5.84753 38.18 6.01153 38.096C6.17953 38.008 6.35553 37.942 6.53953 37.898C6.72753 37.85 6.92953 37.826 7.14553 37.826C7.47753 37.826 7.76953 37.882 8.02153 37.994C8.27753 38.102 8.48953 38.258 8.65753 38.462C8.82953 38.662 8.95953 38.904 9.04753 39.188C9.13553 39.472 9.17953 39.786 9.17953 40.13V44H8.10553V40.13C8.10553 39.67 7.99953 39.314 7.78753 39.062C7.57953 38.806 7.26153 38.678 6.83353 38.678C6.51753 38.678 6.22153 38.754 5.94553 38.906C5.67353 39.058 5.42153 39.264 5.18953 39.524V44H4.11553V37.922H4.75753C4.90953 37.922 5.00353 37.996 5.03953 38.144L5.12353 38.804ZM15.0369 39.002C15.0049 39.046 14.9729 39.08 14.9409 39.104C14.9089 39.128 14.8649 39.14 14.8089 39.14C14.7489 39.14 14.6829 39.116 14.6109 39.068C14.5389 39.016 14.4489 38.96 14.3409 38.9C14.2369 38.84 14.1069 38.786 13.9509 38.738C13.7989 38.686 13.6109 38.66 13.3869 38.66C13.0869 38.66 12.8229 38.714 12.5949 38.822C12.3669 38.926 12.1749 39.078 12.0189 39.278C11.8669 39.478 11.7509 39.72 11.6709 40.004C11.5949 40.288 11.5569 40.606 11.5569 40.958C11.5569 41.326 11.5989 41.654 11.6829 41.942C11.7669 42.226 11.8849 42.466 12.0369 42.662C12.1929 42.854 12.3789 43.002 12.5949 43.106C12.8149 43.206 13.0609 43.256 13.3329 43.256C13.5929 43.256 13.8069 43.226 13.9749 43.166C14.1429 43.102 14.2809 43.032 14.3889 42.956C14.5009 42.88 14.5929 42.812 14.6649 42.752C14.7409 42.688 14.8149 42.656 14.8869 42.656C14.9749 42.656 15.0429 42.69 15.0909 42.758L15.3909 43.148C15.2589 43.312 15.1089 43.452 14.9409 43.568C14.7729 43.684 14.5909 43.782 14.3949 43.862C14.2029 43.938 14.0009 43.994 13.7889 44.03C13.5769 44.066 13.3609 44.084 13.1409 44.084C12.7609 44.084 12.4069 44.014 12.0789 43.874C11.7549 43.734 11.4729 43.532 11.2329 43.268C10.9929 43 10.8049 42.672 10.6689 42.284C10.5329 41.896 10.4649 41.454 10.4649 40.958C10.4649 40.506 10.5269 40.088 10.6509 39.704C10.7789 39.32 10.9629 38.99 11.2029 38.714C11.4469 38.434 11.7449 38.216 12.0969 38.06C12.4529 37.904 12.8609 37.826 13.3209 37.826C13.7489 37.826 14.1249 37.896 14.4489 38.036C14.7769 38.172 15.0669 38.366 15.3189 38.618L15.0369 39.002ZM17.5514 39.14C17.7434 38.724 17.9794 38.4 18.2594 38.168C18.5394 37.932 18.8814 37.814 19.2854 37.814C19.4134 37.814 19.5354 37.828 19.6514 37.856C19.7714 37.884 19.8774 37.928 19.9694 37.988L19.8914 38.786C19.8674 38.886 19.8074 38.936 19.7114 38.936C19.6554 38.936 19.5734 38.924 19.4654 38.9C19.3574 38.876 19.2354 38.864 19.0994 38.864C18.9074 38.864 18.7354 38.892 18.5834 38.948C18.4354 39.004 18.3014 39.088 18.1814 39.2C18.0654 39.308 17.9594 39.444 17.8634 39.608C17.7714 39.768 17.6874 39.952 17.6114 40.16V44H16.5374V37.922H17.1494C17.2654 37.922 17.3454 37.944 17.3894 37.988C17.4334 38.032 17.4634 38.108 17.4794 38.216L17.5514 39.14ZM24.7304 40.298C24.7304 40.05 24.6944 39.824 24.6224 39.62C24.5544 39.412 24.4524 39.234 24.3164 39.086C24.1844 38.934 24.0224 38.818 23.8304 38.738C23.6384 38.654 23.4204 38.612 23.1764 38.612C22.6644 38.612 22.2584 38.762 21.9584 39.062C21.6624 39.358 21.4784 39.77 21.4064 40.298H24.7304ZM25.5944 43.148C25.4624 43.308 25.3044 43.448 25.1204 43.568C24.9364 43.684 24.7384 43.78 24.5264 43.856C24.3184 43.932 24.1024 43.988 23.8784 44.024C23.6544 44.064 23.4324 44.084 23.2124 44.084C22.7924 44.084 22.4044 44.014 22.0484 43.874C21.6964 43.73 21.3904 43.522 21.1304 43.25C20.8744 42.974 20.6744 42.634 20.5304 42.23C20.3864 41.826 20.3144 41.362 20.3144 40.838C20.3144 40.414 20.3784 40.018 20.5064 39.65C20.6384 39.282 20.8264 38.964 21.0704 38.696C21.3144 38.424 21.6124 38.212 21.9644 38.06C22.3164 37.904 22.7124 37.826 23.1524 37.826C23.5164 37.826 23.8524 37.888 24.1604 38.012C24.4724 38.132 24.7404 38.308 24.9644 38.54C25.1924 38.768 25.3704 39.052 25.4984 39.392C25.6264 39.728 25.6904 40.112 25.6904 40.544C25.6904 40.712 25.6724 40.824 25.6364 40.88C25.6004 40.936 25.5324 40.964 25.4324 40.964H21.3704C21.3824 41.348 21.4344 41.682 21.5264 41.966C21.6224 42.25 21.7544 42.488 21.9224 42.68C22.0904 42.868 22.2904 43.01 22.5224 43.106C22.7544 43.198 23.0144 43.244 23.3024 43.244C23.5704 43.244 23.8004 43.214 23.9924 43.154C24.1884 43.09 24.3564 43.022 24.4964 42.95C24.6364 42.878 24.7524 42.812 24.8444 42.752C24.9404 42.688 25.0224 42.656 25.0904 42.656C25.1784 42.656 25.2464 42.69 25.2944 42.758L25.5944 43.148ZM30.2963 41.264C29.8043 41.28 29.3843 41.32 29.0363 41.384C28.6923 41.444 28.4103 41.524 28.1903 41.624C27.9743 41.724 27.8163 41.842 27.7163 41.978C27.6203 42.114 27.5723 42.266 27.5723 42.434C27.5723 42.594 27.5983 42.732 27.6503 42.848C27.7023 42.964 27.7723 43.06 27.8603 43.136C27.9523 43.208 28.0583 43.262 28.1783 43.298C28.3023 43.33 28.4343 43.346 28.5743 43.346C28.7623 43.346 28.9343 43.328 29.0903 43.292C29.2463 43.252 29.3923 43.196 29.5283 43.124C29.6683 43.052 29.8003 42.966 29.9243 42.866C30.0523 42.766 30.1763 42.652 30.2963 42.524V41.264ZM26.8463 38.78C27.1823 38.456 27.5443 38.214 27.9323 38.054C28.3203 37.894 28.7503 37.814 29.2223 37.814C29.5623 37.814 29.8643 37.87 30.1283 37.982C30.3923 38.094 30.6143 38.25 30.7943 38.45C30.9743 38.65 31.1103 38.892 31.2023 39.176C31.2943 39.46 31.3403 39.772 31.3403 40.112V44H30.8663C30.7623 44 30.6823 43.984 30.6263 43.952C30.5703 43.916 30.5263 43.848 30.4943 43.748L30.3743 43.172C30.2143 43.32 30.0583 43.452 29.9062 43.568C29.7543 43.68 29.5943 43.776 29.4263 43.856C29.2583 43.932 29.0783 43.99 28.8863 44.03C28.6983 44.074 28.4883 44.096 28.2563 44.096C28.0203 44.096 27.7983 44.064 27.5903 44C27.3823 43.932 27.2003 43.832 27.0443 43.7C26.8923 43.568 26.7703 43.402 26.6783 43.202C26.5903 42.998 26.5463 42.758 26.5463 42.482C26.5463 42.242 26.6123 42.012 26.7443 41.792C26.8763 41.568 27.0903 41.37 27.3863 41.198C27.6823 41.026 28.0683 40.886 28.5443 40.778C29.0203 40.666 29.6043 40.602 30.2963 40.586V40.112C30.2963 39.64 30.1943 39.284 29.9903 39.044C29.7863 38.8 29.4883 38.678 29.0963 38.678C28.8323 38.678 28.6103 38.712 28.4303 38.78C28.2543 38.844 28.1003 38.918 27.9683 39.002C27.8403 39.082 27.7283 39.156 27.6323 39.224C27.5403 39.288 27.4483 39.32 27.3563 39.32C27.2843 39.32 27.2223 39.302 27.1703 39.266C27.1183 39.226 27.0743 39.178 27.0382 39.122L26.8463 38.78ZM36.5071 38.924C36.4591 39.012 36.3851 39.056 36.2851 39.056C36.2251 39.056 36.1571 39.034 36.0811 38.99C36.0051 38.946 35.9111 38.898 35.7991 38.846C35.6911 38.79 35.5611 38.74 35.4091 38.696C35.2571 38.648 35.0771 38.624 34.8691 38.624C34.6891 38.624 34.5271 38.648 34.3831 38.696C34.2391 38.74 34.1151 38.802 34.0111 38.882C33.9111 38.962 33.8331 39.056 33.7771 39.164C33.7251 39.268 33.6991 39.382 33.6991 39.506C33.6991 39.662 33.7431 39.792 33.8311 39.896C33.9231 40 34.0431 40.09 34.1911 40.166C34.3391 40.242 34.5071 40.31 34.6951 40.37C34.8831 40.426 35.0751 40.488 35.2711 40.556C35.4711 40.62 35.6651 40.692 35.8531 40.772C36.0411 40.852 36.2091 40.952 36.3571 41.072C36.5051 41.192 36.6231 41.34 36.7111 41.516C36.8031 41.688 36.8491 41.896 36.8491 42.14C36.8491 42.42 36.7991 42.68 36.6991 42.92C36.5991 43.156 36.4511 43.362 36.2551 43.538C36.0591 43.71 35.8191 43.846 35.5351 43.946C35.2511 44.046 34.9231 44.096 34.5511 44.096C34.1271 44.096 33.7431 44.028 33.3991 43.892C33.0551 43.752 32.7631 43.574 32.5231 43.358L32.7751 42.95C32.8071 42.898 32.8451 42.858 32.8891 42.83C32.9331 42.802 32.9891 42.788 33.0571 42.788C33.1291 42.788 33.2051 42.816 33.2851 42.872C33.3651 42.928 33.4611 42.99 33.5731 43.058C33.6891 43.126 33.8291 43.188 33.9931 43.244C34.1571 43.3 34.3611 43.328 34.6051 43.328C34.8131 43.328 34.9951 43.302 35.1511 43.25C35.3071 43.194 35.4371 43.12 35.5411 43.028C35.6451 42.936 35.7211 42.83 35.7691 42.71C35.8211 42.59 35.8471 42.462 35.8471 42.326C35.8471 42.158 35.8011 42.02 35.7091 41.912C35.6211 41.8 35.5031 41.706 35.3551 41.63C35.2071 41.55 35.0371 41.482 34.8451 41.426C34.6571 41.366 34.4631 41.304 34.2631 41.24C34.0671 41.176 33.8731 41.104 33.6811 41.024C33.4931 40.94 33.3251 40.836 33.1771 40.712C33.0291 40.588 32.9091 40.436 32.8171 40.256C32.7291 40.072 32.6851 39.85 32.6851 39.59C32.6851 39.358 32.7331 39.136 32.8291 38.924C32.9251 38.708 33.0651 38.52 33.2491 38.36C33.4331 38.196 33.6591 38.066 33.9271 37.97C34.1951 37.874 34.5011 37.826 34.8451 37.826C35.2451 37.826 35.6031 37.89 35.9191 38.018C36.2391 38.142 36.5151 38.314 36.7471 38.534L36.5071 38.924ZM42.2265 40.298C42.2265 40.05 42.1905 39.824 42.1185 39.62C42.0505 39.412 41.9485 39.234 41.8125 39.086C41.6805 38.934 41.5185 38.818 41.3265 38.738C41.1345 38.654 40.9165 38.612 40.6725 38.612C40.1605 38.612 39.7545 38.762 39.4545 39.062C39.1585 39.358 38.9745 39.77 38.9025 40.298H42.2265ZM43.0905 43.148C42.9585 43.308 42.8005 43.448 42.6165 43.568C42.4325 43.684 42.2345 43.78 42.0225 43.856C41.8145 43.932 41.5985 43.988 41.3745 44.024C41.1505 44.064 40.9285 44.084 40.7085 44.084C40.2885 44.084 39.9005 44.014 39.5445 43.874C39.1925 43.73 38.8865 43.522 38.6265 43.25C38.3705 42.974 38.1705 42.634 38.0265 42.23C37.8825 41.826 37.8105 41.362 37.8105 40.838C37.8105 40.414 37.8745 40.018 38.0025 39.65C38.1345 39.282 38.3225 38.964 38.5665 38.696C38.8105 38.424 39.1085 38.212 39.4605 38.06C39.8125 37.904 40.2085 37.826 40.6485 37.826C41.0125 37.826 41.3485 37.888 41.6565 38.012C41.9685 38.132 42.2365 38.308 42.4605 38.54C42.6885 38.768 42.8665 39.052 42.9945 39.392C43.1225 39.728 43.1865 40.112 43.1865 40.544C43.1865 40.712 43.1685 40.824 43.1325 40.88C43.0965 40.936 43.0285 40.964 42.9285 40.964H38.8665C38.8785 41.348 38.9305 41.682 39.0225 41.966C39.1185 42.25 39.2505 42.488 39.4185 42.68C39.5865 42.868 39.7865 43.01 40.0185 43.106C40.2505 43.198 40.5105 43.244 40.7985 43.244C41.0665 43.244 41.2965 43.214 41.4885 43.154C41.6845 43.09 41.8525 43.022 41.9925 42.95C42.1325 42.878 42.2485 42.812 42.3405 42.752C42.4365 42.688 42.5185 42.656 42.5865 42.656C42.6745 42.656 42.7425 42.69 42.7905 42.758L43.0905 43.148ZM48.6427 42.536C48.8387 42.8 49.0527 42.986 49.2847 43.094C49.5167 43.202 49.7767 43.256 50.0647 43.256C50.6327 43.256 51.0687 43.054 51.3727 42.65C51.6767 42.246 51.8287 41.67 51.8287 40.922C51.8287 40.526 51.7927 40.186 51.7207 39.902C51.6527 39.618 51.5527 39.386 51.4207 39.206C51.2887 39.022 51.1267 38.888 50.9347 38.804C50.7427 38.72 50.5247 38.678 50.2807 38.678C49.9327 38.678 49.6267 38.758 49.3627 38.918C49.1027 39.078 48.8627 39.304 48.6427 39.596V42.536ZM48.5887 38.864C48.8447 38.548 49.1407 38.294 49.4767 38.102C49.8127 37.91 50.1967 37.814 50.6287 37.814C50.9807 37.814 51.2987 37.882 51.5827 38.018C51.8667 38.15 52.1087 38.348 52.3087 38.612C52.5087 38.872 52.6627 39.196 52.7707 39.584C52.8787 39.972 52.9327 40.418 52.9327 40.922C52.9327 41.37 52.8727 41.788 52.7527 42.176C52.6327 42.56 52.4587 42.894 52.2307 43.178C52.0067 43.458 51.7307 43.68 51.4027 43.844C51.0787 44.004 50.7127 44.084 50.3047 44.084C49.9327 44.084 49.6127 44.022 49.3447 43.898C49.0807 43.77 48.8467 43.594 48.6427 43.37V46.058H47.5687V37.922H48.2107C48.3627 37.922 48.4567 37.996 48.4927 38.144L48.5887 38.864ZM58.3632 40.298C58.3632 40.05 58.3272 39.824 58.2552 39.62C58.1872 39.412 58.0852 39.234 57.9492 39.086C57.8172 38.934 57.6552 38.818 57.4632 38.738C57.2712 38.654 57.0532 38.612 56.8092 38.612C56.2972 38.612 55.8912 38.762 55.5912 39.062C55.2952 39.358 55.1112 39.77 55.0392 40.298H58.3632ZM59.2272 43.148C59.0952 43.308 58.9372 43.448 58.7532 43.568C58.5692 43.684 58.3712 43.78 58.1592 43.856C57.9512 43.932 57.7352 43.988 57.5112 44.024C57.2872 44.064 57.0652 44.084 56.8452 44.084C56.4252 44.084 56.0372 44.014 55.6812 43.874C55.3292 43.73 55.0232 43.522 54.7632 43.25C54.5072 42.974 54.3072 42.634 54.1632 42.23C54.0192 41.826 53.9472 41.362 53.9472 40.838C53.9472 40.414 54.0112 40.018 54.1392 39.65C54.2712 39.282 54.4592 38.964 54.7032 38.696C54.9472 38.424 55.2452 38.212 55.5972 38.06C55.9492 37.904 56.3452 37.826 56.7852 37.826C57.1492 37.826 57.4852 37.888 57.7932 38.012C58.1052 38.132 58.3732 38.308 58.5972 38.54C58.8252 38.768 59.0032 39.052 59.1312 39.392C59.2592 39.728 59.3232 40.112 59.3232 40.544C59.3232 40.712 59.3052 40.824 59.2692 40.88C59.2332 40.936 59.1652 40.964 59.0652 40.964H55.0032C55.0152 41.348 55.0672 41.682 55.1592 41.966C55.2552 42.25 55.3872 42.488 55.5552 42.68C55.7232 42.868 55.9232 43.01 56.1552 43.106C56.3872 43.198 56.6472 43.244 56.9352 43.244C57.2032 43.244 57.4332 43.214 57.6252 43.154C57.8212 43.09 57.9892 43.022 58.1292 42.95C58.2692 42.878 58.3852 42.812 58.4772 42.752C58.5732 42.688 58.6552 42.656 58.7232 42.656C58.8112 42.656 58.8792 42.69 58.9272 42.758L59.2272 43.148ZM61.6491 39.14C61.8411 38.724 62.0771 38.4 62.3571 38.168C62.6371 37.932 62.9791 37.814 63.3831 37.814C63.5111 37.814 63.6331 37.828 63.7491 37.856C63.8691 37.884 63.9751 37.928 64.0671 37.988L63.9891 38.786C63.9651 38.886 63.9051 38.936 63.8091 38.936C63.7531 38.936 63.6711 38.924 63.5631 38.9C63.4551 38.876 63.3331 38.864 63.1971 38.864C63.0051 38.864 62.8331 38.892 62.6811 38.948C62.5331 39.004 62.3991 39.088 62.2791 39.2C62.1631 39.308 62.0571 39.444 61.9611 39.608C61.8691 39.768 61.7851 39.952 61.7091 40.16V44H60.6351V37.922H61.2471C61.3631 37.922 61.4431 37.944 61.4871 37.988C61.5311 38.032 61.5611 38.108 61.5771 38.216L61.6491 39.14ZM67.8187 44V37.922H68.4607C68.6127 37.922 68.7067 37.996 68.7427 38.144L68.8207 38.768C69.0447 38.492 69.2967 38.266 69.5767 38.09C69.8567 37.914 70.1807 37.826 70.5487 37.826C70.9567 37.826 71.2867 37.94 71.5387 38.168C71.7947 38.396 71.9787 38.704 72.0907 39.092C72.1787 38.872 72.2907 38.682 72.4267 38.522C72.5667 38.362 72.7227 38.23 72.8947 38.126C73.0667 38.022 73.2487 37.946 73.4407 37.898C73.6367 37.85 73.8347 37.826 74.0347 37.826C74.3547 37.826 74.6387 37.878 74.8867 37.982C75.1387 38.082 75.3507 38.23 75.5227 38.426C75.6987 38.622 75.8327 38.864 75.9247 39.152C76.0167 39.436 76.0627 39.762 76.0627 40.13V44H74.9887V40.13C74.9887 39.654 74.8847 39.294 74.6767 39.05C74.4687 38.802 74.1687 38.678 73.7767 38.678C73.6007 38.678 73.4327 38.71 73.2727 38.774C73.1167 38.834 72.9787 38.924 72.8587 39.044C72.7387 39.164 72.6427 39.316 72.5707 39.5C72.5027 39.68 72.4687 39.89 72.4687 40.13V44H71.3947V40.13C71.3947 39.642 71.2967 39.278 71.1007 39.038C70.9047 38.798 70.6187 38.678 70.2427 38.678C69.9787 38.678 69.7347 38.75 69.5107 38.894C69.2867 39.034 69.0807 39.226 68.8927 39.47V44H67.8187ZM80.2478 37.826C80.6918 37.826 81.0918 37.9 81.4478 38.048C81.8038 38.196 82.1078 38.406 82.3598 38.678C82.6118 38.95 82.8038 39.28 82.9358 39.668C83.0718 40.052 83.1398 40.482 83.1398 40.958C83.1398 41.438 83.0718 41.87 82.9358 42.254C82.8038 42.638 82.6118 42.966 82.3598 43.238C82.1078 43.51 81.8038 43.72 81.4478 43.868C81.0918 44.012 80.6918 44.084 80.2478 44.084C79.7998 44.084 79.3958 44.012 79.0358 43.868C78.6798 43.72 78.3758 43.51 78.1238 43.238C77.8718 42.966 77.6778 42.638 77.5418 42.254C77.4098 41.87 77.3438 41.438 77.3438 40.958C77.3438 40.482 77.4098 40.052 77.5418 39.668C77.6778 39.28 77.8718 38.95 78.1238 38.678C78.3758 38.406 78.6798 38.196 79.0358 38.048C79.3958 37.9 79.7998 37.826 80.2478 37.826ZM80.2478 43.25C80.8478 43.25 81.2958 43.05 81.5918 42.65C81.8878 42.246 82.0358 41.684 82.0358 40.964C82.0358 40.24 81.8878 39.676 81.5918 39.272C81.2958 38.868 80.8478 38.666 80.2478 38.666C79.9438 38.666 79.6778 38.718 79.4498 38.822C79.2258 38.926 79.0378 39.076 78.8858 39.272C78.7378 39.468 78.6258 39.71 78.5498 39.998C78.4778 40.282 78.4418 40.604 78.4418 40.964C78.4418 41.684 78.5898 42.246 78.8858 42.65C79.1858 43.05 79.6398 43.25 80.2478 43.25ZM85.5024 38.804C85.6344 38.656 85.7744 38.522 85.9224 38.402C86.0704 38.282 86.2264 38.18 86.3904 38.096C86.5584 38.008 86.7344 37.942 86.9184 37.898C87.1064 37.85 87.3084 37.826 87.5244 37.826C87.8564 37.826 88.1484 37.882 88.4004 37.994C88.6564 38.102 88.8684 38.258 89.0364 38.462C89.2084 38.662 89.3384 38.904 89.4264 39.188C89.5144 39.472 89.5584 39.786 89.5584 40.13V44H88.4844V40.13C88.4844 39.67 88.3784 39.314 88.1664 39.062C87.9584 38.806 87.6404 38.678 87.2124 38.678C86.8964 38.678 86.6004 38.754 86.3244 38.906C86.0524 39.058 85.8004 39.264 85.5684 39.524V44H84.4944V37.922H85.1364C85.2884 37.922 85.3824 37.996 85.4184 38.144L85.5024 38.804ZM92.9698 44.096C92.4898 44.096 92.1198 43.962 91.8598 43.694C91.6038 43.426 91.4758 43.04 91.4758 42.536V38.816H90.7438C90.6798 38.816 90.6258 38.798 90.5818 38.762C90.5378 38.722 90.5158 38.662 90.5158 38.582V38.156L91.5118 38.03L91.7578 36.152C91.7698 36.092 91.7958 36.044 91.8358 36.008C91.8798 35.968 91.9358 35.948 92.0038 35.948H92.5438V38.042H94.3018V38.816H92.5438V42.464C92.5438 42.72 92.6058 42.91 92.7298 43.034C92.8538 43.158 93.0138 43.22 93.2098 43.22C93.3218 43.22 93.4178 43.206 93.4978 43.178C93.5818 43.146 93.6538 43.112 93.7138 43.076C93.7738 43.04 93.8238 43.008 93.8638 42.98C93.9078 42.948 93.9458 42.932 93.9778 42.932C94.0338 42.932 94.0838 42.966 94.1278 43.034L94.4398 43.544C94.2558 43.716 94.0338 43.852 93.7738 43.952C93.5138 44.048 93.2458 44.096 92.9698 44.096ZM96.4786 38.732C96.7386 38.456 97.0266 38.236 97.3426 38.072C97.6586 37.908 98.0226 37.826 98.4346 37.826C98.7666 37.826 99.0586 37.882 99.3106 37.994C99.5666 38.102 99.7786 38.258 99.9466 38.462C100.119 38.662 100.249 38.904 100.337 39.188C100.425 39.472 100.469 39.786 100.469 40.13V44H99.3946V40.13C99.3946 39.67 99.2886 39.314 99.0766 39.062C98.8686 38.806 98.5506 38.678 98.1226 38.678C97.8066 38.678 97.5106 38.754 97.2346 38.906C96.9626 39.058 96.7106 39.264 96.4786 39.524V44H95.4046V35.162H96.4786V38.732Z" fill="#1E212C"/>
</g>
<defs>
<clipPath id="clip0_147_733">
<rect width="102" height="48" fill="white"/>
</clipPath>
</defs>
</svg>
