<svg width="134" height="48" viewBox="0 0 134 48" fill="none" xmlns="http://www.w3.org/2000/svg">
<g clip-path="url(#clip0_147_400)">
<g clip-path="url(#clip1_147_400)">
<circle cx="20" cy="24" r="18" stroke="#5A87FC" stroke-width="4"/>
</g>
<g clip-path="url(#clip2_147_400)">
<path d="M61.81 20.7C62.0767 20.7 62.2867 20.7767 62.44 20.93C62.6 21.0767 62.68 21.2733 62.68 21.52V23H52.76V22.18C52.76 22.0133 52.7933 21.84 52.86 21.66C52.9333 21.4733 53.0467 21.3067 53.2 21.16L57.59 16.76C57.9567 16.3867 58.2833 16.03 58.57 15.69C58.8633 15.35 59.1067 15.0133 59.3 14.68C59.4933 14.3467 59.64 14.01 59.74 13.67C59.8467 13.3233 59.9 12.96 59.9 12.58C59.9 12.2333 59.85 11.93 59.75 11.67C59.65 11.4033 59.5067 11.18 59.32 11C59.14 10.82 58.92 10.6867 58.66 10.6C58.4067 10.5067 58.12 10.46 57.8 10.46C57.5067 10.46 57.2333 10.5033 56.98 10.59C56.7333 10.67 56.5133 10.7867 56.32 10.94C56.1267 11.0867 55.9633 11.26 55.83 11.46C55.6967 11.66 55.5967 11.88 55.53 12.12C55.4167 12.4267 55.27 12.63 55.09 12.73C54.91 12.83 54.65 12.8533 54.31 12.8L53.01 12.57C53.11 11.8767 53.3033 11.27 53.59 10.75C53.8767 10.2233 54.2333 9.78667 54.66 9.44C55.0933 9.08667 55.5867 8.82333 56.14 8.65C56.7 8.47 57.3 8.38 57.94 8.38C58.6067 8.38 59.2167 8.48 59.77 8.68C60.3233 8.87333 60.7967 9.15 61.19 9.51C61.5833 9.87 61.89 10.3033 62.11 10.81C62.33 11.3167 62.44 11.88 62.44 12.5C62.44 13.0333 62.36 13.5267 62.2 13.98C62.0467 14.4333 61.8367 14.8667 61.57 15.28C61.31 15.6933 61.0033 16.0933 60.65 16.48C60.2967 16.8667 59.9267 17.26 59.54 17.66L56.28 20.99C56.5933 20.8967 56.9033 20.8267 57.21 20.78C57.5233 20.7267 57.82 20.7 58.1 20.7H61.81ZM74.7016 15.77C74.7016 17.03 74.5649 18.1267 74.2916 19.06C74.0249 19.9867 73.6516 20.7533 73.1716 21.36C72.6982 21.9667 72.1349 22.42 71.4816 22.72C70.8349 23.0133 70.1349 23.16 69.3816 23.16C68.6282 23.16 67.9282 23.0133 67.2816 22.72C66.6416 22.42 66.0849 21.9667 65.6116 21.36C65.1382 20.7533 64.7682 19.9867 64.5016 19.06C64.2349 18.1267 64.1016 17.03 64.1016 15.77C64.1016 14.5033 64.2349 13.4067 64.5016 12.48C64.7682 11.5533 65.1382 10.7867 65.6116 10.18C66.0849 9.57333 66.6416 9.12333 67.2816 8.83C67.9282 8.53 68.6282 8.38 69.3816 8.38C70.1349 8.38 70.8349 8.53 71.4816 8.83C72.1349 9.12333 72.6982 9.57333 73.1716 10.18C73.6516 10.7867 74.0249 11.5533 74.2916 12.48C74.5649 13.4067 74.7016 14.5033 74.7016 15.77ZM72.1516 15.77C72.1516 14.7233 72.0749 13.8567 71.9216 13.17C71.7682 12.4833 71.5616 11.9367 71.3016 11.53C71.0482 11.1233 70.7549 10.84 70.4216 10.68C70.0882 10.5133 69.7416 10.43 69.3816 10.43C69.0282 10.43 68.6849 10.5133 68.3516 10.68C68.0249 10.84 67.7349 11.1233 67.4816 11.53C67.2282 11.9367 67.0249 12.4833 66.8716 13.17C66.7249 13.8567 66.6516 14.7233 66.6516 15.77C66.6516 16.8167 66.7249 17.6833 66.8716 18.37C67.0249 19.0567 67.2282 19.6033 67.4816 20.01C67.7349 20.4167 68.0249 20.7033 68.3516 20.87C68.6849 21.03 69.0282 21.11 69.3816 21.11C69.7416 21.11 70.0882 21.03 70.4216 20.87C70.7549 20.7033 71.0482 20.4167 71.3016 20.01C71.5616 19.6033 71.7682 19.0567 71.9216 18.37C72.0749 17.6833 72.1516 16.8167 72.1516 15.77ZM86.3031 15.77C86.3031 17.03 86.1665 18.1267 85.8931 19.06C85.6265 19.9867 85.2531 20.7533 84.7731 21.36C84.2998 21.9667 83.7365 22.42 83.0831 22.72C82.4365 23.0133 81.7365 23.16 80.9831 23.16C80.2298 23.16 79.5298 23.0133 78.8831 22.72C78.2431 22.42 77.6865 21.9667 77.2131 21.36C76.7398 20.7533 76.3698 19.9867 76.1031 19.06C75.8365 18.1267 75.7031 17.03 75.7031 15.77C75.7031 14.5033 75.8365 13.4067 76.1031 12.48C76.3698 11.5533 76.7398 10.7867 77.2131 10.18C77.6865 9.57333 78.2431 9.12333 78.8831 8.83C79.5298 8.53 80.2298 8.38 80.9831 8.38C81.7365 8.38 82.4365 8.53 83.0831 8.83C83.7365 9.12333 84.2998 9.57333 84.7731 10.18C85.2531 10.7867 85.6265 11.5533 85.8931 12.48C86.1665 13.4067 86.3031 14.5033 86.3031 15.77ZM83.7531 15.77C83.7531 14.7233 83.6765 13.8567 83.5231 13.17C83.3698 12.4833 83.1631 11.9367 82.9031 11.53C82.6498 11.1233 82.3565 10.84 82.0231 10.68C81.6898 10.5133 81.3431 10.43 80.9831 10.43C80.6298 10.43 80.2865 10.5133 79.9531 10.68C79.6265 10.84 79.3365 11.1233 79.0831 11.53C78.8298 11.9367 78.6265 12.4833 78.4731 13.17C78.3265 13.8567 78.2531 14.7233 78.2531 15.77C78.2531 16.8167 78.3265 17.6833 78.4731 18.37C78.6265 19.0567 78.8298 19.6033 79.0831 20.01C79.3365 20.4167 79.6265 20.7033 79.9531 20.87C80.2865 21.03 80.6298 21.11 80.9831 21.11C81.3431 21.11 81.6898 21.03 82.0231 20.87C82.3565 20.7033 82.6498 20.4167 82.9031 20.01C83.1631 19.6033 83.3698 19.0567 83.5231 18.37C83.6765 17.6833 83.7531 16.8167 83.7531 15.77ZM94.2547 12.04C94.2547 12.5867 94.1614 13.08 93.9747 13.52C93.7947 13.96 93.5514 14.3367 93.2447 14.65C92.938 14.9567 92.5814 15.1933 92.1747 15.36C91.768 15.5267 91.3447 15.61 90.9047 15.61C90.4247 15.61 89.9814 15.5267 89.5747 15.36C89.168 15.1933 88.8147 14.9567 88.5147 14.65C88.2214 14.3367 87.9914 13.96 87.8247 13.52C87.658 13.08 87.5747 12.5867 87.5747 12.04C87.5747 11.48 87.658 10.9733 87.8247 10.52C87.9914 10.0667 88.2214 9.68333 88.5147 9.37C88.8147 9.05667 89.168 8.81667 89.5747 8.65C89.9814 8.47667 90.4247 8.39 90.9047 8.39C91.3847 8.39 91.828 8.47667 92.2347 8.65C92.648 8.81667 93.0047 9.05667 93.3047 9.37C93.6047 9.68333 93.838 10.0667 94.0047 10.52C94.1714 10.9733 94.2547 11.48 94.2547 12.04ZM92.3547 12.04C92.3547 11.6533 92.3147 11.33 92.2347 11.07C92.1614 10.81 92.058 10.6 91.9247 10.44C91.798 10.28 91.6447 10.1667 91.4647 10.1C91.2914 10.0267 91.1047 9.99 90.9047 9.99C90.7047 9.99 90.518 10.0267 90.3447 10.1C90.1714 10.1667 90.0214 10.28 89.8947 10.44C89.7747 10.6 89.678 10.81 89.6047 11.07C89.5314 11.33 89.4947 11.6533 89.4947 12.04C89.4947 12.4133 89.5314 12.7267 89.6047 12.98C89.678 13.2267 89.7747 13.4267 89.8947 13.58C90.0214 13.7333 90.1714 13.8433 90.3447 13.91C90.518 13.9767 90.7047 14.01 90.9047 14.01C91.1047 14.01 91.2914 13.9767 91.4647 13.91C91.6447 13.8433 91.798 13.7333 91.9247 13.58C92.058 13.4267 92.1614 13.2267 92.2347 12.98C92.3147 12.7267 92.3547 12.4133 92.3547 12.04ZM99.0647 8.93C99.1514 8.83 99.2514 8.74 99.3647 8.66C99.4847 8.58 99.6514 8.54 99.8647 8.54H101.665L90.9247 22.63C90.838 22.7367 90.7347 22.8267 90.6147 22.9C90.4947 22.9667 90.348 23 90.1747 23H88.3347L99.0647 8.93ZM102.425 19.6C102.425 20.1467 102.331 20.64 102.145 21.08C101.965 21.52 101.721 21.8967 101.415 22.21C101.108 22.5167 100.751 22.7567 100.345 22.93C99.938 23.0967 99.5147 23.18 99.0747 23.18C98.5947 23.18 98.1514 23.0967 97.7447 22.93C97.338 22.7567 96.9847 22.5167 96.6847 22.21C96.3914 21.8967 96.1614 21.52 95.9947 21.08C95.828 20.64 95.7447 20.1467 95.7447 19.6C95.7447 19.04 95.828 18.5333 95.9947 18.08C96.1614 17.6267 96.3914 17.2433 96.6847 16.93C96.9847 16.6167 97.338 16.3767 97.7447 16.21C98.1514 16.0367 98.5947 15.95 99.0747 15.95C99.5547 15.95 99.998 16.0367 100.405 16.21C100.818 16.3767 101.171 16.6167 101.465 16.93C101.765 17.2433 101.998 17.6267 102.165 18.08C102.338 18.5333 102.425 19.04 102.425 19.6ZM100.515 19.6C100.515 19.2133 100.478 18.89 100.405 18.63C100.331 18.37 100.228 18.16 100.095 18C99.968 17.84 99.8147 17.7267 99.6347 17.66C99.4614 17.5867 99.2747 17.55 99.0747 17.55C98.8747 17.55 98.688 17.5867 98.5147 17.66C98.3414 17.7267 98.1914 17.84 98.0647 18C97.938 18.16 97.838 18.37 97.7647 18.63C97.698 18.89 97.6647 19.2133 97.6647 19.6C97.6647 19.9733 97.698 20.2867 97.7647 20.54C97.838 20.7933 97.938 20.9967 98.0647 21.15C98.1914 21.3033 98.3414 21.4133 98.5147 21.48C98.688 21.5467 98.8747 21.58 99.0747 21.58C99.2747 21.58 99.4614 21.5467 99.6347 21.48C99.8147 21.4133 99.968 21.3033 100.095 21.15C100.228 20.9967 100.331 20.7933 100.405 20.54C100.478 20.2867 100.515 19.9733 100.515 19.6Z" fill="#1E212C"/>
<path d="M60.082 39.866V43.166C59.65 43.478 59.188 43.712 58.696 43.868C58.208 44.02 57.672 44.096 57.088 44.096C56.396 44.096 55.772 43.99 55.216 43.778C54.66 43.562 54.184 43.262 53.788 42.878C53.396 42.49 53.094 42.026 52.882 41.486C52.67 40.946 52.564 40.352 52.564 39.704C52.564 39.048 52.666 38.45 52.87 37.91C53.078 37.37 53.372 36.908 53.752 36.524C54.132 36.136 54.594 35.836 55.138 35.624C55.682 35.412 56.29 35.306 56.962 35.306C57.302 35.306 57.618 35.332 57.91 35.384C58.202 35.432 58.472 35.504 58.72 35.6C58.968 35.692 59.198 35.806 59.41 35.942C59.622 36.074 59.82 36.224 60.004 36.392L59.674 36.92C59.622 37 59.554 37.052 59.47 37.076C59.39 37.096 59.3 37.076 59.2 37.016C59.104 36.96 58.994 36.892 58.87 36.812C58.746 36.732 58.594 36.656 58.414 36.584C58.238 36.508 58.028 36.444 57.784 36.392C57.544 36.34 57.258 36.314 56.926 36.314C56.442 36.314 56.004 36.394 55.612 36.554C55.22 36.71 54.886 36.936 54.61 37.232C54.334 37.524 54.122 37.88 53.974 38.3C53.826 38.716 53.752 39.184 53.752 39.704C53.752 40.244 53.828 40.728 53.98 41.156C54.136 41.58 54.356 41.942 54.64 42.242C54.928 42.538 55.276 42.764 55.684 42.92C56.092 43.076 56.55 43.154 57.058 43.154C57.458 43.154 57.812 43.11 58.12 43.022C58.432 42.93 58.736 42.804 59.032 42.644V40.754H57.694C57.618 40.754 57.556 40.732 57.508 40.688C57.464 40.644 57.442 40.59 57.442 40.526V39.866H60.082ZM62.5319 39.14C62.7239 38.724 62.9599 38.4 63.2399 38.168C63.5199 37.932 63.8619 37.814 64.2659 37.814C64.3939 37.814 64.5159 37.828 64.6319 37.856C64.7519 37.884 64.8579 37.928 64.9499 37.988L64.8719 38.786C64.8479 38.886 64.7879 38.936 64.6919 38.936C64.6359 38.936 64.5539 38.924 64.4459 38.9C64.3379 38.876 64.2159 38.864 64.0799 38.864C63.8879 38.864 63.7159 38.892 63.5639 38.948C63.4159 39.004 63.2819 39.088 63.1619 39.2C63.0459 39.308 62.9399 39.444 62.8439 39.608C62.7519 39.768 62.6679 39.952 62.5919 40.16V44H61.5179V37.922H62.1299C62.2459 37.922 62.3259 37.944 62.3699 37.988C62.4139 38.032 62.4439 38.108 62.4599 38.216L62.5319 39.14ZM68.2049 37.826C68.6489 37.826 69.0489 37.9 69.4049 38.048C69.7609 38.196 70.0649 38.406 70.3169 38.678C70.5689 38.95 70.7609 39.28 70.8929 39.668C71.0289 40.052 71.0969 40.482 71.0969 40.958C71.0969 41.438 71.0289 41.87 70.8929 42.254C70.7609 42.638 70.5689 42.966 70.3169 43.238C70.0649 43.51 69.7609 43.72 69.4049 43.868C69.0489 44.012 68.6489 44.084 68.2049 44.084C67.7569 44.084 67.3529 44.012 66.9929 43.868C66.6369 43.72 66.3329 43.51 66.0809 43.238C65.8289 42.966 65.6349 42.638 65.4989 42.254C65.3669 41.87 65.3009 41.438 65.3009 40.958C65.3009 40.482 65.3669 40.052 65.4989 39.668C65.6349 39.28 65.8289 38.95 66.0809 38.678C66.3329 38.406 66.6369 38.196 66.9929 38.048C67.3529 37.9 67.7569 37.826 68.2049 37.826ZM68.2049 43.25C68.8049 43.25 69.2529 43.05 69.5489 42.65C69.8449 42.246 69.9929 41.684 69.9929 40.964C69.9929 40.24 69.8449 39.676 69.5489 39.272C69.2529 38.868 68.8049 38.666 68.2049 38.666C67.9009 38.666 67.6349 38.718 67.4069 38.822C67.1829 38.926 66.9949 39.076 66.8429 39.272C66.6949 39.468 66.5829 39.71 66.5069 39.998C66.4349 40.282 66.3989 40.604 66.3989 40.964C66.3989 41.684 66.5469 42.246 66.8429 42.65C67.1429 43.05 67.5969 43.25 68.2049 43.25ZM80.7397 37.922L78.7717 44H77.9257C77.8217 44 77.7497 43.932 77.7097 43.796L76.3657 39.674C76.3337 39.582 76.3077 39.49 76.2877 39.398C76.2677 39.302 76.2477 39.208 76.2277 39.116C76.2077 39.208 76.1877 39.302 76.1677 39.398C76.1477 39.49 76.1217 39.584 76.0897 39.68L74.7217 43.796C74.6857 43.932 74.6057 44 74.4817 44H73.6777L71.7097 37.922H72.5497C72.6337 37.922 72.7037 37.944 72.7597 37.988C72.8197 38.032 72.8597 38.084 72.8797 38.144L74.0437 42.056C74.1117 42.344 74.1657 42.616 74.2057 42.872C74.2417 42.74 74.2777 42.606 74.3137 42.47C74.3537 42.334 74.3957 42.196 74.4397 42.056L75.7237 38.12C75.7437 38.06 75.7777 38.01 75.8257 37.97C75.8777 37.93 75.9397 37.91 76.0117 37.91H76.4797C76.5597 37.91 76.6257 37.93 76.6777 37.97C76.7297 38.01 76.7657 38.06 76.7857 38.12L78.0397 42.056C78.0837 42.196 78.1237 42.334 78.1597 42.47C78.1957 42.606 78.2297 42.74 78.2617 42.872C78.2817 42.74 78.3057 42.608 78.3337 42.476C78.3657 42.34 78.3997 42.2 78.4357 42.056L79.6237 38.144C79.6437 38.08 79.6817 38.028 79.7377 37.988C79.7937 37.944 79.8597 37.922 79.9357 37.922H80.7397ZM83.6456 44.096C83.1656 44.096 82.7956 43.962 82.5356 43.694C82.2796 43.426 82.1516 43.04 82.1516 42.536V38.816H81.4196C81.3556 38.816 81.3016 38.798 81.2576 38.762C81.2136 38.722 81.1916 38.662 81.1916 38.582V38.156L82.1876 38.03L82.4336 36.152C82.4456 36.092 82.4716 36.044 82.5116 36.008C82.5556 35.968 82.6116 35.948 82.6796 35.948H83.2196V38.042H84.9776V38.816H83.2196V42.464C83.2196 42.72 83.2816 42.91 83.4056 43.034C83.5296 43.158 83.6896 43.22 83.8856 43.22C83.9976 43.22 84.0936 43.206 84.1736 43.178C84.2576 43.146 84.3296 43.112 84.3896 43.076C84.4496 43.04 84.4996 43.008 84.5396 42.98C84.5836 42.948 84.6216 42.932 84.6536 42.932C84.7096 42.932 84.7596 42.966 84.8036 43.034L85.1156 43.544C84.9316 43.716 84.7096 43.852 84.4496 43.952C84.1896 44.048 83.9216 44.096 83.6456 44.096ZM87.1544 38.732C87.4144 38.456 87.7024 38.236 88.0184 38.072C88.3344 37.908 88.6984 37.826 89.1104 37.826C89.4424 37.826 89.7344 37.882 89.9864 37.994C90.2424 38.102 90.4544 38.258 90.6224 38.462C90.7944 38.662 90.9244 38.904 91.0124 39.188C91.1004 39.472 91.1444 39.786 91.1444 40.13V44H90.0704V40.13C90.0704 39.67 89.9644 39.314 89.7524 39.062C89.5444 38.806 89.2264 38.678 88.7984 38.678C88.4824 38.678 88.1864 38.754 87.9104 38.906C87.6384 39.058 87.3864 39.264 87.1544 39.524V44H86.0804V35.162H87.1544V38.732ZM96.9701 37.922V44H95.9021V37.922H96.9701ZM97.1981 36.014C97.1981 36.118 97.1761 36.216 97.1321 36.308C97.0921 36.396 97.0361 36.476 96.9641 36.548C96.8961 36.616 96.8141 36.67 96.7181 36.71C96.6261 36.75 96.5281 36.77 96.4241 36.77C96.3201 36.77 96.2221 36.75 96.1301 36.71C96.0421 36.67 95.9641 36.616 95.8961 36.548C95.8281 36.476 95.7741 36.396 95.7341 36.308C95.6941 36.216 95.6741 36.118 95.6741 36.014C95.6741 35.91 95.6941 35.812 95.7341 35.72C95.7741 35.624 95.8281 35.542 95.8961 35.474C95.9641 35.402 96.0421 35.346 96.1301 35.306C96.2221 35.266 96.3201 35.246 96.4241 35.246C96.5281 35.246 96.6261 35.266 96.7181 35.306C96.8141 35.346 96.8961 35.402 96.9641 35.474C97.0361 35.542 97.0921 35.624 97.1321 35.72C97.1761 35.812 97.1981 35.91 97.1981 36.014ZM99.7329 38.804C99.8649 38.656 100.005 38.522 100.153 38.402C100.301 38.282 100.457 38.18 100.621 38.096C100.789 38.008 100.965 37.942 101.149 37.898C101.337 37.85 101.539 37.826 101.755 37.826C102.087 37.826 102.379 37.882 102.631 37.994C102.887 38.102 103.099 38.258 103.267 38.462C103.439 38.662 103.569 38.904 103.657 39.188C103.745 39.472 103.789 39.786 103.789 40.13V44H102.715V40.13C102.715 39.67 102.609 39.314 102.397 39.062C102.189 38.806 101.871 38.678 101.443 38.678C101.127 38.678 100.831 38.754 100.555 38.906C100.283 39.058 100.031 39.264 99.7989 39.524V44H98.7249V37.922H99.3669C99.5189 37.922 99.6129 37.996 99.6489 38.144L99.7329 38.804ZM112.027 38.924C111.979 39.012 111.905 39.056 111.805 39.056C111.745 39.056 111.677 39.034 111.601 38.99C111.525 38.946 111.431 38.898 111.319 38.846C111.211 38.79 111.081 38.74 110.929 38.696C110.777 38.648 110.597 38.624 110.389 38.624C110.209 38.624 110.047 38.648 109.903 38.696C109.759 38.74 109.635 38.802 109.531 38.882C109.431 38.962 109.353 39.056 109.297 39.164C109.245 39.268 109.219 39.382 109.219 39.506C109.219 39.662 109.263 39.792 109.351 39.896C109.443 40 109.563 40.09 109.711 40.166C109.859 40.242 110.027 40.31 110.215 40.37C110.403 40.426 110.595 40.488 110.791 40.556C110.991 40.62 111.185 40.692 111.373 40.772C111.561 40.852 111.729 40.952 111.877 41.072C112.025 41.192 112.143 41.34 112.231 41.516C112.323 41.688 112.369 41.896 112.369 42.14C112.369 42.42 112.319 42.68 112.219 42.92C112.119 43.156 111.971 43.362 111.775 43.538C111.579 43.71 111.339 43.846 111.055 43.946C110.771 44.046 110.443 44.096 110.071 44.096C109.647 44.096 109.263 44.028 108.919 43.892C108.575 43.752 108.283 43.574 108.043 43.358L108.295 42.95C108.327 42.898 108.365 42.858 108.409 42.83C108.453 42.802 108.509 42.788 108.577 42.788C108.649 42.788 108.725 42.816 108.805 42.872C108.885 42.928 108.981 42.99 109.093 43.058C109.209 43.126 109.349 43.188 109.513 43.244C109.677 43.3 109.881 43.328 110.125 43.328C110.333 43.328 110.515 43.302 110.671 43.25C110.827 43.194 110.957 43.12 111.061 43.028C111.165 42.936 111.241 42.83 111.289 42.71C111.341 42.59 111.367 42.462 111.367 42.326C111.367 42.158 111.321 42.02 111.229 41.912C111.141 41.8 111.023 41.706 110.875 41.63C110.727 41.55 110.557 41.482 110.365 41.426C110.177 41.366 109.983 41.304 109.783 41.24C109.587 41.176 109.393 41.104 109.201 41.024C109.013 40.94 108.845 40.836 108.697 40.712C108.549 40.588 108.429 40.436 108.337 40.256C108.249 40.072 108.205 39.85 108.205 39.59C108.205 39.358 108.253 39.136 108.349 38.924C108.445 38.708 108.585 38.52 108.769 38.36C108.953 38.196 109.179 38.066 109.447 37.97C109.715 37.874 110.021 37.826 110.365 37.826C110.765 37.826 111.123 37.89 111.439 38.018C111.759 38.142 112.035 38.314 112.267 38.534L112.027 38.924ZM116.972 41.264C116.48 41.28 116.06 41.32 115.712 41.384C115.368 41.444 115.086 41.524 114.866 41.624C114.65 41.724 114.492 41.842 114.392 41.978C114.296 42.114 114.248 42.266 114.248 42.434C114.248 42.594 114.274 42.732 114.326 42.848C114.378 42.964 114.448 43.06 114.536 43.136C114.628 43.208 114.734 43.262 114.854 43.298C114.978 43.33 115.11 43.346 115.25 43.346C115.438 43.346 115.61 43.328 115.766 43.292C115.922 43.252 116.068 43.196 116.204 43.124C116.344 43.052 116.476 42.966 116.6 42.866C116.728 42.766 116.852 42.652 116.972 42.524V41.264ZM113.522 38.78C113.858 38.456 114.22 38.214 114.608 38.054C114.996 37.894 115.426 37.814 115.898 37.814C116.238 37.814 116.54 37.87 116.804 37.982C117.068 38.094 117.29 38.25 117.47 38.45C117.65 38.65 117.786 38.892 117.878 39.176C117.97 39.46 118.016 39.772 118.016 40.112V44H117.542C117.438 44 117.358 43.984 117.302 43.952C117.246 43.916 117.202 43.848 117.17 43.748L117.05 43.172C116.89 43.32 116.734 43.452 116.582 43.568C116.43 43.68 116.27 43.776 116.102 43.856C115.934 43.932 115.754 43.99 115.562 44.03C115.374 44.074 115.164 44.096 114.932 44.096C114.696 44.096 114.474 44.064 114.266 44C114.058 43.932 113.876 43.832 113.72 43.7C113.568 43.568 113.446 43.402 113.354 43.202C113.266 42.998 113.222 42.758 113.222 42.482C113.222 42.242 113.288 42.012 113.42 41.792C113.552 41.568 113.766 41.37 114.062 41.198C114.358 41.026 114.744 40.886 115.22 40.778C115.696 40.666 116.28 40.602 116.972 40.586V40.112C116.972 39.64 116.87 39.284 116.666 39.044C116.462 38.8 116.164 38.678 115.772 38.678C115.508 38.678 115.286 38.712 115.106 38.78C114.93 38.844 114.776 38.918 114.644 39.002C114.516 39.082 114.404 39.156 114.308 39.224C114.216 39.288 114.124 39.32 114.032 39.32C113.96 39.32 113.898 39.302 113.846 39.266C113.794 39.226 113.75 39.178 113.714 39.122L113.522 38.78ZM120.747 35.162V44H119.679V35.162H120.747ZM126.547 40.298C126.547 40.05 126.511 39.824 126.439 39.62C126.371 39.412 126.269 39.234 126.133 39.086C126.001 38.934 125.839 38.818 125.647 38.738C125.455 38.654 125.237 38.612 124.993 38.612C124.481 38.612 124.075 38.762 123.775 39.062C123.479 39.358 123.295 39.77 123.223 40.298H126.547ZM127.411 43.148C127.279 43.308 127.121 43.448 126.937 43.568C126.753 43.684 126.555 43.78 126.343 43.856C126.135 43.932 125.919 43.988 125.695 44.024C125.471 44.064 125.249 44.084 125.029 44.084C124.609 44.084 124.221 44.014 123.865 43.874C123.513 43.73 123.207 43.522 122.947 43.25C122.691 42.974 122.491 42.634 122.347 42.23C122.203 41.826 122.131 41.362 122.131 40.838C122.131 40.414 122.195 40.018 122.323 39.65C122.455 39.282 122.643 38.964 122.887 38.696C123.131 38.424 123.429 38.212 123.781 38.06C124.133 37.904 124.529 37.826 124.969 37.826C125.333 37.826 125.669 37.888 125.977 38.012C126.289 38.132 126.557 38.308 126.781 38.54C127.009 38.768 127.187 39.052 127.315 39.392C127.443 39.728 127.507 40.112 127.507 40.544C127.507 40.712 127.489 40.824 127.453 40.88C127.417 40.936 127.349 40.964 127.249 40.964H123.187C123.199 41.348 123.251 41.682 123.343 41.966C123.439 42.25 123.571 42.488 123.739 42.68C123.907 42.868 124.107 43.01 124.339 43.106C124.571 43.198 124.831 43.244 125.119 43.244C125.387 43.244 125.617 43.214 125.809 43.154C126.005 43.09 126.173 43.022 126.313 42.95C126.453 42.878 126.569 42.812 126.661 42.752C126.757 42.688 126.839 42.656 126.907 42.656C126.995 42.656 127.063 42.69 127.111 42.758L127.411 43.148ZM132.359 38.924C132.311 39.012 132.237 39.056 132.137 39.056C132.077 39.056 132.009 39.034 131.933 38.99C131.857 38.946 131.763 38.898 131.651 38.846C131.543 38.79 131.413 38.74 131.261 38.696C131.109 38.648 130.929 38.624 130.721 38.624C130.541 38.624 130.379 38.648 130.235 38.696C130.091 38.74 129.967 38.802 129.863 38.882C129.763 38.962 129.685 39.056 129.629 39.164C129.577 39.268 129.551 39.382 129.551 39.506C129.551 39.662 129.595 39.792 129.683 39.896C129.775 40 129.895 40.09 130.043 40.166C130.191 40.242 130.359 40.31 130.547 40.37C130.735 40.426 130.927 40.488 131.123 40.556C131.323 40.62 131.517 40.692 131.705 40.772C131.893 40.852 132.061 40.952 132.209 41.072C132.357 41.192 132.475 41.34 132.563 41.516C132.655 41.688 132.701 41.896 132.701 42.14C132.701 42.42 132.651 42.68 132.551 42.92C132.451 43.156 132.303 43.362 132.107 43.538C131.911 43.71 131.671 43.846 131.387 43.946C131.103 44.046 130.775 44.096 130.403 44.096C129.979 44.096 129.595 44.028 129.251 43.892C128.907 43.752 128.615 43.574 128.375 43.358L128.627 42.95C128.659 42.898 128.697 42.858 128.741 42.83C128.785 42.802 128.841 42.788 128.909 42.788C128.981 42.788 129.057 42.816 129.137 42.872C129.217 42.928 129.313 42.99 129.425 43.058C129.541 43.126 129.681 43.188 129.845 43.244C130.009 43.3 130.213 43.328 130.457 43.328C130.665 43.328 130.847 43.302 131.003 43.25C131.159 43.194 131.289 43.12 131.393 43.028C131.497 42.936 131.573 42.83 131.621 42.71C131.673 42.59 131.699 42.462 131.699 42.326C131.699 42.158 131.653 42.02 131.561 41.912C131.473 41.8 131.355 41.706 131.207 41.63C131.059 41.55 130.889 41.482 130.697 41.426C130.509 41.366 130.315 41.304 130.115 41.24C129.919 41.176 129.725 41.104 129.533 41.024C129.345 40.94 129.177 40.836 129.029 40.712C128.881 40.588 128.761 40.436 128.669 40.256C128.581 40.072 128.537 39.85 128.537 39.59C128.537 39.358 128.585 39.136 128.681 38.924C128.777 38.708 128.917 38.52 129.101 38.36C129.285 38.196 129.511 38.066 129.779 37.97C130.047 37.874 130.353 37.826 130.697 37.826C131.097 37.826 131.455 37.89 131.771 38.018C132.091 38.142 132.367 38.314 132.599 38.534L132.359 38.924Z" fill="#1E212C"/>
</g>
</g>
<defs>
<clipPath id="clip0_147_400">
<rect width="134" height="48" fill="white"/>
</clipPath>
<clipPath id="clip1_147_400">
<rect width="40" height="40" fill="white" transform="translate(0 4)"/>
</clipPath>
<clipPath id="clip2_147_400">
<rect width="82" height="48" fill="white" transform="translate(52)"/>
</clipPath>
</defs>
</svg>
