<svg width="122" height="48" viewBox="0 0 122 48" fill="none" xmlns="http://www.w3.org/2000/svg">
<g clip-path="url(#clip0_147_812)">
<g clip-path="url(#clip1_147_812)">
<circle cx="20" cy="24" r="18" stroke="#03CEA4" stroke-width="4"/>
</g>
<g clip-path="url(#clip2_147_812)">
<path d="M62.35 21.15V23H54.35V21.15H57.28V12.72C57.28 12.3867 57.29 12.0433 57.31 11.69L55.23 13.43C55.11 13.5233 54.99 13.5833 54.87 13.61C54.7567 13.63 54.6467 13.63 54.54 13.61C54.44 13.59 54.35 13.5567 54.27 13.51C54.19 13.4567 54.13 13.4 54.09 13.34L53.31 12.27L57.72 8.52H59.75V21.15H62.35ZM74.7016 15.77C74.7016 17.03 74.5649 18.1267 74.2916 19.06C74.0249 19.9867 73.6516 20.7533 73.1716 21.36C72.6982 21.9667 72.1349 22.42 71.4816 22.72C70.8349 23.0133 70.1349 23.16 69.3816 23.16C68.6282 23.16 67.9282 23.0133 67.2816 22.72C66.6416 22.42 66.0849 21.9667 65.6116 21.36C65.1382 20.7533 64.7682 19.9867 64.5016 19.06C64.2349 18.1267 64.1016 17.03 64.1016 15.77C64.1016 14.5033 64.2349 13.4067 64.5016 12.48C64.7682 11.5533 65.1382 10.7867 65.6116 10.18C66.0849 9.57333 66.6416 9.12333 67.2816 8.83C67.9282 8.53 68.6282 8.38 69.3816 8.38C70.1349 8.38 70.8349 8.53 71.4816 8.83C72.1349 9.12333 72.6982 9.57333 73.1716 10.18C73.6516 10.7867 74.0249 11.5533 74.2916 12.48C74.5649 13.4067 74.7016 14.5033 74.7016 15.77ZM72.1516 15.77C72.1516 14.7233 72.0749 13.8567 71.9216 13.17C71.7682 12.4833 71.5616 11.9367 71.3016 11.53C71.0482 11.1233 70.7549 10.84 70.4216 10.68C70.0882 10.5133 69.7416 10.43 69.3816 10.43C69.0282 10.43 68.6849 10.5133 68.3516 10.68C68.0249 10.84 67.7349 11.1233 67.4816 11.53C67.2282 11.9367 67.0249 12.4833 66.8716 13.17C66.7249 13.8567 66.6516 14.7233 66.6516 15.77C66.6516 16.8167 66.7249 17.6833 66.8716 18.37C67.0249 19.0567 67.2282 19.6033 67.4816 20.01C67.7349 20.4167 68.0249 20.7033 68.3516 20.87C68.6849 21.03 69.0282 21.11 69.3816 21.11C69.7416 21.11 70.0882 21.03 70.4216 20.87C70.7549 20.7033 71.0482 20.4167 71.3016 20.01C71.5616 19.6033 71.7682 19.0567 71.9216 18.37C72.0749 17.6833 72.1516 16.8167 72.1516 15.77ZM86.3031 15.77C86.3031 17.03 86.1665 18.1267 85.8931 19.06C85.6265 19.9867 85.2531 20.7533 84.7731 21.36C84.2998 21.9667 83.7365 22.42 83.0831 22.72C82.4365 23.0133 81.7365 23.16 80.9831 23.16C80.2298 23.16 79.5298 23.0133 78.8831 22.72C78.2431 22.42 77.6865 21.9667 77.2131 21.36C76.7398 20.7533 76.3698 19.9867 76.1031 19.06C75.8365 18.1267 75.7031 17.03 75.7031 15.77C75.7031 14.5033 75.8365 13.4067 76.1031 12.48C76.3698 11.5533 76.7398 10.7867 77.2131 10.18C77.6865 9.57333 78.2431 9.12333 78.8831 8.83C79.5298 8.53 80.2298 8.38 80.9831 8.38C81.7365 8.38 82.4365 8.53 83.0831 8.83C83.7365 9.12333 84.2998 9.57333 84.7731 10.18C85.2531 10.7867 85.6265 11.5533 85.8931 12.48C86.1665 13.4067 86.3031 14.5033 86.3031 15.77ZM83.7531 15.77C83.7531 14.7233 83.6765 13.8567 83.5231 13.17C83.3698 12.4833 83.1631 11.9367 82.9031 11.53C82.6498 11.1233 82.3565 10.84 82.0231 10.68C81.6898 10.5133 81.3431 10.43 80.9831 10.43C80.6298 10.43 80.2865 10.5133 79.9531 10.68C79.6265 10.84 79.3365 11.1233 79.0831 11.53C78.8298 11.9367 78.6265 12.4833 78.4731 13.17C78.3265 13.8567 78.2531 14.7233 78.2531 15.77C78.2531 16.8167 78.3265 17.6833 78.4731 18.37C78.6265 19.0567 78.8298 19.6033 79.0831 20.01C79.3365 20.4167 79.6265 20.7033 79.9531 20.87C80.2865 21.03 80.6298 21.11 80.9831 21.11C81.3431 21.11 81.6898 21.03 82.0231 20.87C82.3565 20.7033 82.6498 20.4167 82.9031 20.01C83.1631 19.6033 83.3698 19.0567 83.5231 18.37C83.6765 17.6833 83.7531 16.8167 83.7531 15.77ZM94.2547 12.04C94.2547 12.5867 94.1614 13.08 93.9747 13.52C93.7947 13.96 93.5514 14.3367 93.2447 14.65C92.938 14.9567 92.5814 15.1933 92.1747 15.36C91.768 15.5267 91.3447 15.61 90.9047 15.61C90.4247 15.61 89.9814 15.5267 89.5747 15.36C89.168 15.1933 88.8147 14.9567 88.5147 14.65C88.2214 14.3367 87.9914 13.96 87.8247 13.52C87.658 13.08 87.5747 12.5867 87.5747 12.04C87.5747 11.48 87.658 10.9733 87.8247 10.52C87.9914 10.0667 88.2214 9.68333 88.5147 9.37C88.8147 9.05667 89.168 8.81667 89.5747 8.65C89.9814 8.47667 90.4247 8.39 90.9047 8.39C91.3847 8.39 91.828 8.47667 92.2347 8.65C92.648 8.81667 93.0047 9.05667 93.3047 9.37C93.6047 9.68333 93.838 10.0667 94.0047 10.52C94.1714 10.9733 94.2547 11.48 94.2547 12.04ZM92.3547 12.04C92.3547 11.6533 92.3147 11.33 92.2347 11.07C92.1614 10.81 92.058 10.6 91.9247 10.44C91.798 10.28 91.6447 10.1667 91.4647 10.1C91.2914 10.0267 91.1047 9.99 90.9047 9.99C90.7047 9.99 90.518 10.0267 90.3447 10.1C90.1714 10.1667 90.0214 10.28 89.8947 10.44C89.7747 10.6 89.678 10.81 89.6047 11.07C89.5314 11.33 89.4947 11.6533 89.4947 12.04C89.4947 12.4133 89.5314 12.7267 89.6047 12.98C89.678 13.2267 89.7747 13.4267 89.8947 13.58C90.0214 13.7333 90.1714 13.8433 90.3447 13.91C90.518 13.9767 90.7047 14.01 90.9047 14.01C91.1047 14.01 91.2914 13.9767 91.4647 13.91C91.6447 13.8433 91.798 13.7333 91.9247 13.58C92.058 13.4267 92.1614 13.2267 92.2347 12.98C92.3147 12.7267 92.3547 12.4133 92.3547 12.04ZM99.0647 8.93C99.1514 8.83 99.2514 8.74 99.3647 8.66C99.4847 8.58 99.6514 8.54 99.8647 8.54H101.665L90.9247 22.63C90.838 22.7367 90.7347 22.8267 90.6147 22.9C90.4947 22.9667 90.348 23 90.1747 23H88.3347L99.0647 8.93ZM102.425 19.6C102.425 20.1467 102.331 20.64 102.145 21.08C101.965 21.52 101.721 21.8967 101.415 22.21C101.108 22.5167 100.751 22.7567 100.345 22.93C99.938 23.0967 99.5147 23.18 99.0747 23.18C98.5947 23.18 98.1514 23.0967 97.7447 22.93C97.338 22.7567 96.9847 22.5167 96.6847 22.21C96.3914 21.8967 96.1614 21.52 95.9947 21.08C95.828 20.64 95.7447 20.1467 95.7447 19.6C95.7447 19.04 95.828 18.5333 95.9947 18.08C96.1614 17.6267 96.3914 17.2433 96.6847 16.93C96.9847 16.6167 97.338 16.3767 97.7447 16.21C98.1514 16.0367 98.5947 15.95 99.0747 15.95C99.5547 15.95 99.998 16.0367 100.405 16.21C100.818 16.3767 101.171 16.6167 101.465 16.93C101.765 17.2433 101.998 17.6267 102.165 18.08C102.338 18.5333 102.425 19.04 102.425 19.6ZM100.515 19.6C100.515 19.2133 100.478 18.89 100.405 18.63C100.331 18.37 100.228 18.16 100.095 18C99.968 17.84 99.8147 17.7267 99.6347 17.66C99.4614 17.5867 99.2747 17.55 99.0747 17.55C98.8747 17.55 98.688 17.5867 98.5147 17.66C98.3414 17.7267 98.1914 17.84 98.0647 18C97.938 18.16 97.838 18.37 97.7647 18.63C97.698 18.89 97.6647 19.2133 97.6647 19.6C97.6647 19.9733 97.698 20.2867 97.7647 20.54C97.838 20.7933 97.938 20.9967 98.0647 21.15C98.1914 21.3033 98.3414 21.4133 98.5147 21.48C98.688 21.5467 98.8747 21.58 99.0747 21.58C99.2747 21.58 99.4614 21.5467 99.6347 21.48C99.8147 21.4133 99.968 21.3033 100.095 21.15C100.228 20.9967 100.331 20.7933 100.405 20.54C100.478 20.2867 100.515 19.9733 100.515 19.6Z" fill="#1E212C"/>
<path d="M60.55 39.704C60.55 40.348 60.448 40.934 60.244 41.462C60.04 41.99 59.752 42.442 59.38 42.818C59.008 43.194 58.56 43.486 58.036 43.694C57.516 43.898 56.94 44 56.308 44H53.098V35.402H56.308C56.94 35.402 57.516 35.506 58.036 35.714C58.56 35.918 59.008 36.21 59.38 36.59C59.752 36.966 60.04 37.418 60.244 37.946C60.448 38.474 60.55 39.06 60.55 39.704ZM59.356 39.704C59.356 39.176 59.284 38.704 59.14 38.288C58.996 37.872 58.792 37.52 58.528 37.232C58.264 36.944 57.944 36.724 57.568 36.572C57.192 36.42 56.772 36.344 56.308 36.344H54.262V43.058H56.308C56.772 43.058 57.192 42.982 57.568 42.83C57.944 42.678 58.264 42.46 58.528 42.176C58.792 41.888 58.996 41.536 59.14 41.12C59.284 40.704 59.356 40.232 59.356 39.704ZM65.9609 40.298C65.9609 40.05 65.9249 39.824 65.8529 39.62C65.7849 39.412 65.6829 39.234 65.5469 39.086C65.4149 38.934 65.2529 38.818 65.0609 38.738C64.8689 38.654 64.6509 38.612 64.4069 38.612C63.8949 38.612 63.4889 38.762 63.1889 39.062C62.8929 39.358 62.7089 39.77 62.6369 40.298H65.9609ZM66.8249 43.148C66.6929 43.308 66.5349 43.448 66.3509 43.568C66.1669 43.684 65.9689 43.78 65.7569 43.856C65.5489 43.932 65.3329 43.988 65.1089 44.024C64.8849 44.064 64.6629 44.084 64.4429 44.084C64.0229 44.084 63.6349 44.014 63.2789 43.874C62.9269 43.73 62.6209 43.522 62.3609 43.25C62.1049 42.974 61.9049 42.634 61.7609 42.23C61.6169 41.826 61.5449 41.362 61.5449 40.838C61.5449 40.414 61.6089 40.018 61.7369 39.65C61.8689 39.282 62.0569 38.964 62.3009 38.696C62.5449 38.424 62.8429 38.212 63.1949 38.06C63.5469 37.904 63.9429 37.826 64.3829 37.826C64.7469 37.826 65.0829 37.888 65.3909 38.012C65.7029 38.132 65.9709 38.308 66.1949 38.54C66.4229 38.768 66.6009 39.052 66.7289 39.392C66.8569 39.728 66.9209 40.112 66.9209 40.544C66.9209 40.712 66.9029 40.824 66.8669 40.88C66.8309 40.936 66.7629 40.964 66.6629 40.964H62.6009C62.6129 41.348 62.6649 41.682 62.7569 41.966C62.8529 42.25 62.9849 42.488 63.1529 42.68C63.3209 42.868 63.5209 43.01 63.7529 43.106C63.9849 43.198 64.2449 43.244 64.5329 43.244C64.8009 43.244 65.0309 43.214 65.2229 43.154C65.4189 43.09 65.5869 43.022 65.7269 42.95C65.8669 42.878 65.9829 42.812 66.0749 42.752C66.1709 42.688 66.2529 42.656 66.3209 42.656C66.4089 42.656 66.4769 42.69 66.5249 42.758L66.8249 43.148ZM69.3367 35.162V44H68.2687V35.162H69.3367ZM72.1967 37.922V44H71.1287V37.922H72.1967ZM72.4247 36.014C72.4247 36.118 72.4027 36.216 72.3587 36.308C72.3187 36.396 72.2627 36.476 72.1907 36.548C72.1227 36.616 72.0407 36.67 71.9447 36.71C71.8527 36.75 71.7547 36.77 71.6507 36.77C71.5467 36.77 71.4487 36.75 71.3567 36.71C71.2687 36.67 71.1907 36.616 71.1227 36.548C71.0547 36.476 71.0007 36.396 70.9607 36.308C70.9207 36.216 70.9007 36.118 70.9007 36.014C70.9007 35.91 70.9207 35.812 70.9607 35.72C71.0007 35.624 71.0547 35.542 71.1227 35.474C71.1907 35.402 71.2687 35.346 71.3567 35.306C71.4487 35.266 71.5467 35.246 71.6507 35.246C71.7547 35.246 71.8527 35.266 71.9447 35.306C72.0407 35.346 72.1227 35.402 72.1907 35.474C72.2627 35.542 72.3187 35.624 72.3587 35.72C72.4027 35.812 72.4247 35.91 72.4247 36.014ZM79.1595 37.922L76.6815 44H75.7215L73.2435 37.922H74.1135C74.2015 37.922 74.2735 37.944 74.3295 37.988C74.3855 38.032 74.4235 38.084 74.4435 38.144L75.9855 42.056C76.0335 42.204 76.0755 42.348 76.1115 42.488C76.1475 42.628 76.1815 42.768 76.2135 42.908C76.2455 42.768 76.2795 42.628 76.3155 42.488C76.3515 42.348 76.3955 42.204 76.4475 42.056L78.0075 38.144C78.0315 38.08 78.0715 38.028 78.1275 37.988C78.1835 37.944 78.2495 37.922 78.3255 37.922H79.1595ZM84.0429 40.298C84.0429 40.05 84.0069 39.824 83.9349 39.62C83.8669 39.412 83.7649 39.234 83.6289 39.086C83.4969 38.934 83.3349 38.818 83.1429 38.738C82.9509 38.654 82.7329 38.612 82.4889 38.612C81.9769 38.612 81.5709 38.762 81.2709 39.062C80.9749 39.358 80.7909 39.77 80.7189 40.298H84.0429ZM84.9069 43.148C84.7749 43.308 84.6169 43.448 84.4329 43.568C84.2489 43.684 84.0509 43.78 83.8389 43.856C83.6309 43.932 83.4149 43.988 83.1909 44.024C82.9669 44.064 82.7449 44.084 82.5249 44.084C82.1049 44.084 81.7169 44.014 81.3609 43.874C81.0089 43.73 80.7029 43.522 80.4429 43.25C80.1869 42.974 79.9869 42.634 79.8429 42.23C79.6989 41.826 79.6269 41.362 79.6269 40.838C79.6269 40.414 79.6909 40.018 79.8189 39.65C79.9509 39.282 80.1389 38.964 80.3829 38.696C80.6269 38.424 80.9249 38.212 81.2769 38.06C81.6289 37.904 82.0249 37.826 82.4649 37.826C82.8289 37.826 83.1649 37.888 83.4729 38.012C83.7849 38.132 84.0529 38.308 84.2769 38.54C84.5049 38.768 84.6829 39.052 84.8109 39.392C84.9389 39.728 85.0029 40.112 85.0029 40.544C85.0029 40.712 84.9849 40.824 84.9489 40.88C84.9129 40.936 84.8449 40.964 84.7449 40.964H80.6829C80.6949 41.348 80.7469 41.682 80.8389 41.966C80.9349 42.25 81.0669 42.488 81.2349 42.68C81.4029 42.868 81.6029 43.01 81.8349 43.106C82.0669 43.198 82.3269 43.244 82.6149 43.244C82.8829 43.244 83.1129 43.214 83.3049 43.154C83.5009 43.09 83.6689 43.022 83.8089 42.95C83.9489 42.878 84.0649 42.812 84.1569 42.752C84.2529 42.688 84.3349 42.656 84.4029 42.656C84.4909 42.656 84.5589 42.69 84.6069 42.758L84.9069 43.148ZM87.3288 39.14C87.5208 38.724 87.7568 38.4 88.0368 38.168C88.3168 37.932 88.6588 37.814 89.0628 37.814C89.1908 37.814 89.3128 37.828 89.4288 37.856C89.5488 37.884 89.6548 37.928 89.7468 37.988L89.6688 38.786C89.6448 38.886 89.5848 38.936 89.4888 38.936C89.4328 38.936 89.3508 38.924 89.2428 38.9C89.1348 38.876 89.0128 38.864 88.8768 38.864C88.6848 38.864 88.5128 38.892 88.3608 38.948C88.2128 39.004 88.0788 39.088 87.9588 39.2C87.8428 39.308 87.7368 39.444 87.6408 39.608C87.5488 39.768 87.4648 39.952 87.3888 40.16V44H86.3148V37.922H86.9268C87.0428 37.922 87.1228 37.944 87.1668 37.988C87.2108 38.032 87.2408 38.108 87.2568 38.216L87.3288 39.14ZM93.8861 41.264C93.3941 41.28 92.9741 41.32 92.6261 41.384C92.2821 41.444 92.0001 41.524 91.7801 41.624C91.5641 41.724 91.4061 41.842 91.3061 41.978C91.2101 42.114 91.1621 42.266 91.1621 42.434C91.1621 42.594 91.1881 42.732 91.2401 42.848C91.2921 42.964 91.3621 43.06 91.4501 43.136C91.5421 43.208 91.6481 43.262 91.7681 43.298C91.8921 43.33 92.0241 43.346 92.1641 43.346C92.3521 43.346 92.5241 43.328 92.6801 43.292C92.8361 43.252 92.9821 43.196 93.1181 43.124C93.2581 43.052 93.3901 42.966 93.5141 42.866C93.6421 42.766 93.7661 42.652 93.8861 42.524V41.264ZM90.4361 38.78C90.7721 38.456 91.1341 38.214 91.5221 38.054C91.9101 37.894 92.3401 37.814 92.8121 37.814C93.1521 37.814 93.4541 37.87 93.7181 37.982C93.9821 38.094 94.2041 38.25 94.3841 38.45C94.5641 38.65 94.7001 38.892 94.7921 39.176C94.8841 39.46 94.9301 39.772 94.9301 40.112V44H94.4561C94.3521 44 94.2721 43.984 94.2161 43.952C94.1601 43.916 94.1161 43.848 94.0841 43.748L93.9641 43.172C93.8041 43.32 93.6481 43.452 93.4961 43.568C93.3441 43.68 93.1841 43.776 93.0161 43.856C92.8481 43.932 92.6681 43.99 92.4761 44.03C92.2881 44.074 92.0781 44.096 91.8461 44.096C91.6101 44.096 91.3881 44.064 91.1801 44C90.9721 43.932 90.7901 43.832 90.6341 43.7C90.4821 43.568 90.3601 43.402 90.2681 43.202C90.1801 42.998 90.1361 42.758 90.1361 42.482C90.1361 42.242 90.2021 42.012 90.3341 41.792C90.4661 41.568 90.6801 41.37 90.9761 41.198C91.2721 41.026 91.6581 40.886 92.1341 40.778C92.6101 40.666 93.1941 40.602 93.8861 40.586V40.112C93.8861 39.64 93.7841 39.284 93.5801 39.044C93.3761 38.8 93.0781 38.678 92.6861 38.678C92.4221 38.678 92.2001 38.712 92.0201 38.78C91.8441 38.844 91.6901 38.918 91.5581 39.002C91.4301 39.082 91.3181 39.156 91.2221 39.224C91.1301 39.288 91.0381 39.32 90.9461 39.32C90.8741 39.32 90.8121 39.302 90.7601 39.266C90.7081 39.226 90.6641 39.178 90.6281 39.122L90.4361 38.78ZM97.6309 42.536C97.8269 42.8 98.0409 42.986 98.2729 43.094C98.5089 43.202 98.7669 43.256 99.0469 43.256C99.6189 43.256 100.057 43.054 100.361 42.65C100.665 42.246 100.817 41.644 100.817 40.844C100.817 40.1 100.681 39.554 100.409 39.206C100.141 38.854 99.7569 38.678 99.2569 38.678C98.9089 38.678 98.6049 38.758 98.3449 38.918C98.0889 39.078 97.8509 39.304 97.6309 39.596V42.536ZM97.6309 38.798C97.8869 38.502 98.1749 38.266 98.4949 38.09C98.8189 37.914 99.1909 37.826 99.6109 37.826C99.9669 37.826 100.287 37.894 100.571 38.03C100.859 38.166 101.103 38.364 101.303 38.624C101.503 38.88 101.655 39.192 101.759 39.56C101.867 39.928 101.921 40.342 101.921 40.802C101.921 41.294 101.861 41.742 101.741 42.146C101.621 42.55 101.447 42.896 101.219 43.184C100.995 43.468 100.721 43.69 100.397 43.85C100.073 44.006 99.7089 44.084 99.3049 44.084C98.9049 44.084 98.5669 44.01 98.2909 43.862C98.0189 43.71 97.7809 43.496 97.5769 43.22L97.5229 43.772C97.4909 43.924 97.3989 44 97.2469 44H96.5569V35.162H97.6309V38.798ZM104.4 37.922V44H103.332V37.922H104.4ZM104.628 36.014C104.628 36.118 104.606 36.216 104.562 36.308C104.522 36.396 104.466 36.476 104.394 36.548C104.326 36.616 104.244 36.67 104.148 36.71C104.056 36.75 103.958 36.77 103.854 36.77C103.75 36.77 103.652 36.75 103.56 36.71C103.472 36.67 103.394 36.616 103.326 36.548C103.258 36.476 103.204 36.396 103.164 36.308C103.124 36.216 103.104 36.118 103.104 36.014C103.104 35.91 103.124 35.812 103.164 35.72C103.204 35.624 103.258 35.542 103.326 35.474C103.394 35.402 103.472 35.346 103.56 35.306C103.652 35.266 103.75 35.246 103.854 35.246C103.958 35.246 104.056 35.266 104.148 35.306C104.244 35.346 104.326 35.402 104.394 35.474C104.466 35.542 104.522 35.624 104.562 35.72C104.606 35.812 104.628 35.91 104.628 36.014ZM107.259 35.162V44H106.191V35.162H107.259ZM110.119 37.922V44H109.051V37.922H110.119ZM110.347 36.014C110.347 36.118 110.325 36.216 110.281 36.308C110.241 36.396 110.185 36.476 110.113 36.548C110.045 36.616 109.963 36.67 109.867 36.71C109.775 36.75 109.677 36.77 109.573 36.77C109.469 36.77 109.371 36.75 109.279 36.71C109.191 36.67 109.113 36.616 109.045 36.548C108.977 36.476 108.923 36.396 108.883 36.308C108.843 36.216 108.823 36.118 108.823 36.014C108.823 35.91 108.843 35.812 108.883 35.72C108.923 35.624 108.977 35.542 109.045 35.474C109.113 35.402 109.191 35.346 109.279 35.306C109.371 35.266 109.469 35.246 109.573 35.246C109.677 35.246 109.775 35.266 109.867 35.306C109.963 35.346 110.045 35.402 110.113 35.474C110.185 35.542 110.241 35.624 110.281 35.72C110.325 35.812 110.347 35.91 110.347 36.014ZM113.739 44.096C113.259 44.096 112.889 43.962 112.629 43.694C112.373 43.426 112.245 43.04 112.245 42.536V38.816H111.513C111.449 38.816 111.395 38.798 111.351 38.762C111.307 38.722 111.285 38.662 111.285 38.582V38.156L112.281 38.03L112.527 36.152C112.539 36.092 112.565 36.044 112.605 36.008C112.649 35.968 112.705 35.948 112.773 35.948H113.313V38.042H115.071V38.816H113.313V42.464C113.313 42.72 113.375 42.91 113.499 43.034C113.623 43.158 113.783 43.22 113.979 43.22C114.091 43.22 114.187 43.206 114.267 43.178C114.351 43.146 114.423 43.112 114.483 43.076C114.543 43.04 114.593 43.008 114.633 42.98C114.677 42.948 114.715 42.932 114.747 42.932C114.803 42.932 114.853 42.966 114.897 43.034L115.209 43.544C115.025 43.716 114.803 43.852 114.543 43.952C114.283 44.048 114.015 44.096 113.739 44.096ZM121.418 37.922L118.028 45.794C117.992 45.874 117.946 45.938 117.89 45.986C117.838 46.034 117.756 46.058 117.644 46.058H116.852L117.962 43.646L115.454 37.922H116.378C116.47 37.922 116.542 37.946 116.594 37.994C116.65 38.038 116.688 38.088 116.708 38.144L118.334 41.972C118.398 42.14 118.452 42.316 118.496 42.5C118.552 42.312 118.612 42.134 118.676 41.966L120.254 38.144C120.278 38.08 120.318 38.028 120.374 37.988C120.434 37.944 120.5 37.922 120.572 37.922H121.418Z" fill="#1E212C"/>
</g>
</g>
<defs>
<clipPath id="clip0_147_812">
<rect width="122" height="48" fill="white"/>
</clipPath>
<clipPath id="clip1_147_812">
<rect width="40" height="40" fill="white" transform="translate(0 4)"/>
</clipPath>
<clipPath id="clip2_147_812">
<rect width="70" height="48" fill="white" transform="translate(52)"/>
</clipPath>
</defs>
</svg>
