<svg width="17" height="17" viewBox="0 0 17 17" fill="none" xmlns="http://www.w3.org/2000/svg">
<path d="M8.67187 4.83268C8.67187 4.46449 8.3734 4.16602 8.00521 4.16602C7.63702 4.16602 7.33854 4.46449 7.33854 4.83268V8.49935C7.33854 8.67616 7.40878 8.84573 7.5338 8.97075L9.5338 10.9708C9.79415 11.2311 10.2163 11.2311 10.4766 10.9708C10.737 10.7104 10.737 10.2883 10.4766 10.0279L8.67187 8.22321V4.83268Z" fill="#787A80"/>
<path fill-rule="evenodd" clip-rule="evenodd" d="M8.00521 1.16602C3.95512 1.16602 0.671875 4.44926 0.671875 8.49935C0.671875 12.5494 3.95512 15.8327 8.00521 15.8327C12.0553 15.8327 15.3385 12.5494 15.3385 8.49935C15.3385 4.44926 12.0553 1.16602 8.00521 1.16602ZM2.00521 8.49935C2.00521 5.18564 4.6915 2.49935 8.00521 2.49935C11.3189 2.49935 14.0052 5.18564 14.0052 8.49935C14.0052 11.8131 11.3189 14.4993 8.00521 14.4993C4.6915 14.4993 2.00521 11.8131 2.00521 8.49935Z" fill="#787A80"/>
</svg>
