<svg width="80" height="80" viewBox="0 0 80 80" fill="none" xmlns="http://www.w3.org/2000/svg">
<g clip-path="url(#clip0_1772_2380)">
<path opacity="0.3" fill-rule="evenodd" clip-rule="evenodd" d="M40 72C57.6731 72 72 57.6731 72 40C72 22.3269 57.6731 8 40 8C22.3269 8 8 22.3269 8 40C8 57.6731 22.3269 72 40 72ZM40 80C62.0914 80 80 62.0914 80 40C80 17.9086 62.0914 0 40 0C17.9086 0 0 17.9086 0 40C0 62.0914 17.9086 80 40 80Z" fill="#F52F6E"/>
<path d="M40 72C57.6731 72 72 57.6731 72 40C72 22.3269 57.6731 8 40 8V0C62.0914 0 80 17.9086 80 40C80 62.0914 62.0914 80 40 80C17.9086 80 0 62.0914 0 40C0 36.547 0.43753 33.1962 1.26017 30L9 32.0317C8.34714 34.5791 8 37.249 8 40C8 57.6731 22.3269 72 40 72Z" fill="#F52F6E"/>
</g>
<defs>
<clipPath id="clip0_1772_2380">
<rect width="80" height="80" fill="white"/>
</clipPath>
</defs>
</svg>
