<svg width="48" height="48" viewBox="0 0 48 48" fill="none" xmlns="http://www.w3.org/2000/svg">
<g clip-path="url(#clip0_147_946)">
<path d="M47.9951 21.0766C47.3675 15.7432 44.922 10.7061 41.1091 6.89305C37.2962 3.07996 32.2592 0.634217 26.9259 0.00637434C26.6597 -0.0247506 26.3935 0.0590617 26.1934 0.236905C25.9934 0.414842 25.8789 0.669842 25.8789 0.937498V9.1018C25.8789 9.61948 26.2987 10.0393 26.8164 10.0393C27.3341 10.0393 27.7539 9.61948 27.7539 9.1018V2.01656C37.1355 3.56774 44.4343 10.8669 45.985 20.2486H27.7539V15.5697C27.7539 15.052 27.3341 14.6322 26.8164 14.6322C26.2987 14.6322 25.8789 15.052 25.8789 15.5697V21.1861C25.8789 21.7038 26.2987 22.1236 26.8164 22.1236H47.0641C47.3318 22.1236 47.5868 22.0093 47.7645 21.8091C47.9424 21.6091 48.0264 21.3425 47.9951 21.0766Z" fill="#7772F1"/>
<path d="M26.8164 11.3467C26.2987 11.3467 25.8789 11.7665 25.8789 12.2842V12.3089C25.8789 12.8266 26.2987 13.2464 26.8164 13.2464C27.3342 13.2464 27.7539 12.8266 27.7539 12.3089V12.2842C27.7539 11.7665 27.3341 11.3467 26.8164 11.3467Z" fill="#7772F1"/>
<path d="M22.0857 41.5101C18.3019 41.4186 14.7201 40.1282 11.7275 37.7784C11.3201 37.4585 10.7309 37.5294 10.4112 37.9368C10.0913 38.344 10.1623 38.9333 10.5695 39.2531C13.8826 41.8545 17.8491 43.2831 22.0404 43.3844C22.0481 43.3846 22.0558 43.3847 22.0634 43.3847C22.5706 43.3847 22.9878 42.9798 23.0003 42.4699C23.0129 41.9524 22.6033 41.5226 22.0857 41.5101Z" fill="#7772F1"/>
<path d="M25.6736 42.2064C25.6122 41.6923 25.1452 41.3253 24.6317 41.3866L24.6117 41.3889C24.0977 41.4502 23.7305 41.9167 23.7918 42.4308C23.8487 42.9073 24.2534 43.2573 24.7216 43.2573C24.7587 43.2573 24.7961 43.2551 24.8338 43.2507L24.8537 43.2483C25.3678 43.187 25.7349 42.7205 25.6736 42.2064Z" fill="#7772F1"/>
<path d="M44.4374 24.375C44.4208 24.375 44.4043 24.3754 44.388 24.3763H23.625V3.5625C23.625 3.04481 23.2051 2.625 22.6875 2.625C16.6274 2.625 10.9301 4.98496 6.64499 9.26999C2.35996 13.5551 0 19.2524 0 25.3125C0 31.3725 2.35996 37.0698 6.64499 41.3549C10.9301 45.64 16.6274 47.9999 22.6875 47.9999C28.7475 47.9999 34.4448 45.64 38.7299 41.3549C43.015 37.0698 45.3749 31.3725 45.3749 25.3125C45.3749 24.7947 44.9551 24.375 44.4374 24.375ZM22.6875 46.1249C11.2114 46.1249 1.875 36.7885 1.875 25.3125C1.875 14.1509 10.7077 5.01328 21.75 4.5209V25.3138C21.75 25.6261 21.9032 25.9019 22.138 26.0722C22.1379 26.0725 22.1377 26.0728 22.1376 26.0731L38.9685 38.262C35.1522 43.0504 29.2724 46.1249 22.6875 46.1249ZM40.0702 36.7448L25.5804 26.2513H43.479C43.3067 30.1144 42.0752 33.7063 40.0702 36.7448Z" fill="#7772F1"/>
</g>
<defs>
<clipPath id="clip0_147_946">
<rect width="48" height="48" fill="white"/>
</clipPath>
</defs>
</svg>
