<svg width="48" height="48" viewBox="0 0 48 48" fill="none" xmlns="http://www.w3.org/2000/svg">
<path d="M36.9375 22.6016C36.4197 22.6016 36 23.0214 36 23.5391V23.6797C36 24.1975 36.4197 24.6172 36.9375 24.6172C37.4553 24.6172 37.875 24.1974 37.875 23.6797V23.5391C37.875 23.0213 37.4553 22.6016 36.9375 22.6016Z" fill="#7772F1"/>
<path d="M42.9375 17.6128V8.07031C42.9375 6.15762 41.3814 4.60156 39.4688 4.60156C38.6659 4.60156 37.9264 4.87653 37.3379 5.33619L27.3061 9.09378C26.8212 9.27537 26.5754 9.81566 26.757 10.3005C26.898 10.6771 27.2554 10.9094 27.6351 10.9094C27.7444 10.9094 27.8555 10.8902 27.9637 10.8495L36.0087 7.83603C36.0036 7.91347 35.9999 7.99138 35.9999 8.07013V18.9451C35.9999 19.4628 36.4196 19.8826 36.9374 19.8826C37.4552 19.8826 37.8749 19.4628 37.8749 18.9451V8.07013C37.8749 7.19131 38.5898 6.47638 39.4687 6.47638C40.3475 6.47638 41.0624 7.19131 41.0624 8.07013V39.0076C41.0624 39.8864 40.3475 40.6014 39.4687 40.6014C38.5898 40.6014 37.8749 39.8864 37.8749 39.0076V27.6639C37.8749 27.1462 37.4552 26.7264 36.9374 26.7264C36.4196 26.7264 35.9999 27.1462 35.9999 27.6639V39.0076C35.9999 39.0864 36.0035 39.1643 36.0087 39.2417L12.375 30.3892V16.689L21.891 13.1246C22.3759 12.943 22.6217 12.4027 22.4401 11.9178C22.2584 11.4329 21.7181 11.1867 21.2333 11.3688L11.2677 15.1017H5.53125C2.48128 15.1017 0 17.5829 0 20.6329V26.4454C0 29.4355 2.38519 31.8773 5.35266 31.9722L9.48356 42.7953C9.62222 43.1586 9.97069 43.3986 10.3595 43.3986H15.797C16.1054 43.3986 16.3942 43.2469 16.5691 42.9928C16.744 42.7388 16.7828 42.415 16.6729 42.1269L13.0543 32.6459L37.338 41.7421C37.9265 42.2018 38.666 42.4767 39.4688 42.4767C41.3815 42.4767 42.9376 40.9207 42.9376 39.008V29.4654C45.8021 29.0138 48 26.5286 48 23.5391C48 20.5496 45.8021 18.0642 42.9375 17.6128ZM5.53125 30.1016C3.51516 30.1016 1.875 28.4614 1.875 26.4453V20.6328C1.875 18.6167 3.51516 16.9766 5.53125 16.9766H10.5V30.1016H6H5.53125ZM14.4356 41.5234H11.005V41.5235L7.36134 31.9766H10.7919L14.4356 41.5234ZM42.9375 27.5552V19.5227C44.7617 19.9485 46.125 21.587 46.125 23.539C46.125 25.4909 44.7617 27.1295 42.9375 27.5552Z" fill="#7772F1"/>
<path d="M25.2859 10.4369C25.1115 10.2625 24.8696 10.1621 24.6231 10.1621C24.3765 10.1621 24.1346 10.2624 23.9602 10.4369C23.7859 10.6112 23.6855 10.853 23.6855 11.0996C23.6855 11.3463 23.7859 11.5881 23.9602 11.7624C24.1346 11.9368 24.3765 12.0371 24.6231 12.0371C24.8696 12.0371 25.1115 11.9369 25.2859 11.7624C25.4602 11.5881 25.5606 11.3463 25.5606 11.0996C25.5606 10.853 25.4602 10.6112 25.2859 10.4369Z" fill="#7772F1"/>
<path d="M6.85031 20.595C6.67594 20.4197 6.43406 20.3203 6.1875 20.3203C5.94094 20.3203 5.69906 20.4197 5.52469 20.595C5.35031 20.7694 5.25 21.0112 5.25 21.2578C5.25 21.5044 5.35031 21.7453 5.52469 21.9206C5.69906 22.095 5.94094 22.1953 6.1875 22.1953C6.43406 22.1953 6.67594 22.095 6.85031 21.9206C7.02469 21.7463 7.125 21.5044 7.125 21.2578C7.125 21.0103 7.02469 20.7694 6.85031 20.595Z" fill="#7772F1"/>
<path d="M7.875 25.6953H4.875C4.35722 25.6953 3.9375 26.1151 3.9375 26.6328C3.9375 27.1505 4.35722 27.5703 4.875 27.5703H7.875C8.39278 27.5703 8.8125 27.1506 8.8125 26.6328C8.8125 26.115 8.39278 25.6953 7.875 25.6953Z" fill="#7772F1"/>
</svg>
